M48
;GenerationSoftware,Autodesk,EAGLE,8.6.2*%
;CreationDate,2018-02-26T10:32:36Z*%
FMAT,2
ICI,OFF
METRIC,TZ,000.000
T15C0.300
T14C0.400
T13C0.600
T12C0.610
T11C0.700
T10C0.800
T9C0.813
T8C0.900
T7C0.914
T6C1.000
T5C1.016
T4C1.500
T3C2.100
T2C3.200
T1C7.000
%
G90
M71
T1
X89000Y11000
X78000Y53000
T2
X96000Y9000
X96000Y43000
X80000Y46000
X37000Y37000
X37000Y3000
X3000Y3000
X3175Y95910
X62000Y96000
X96000Y96000
X96000Y62000
X62000Y62000
X46000Y46000
X46000Y37000
X80000Y37000
X80000Y3000
X46000Y3000
X3175Y57175
X41910Y95910
X41910Y57175
X3000Y37000
T3
X88500Y87500
X92000Y87500
T4
X60600Y91000
X65400Y91000
T5
X6350Y90830
X6350Y80670
T6
X56750Y22300
X50250Y17700
X56750Y17700
X59750Y22300
X66250Y22300
X59750Y17700
X66250Y17700
X69250Y22300
X75750Y22300
X69250Y17700
X75750Y17700
X50250Y30300
X56750Y30300
X50250Y25700
X56750Y25700
X59750Y30300
X66250Y30300
X59750Y25700
X66250Y25700
X69250Y30300
X75750Y30300
X69250Y25700
X75750Y25700
X50250Y38300
X56750Y38300
X50250Y33700
X56750Y33700
X59750Y38300
X59750Y33700
X66250Y33700
X69250Y38300
X75750Y38300
X69250Y33700
X75750Y33700
X66250Y38300
X50250Y6300
X56750Y6300
X50250Y1700
X56750Y1700
X59750Y6300
X66250Y6300
X59750Y1700
X69250Y6300
X75750Y6300
X69250Y1700
X75750Y1700
X50250Y14300
X56750Y14300
X50250Y9700
X56750Y9700
X59750Y14300
X66250Y1700
X66250Y14300
X59750Y9700
X66250Y9700
X69250Y14300
X75750Y14300
X69250Y9700
X75750Y9700
X50250Y22300
T7
X25400Y56540
X35560Y56540
X27940Y56540
X33020Y56540
X10160Y56540
X12700Y56540
X22860Y56540
T8
X70500Y97000
X73500Y97000
T9
X35560Y75590
X33020Y78130
X35560Y80670
X26670Y65430
X29210Y65430
X13970Y78130
X11430Y78130
X11430Y80670
X21590Y78130
X19050Y78130
X19050Y80670
X35560Y96545
X35560Y83845
X41910Y64160
X39370Y64160
X35560Y64160
X33020Y64160
X31115Y85750
X26035Y85750
X29845Y69875
X24765Y69875
X6985Y78130
X6985Y70510
X17145Y72415
X9525Y72415
X13970Y70510
X24765Y83210
X32385Y83210
X28575Y96545
X28575Y88925
X29210Y62890
X13970Y62890
X24765Y96545
X17145Y96545
X21590Y70510
X21590Y62890
T10
X45000Y29000
X47000Y31000
X45000Y31000
X47000Y33000
X45000Y33000
X53000Y74000
X55000Y72000
X55000Y70000
X53000Y70000
X55000Y68000
X53000Y68000
X55000Y74000
X55000Y66000
X53000Y66000
X47000Y7000
X45000Y7000
X47000Y9000
X45000Y9000
X47000Y11000
X53000Y76000
X45000Y11000
X47000Y13000
X45000Y13000
X47000Y15000
X45000Y15000
X45000Y17000
X4000Y7000
X2000Y7000
X4000Y9000
X2000Y9000
X4000Y11000
X2000Y11000
X4000Y13000
X2000Y13000
X4000Y15000
X2000Y15000
X2000Y17000
X4000Y19000
X2000Y19000
X4000Y17000
X4000Y21000
X4000Y23000
X2000Y23000
X4000Y25000
X2000Y25000
X4000Y27000
X2000Y27000
X4000Y29000
X2000Y29000
X4000Y31000
X2000Y31000
X4000Y33000
X2000Y33000
X19300Y38700
X14950Y38700
X14950Y1300
X19300Y1300
X9200Y1300
X13550Y1300
X13550Y38700
X9200Y38700
X49000Y92000
X55000Y76000
X2000Y21000
X53000Y92000
X51000Y92000
X51000Y90000
X49000Y90000
X51000Y88000
X49000Y88000
X51000Y86000
X49000Y86000
X51000Y84000
X49000Y84000
X49000Y82000
X51000Y80000
X49000Y80000
X51000Y82000
X51000Y78000
X49000Y78000
X51000Y76000
X49000Y76000
X51000Y74000
X49000Y74000
X51000Y72000
X49000Y72000
X51000Y70000
X49000Y70000
X51000Y68000
X49000Y68000
X51000Y66000
X49000Y66000
X55000Y92000
X53000Y72000
X55000Y90000
X53000Y90000
X55000Y88000
X53000Y88000
X55000Y86000
X53000Y86000
X55000Y84000
X53000Y84000
X53000Y82000
X55000Y80000
X53000Y80000
X55000Y82000
X55000Y78000
X53000Y78000
X47000Y19000
X45000Y19000
X47000Y17000
X47000Y21000
X45000Y21000
X47000Y23000
X45000Y23000
X47000Y25000
X45000Y25000
X47000Y27000
X45000Y27000
X47000Y29000
T11
X73000Y50000
X72500Y54000
X92000Y43000
X92000Y29000
X92000Y16000
X88000Y16500
X60000Y50000
X46000Y50000
X96000Y87000
X85500Y64000
X75500Y64000
X85500Y87000
X75500Y87000
T12
X17780Y88925
X15240Y91465
X12700Y88925
T13
X61500Y74500
X61500Y76500
T14
X33655Y60985
T15
X60700Y21000
X65300Y21000
X9800Y15050
X10000Y5150
X27050Y15050
X32800Y18350
X27050Y24950
X21300Y18350
X21300Y24950
X32800Y15050
X21300Y11750
X27050Y18350
X32800Y21650
X21300Y21650
X15550Y11750
X10000Y34850
X15550Y28250
X21500Y5150
X27250Y34850
X33000Y38150
X33000Y1850
X7500Y4100
X13250Y5300
X18800Y7400
X24550Y10700
X30300Y17300
X36050Y17300
X14250Y37150
X14250Y2850
X13900Y8400
X8150Y19100
X8350Y2900
X8850Y18350
X15050Y9500
X15050Y12800
X15050Y16100
X15050Y19400
X15050Y20600
X15050Y23900
X15050Y27200
X15050Y30500
X8850Y28250
X8200Y27400
X8350Y37100
X19900Y5150
X46000Y42850
X83150Y37000
X80000Y40150
X80000Y42850
X83150Y3000
X96000Y5850
X96000Y46150
X52000Y64650
X52000Y93350
X45150Y96000
X45150Y57000
X3000Y53850
X21500Y34850
X37000Y40150
X3000Y40150
X40150Y37000
X40150Y3000
X42850Y3000
X42850Y37000
X83150Y46000
X64300Y12000
X58850Y62000
X58850Y96000
X42850Y46000
X61700Y12000
X61700Y28000
X64300Y28000
X63000Y34000
X61800Y4700
X65000Y4400
X61800Y5600
X52200Y13800
X52200Y10100
X96000Y58850
X54100Y33900
X15200Y34700
X15200Y5300
X19850Y34850
X19650Y28250
X25400Y15050
X25400Y24950
X31350Y34850
X31150Y21650
X31150Y15050
X19650Y24950
X42000Y53850
X46000Y40150
M30