%
M48
M72
T01C0.01181
T02C0.03150
T03C0.12598
%
T01
X52244Y38858
X55591Y34134
X62087Y42992
X74882Y43583
X82559Y43583
X78819Y33937
X96732Y51850
X101063Y42992
X107362Y42992
X119370Y64843
X106575Y68976
X122717Y81969
X129213Y81969
X129213Y94961
X142008Y90827
X145354Y81969
X151850Y81969
X151850Y94961
X151850Y107953
X145354Y107953
X129213Y120945
X122717Y120945
X106575Y120945
X100079Y120945
X100079Y133937
X83937Y133937
X81969Y129803
X81969Y142795
X82559Y159331
X78819Y168976
X62087Y159921
X55591Y168780
X57559Y133937
X55000Y130591
X81969Y116811
X81969Y103819
X81969Y99094
X81969Y86102
X81969Y73110
X83937Y68976
X81969Y60118
X77441Y55787
X61299Y81969
X57559Y94961
X54803Y97913
X106575Y94961
X106575Y107953
X107362Y159921
X100866Y159921
X130000Y159921
X146142Y159921
X152638Y172913
X164646Y90827
X152638Y30000
T02
X98701Y27835
X81575Y27835
X76063Y27835
X58937Y27835
X38465Y50276
X38465Y58150
X38465Y66024
X38465Y73898
X38465Y81772
X38465Y89646
X38465Y97520
X38465Y105394
X38465Y113268
X38465Y121142
X38465Y129016
X38465Y136890
X38465Y144764
X38465Y152638
X30591Y152638
X30591Y144764
X30591Y136890
X30591Y129016
X30591Y121142
X30591Y113268
X30591Y105394
X30591Y97520
X30591Y89646
X30591Y81772
X30591Y73898
X30591Y66024
X30591Y58150
X30591Y50276
X58937Y175079
X76063Y175079
X81575Y175079
X98701Y175079
T03
X34528Y34528
X34528Y168386
X168386Y168386
X168386Y34528
M30
