M48
;GenerationSoftware,Autodesk,EAGLE,9.1.3*%
;CreationDate,2018-08-23T15:38:07Z*%
FMAT,2
ICI,OFF
METRIC,TZ,000.000
T4C0.300
T3C0.800
T2C1.000
T1C3.200
%
G90
M71
T1
X3000Y37000
X37000Y37000
X37000Y3000
X3000Y3000
X37000Y46000
X46000Y37000
X80000Y37000
X80000Y3000
X46000Y3000
X3000Y46000
X46000Y46000
X46000Y80000
X80000Y80000
X80000Y46000
X3000Y80000
X37000Y80000
T2
X16750Y73300
X23250Y73300
X16750Y68700
X23250Y68700
X26250Y73300
X32750Y73300
X26250Y68700
X32750Y68700
X7250Y81300
X13750Y81300
X7250Y76700
X13750Y76700
X16750Y81300
X23250Y81300
X16750Y76700
X23250Y76700
X26250Y81300
X32750Y81300
X26250Y76700
X32750Y76700
X75750Y60700
X50250Y49300
X56750Y49300
X50250Y44700
X56750Y44700
X59750Y49300
X66250Y49300
X59750Y44700
X66250Y44700
X69250Y49300
X75750Y49300
X69250Y44700
X75750Y44700
X50250Y57300
X56750Y57300
X50250Y52700
X56750Y52700
X59750Y57300
X66250Y57300
X59750Y52700
X66250Y52700
X69250Y57300
X75750Y57300
X69250Y52700
X75750Y52700
X50250Y65300
X56750Y65300
X50250Y60700
X56750Y60700
X59750Y65300
X66250Y65300
X59750Y60700
X7250Y6300
X13750Y6300
X7250Y1700
X13750Y1700
X16750Y6300
X23250Y6300
X16750Y1700
X23250Y1700
X26250Y6300
X32750Y6300
X26250Y1700
X32750Y1700
X7250Y14300
X13750Y14300
X7250Y9700
X13750Y9700
X16750Y14300
X23250Y14300
X16750Y9700
X23250Y9700
X26250Y14300
X32750Y14300
X26250Y9700
X32750Y9700
X7250Y22300
X13750Y22300
X7250Y17700
X13750Y17700
X16750Y22300
X23250Y22300
X16750Y17700
X23250Y17700
X26250Y22300
X32750Y22300
X26250Y17700
X32750Y17700
X7250Y30300
X13750Y30300
X7250Y25700
X13750Y25700
X16750Y30300
X23250Y30300
X16750Y25700
X23250Y25700
X26250Y30300
X32750Y30300
X26250Y25700
X32750Y25700
X7250Y38300
X13750Y38300
X7250Y33700
X13750Y33700
X16750Y38300
X23250Y38300
X16750Y33700
X23250Y33700
X26250Y38300
X32750Y38300
X26250Y33700
X32750Y33700
X66250Y60700
X69250Y65300
X75750Y65300
X69250Y60700
X50250Y73300
X56750Y73300
X50250Y68700
X56750Y68700
X59750Y73300
X66250Y73300
X59750Y68700
X66250Y68700
X69250Y73300
X75750Y73300
X69250Y68700
X75750Y68700
X50250Y81300
X56750Y81300
X50250Y76700
X56750Y76700
X59750Y81300
X66250Y81300
X59750Y76700
X66250Y76700
X69250Y81300
X75750Y81300
X69250Y76700
X75750Y76700
X50250Y6300
X56750Y6300
X50250Y1700
X56750Y1700
X59750Y6300
X66250Y6300
X59750Y1700
X66250Y1700
X69250Y6300
X75750Y6300
X69250Y1700
X75750Y1700
X50250Y14300
X56750Y14300
X50250Y9700
X56750Y9700
X59750Y14300
X66250Y14300
X59750Y9700
X66250Y9700
X69250Y14300
X75750Y14300
X69250Y9700
X75750Y9700
X50250Y22300
X56750Y22300
X50250Y17700
X56750Y17700
X59750Y22300
X66250Y22300
X59750Y17700
X66250Y17700
X69250Y22300
X75750Y22300
X69250Y17700
X75750Y17700
X50250Y30300
X56750Y30300
X50250Y25700
X56750Y25700
X59750Y30300
X66250Y30300
X59750Y25700
X66250Y25700
X69250Y30300
X75750Y30300
X69250Y25700
X75750Y25700
X50250Y38300
X56750Y38300
X50250Y33700
X56750Y33700
X59750Y38300
X66250Y38300
X59750Y33700
X66250Y33700
X69250Y38300
X75750Y38300
X69250Y33700
X75750Y33700
X7250Y49300
X13750Y49300
X7250Y44700
X13750Y44700
X16750Y49300
X23250Y49300
X16750Y44700
X23250Y44700
X26250Y49300
X32750Y49300
X26250Y44700
X32750Y44700
X7250Y57300
X13750Y57300
X7250Y52700
X13750Y52700
X16750Y57300
X23250Y57300
X16750Y52700
X23250Y52700
X26250Y57300
X32750Y57300
X26250Y52700
X32750Y52700
X7250Y65300
X13750Y65300
X7250Y60700
X13750Y60700
X16750Y65300
X23250Y65300
X16750Y60700
X23250Y60700
X26250Y65300
X32750Y65300
X26250Y60700
X32750Y60700
X7250Y73300
X13750Y73300
X7250Y68700
X13750Y68700
T3
X4000Y58000
X2000Y58000
X2000Y60000
X47000Y11000
X2000Y62000
X4000Y60000
X4000Y64000
X2000Y64000
X4000Y66000
X2000Y66000
X4000Y68000
X2000Y68000
X4000Y70000
X2000Y70000
X4000Y72000
X2000Y72000
X4000Y74000
X2000Y74000
X4000Y76000
X2000Y76000
X47000Y19000
X45000Y11000
X47000Y13000
X45000Y13000
X47000Y15000
X47000Y50000
X45000Y50000
X47000Y52000
X45000Y52000
X47000Y54000
X45000Y54000
X47000Y56000
X47000Y58000
X45000Y58000
X45000Y60000
X47000Y62000
X45000Y62000
X47000Y60000
X47000Y64000
X45000Y64000
X47000Y66000
X45000Y66000
X47000Y68000
X45000Y68000
X47000Y70000
X45000Y70000
X47000Y72000
X45000Y72000
X47000Y74000
X45000Y74000
X47000Y76000
X45000Y76000
X4000Y7000
X2000Y7000
X4000Y9000
X2000Y9000
X4000Y11000
X2000Y11000
X4000Y13000
X2000Y13000
X4000Y15000
X2000Y15000
X2000Y17000
X4000Y19000
X2000Y19000
X4000Y17000
X4000Y21000
X2000Y21000
X4000Y23000
X2000Y23000
X4000Y25000
X2000Y25000
X4000Y27000
X2000Y27000
X4000Y29000
X2000Y29000
X4000Y31000
X2000Y31000
X4000Y33000
X2000Y33000
X45000Y15000
X45000Y17000
X45000Y56000
X45000Y19000
X47000Y17000
X47000Y21000
X45000Y21000
X47000Y23000
X45000Y23000
X47000Y25000
X45000Y25000
X47000Y27000
X45000Y27000
X47000Y29000
X45000Y29000
X47000Y31000
X45000Y31000
X47000Y33000
X45000Y33000
X47000Y7000
X45000Y7000
X47000Y9000
X45000Y9000
X4000Y50000
X2000Y50000
X4000Y52000
X2000Y52000
X4000Y54000
X2000Y54000
X4000Y56000
X2000Y56000
X4000Y62000
T4
X21300Y12000
X18700Y12000
X18700Y28000
X21300Y28000
X20000Y34000
X18800Y4700
X22000Y4400
X18800Y5600
X9200Y13800
X9200Y10100
X11100Y33900
X17700Y21000
X22300Y21000
X64300Y12000
X61700Y12000
X61700Y28000
X64300Y28000
X63000Y34000
X61800Y4700
X65000Y4400
X52200Y13800
X52200Y10100
X54100Y33900
X60700Y21000
X65300Y21000
X21300Y55000
X18700Y55000
X18700Y71000
X21300Y71000
X20000Y77000
X18800Y47700
X22000Y47400
X18800Y48600
X9200Y56800
X9200Y53100
X11100Y76900
X17700Y64000
X22300Y64000
X64300Y55000
X61700Y55000
X61700Y71000
X64300Y71000
X63000Y77000
X61800Y47700
X65000Y47400
X61800Y48600
X52200Y56800
X52200Y53100
X54100Y76900
X60700Y64000
X65300Y64000
X61800Y5600
M30