G04 EAGLE Gerber RS-274X export*
G75*
%MOMM*%
%FSLAX34Y34*%
%LPD*%
%AMOC8*
5,1,8,0,0,1.08239X$1,22.5*%
G01*
%ADD10C,0.000000*%
%ADD11C,1.540000*%
%ADD12C,0.500000*%
%ADD13P,1.558642X8X112.500000*%
%ADD14P,5.563485X8X22.500000*%

G36*
X775005Y739999D02*
X775005Y739999D01*
X775005Y740000D01*
X775005Y760000D01*
X775001Y760005D01*
X775000Y760005D01*
X675000Y760005D01*
X674995Y760001D01*
X674995Y760000D01*
X674995Y740000D01*
X674999Y739995D01*
X675000Y739995D01*
X775000Y739995D01*
X775005Y739999D01*
G37*
G36*
X345005Y739999D02*
X345005Y739999D01*
X345005Y740000D01*
X345005Y760000D01*
X345001Y760005D01*
X345000Y760005D01*
X245000Y760005D01*
X244995Y760001D01*
X244995Y760000D01*
X244995Y740000D01*
X244999Y739995D01*
X245000Y739995D01*
X345000Y739995D01*
X345005Y739999D01*
G37*
G36*
X345005Y309999D02*
X345005Y309999D01*
X345005Y310000D01*
X345005Y330000D01*
X345001Y330005D01*
X345000Y330005D01*
X245000Y330005D01*
X244995Y330001D01*
X244995Y330000D01*
X244995Y310000D01*
X244999Y309995D01*
X245000Y309995D01*
X345000Y309995D01*
X345005Y309999D01*
G37*
G36*
X775005Y309999D02*
X775005Y309999D01*
X775005Y310000D01*
X775005Y330000D01*
X775001Y330005D01*
X775000Y330005D01*
X675000Y330005D01*
X674995Y330001D01*
X674995Y330000D01*
X674995Y310000D01*
X674999Y309995D01*
X675000Y309995D01*
X775000Y309995D01*
X775005Y309999D01*
G37*
G36*
X570005Y739999D02*
X570005Y739999D01*
X570005Y740000D01*
X570005Y760000D01*
X570001Y760005D01*
X570000Y760005D01*
X500000Y760005D01*
X499995Y760001D01*
X499995Y760000D01*
X499995Y740000D01*
X499999Y739995D01*
X500000Y739995D01*
X570000Y739995D01*
X570005Y739999D01*
G37*
G36*
X570005Y309999D02*
X570005Y309999D01*
X570005Y310000D01*
X570005Y330000D01*
X570001Y330005D01*
X570000Y330005D01*
X500000Y330005D01*
X499995Y330001D01*
X499995Y330000D01*
X499995Y310000D01*
X499999Y309995D01*
X500000Y309995D01*
X570000Y309995D01*
X570005Y309999D01*
G37*
G36*
X140005Y739999D02*
X140005Y739999D01*
X140005Y740000D01*
X140005Y760000D01*
X140001Y760005D01*
X140000Y760005D01*
X70000Y760005D01*
X69995Y760001D01*
X69995Y760000D01*
X69995Y740000D01*
X69999Y739995D01*
X70000Y739995D01*
X140000Y739995D01*
X140005Y739999D01*
G37*
G36*
X140005Y309999D02*
X140005Y309999D01*
X140005Y310000D01*
X140005Y330000D01*
X140001Y330005D01*
X140000Y330005D01*
X70000Y330005D01*
X69995Y330001D01*
X69995Y330000D01*
X69995Y310000D01*
X69999Y309995D01*
X70000Y309995D01*
X140000Y309995D01*
X140005Y309999D01*
G37*
G36*
X147002Y21997D02*
X147002Y21997D01*
X147004Y21996D01*
X170004Y44996D01*
X170004Y44999D01*
X170005Y45000D01*
X170005Y50000D01*
X170003Y50002D01*
X170004Y50004D01*
X162004Y58004D01*
X162001Y58004D01*
X162000Y58005D01*
X158000Y58005D01*
X157998Y58003D01*
X157996Y58004D01*
X134996Y35004D01*
X134996Y35001D01*
X134995Y35000D01*
X134995Y30000D01*
X134997Y29998D01*
X134996Y29996D01*
X142996Y21996D01*
X142999Y21996D01*
X143000Y21995D01*
X147000Y21995D01*
X147002Y21997D01*
G37*
G36*
X577002Y21997D02*
X577002Y21997D01*
X577004Y21996D01*
X600004Y44996D01*
X600004Y44999D01*
X600005Y45000D01*
X600005Y50000D01*
X600003Y50002D01*
X600004Y50004D01*
X592004Y58004D01*
X592001Y58004D01*
X592000Y58005D01*
X588000Y58005D01*
X587998Y58003D01*
X587996Y58004D01*
X564996Y35004D01*
X564996Y35001D01*
X564995Y35000D01*
X564995Y30000D01*
X564997Y29998D01*
X564996Y29996D01*
X572996Y21996D01*
X572999Y21996D01*
X573000Y21995D01*
X577000Y21995D01*
X577002Y21997D01*
G37*
G36*
X147002Y451997D02*
X147002Y451997D01*
X147004Y451996D01*
X170004Y474996D01*
X170004Y474999D01*
X170005Y475000D01*
X170005Y480000D01*
X170003Y480002D01*
X170004Y480004D01*
X162004Y488004D01*
X162001Y488004D01*
X162000Y488005D01*
X158000Y488005D01*
X157998Y488003D01*
X157996Y488004D01*
X134996Y465004D01*
X134996Y465001D01*
X134995Y465000D01*
X134995Y460000D01*
X134997Y459998D01*
X134996Y459996D01*
X142996Y451996D01*
X142999Y451996D01*
X143000Y451995D01*
X147000Y451995D01*
X147002Y451997D01*
G37*
G36*
X577002Y451997D02*
X577002Y451997D01*
X577004Y451996D01*
X600004Y474996D01*
X600004Y474999D01*
X600005Y475000D01*
X600005Y480000D01*
X600003Y480002D01*
X600004Y480004D01*
X592004Y488004D01*
X592001Y488004D01*
X592000Y488005D01*
X588000Y488005D01*
X587998Y488003D01*
X587996Y488004D01*
X564996Y465004D01*
X564996Y465001D01*
X564995Y465000D01*
X564995Y460000D01*
X564997Y459998D01*
X564996Y459996D01*
X572996Y451996D01*
X572999Y451996D01*
X573000Y451995D01*
X577000Y451995D01*
X577002Y451997D01*
G37*
G36*
X550005Y499999D02*
X550005Y499999D01*
X550005Y500000D01*
X550005Y520000D01*
X550001Y520005D01*
X550000Y520005D01*
X520000Y520005D01*
X519995Y520001D01*
X519995Y520000D01*
X519995Y500000D01*
X519999Y499995D01*
X520000Y499995D01*
X550000Y499995D01*
X550005Y499999D01*
G37*
G36*
X550005Y579999D02*
X550005Y579999D01*
X550005Y580000D01*
X550005Y600000D01*
X550001Y600005D01*
X550000Y600005D01*
X520000Y600005D01*
X519995Y600001D01*
X519995Y600000D01*
X519995Y580000D01*
X519999Y579995D01*
X520000Y579995D01*
X550000Y579995D01*
X550005Y579999D01*
G37*
G36*
X120005Y579999D02*
X120005Y579999D01*
X120005Y580000D01*
X120005Y600000D01*
X120001Y600005D01*
X120000Y600005D01*
X90000Y600005D01*
X89995Y600001D01*
X89995Y600000D01*
X89995Y580000D01*
X89999Y579995D01*
X90000Y579995D01*
X120000Y579995D01*
X120005Y579999D01*
G37*
G36*
X645005Y579999D02*
X645005Y579999D01*
X645005Y580000D01*
X645005Y600000D01*
X645001Y600005D01*
X645000Y600005D01*
X615000Y600005D01*
X614995Y600001D01*
X614995Y600000D01*
X614995Y580000D01*
X614999Y579995D01*
X615000Y579995D01*
X645000Y579995D01*
X645005Y579999D01*
G37*
G36*
X740005Y579999D02*
X740005Y579999D01*
X740005Y580000D01*
X740005Y600000D01*
X740001Y600005D01*
X740000Y600005D01*
X710000Y600005D01*
X709995Y600001D01*
X709995Y600000D01*
X709995Y580000D01*
X709999Y579995D01*
X710000Y579995D01*
X740000Y579995D01*
X740005Y579999D01*
G37*
G36*
X310005Y579999D02*
X310005Y579999D01*
X310005Y580000D01*
X310005Y600000D01*
X310001Y600005D01*
X310000Y600005D01*
X280000Y600005D01*
X279995Y600001D01*
X279995Y600000D01*
X279995Y580000D01*
X279999Y579995D01*
X280000Y579995D01*
X310000Y579995D01*
X310005Y579999D01*
G37*
G36*
X120005Y499999D02*
X120005Y499999D01*
X120005Y500000D01*
X120005Y520000D01*
X120001Y520005D01*
X120000Y520005D01*
X90000Y520005D01*
X89995Y520001D01*
X89995Y520000D01*
X89995Y500000D01*
X89999Y499995D01*
X90000Y499995D01*
X120000Y499995D01*
X120005Y499999D01*
G37*
G36*
X645005Y499999D02*
X645005Y499999D01*
X645005Y500000D01*
X645005Y520000D01*
X645001Y520005D01*
X645000Y520005D01*
X615000Y520005D01*
X614995Y520001D01*
X614995Y520000D01*
X614995Y500000D01*
X614999Y499995D01*
X615000Y499995D01*
X645000Y499995D01*
X645005Y499999D01*
G37*
G36*
X215005Y579999D02*
X215005Y579999D01*
X215005Y580000D01*
X215005Y600000D01*
X215001Y600005D01*
X215000Y600005D01*
X185000Y600005D01*
X184995Y600001D01*
X184995Y600000D01*
X184995Y580000D01*
X184999Y579995D01*
X185000Y579995D01*
X215000Y579995D01*
X215005Y579999D01*
G37*
G36*
X740005Y149999D02*
X740005Y149999D01*
X740005Y150000D01*
X740005Y170000D01*
X740001Y170005D01*
X740000Y170005D01*
X710000Y170005D01*
X709995Y170001D01*
X709995Y170000D01*
X709995Y150000D01*
X709999Y149995D01*
X710000Y149995D01*
X740000Y149995D01*
X740005Y149999D01*
G37*
G36*
X120005Y149999D02*
X120005Y149999D01*
X120005Y150000D01*
X120005Y170000D01*
X120001Y170005D01*
X120000Y170005D01*
X90000Y170005D01*
X89995Y170001D01*
X89995Y170000D01*
X89995Y150000D01*
X89999Y149995D01*
X90000Y149995D01*
X120000Y149995D01*
X120005Y149999D01*
G37*
G36*
X310005Y149999D02*
X310005Y149999D01*
X310005Y150000D01*
X310005Y170000D01*
X310001Y170005D01*
X310000Y170005D01*
X280000Y170005D01*
X279995Y170001D01*
X279995Y170000D01*
X279995Y150000D01*
X279999Y149995D01*
X280000Y149995D01*
X310000Y149995D01*
X310005Y149999D01*
G37*
G36*
X215005Y149999D02*
X215005Y149999D01*
X215005Y150000D01*
X215005Y170000D01*
X215001Y170005D01*
X215000Y170005D01*
X185000Y170005D01*
X184995Y170001D01*
X184995Y170000D01*
X184995Y150000D01*
X184999Y149995D01*
X185000Y149995D01*
X215000Y149995D01*
X215005Y149999D01*
G37*
G36*
X645005Y149999D02*
X645005Y149999D01*
X645005Y150000D01*
X645005Y170000D01*
X645001Y170005D01*
X645000Y170005D01*
X615000Y170005D01*
X614995Y170001D01*
X614995Y170000D01*
X614995Y150000D01*
X614999Y149995D01*
X615000Y149995D01*
X645000Y149995D01*
X645005Y149999D01*
G37*
G36*
X550005Y149999D02*
X550005Y149999D01*
X550005Y150000D01*
X550005Y170000D01*
X550001Y170005D01*
X550000Y170005D01*
X520000Y170005D01*
X519995Y170001D01*
X519995Y170000D01*
X519995Y150000D01*
X519999Y149995D01*
X520000Y149995D01*
X550000Y149995D01*
X550005Y149999D01*
G37*
G36*
X120005Y69999D02*
X120005Y69999D01*
X120005Y70000D01*
X120005Y90000D01*
X120001Y90005D01*
X120000Y90005D01*
X90000Y90005D01*
X89995Y90001D01*
X89995Y90000D01*
X89995Y70000D01*
X89999Y69995D01*
X90000Y69995D01*
X120000Y69995D01*
X120005Y69999D01*
G37*
G36*
X550005Y69999D02*
X550005Y69999D01*
X550005Y70000D01*
X550005Y90000D01*
X550001Y90005D01*
X550000Y90005D01*
X520000Y90005D01*
X519995Y90001D01*
X519995Y90000D01*
X519995Y70000D01*
X519999Y69995D01*
X520000Y69995D01*
X550000Y69995D01*
X550005Y69999D01*
G37*
G36*
X215005Y69999D02*
X215005Y69999D01*
X215005Y70000D01*
X215005Y90000D01*
X215001Y90005D01*
X215000Y90005D01*
X185000Y90005D01*
X184995Y90001D01*
X184995Y90000D01*
X184995Y70000D01*
X184999Y69995D01*
X185000Y69995D01*
X215000Y69995D01*
X215005Y69999D01*
G37*
G36*
X645005Y69999D02*
X645005Y69999D01*
X645005Y70000D01*
X645005Y90000D01*
X645001Y90005D01*
X645000Y90005D01*
X615000Y90005D01*
X614995Y90001D01*
X614995Y90000D01*
X614995Y70000D01*
X614999Y69995D01*
X615000Y69995D01*
X645000Y69995D01*
X645005Y69999D01*
G37*
G36*
X215005Y499999D02*
X215005Y499999D01*
X215005Y500000D01*
X215005Y520000D01*
X215001Y520005D01*
X215000Y520005D01*
X185000Y520005D01*
X184995Y520001D01*
X184995Y520000D01*
X184995Y500000D01*
X184999Y499995D01*
X185000Y499995D01*
X215000Y499995D01*
X215005Y499999D01*
G37*
G36*
X317505Y69999D02*
X317505Y69999D01*
X317505Y70000D01*
X317505Y90000D01*
X317501Y90005D01*
X317500Y90005D01*
X302500Y90005D01*
X302497Y90003D01*
X302496Y90002D01*
X292496Y70002D01*
X292496Y70001D01*
X292495Y70001D01*
X292496Y69999D01*
X292497Y69996D01*
X292499Y69996D01*
X292500Y69995D01*
X317500Y69995D01*
X317505Y69999D01*
G37*
G36*
X747505Y69999D02*
X747505Y69999D01*
X747505Y70000D01*
X747505Y90000D01*
X747501Y90005D01*
X747500Y90005D01*
X732500Y90005D01*
X732497Y90003D01*
X732496Y90002D01*
X722496Y70002D01*
X722496Y70001D01*
X722495Y70001D01*
X722496Y69999D01*
X722497Y69996D01*
X722499Y69996D01*
X722500Y69995D01*
X747500Y69995D01*
X747505Y69999D01*
G37*
G36*
X747505Y499999D02*
X747505Y499999D01*
X747505Y500000D01*
X747505Y520000D01*
X747501Y520005D01*
X747500Y520005D01*
X732500Y520005D01*
X732497Y520003D01*
X732496Y520002D01*
X722496Y500002D01*
X722496Y500001D01*
X722495Y500001D01*
X722496Y499999D01*
X722497Y499996D01*
X722499Y499996D01*
X722500Y499995D01*
X747500Y499995D01*
X747505Y499999D01*
G37*
G36*
X317505Y499999D02*
X317505Y499999D01*
X317505Y500000D01*
X317505Y520000D01*
X317501Y520005D01*
X317500Y520005D01*
X302500Y520005D01*
X302497Y520003D01*
X302496Y520002D01*
X292496Y500002D01*
X292496Y500001D01*
X292495Y500001D01*
X292496Y499999D01*
X292497Y499996D01*
X292499Y499996D01*
X292500Y499995D01*
X317500Y499995D01*
X317505Y499999D01*
G37*
G36*
X287503Y69997D02*
X287503Y69997D01*
X287504Y69998D01*
X297504Y89998D01*
X297505Y89999D01*
X297504Y89999D01*
X297505Y89999D01*
X297504Y90001D01*
X297503Y90004D01*
X297501Y90004D01*
X297500Y90005D01*
X272500Y90005D01*
X272495Y90001D01*
X272495Y90000D01*
X272495Y70000D01*
X272499Y69995D01*
X272500Y69995D01*
X287500Y69995D01*
X287503Y69997D01*
G37*
G36*
X287503Y499997D02*
X287503Y499997D01*
X287504Y499998D01*
X297504Y519998D01*
X297505Y519999D01*
X297504Y519999D01*
X297505Y519999D01*
X297504Y520001D01*
X297503Y520004D01*
X297501Y520004D01*
X297500Y520005D01*
X272500Y520005D01*
X272495Y520001D01*
X272495Y520000D01*
X272495Y500000D01*
X272499Y499995D01*
X272500Y499995D01*
X287500Y499995D01*
X287503Y499997D01*
G37*
G36*
X717503Y69997D02*
X717503Y69997D01*
X717504Y69998D01*
X727504Y89998D01*
X727505Y89999D01*
X727504Y89999D01*
X727505Y89999D01*
X727504Y90001D01*
X727503Y90004D01*
X727501Y90004D01*
X727500Y90005D01*
X702500Y90005D01*
X702495Y90001D01*
X702495Y90000D01*
X702495Y70000D01*
X702499Y69995D01*
X702500Y69995D01*
X717500Y69995D01*
X717503Y69997D01*
G37*
G36*
X717503Y499997D02*
X717503Y499997D01*
X717504Y499998D01*
X727504Y519998D01*
X727505Y519999D01*
X727504Y519999D01*
X727505Y519999D01*
X727504Y520001D01*
X727503Y520004D01*
X727501Y520004D01*
X727500Y520005D01*
X702500Y520005D01*
X702495Y520001D01*
X702495Y520000D01*
X702495Y500000D01*
X702499Y499995D01*
X702500Y499995D01*
X717500Y499995D01*
X717503Y499997D01*
G37*
G36*
X735005Y659999D02*
X735005Y659999D01*
X735005Y660000D01*
X735005Y680000D01*
X735001Y680005D01*
X735000Y680005D01*
X715000Y680005D01*
X714995Y680001D01*
X714995Y680000D01*
X714995Y660000D01*
X714999Y659995D01*
X715000Y659995D01*
X735000Y659995D01*
X735005Y659999D01*
G37*
G36*
X115005Y659999D02*
X115005Y659999D01*
X115005Y660000D01*
X115005Y680000D01*
X115001Y680005D01*
X115000Y680005D01*
X95000Y680005D01*
X94995Y680001D01*
X94995Y680000D01*
X94995Y660000D01*
X94999Y659995D01*
X95000Y659995D01*
X115000Y659995D01*
X115005Y659999D01*
G37*
G36*
X305005Y659999D02*
X305005Y659999D01*
X305005Y660000D01*
X305005Y680000D01*
X305001Y680005D01*
X305000Y680005D01*
X285000Y680005D01*
X284995Y680001D01*
X284995Y680000D01*
X284995Y660000D01*
X284999Y659995D01*
X285000Y659995D01*
X305000Y659995D01*
X305005Y659999D01*
G37*
G36*
X640005Y659999D02*
X640005Y659999D01*
X640005Y660000D01*
X640005Y680000D01*
X640001Y680005D01*
X640000Y680005D01*
X620000Y680005D01*
X619995Y680001D01*
X619995Y680000D01*
X619995Y660000D01*
X619999Y659995D01*
X620000Y659995D01*
X640000Y659995D01*
X640005Y659999D01*
G37*
G36*
X545005Y659999D02*
X545005Y659999D01*
X545005Y660000D01*
X545005Y680000D01*
X545001Y680005D01*
X545000Y680005D01*
X525000Y680005D01*
X524995Y680001D01*
X524995Y680000D01*
X524995Y660000D01*
X524999Y659995D01*
X525000Y659995D01*
X545000Y659995D01*
X545005Y659999D01*
G37*
G36*
X640005Y739999D02*
X640005Y739999D01*
X640005Y740000D01*
X640005Y760000D01*
X640001Y760005D01*
X640000Y760005D01*
X620000Y760005D01*
X619995Y760001D01*
X619995Y760000D01*
X619995Y740000D01*
X619999Y739995D01*
X620000Y739995D01*
X640000Y739995D01*
X640005Y739999D01*
G37*
G36*
X210005Y309999D02*
X210005Y309999D01*
X210005Y310000D01*
X210005Y330000D01*
X210001Y330005D01*
X210000Y330005D01*
X190000Y330005D01*
X189995Y330001D01*
X189995Y330000D01*
X189995Y310000D01*
X189999Y309995D01*
X190000Y309995D01*
X210000Y309995D01*
X210005Y309999D01*
G37*
G36*
X210005Y739999D02*
X210005Y739999D01*
X210005Y740000D01*
X210005Y760000D01*
X210001Y760005D01*
X210000Y760005D01*
X190000Y760005D01*
X189995Y760001D01*
X189995Y760000D01*
X189995Y740000D01*
X189999Y739995D01*
X190000Y739995D01*
X210000Y739995D01*
X210005Y739999D01*
G37*
G36*
X210005Y659999D02*
X210005Y659999D01*
X210005Y660000D01*
X210005Y680000D01*
X210001Y680005D01*
X210000Y680005D01*
X190000Y680005D01*
X189995Y680001D01*
X189995Y680000D01*
X189995Y660000D01*
X189999Y659995D01*
X190000Y659995D01*
X210000Y659995D01*
X210005Y659999D01*
G37*
G36*
X115005Y229999D02*
X115005Y229999D01*
X115005Y230000D01*
X115005Y250000D01*
X115001Y250005D01*
X115000Y250005D01*
X95000Y250005D01*
X94995Y250001D01*
X94995Y250000D01*
X94995Y230000D01*
X94999Y229995D01*
X95000Y229995D01*
X115000Y229995D01*
X115005Y229999D01*
G37*
G36*
X640005Y309999D02*
X640005Y309999D01*
X640005Y310000D01*
X640005Y330000D01*
X640001Y330005D01*
X640000Y330005D01*
X620000Y330005D01*
X619995Y330001D01*
X619995Y330000D01*
X619995Y310000D01*
X619999Y309995D01*
X620000Y309995D01*
X640000Y309995D01*
X640005Y309999D01*
G37*
G36*
X545005Y229999D02*
X545005Y229999D01*
X545005Y230000D01*
X545005Y250000D01*
X545001Y250005D01*
X545000Y250005D01*
X525000Y250005D01*
X524995Y250001D01*
X524995Y250000D01*
X524995Y230000D01*
X524999Y229995D01*
X525000Y229995D01*
X545000Y229995D01*
X545005Y229999D01*
G37*
G36*
X210005Y229999D02*
X210005Y229999D01*
X210005Y230000D01*
X210005Y250000D01*
X210001Y250005D01*
X210000Y250005D01*
X190000Y250005D01*
X189995Y250001D01*
X189995Y250000D01*
X189995Y230000D01*
X189999Y229995D01*
X190000Y229995D01*
X210000Y229995D01*
X210005Y229999D01*
G37*
G36*
X640005Y229999D02*
X640005Y229999D01*
X640005Y230000D01*
X640005Y250000D01*
X640001Y250005D01*
X640000Y250005D01*
X620000Y250005D01*
X619995Y250001D01*
X619995Y250000D01*
X619995Y230000D01*
X619999Y229995D01*
X620000Y229995D01*
X640000Y229995D01*
X640005Y229999D01*
G37*
G36*
X735005Y229999D02*
X735005Y229999D01*
X735005Y230000D01*
X735005Y250000D01*
X735001Y250005D01*
X735000Y250005D01*
X715000Y250005D01*
X714995Y250001D01*
X714995Y250000D01*
X714995Y230000D01*
X714999Y229995D01*
X715000Y229995D01*
X735000Y229995D01*
X735005Y229999D01*
G37*
G36*
X305005Y229999D02*
X305005Y229999D01*
X305005Y230000D01*
X305005Y250000D01*
X305001Y250005D01*
X305000Y250005D01*
X285000Y250005D01*
X284995Y250001D01*
X284995Y250000D01*
X284995Y230000D01*
X284999Y229995D01*
X285000Y229995D01*
X305000Y229995D01*
X305005Y229999D01*
G37*
G36*
X680002Y459997D02*
X680002Y459997D01*
X680004Y459996D01*
X690004Y469996D01*
X690004Y469999D01*
X690005Y470000D01*
X690005Y475000D01*
X690003Y475002D01*
X690004Y475004D01*
X685004Y480004D01*
X685001Y480004D01*
X685000Y480005D01*
X675000Y480005D01*
X674998Y480003D01*
X674996Y480004D01*
X664996Y470004D01*
X664996Y470001D01*
X664995Y470000D01*
X664995Y465000D01*
X664997Y464998D01*
X664996Y464996D01*
X669996Y459996D01*
X669999Y459996D01*
X670000Y459995D01*
X680000Y459995D01*
X680002Y459997D01*
G37*
G36*
X250002Y459997D02*
X250002Y459997D01*
X250004Y459996D01*
X260004Y469996D01*
X260004Y469999D01*
X260005Y470000D01*
X260005Y475000D01*
X260003Y475002D01*
X260004Y475004D01*
X255004Y480004D01*
X255001Y480004D01*
X255000Y480005D01*
X245000Y480005D01*
X244998Y480003D01*
X244996Y480004D01*
X234996Y470004D01*
X234996Y470001D01*
X234995Y470000D01*
X234995Y465000D01*
X234997Y464998D01*
X234996Y464996D01*
X239996Y459996D01*
X239999Y459996D01*
X240000Y459995D01*
X250000Y459995D01*
X250002Y459997D01*
G37*
G36*
X250002Y29997D02*
X250002Y29997D01*
X250004Y29996D01*
X260004Y39996D01*
X260004Y39999D01*
X260005Y40000D01*
X260005Y45000D01*
X260003Y45002D01*
X260004Y45004D01*
X255004Y50004D01*
X255001Y50004D01*
X255000Y50005D01*
X245000Y50005D01*
X244998Y50003D01*
X244996Y50004D01*
X234996Y40004D01*
X234996Y40001D01*
X234995Y40000D01*
X234995Y35000D01*
X234997Y34998D01*
X234996Y34996D01*
X239996Y29996D01*
X239999Y29996D01*
X240000Y29995D01*
X250000Y29995D01*
X250002Y29997D01*
G37*
G36*
X680002Y29997D02*
X680002Y29997D01*
X680004Y29996D01*
X690004Y39996D01*
X690004Y39999D01*
X690005Y40000D01*
X690005Y45000D01*
X690003Y45002D01*
X690004Y45004D01*
X685004Y50004D01*
X685001Y50004D01*
X685000Y50005D01*
X675000Y50005D01*
X674998Y50003D01*
X674996Y50004D01*
X664996Y40004D01*
X664996Y40001D01*
X664995Y40000D01*
X664995Y35000D01*
X664997Y34998D01*
X664996Y34996D01*
X669996Y29996D01*
X669999Y29996D01*
X670000Y29995D01*
X680000Y29995D01*
X680002Y29997D01*
G37*
D10*
X430000Y0D02*
X830000Y0D01*
X830000Y400000D01*
X808500Y400000D01*
X791500Y400000D02*
X468500Y400000D01*
X451500Y400000D02*
X430000Y400000D01*
X430000Y378500D01*
X430000Y361500D02*
X430000Y38500D01*
X430000Y21500D02*
X430000Y0D01*
X400000Y0D02*
X0Y0D01*
X400000Y0D02*
X400000Y21500D01*
X400000Y38500D02*
X400000Y361500D01*
X400000Y378500D02*
X400000Y400000D01*
X378500Y400000D01*
X361500Y400000D02*
X38500Y400000D01*
X21500Y400000D02*
X0Y400000D01*
X0Y0D01*
X425000Y366500D02*
X425140Y366498D01*
X425280Y366492D01*
X425420Y366482D01*
X425560Y366469D01*
X425699Y366451D01*
X425838Y366429D01*
X425975Y366404D01*
X426113Y366375D01*
X426249Y366342D01*
X426384Y366305D01*
X426518Y366264D01*
X426651Y366219D01*
X426783Y366171D01*
X426913Y366119D01*
X427042Y366064D01*
X427169Y366005D01*
X427295Y365942D01*
X427419Y365876D01*
X427540Y365807D01*
X427660Y365734D01*
X427778Y365657D01*
X427893Y365578D01*
X428007Y365495D01*
X428117Y365409D01*
X428226Y365320D01*
X428332Y365228D01*
X428435Y365133D01*
X428536Y365036D01*
X428633Y364935D01*
X428728Y364832D01*
X428820Y364726D01*
X428909Y364617D01*
X428995Y364507D01*
X429078Y364393D01*
X429157Y364278D01*
X429234Y364160D01*
X429307Y364040D01*
X429376Y363919D01*
X429442Y363795D01*
X429505Y363669D01*
X429564Y363542D01*
X429619Y363413D01*
X429671Y363283D01*
X429719Y363151D01*
X429764Y363018D01*
X429805Y362884D01*
X429842Y362749D01*
X429875Y362613D01*
X429904Y362475D01*
X429929Y362338D01*
X429951Y362199D01*
X429969Y362060D01*
X429982Y361920D01*
X429992Y361780D01*
X429998Y361640D01*
X430000Y361500D01*
X425000Y373500D02*
X425140Y373502D01*
X425280Y373508D01*
X425420Y373518D01*
X425560Y373531D01*
X425699Y373549D01*
X425838Y373571D01*
X425975Y373596D01*
X426113Y373625D01*
X426249Y373658D01*
X426384Y373695D01*
X426518Y373736D01*
X426651Y373781D01*
X426783Y373829D01*
X426913Y373881D01*
X427042Y373936D01*
X427169Y373995D01*
X427295Y374058D01*
X427419Y374124D01*
X427540Y374193D01*
X427660Y374266D01*
X427778Y374343D01*
X427893Y374422D01*
X428007Y374505D01*
X428117Y374591D01*
X428226Y374680D01*
X428332Y374772D01*
X428435Y374867D01*
X428536Y374964D01*
X428633Y375065D01*
X428728Y375168D01*
X428820Y375274D01*
X428909Y375383D01*
X428995Y375493D01*
X429078Y375607D01*
X429157Y375722D01*
X429234Y375840D01*
X429307Y375960D01*
X429376Y376081D01*
X429442Y376205D01*
X429505Y376331D01*
X429564Y376458D01*
X429619Y376587D01*
X429671Y376717D01*
X429719Y376849D01*
X429764Y376982D01*
X429805Y377116D01*
X429842Y377251D01*
X429875Y377387D01*
X429904Y377525D01*
X429929Y377662D01*
X429951Y377801D01*
X429969Y377940D01*
X429982Y378080D01*
X429992Y378220D01*
X429998Y378360D01*
X430000Y378500D01*
X425000Y366500D02*
X405000Y366500D01*
X425000Y26500D02*
X425140Y26498D01*
X425280Y26492D01*
X425420Y26482D01*
X425560Y26469D01*
X425699Y26451D01*
X425838Y26429D01*
X425975Y26404D01*
X426113Y26375D01*
X426249Y26342D01*
X426384Y26305D01*
X426518Y26264D01*
X426651Y26219D01*
X426783Y26171D01*
X426913Y26119D01*
X427042Y26064D01*
X427169Y26005D01*
X427295Y25942D01*
X427419Y25876D01*
X427540Y25807D01*
X427660Y25734D01*
X427778Y25657D01*
X427893Y25578D01*
X428007Y25495D01*
X428117Y25409D01*
X428226Y25320D01*
X428332Y25228D01*
X428435Y25133D01*
X428536Y25036D01*
X428633Y24935D01*
X428728Y24832D01*
X428820Y24726D01*
X428909Y24617D01*
X428995Y24507D01*
X429078Y24393D01*
X429157Y24278D01*
X429234Y24160D01*
X429307Y24040D01*
X429376Y23919D01*
X429442Y23795D01*
X429505Y23669D01*
X429564Y23542D01*
X429619Y23413D01*
X429671Y23283D01*
X429719Y23151D01*
X429764Y23018D01*
X429805Y22884D01*
X429842Y22749D01*
X429875Y22613D01*
X429904Y22475D01*
X429929Y22338D01*
X429951Y22199D01*
X429969Y22060D01*
X429982Y21920D01*
X429992Y21780D01*
X429998Y21640D01*
X430000Y21500D01*
X425000Y33500D02*
X425140Y33502D01*
X425280Y33508D01*
X425420Y33518D01*
X425560Y33531D01*
X425699Y33549D01*
X425838Y33571D01*
X425975Y33596D01*
X426113Y33625D01*
X426249Y33658D01*
X426384Y33695D01*
X426518Y33736D01*
X426651Y33781D01*
X426783Y33829D01*
X426913Y33881D01*
X427042Y33936D01*
X427169Y33995D01*
X427295Y34058D01*
X427419Y34124D01*
X427540Y34193D01*
X427660Y34266D01*
X427778Y34343D01*
X427893Y34422D01*
X428007Y34505D01*
X428117Y34591D01*
X428226Y34680D01*
X428332Y34772D01*
X428435Y34867D01*
X428536Y34964D01*
X428633Y35065D01*
X428728Y35168D01*
X428820Y35274D01*
X428909Y35383D01*
X428995Y35493D01*
X429078Y35607D01*
X429157Y35722D01*
X429234Y35840D01*
X429307Y35960D01*
X429376Y36081D01*
X429442Y36205D01*
X429505Y36331D01*
X429564Y36458D01*
X429619Y36587D01*
X429671Y36717D01*
X429719Y36849D01*
X429764Y36982D01*
X429805Y37116D01*
X429842Y37251D01*
X429875Y37387D01*
X429904Y37525D01*
X429929Y37662D01*
X429951Y37801D01*
X429969Y37940D01*
X429982Y38080D01*
X429992Y38220D01*
X429998Y38360D01*
X430000Y38500D01*
X425000Y26500D02*
X405000Y26500D01*
X405000Y33500D02*
X404860Y33502D01*
X404720Y33508D01*
X404580Y33518D01*
X404440Y33531D01*
X404301Y33549D01*
X404162Y33571D01*
X404025Y33596D01*
X403887Y33625D01*
X403751Y33658D01*
X403616Y33695D01*
X403482Y33736D01*
X403349Y33781D01*
X403217Y33829D01*
X403087Y33881D01*
X402958Y33936D01*
X402831Y33995D01*
X402705Y34058D01*
X402581Y34124D01*
X402460Y34193D01*
X402340Y34266D01*
X402222Y34343D01*
X402107Y34422D01*
X401993Y34505D01*
X401883Y34591D01*
X401774Y34680D01*
X401668Y34772D01*
X401565Y34867D01*
X401464Y34964D01*
X401367Y35065D01*
X401272Y35168D01*
X401180Y35274D01*
X401091Y35383D01*
X401005Y35493D01*
X400922Y35607D01*
X400843Y35722D01*
X400766Y35840D01*
X400693Y35960D01*
X400624Y36081D01*
X400558Y36205D01*
X400495Y36331D01*
X400436Y36458D01*
X400381Y36587D01*
X400329Y36717D01*
X400281Y36849D01*
X400236Y36982D01*
X400195Y37116D01*
X400158Y37251D01*
X400125Y37387D01*
X400096Y37525D01*
X400071Y37662D01*
X400049Y37801D01*
X400031Y37940D01*
X400018Y38080D01*
X400008Y38220D01*
X400002Y38360D01*
X400000Y38500D01*
X405000Y26500D02*
X404860Y26498D01*
X404720Y26492D01*
X404580Y26482D01*
X404440Y26469D01*
X404301Y26451D01*
X404162Y26429D01*
X404025Y26404D01*
X403887Y26375D01*
X403751Y26342D01*
X403616Y26305D01*
X403482Y26264D01*
X403349Y26219D01*
X403217Y26171D01*
X403087Y26119D01*
X402958Y26064D01*
X402831Y26005D01*
X402705Y25942D01*
X402581Y25876D01*
X402460Y25807D01*
X402340Y25734D01*
X402222Y25657D01*
X402107Y25578D01*
X401993Y25495D01*
X401883Y25409D01*
X401774Y25320D01*
X401668Y25228D01*
X401565Y25133D01*
X401464Y25036D01*
X401367Y24935D01*
X401272Y24832D01*
X401180Y24726D01*
X401091Y24617D01*
X401005Y24507D01*
X400922Y24393D01*
X400843Y24278D01*
X400766Y24160D01*
X400693Y24040D01*
X400624Y23919D01*
X400558Y23795D01*
X400495Y23669D01*
X400436Y23542D01*
X400381Y23413D01*
X400329Y23283D01*
X400281Y23151D01*
X400236Y23018D01*
X400195Y22884D01*
X400158Y22749D01*
X400125Y22613D01*
X400096Y22475D01*
X400071Y22338D01*
X400049Y22199D01*
X400031Y22060D01*
X400018Y21920D01*
X400008Y21780D01*
X400002Y21640D01*
X400000Y21500D01*
X405000Y33500D02*
X425000Y33500D01*
X405000Y373500D02*
X404860Y373502D01*
X404720Y373508D01*
X404580Y373518D01*
X404440Y373531D01*
X404301Y373549D01*
X404162Y373571D01*
X404025Y373596D01*
X403887Y373625D01*
X403751Y373658D01*
X403616Y373695D01*
X403482Y373736D01*
X403349Y373781D01*
X403217Y373829D01*
X403087Y373881D01*
X402958Y373936D01*
X402831Y373995D01*
X402705Y374058D01*
X402581Y374124D01*
X402460Y374193D01*
X402340Y374266D01*
X402222Y374343D01*
X402107Y374422D01*
X401993Y374505D01*
X401883Y374591D01*
X401774Y374680D01*
X401668Y374772D01*
X401565Y374867D01*
X401464Y374964D01*
X401367Y375065D01*
X401272Y375168D01*
X401180Y375274D01*
X401091Y375383D01*
X401005Y375493D01*
X400922Y375607D01*
X400843Y375722D01*
X400766Y375840D01*
X400693Y375960D01*
X400624Y376081D01*
X400558Y376205D01*
X400495Y376331D01*
X400436Y376458D01*
X400381Y376587D01*
X400329Y376717D01*
X400281Y376849D01*
X400236Y376982D01*
X400195Y377116D01*
X400158Y377251D01*
X400125Y377387D01*
X400096Y377525D01*
X400071Y377662D01*
X400049Y377801D01*
X400031Y377940D01*
X400018Y378080D01*
X400008Y378220D01*
X400002Y378360D01*
X400000Y378500D01*
X405000Y366500D02*
X404860Y366498D01*
X404720Y366492D01*
X404580Y366482D01*
X404440Y366469D01*
X404301Y366451D01*
X404162Y366429D01*
X404025Y366404D01*
X403887Y366375D01*
X403751Y366342D01*
X403616Y366305D01*
X403482Y366264D01*
X403349Y366219D01*
X403217Y366171D01*
X403087Y366119D01*
X402958Y366064D01*
X402831Y366005D01*
X402705Y365942D01*
X402581Y365876D01*
X402460Y365807D01*
X402340Y365734D01*
X402222Y365657D01*
X402107Y365578D01*
X401993Y365495D01*
X401883Y365409D01*
X401774Y365320D01*
X401668Y365228D01*
X401565Y365133D01*
X401464Y365036D01*
X401367Y364935D01*
X401272Y364832D01*
X401180Y364726D01*
X401091Y364617D01*
X401005Y364507D01*
X400922Y364393D01*
X400843Y364278D01*
X400766Y364160D01*
X400693Y364040D01*
X400624Y363919D01*
X400558Y363795D01*
X400495Y363669D01*
X400436Y363542D01*
X400381Y363413D01*
X400329Y363283D01*
X400281Y363151D01*
X400236Y363018D01*
X400195Y362884D01*
X400158Y362749D01*
X400125Y362613D01*
X400096Y362475D01*
X400071Y362338D01*
X400049Y362199D01*
X400031Y362060D01*
X400018Y361920D01*
X400008Y361780D01*
X400002Y361640D01*
X400000Y361500D01*
X405000Y373500D02*
X425000Y373500D01*
X26500Y405000D02*
X26498Y404860D01*
X26492Y404720D01*
X26482Y404580D01*
X26469Y404440D01*
X26451Y404301D01*
X26429Y404162D01*
X26404Y404025D01*
X26375Y403887D01*
X26342Y403751D01*
X26305Y403616D01*
X26264Y403482D01*
X26219Y403349D01*
X26171Y403217D01*
X26119Y403087D01*
X26064Y402958D01*
X26005Y402831D01*
X25942Y402705D01*
X25876Y402581D01*
X25807Y402460D01*
X25734Y402340D01*
X25657Y402222D01*
X25578Y402107D01*
X25495Y401993D01*
X25409Y401883D01*
X25320Y401774D01*
X25228Y401668D01*
X25133Y401565D01*
X25036Y401464D01*
X24935Y401367D01*
X24832Y401272D01*
X24726Y401180D01*
X24617Y401091D01*
X24507Y401005D01*
X24393Y400922D01*
X24278Y400843D01*
X24160Y400766D01*
X24040Y400693D01*
X23919Y400624D01*
X23795Y400558D01*
X23669Y400495D01*
X23542Y400436D01*
X23413Y400381D01*
X23283Y400329D01*
X23151Y400281D01*
X23018Y400236D01*
X22884Y400195D01*
X22749Y400158D01*
X22613Y400125D01*
X22475Y400096D01*
X22338Y400071D01*
X22199Y400049D01*
X22060Y400031D01*
X21920Y400018D01*
X21780Y400008D01*
X21640Y400002D01*
X21500Y400000D01*
X33500Y405000D02*
X33502Y404860D01*
X33508Y404720D01*
X33518Y404580D01*
X33531Y404440D01*
X33549Y404301D01*
X33571Y404162D01*
X33596Y404025D01*
X33625Y403887D01*
X33658Y403751D01*
X33695Y403616D01*
X33736Y403482D01*
X33781Y403349D01*
X33829Y403217D01*
X33881Y403087D01*
X33936Y402958D01*
X33995Y402831D01*
X34058Y402705D01*
X34124Y402581D01*
X34193Y402460D01*
X34266Y402340D01*
X34343Y402222D01*
X34422Y402107D01*
X34505Y401993D01*
X34591Y401883D01*
X34680Y401774D01*
X34772Y401668D01*
X34867Y401565D01*
X34964Y401464D01*
X35065Y401367D01*
X35168Y401272D01*
X35274Y401180D01*
X35383Y401091D01*
X35493Y401005D01*
X35607Y400922D01*
X35722Y400843D01*
X35840Y400766D01*
X35960Y400693D01*
X36081Y400624D01*
X36205Y400558D01*
X36331Y400495D01*
X36458Y400436D01*
X36587Y400381D01*
X36717Y400329D01*
X36849Y400281D01*
X36982Y400236D01*
X37116Y400195D01*
X37251Y400158D01*
X37387Y400125D01*
X37525Y400096D01*
X37662Y400071D01*
X37801Y400049D01*
X37940Y400031D01*
X38080Y400018D01*
X38220Y400008D01*
X38360Y400002D01*
X38500Y400000D01*
X361500Y400000D02*
X361640Y400002D01*
X361780Y400008D01*
X361920Y400018D01*
X362060Y400031D01*
X362199Y400049D01*
X362338Y400071D01*
X362475Y400096D01*
X362613Y400125D01*
X362749Y400158D01*
X362884Y400195D01*
X363018Y400236D01*
X363151Y400281D01*
X363283Y400329D01*
X363413Y400381D01*
X363542Y400436D01*
X363669Y400495D01*
X363795Y400558D01*
X363919Y400624D01*
X364040Y400693D01*
X364160Y400766D01*
X364278Y400843D01*
X364393Y400922D01*
X364507Y401005D01*
X364617Y401091D01*
X364726Y401180D01*
X364832Y401272D01*
X364935Y401367D01*
X365036Y401464D01*
X365133Y401565D01*
X365228Y401668D01*
X365320Y401774D01*
X365409Y401883D01*
X365495Y401993D01*
X365578Y402107D01*
X365657Y402222D01*
X365734Y402340D01*
X365807Y402460D01*
X365876Y402581D01*
X365942Y402705D01*
X366005Y402831D01*
X366064Y402958D01*
X366119Y403087D01*
X366171Y403217D01*
X366219Y403349D01*
X366264Y403482D01*
X366305Y403616D01*
X366342Y403751D01*
X366375Y403887D01*
X366404Y404025D01*
X366429Y404162D01*
X366451Y404301D01*
X366469Y404440D01*
X366482Y404580D01*
X366492Y404720D01*
X366498Y404860D01*
X366500Y405000D01*
X373500Y405000D02*
X373502Y404860D01*
X373508Y404720D01*
X373518Y404580D01*
X373531Y404440D01*
X373549Y404301D01*
X373571Y404162D01*
X373596Y404025D01*
X373625Y403887D01*
X373658Y403751D01*
X373695Y403616D01*
X373736Y403482D01*
X373781Y403349D01*
X373829Y403217D01*
X373881Y403087D01*
X373936Y402958D01*
X373995Y402831D01*
X374058Y402705D01*
X374124Y402581D01*
X374193Y402460D01*
X374266Y402340D01*
X374343Y402222D01*
X374422Y402107D01*
X374505Y401993D01*
X374591Y401883D01*
X374680Y401774D01*
X374772Y401668D01*
X374867Y401565D01*
X374964Y401464D01*
X375065Y401367D01*
X375168Y401272D01*
X375274Y401180D01*
X375383Y401091D01*
X375493Y401005D01*
X375607Y400922D01*
X375722Y400843D01*
X375840Y400766D01*
X375960Y400693D01*
X376081Y400624D01*
X376205Y400558D01*
X376331Y400495D01*
X376458Y400436D01*
X376587Y400381D01*
X376717Y400329D01*
X376849Y400281D01*
X376982Y400236D01*
X377116Y400195D01*
X377251Y400158D01*
X377387Y400125D01*
X377525Y400096D01*
X377662Y400071D01*
X377801Y400049D01*
X377940Y400031D01*
X378080Y400018D01*
X378220Y400008D01*
X378360Y400002D01*
X378500Y400000D01*
X26500Y405000D02*
X26500Y425000D01*
X33500Y425000D02*
X33500Y405000D01*
X366500Y405000D02*
X366500Y425000D01*
X373500Y425000D02*
X373500Y405000D01*
X803500Y405000D02*
X803500Y425000D01*
X796500Y405000D02*
X796498Y404860D01*
X796492Y404720D01*
X796482Y404580D01*
X796469Y404440D01*
X796451Y404301D01*
X796429Y404162D01*
X796404Y404025D01*
X796375Y403887D01*
X796342Y403751D01*
X796305Y403616D01*
X796264Y403482D01*
X796219Y403349D01*
X796171Y403217D01*
X796119Y403087D01*
X796064Y402958D01*
X796005Y402831D01*
X795942Y402705D01*
X795876Y402581D01*
X795807Y402460D01*
X795734Y402340D01*
X795657Y402222D01*
X795578Y402107D01*
X795495Y401993D01*
X795409Y401883D01*
X795320Y401774D01*
X795228Y401668D01*
X795133Y401565D01*
X795036Y401464D01*
X794935Y401367D01*
X794832Y401272D01*
X794726Y401180D01*
X794617Y401091D01*
X794507Y401005D01*
X794393Y400922D01*
X794278Y400843D01*
X794160Y400766D01*
X794040Y400693D01*
X793919Y400624D01*
X793795Y400558D01*
X793669Y400495D01*
X793542Y400436D01*
X793413Y400381D01*
X793283Y400329D01*
X793151Y400281D01*
X793018Y400236D01*
X792884Y400195D01*
X792749Y400158D01*
X792613Y400125D01*
X792475Y400096D01*
X792338Y400071D01*
X792199Y400049D01*
X792060Y400031D01*
X791920Y400018D01*
X791780Y400008D01*
X791640Y400002D01*
X791500Y400000D01*
X803500Y405000D02*
X803502Y404860D01*
X803508Y404720D01*
X803518Y404580D01*
X803531Y404440D01*
X803549Y404301D01*
X803571Y404162D01*
X803596Y404025D01*
X803625Y403887D01*
X803658Y403751D01*
X803695Y403616D01*
X803736Y403482D01*
X803781Y403349D01*
X803829Y403217D01*
X803881Y403087D01*
X803936Y402958D01*
X803995Y402831D01*
X804058Y402705D01*
X804124Y402581D01*
X804193Y402460D01*
X804266Y402340D01*
X804343Y402222D01*
X804422Y402107D01*
X804505Y401993D01*
X804591Y401883D01*
X804680Y401774D01*
X804772Y401668D01*
X804867Y401565D01*
X804964Y401464D01*
X805065Y401367D01*
X805168Y401272D01*
X805274Y401180D01*
X805383Y401091D01*
X805493Y401005D01*
X805607Y400922D01*
X805722Y400843D01*
X805840Y400766D01*
X805960Y400693D01*
X806081Y400624D01*
X806205Y400558D01*
X806331Y400495D01*
X806458Y400436D01*
X806587Y400381D01*
X806717Y400329D01*
X806849Y400281D01*
X806982Y400236D01*
X807116Y400195D01*
X807251Y400158D01*
X807387Y400125D01*
X807525Y400096D01*
X807662Y400071D01*
X807801Y400049D01*
X807940Y400031D01*
X808080Y400018D01*
X808220Y400008D01*
X808360Y400002D01*
X808500Y400000D01*
X796500Y405000D02*
X796500Y425000D01*
X463500Y425000D02*
X463500Y405000D01*
X456500Y405000D02*
X456498Y404860D01*
X456492Y404720D01*
X456482Y404580D01*
X456469Y404440D01*
X456451Y404301D01*
X456429Y404162D01*
X456404Y404025D01*
X456375Y403887D01*
X456342Y403751D01*
X456305Y403616D01*
X456264Y403482D01*
X456219Y403349D01*
X456171Y403217D01*
X456119Y403087D01*
X456064Y402958D01*
X456005Y402831D01*
X455942Y402705D01*
X455876Y402581D01*
X455807Y402460D01*
X455734Y402340D01*
X455657Y402222D01*
X455578Y402107D01*
X455495Y401993D01*
X455409Y401883D01*
X455320Y401774D01*
X455228Y401668D01*
X455133Y401565D01*
X455036Y401464D01*
X454935Y401367D01*
X454832Y401272D01*
X454726Y401180D01*
X454617Y401091D01*
X454507Y401005D01*
X454393Y400922D01*
X454278Y400843D01*
X454160Y400766D01*
X454040Y400693D01*
X453919Y400624D01*
X453795Y400558D01*
X453669Y400495D01*
X453542Y400436D01*
X453413Y400381D01*
X453283Y400329D01*
X453151Y400281D01*
X453018Y400236D01*
X452884Y400195D01*
X452749Y400158D01*
X452613Y400125D01*
X452475Y400096D01*
X452338Y400071D01*
X452199Y400049D01*
X452060Y400031D01*
X451920Y400018D01*
X451780Y400008D01*
X451640Y400002D01*
X451500Y400000D01*
X463500Y405000D02*
X463502Y404860D01*
X463508Y404720D01*
X463518Y404580D01*
X463531Y404440D01*
X463549Y404301D01*
X463571Y404162D01*
X463596Y404025D01*
X463625Y403887D01*
X463658Y403751D01*
X463695Y403616D01*
X463736Y403482D01*
X463781Y403349D01*
X463829Y403217D01*
X463881Y403087D01*
X463936Y402958D01*
X463995Y402831D01*
X464058Y402705D01*
X464124Y402581D01*
X464193Y402460D01*
X464266Y402340D01*
X464343Y402222D01*
X464422Y402107D01*
X464505Y401993D01*
X464591Y401883D01*
X464680Y401774D01*
X464772Y401668D01*
X464867Y401565D01*
X464964Y401464D01*
X465065Y401367D01*
X465168Y401272D01*
X465274Y401180D01*
X465383Y401091D01*
X465493Y401005D01*
X465607Y400922D01*
X465722Y400843D01*
X465840Y400766D01*
X465960Y400693D01*
X466081Y400624D01*
X466205Y400558D01*
X466331Y400495D01*
X466458Y400436D01*
X466587Y400381D01*
X466717Y400329D01*
X466849Y400281D01*
X466982Y400236D01*
X467116Y400195D01*
X467251Y400158D01*
X467387Y400125D01*
X467525Y400096D01*
X467662Y400071D01*
X467801Y400049D01*
X467940Y400031D01*
X468080Y400018D01*
X468220Y400008D01*
X468360Y400002D01*
X468500Y400000D01*
X456500Y405000D02*
X456500Y425000D01*
X400000Y830000D02*
X0Y830000D01*
X0Y430000D01*
X21500Y430000D01*
X38500Y430000D02*
X361500Y430000D01*
X378500Y430000D02*
X400000Y430000D01*
X400000Y451500D01*
X400000Y468500D02*
X400000Y791500D01*
X400000Y808500D02*
X400000Y830000D01*
X430000Y830000D02*
X830000Y830000D01*
X430000Y830000D02*
X430000Y808500D01*
X430000Y791500D02*
X430000Y468500D01*
X430000Y451500D02*
X430000Y430000D01*
X451500Y430000D01*
X468500Y430000D02*
X791500Y430000D01*
X808500Y430000D02*
X830000Y430000D01*
X830000Y830000D01*
X405000Y463500D02*
X404860Y463502D01*
X404720Y463508D01*
X404580Y463518D01*
X404440Y463531D01*
X404301Y463549D01*
X404162Y463571D01*
X404025Y463596D01*
X403887Y463625D01*
X403751Y463658D01*
X403616Y463695D01*
X403482Y463736D01*
X403349Y463781D01*
X403217Y463829D01*
X403087Y463881D01*
X402958Y463936D01*
X402831Y463995D01*
X402705Y464058D01*
X402581Y464124D01*
X402460Y464193D01*
X402340Y464266D01*
X402222Y464343D01*
X402107Y464422D01*
X401993Y464505D01*
X401883Y464591D01*
X401774Y464680D01*
X401668Y464772D01*
X401565Y464867D01*
X401464Y464964D01*
X401367Y465065D01*
X401272Y465168D01*
X401180Y465274D01*
X401091Y465383D01*
X401005Y465493D01*
X400922Y465607D01*
X400843Y465722D01*
X400766Y465840D01*
X400693Y465960D01*
X400624Y466081D01*
X400558Y466205D01*
X400495Y466331D01*
X400436Y466458D01*
X400381Y466587D01*
X400329Y466717D01*
X400281Y466849D01*
X400236Y466982D01*
X400195Y467116D01*
X400158Y467251D01*
X400125Y467387D01*
X400096Y467525D01*
X400071Y467662D01*
X400049Y467801D01*
X400031Y467940D01*
X400018Y468080D01*
X400008Y468220D01*
X400002Y468360D01*
X400000Y468500D01*
X405000Y456500D02*
X404860Y456498D01*
X404720Y456492D01*
X404580Y456482D01*
X404440Y456469D01*
X404301Y456451D01*
X404162Y456429D01*
X404025Y456404D01*
X403887Y456375D01*
X403751Y456342D01*
X403616Y456305D01*
X403482Y456264D01*
X403349Y456219D01*
X403217Y456171D01*
X403087Y456119D01*
X402958Y456064D01*
X402831Y456005D01*
X402705Y455942D01*
X402581Y455876D01*
X402460Y455807D01*
X402340Y455734D01*
X402222Y455657D01*
X402107Y455578D01*
X401993Y455495D01*
X401883Y455409D01*
X401774Y455320D01*
X401668Y455228D01*
X401565Y455133D01*
X401464Y455036D01*
X401367Y454935D01*
X401272Y454832D01*
X401180Y454726D01*
X401091Y454617D01*
X401005Y454507D01*
X400922Y454393D01*
X400843Y454278D01*
X400766Y454160D01*
X400693Y454040D01*
X400624Y453919D01*
X400558Y453795D01*
X400495Y453669D01*
X400436Y453542D01*
X400381Y453413D01*
X400329Y453283D01*
X400281Y453151D01*
X400236Y453018D01*
X400195Y452884D01*
X400158Y452749D01*
X400125Y452613D01*
X400096Y452475D01*
X400071Y452338D01*
X400049Y452199D01*
X400031Y452060D01*
X400018Y451920D01*
X400008Y451780D01*
X400002Y451640D01*
X400000Y451500D01*
X405000Y463500D02*
X425000Y463500D01*
X405000Y803500D02*
X404860Y803502D01*
X404720Y803508D01*
X404580Y803518D01*
X404440Y803531D01*
X404301Y803549D01*
X404162Y803571D01*
X404025Y803596D01*
X403887Y803625D01*
X403751Y803658D01*
X403616Y803695D01*
X403482Y803736D01*
X403349Y803781D01*
X403217Y803829D01*
X403087Y803881D01*
X402958Y803936D01*
X402831Y803995D01*
X402705Y804058D01*
X402581Y804124D01*
X402460Y804193D01*
X402340Y804266D01*
X402222Y804343D01*
X402107Y804422D01*
X401993Y804505D01*
X401883Y804591D01*
X401774Y804680D01*
X401668Y804772D01*
X401565Y804867D01*
X401464Y804964D01*
X401367Y805065D01*
X401272Y805168D01*
X401180Y805274D01*
X401091Y805383D01*
X401005Y805493D01*
X400922Y805607D01*
X400843Y805722D01*
X400766Y805840D01*
X400693Y805960D01*
X400624Y806081D01*
X400558Y806205D01*
X400495Y806331D01*
X400436Y806458D01*
X400381Y806587D01*
X400329Y806717D01*
X400281Y806849D01*
X400236Y806982D01*
X400195Y807116D01*
X400158Y807251D01*
X400125Y807387D01*
X400096Y807525D01*
X400071Y807662D01*
X400049Y807801D01*
X400031Y807940D01*
X400018Y808080D01*
X400008Y808220D01*
X400002Y808360D01*
X400000Y808500D01*
X405000Y796500D02*
X404860Y796498D01*
X404720Y796492D01*
X404580Y796482D01*
X404440Y796469D01*
X404301Y796451D01*
X404162Y796429D01*
X404025Y796404D01*
X403887Y796375D01*
X403751Y796342D01*
X403616Y796305D01*
X403482Y796264D01*
X403349Y796219D01*
X403217Y796171D01*
X403087Y796119D01*
X402958Y796064D01*
X402831Y796005D01*
X402705Y795942D01*
X402581Y795876D01*
X402460Y795807D01*
X402340Y795734D01*
X402222Y795657D01*
X402107Y795578D01*
X401993Y795495D01*
X401883Y795409D01*
X401774Y795320D01*
X401668Y795228D01*
X401565Y795133D01*
X401464Y795036D01*
X401367Y794935D01*
X401272Y794832D01*
X401180Y794726D01*
X401091Y794617D01*
X401005Y794507D01*
X400922Y794393D01*
X400843Y794278D01*
X400766Y794160D01*
X400693Y794040D01*
X400624Y793919D01*
X400558Y793795D01*
X400495Y793669D01*
X400436Y793542D01*
X400381Y793413D01*
X400329Y793283D01*
X400281Y793151D01*
X400236Y793018D01*
X400195Y792884D01*
X400158Y792749D01*
X400125Y792613D01*
X400096Y792475D01*
X400071Y792338D01*
X400049Y792199D01*
X400031Y792060D01*
X400018Y791920D01*
X400008Y791780D01*
X400002Y791640D01*
X400000Y791500D01*
X405000Y803500D02*
X425000Y803500D01*
X425000Y796500D02*
X425140Y796498D01*
X425280Y796492D01*
X425420Y796482D01*
X425560Y796469D01*
X425699Y796451D01*
X425838Y796429D01*
X425975Y796404D01*
X426113Y796375D01*
X426249Y796342D01*
X426384Y796305D01*
X426518Y796264D01*
X426651Y796219D01*
X426783Y796171D01*
X426913Y796119D01*
X427042Y796064D01*
X427169Y796005D01*
X427295Y795942D01*
X427419Y795876D01*
X427540Y795807D01*
X427660Y795734D01*
X427778Y795657D01*
X427893Y795578D01*
X428007Y795495D01*
X428117Y795409D01*
X428226Y795320D01*
X428332Y795228D01*
X428435Y795133D01*
X428536Y795036D01*
X428633Y794935D01*
X428728Y794832D01*
X428820Y794726D01*
X428909Y794617D01*
X428995Y794507D01*
X429078Y794393D01*
X429157Y794278D01*
X429234Y794160D01*
X429307Y794040D01*
X429376Y793919D01*
X429442Y793795D01*
X429505Y793669D01*
X429564Y793542D01*
X429619Y793413D01*
X429671Y793283D01*
X429719Y793151D01*
X429764Y793018D01*
X429805Y792884D01*
X429842Y792749D01*
X429875Y792613D01*
X429904Y792475D01*
X429929Y792338D01*
X429951Y792199D01*
X429969Y792060D01*
X429982Y791920D01*
X429992Y791780D01*
X429998Y791640D01*
X430000Y791500D01*
X425000Y803500D02*
X425140Y803502D01*
X425280Y803508D01*
X425420Y803518D01*
X425560Y803531D01*
X425699Y803549D01*
X425838Y803571D01*
X425975Y803596D01*
X426113Y803625D01*
X426249Y803658D01*
X426384Y803695D01*
X426518Y803736D01*
X426651Y803781D01*
X426783Y803829D01*
X426913Y803881D01*
X427042Y803936D01*
X427169Y803995D01*
X427295Y804058D01*
X427419Y804124D01*
X427540Y804193D01*
X427660Y804266D01*
X427778Y804343D01*
X427893Y804422D01*
X428007Y804505D01*
X428117Y804591D01*
X428226Y804680D01*
X428332Y804772D01*
X428435Y804867D01*
X428536Y804964D01*
X428633Y805065D01*
X428728Y805168D01*
X428820Y805274D01*
X428909Y805383D01*
X428995Y805493D01*
X429078Y805607D01*
X429157Y805722D01*
X429234Y805840D01*
X429307Y805960D01*
X429376Y806081D01*
X429442Y806205D01*
X429505Y806331D01*
X429564Y806458D01*
X429619Y806587D01*
X429671Y806717D01*
X429719Y806849D01*
X429764Y806982D01*
X429805Y807116D01*
X429842Y807251D01*
X429875Y807387D01*
X429904Y807525D01*
X429929Y807662D01*
X429951Y807801D01*
X429969Y807940D01*
X429982Y808080D01*
X429992Y808220D01*
X429998Y808360D01*
X430000Y808500D01*
X425000Y796500D02*
X405000Y796500D01*
X425000Y456500D02*
X425140Y456498D01*
X425280Y456492D01*
X425420Y456482D01*
X425560Y456469D01*
X425699Y456451D01*
X425838Y456429D01*
X425975Y456404D01*
X426113Y456375D01*
X426249Y456342D01*
X426384Y456305D01*
X426518Y456264D01*
X426651Y456219D01*
X426783Y456171D01*
X426913Y456119D01*
X427042Y456064D01*
X427169Y456005D01*
X427295Y455942D01*
X427419Y455876D01*
X427540Y455807D01*
X427660Y455734D01*
X427778Y455657D01*
X427893Y455578D01*
X428007Y455495D01*
X428117Y455409D01*
X428226Y455320D01*
X428332Y455228D01*
X428435Y455133D01*
X428536Y455036D01*
X428633Y454935D01*
X428728Y454832D01*
X428820Y454726D01*
X428909Y454617D01*
X428995Y454507D01*
X429078Y454393D01*
X429157Y454278D01*
X429234Y454160D01*
X429307Y454040D01*
X429376Y453919D01*
X429442Y453795D01*
X429505Y453669D01*
X429564Y453542D01*
X429619Y453413D01*
X429671Y453283D01*
X429719Y453151D01*
X429764Y453018D01*
X429805Y452884D01*
X429842Y452749D01*
X429875Y452613D01*
X429904Y452475D01*
X429929Y452338D01*
X429951Y452199D01*
X429969Y452060D01*
X429982Y451920D01*
X429992Y451780D01*
X429998Y451640D01*
X430000Y451500D01*
X425000Y463500D02*
X425140Y463502D01*
X425280Y463508D01*
X425420Y463518D01*
X425560Y463531D01*
X425699Y463549D01*
X425838Y463571D01*
X425975Y463596D01*
X426113Y463625D01*
X426249Y463658D01*
X426384Y463695D01*
X426518Y463736D01*
X426651Y463781D01*
X426783Y463829D01*
X426913Y463881D01*
X427042Y463936D01*
X427169Y463995D01*
X427295Y464058D01*
X427419Y464124D01*
X427540Y464193D01*
X427660Y464266D01*
X427778Y464343D01*
X427893Y464422D01*
X428007Y464505D01*
X428117Y464591D01*
X428226Y464680D01*
X428332Y464772D01*
X428435Y464867D01*
X428536Y464964D01*
X428633Y465065D01*
X428728Y465168D01*
X428820Y465274D01*
X428909Y465383D01*
X428995Y465493D01*
X429078Y465607D01*
X429157Y465722D01*
X429234Y465840D01*
X429307Y465960D01*
X429376Y466081D01*
X429442Y466205D01*
X429505Y466331D01*
X429564Y466458D01*
X429619Y466587D01*
X429671Y466717D01*
X429719Y466849D01*
X429764Y466982D01*
X429805Y467116D01*
X429842Y467251D01*
X429875Y467387D01*
X429904Y467525D01*
X429929Y467662D01*
X429951Y467801D01*
X429969Y467940D01*
X429982Y468080D01*
X429992Y468220D01*
X429998Y468360D01*
X430000Y468500D01*
X425000Y456500D02*
X405000Y456500D01*
X803500Y425000D02*
X803502Y425140D01*
X803508Y425280D01*
X803518Y425420D01*
X803531Y425560D01*
X803549Y425699D01*
X803571Y425838D01*
X803596Y425975D01*
X803625Y426113D01*
X803658Y426249D01*
X803695Y426384D01*
X803736Y426518D01*
X803781Y426651D01*
X803829Y426783D01*
X803881Y426913D01*
X803936Y427042D01*
X803995Y427169D01*
X804058Y427295D01*
X804124Y427419D01*
X804193Y427540D01*
X804266Y427660D01*
X804343Y427778D01*
X804422Y427893D01*
X804505Y428007D01*
X804591Y428117D01*
X804680Y428226D01*
X804772Y428332D01*
X804867Y428435D01*
X804964Y428536D01*
X805065Y428633D01*
X805168Y428728D01*
X805274Y428820D01*
X805383Y428909D01*
X805493Y428995D01*
X805607Y429078D01*
X805722Y429157D01*
X805840Y429234D01*
X805960Y429307D01*
X806081Y429376D01*
X806205Y429442D01*
X806331Y429505D01*
X806458Y429564D01*
X806587Y429619D01*
X806717Y429671D01*
X806849Y429719D01*
X806982Y429764D01*
X807116Y429805D01*
X807251Y429842D01*
X807387Y429875D01*
X807525Y429904D01*
X807662Y429929D01*
X807801Y429951D01*
X807940Y429969D01*
X808080Y429982D01*
X808220Y429992D01*
X808360Y429998D01*
X808500Y430000D01*
X796500Y425000D02*
X796498Y425140D01*
X796492Y425280D01*
X796482Y425420D01*
X796469Y425560D01*
X796451Y425699D01*
X796429Y425838D01*
X796404Y425975D01*
X796375Y426113D01*
X796342Y426249D01*
X796305Y426384D01*
X796264Y426518D01*
X796219Y426651D01*
X796171Y426783D01*
X796119Y426913D01*
X796064Y427042D01*
X796005Y427169D01*
X795942Y427295D01*
X795876Y427419D01*
X795807Y427540D01*
X795734Y427660D01*
X795657Y427778D01*
X795578Y427893D01*
X795495Y428007D01*
X795409Y428117D01*
X795320Y428226D01*
X795228Y428332D01*
X795133Y428435D01*
X795036Y428536D01*
X794935Y428633D01*
X794832Y428728D01*
X794726Y428820D01*
X794617Y428909D01*
X794507Y428995D01*
X794393Y429078D01*
X794278Y429157D01*
X794160Y429234D01*
X794040Y429307D01*
X793919Y429376D01*
X793795Y429442D01*
X793669Y429505D01*
X793542Y429564D01*
X793413Y429619D01*
X793283Y429671D01*
X793151Y429719D01*
X793018Y429764D01*
X792884Y429805D01*
X792749Y429842D01*
X792613Y429875D01*
X792475Y429904D01*
X792338Y429929D01*
X792199Y429951D01*
X792060Y429969D01*
X791920Y429982D01*
X791780Y429992D01*
X791640Y429998D01*
X791500Y430000D01*
X468500Y430000D02*
X468360Y429998D01*
X468220Y429992D01*
X468080Y429982D01*
X467940Y429969D01*
X467801Y429951D01*
X467662Y429929D01*
X467525Y429904D01*
X467387Y429875D01*
X467251Y429842D01*
X467116Y429805D01*
X466982Y429764D01*
X466849Y429719D01*
X466717Y429671D01*
X466587Y429619D01*
X466458Y429564D01*
X466331Y429505D01*
X466205Y429442D01*
X466081Y429376D01*
X465960Y429307D01*
X465840Y429234D01*
X465722Y429157D01*
X465607Y429078D01*
X465493Y428995D01*
X465383Y428909D01*
X465274Y428820D01*
X465168Y428728D01*
X465065Y428633D01*
X464964Y428536D01*
X464867Y428435D01*
X464772Y428332D01*
X464680Y428226D01*
X464591Y428117D01*
X464505Y428007D01*
X464422Y427893D01*
X464343Y427778D01*
X464266Y427660D01*
X464193Y427540D01*
X464124Y427419D01*
X464058Y427295D01*
X463995Y427169D01*
X463936Y427042D01*
X463881Y426913D01*
X463829Y426783D01*
X463781Y426651D01*
X463736Y426518D01*
X463695Y426384D01*
X463658Y426249D01*
X463625Y426113D01*
X463596Y425975D01*
X463571Y425838D01*
X463549Y425699D01*
X463531Y425560D01*
X463518Y425420D01*
X463508Y425280D01*
X463502Y425140D01*
X463500Y425000D01*
X456500Y425000D02*
X456498Y425140D01*
X456492Y425280D01*
X456482Y425420D01*
X456469Y425560D01*
X456451Y425699D01*
X456429Y425838D01*
X456404Y425975D01*
X456375Y426113D01*
X456342Y426249D01*
X456305Y426384D01*
X456264Y426518D01*
X456219Y426651D01*
X456171Y426783D01*
X456119Y426913D01*
X456064Y427042D01*
X456005Y427169D01*
X455942Y427295D01*
X455876Y427419D01*
X455807Y427540D01*
X455734Y427660D01*
X455657Y427778D01*
X455578Y427893D01*
X455495Y428007D01*
X455409Y428117D01*
X455320Y428226D01*
X455228Y428332D01*
X455133Y428435D01*
X455036Y428536D01*
X454935Y428633D01*
X454832Y428728D01*
X454726Y428820D01*
X454617Y428909D01*
X454507Y428995D01*
X454393Y429078D01*
X454278Y429157D01*
X454160Y429234D01*
X454040Y429307D01*
X453919Y429376D01*
X453795Y429442D01*
X453669Y429505D01*
X453542Y429564D01*
X453413Y429619D01*
X453283Y429671D01*
X453151Y429719D01*
X453018Y429764D01*
X452884Y429805D01*
X452749Y429842D01*
X452613Y429875D01*
X452475Y429904D01*
X452338Y429929D01*
X452199Y429951D01*
X452060Y429969D01*
X451920Y429982D01*
X451780Y429992D01*
X451640Y429998D01*
X451500Y430000D01*
X38500Y430000D02*
X38360Y429998D01*
X38220Y429992D01*
X38080Y429982D01*
X37940Y429969D01*
X37801Y429951D01*
X37662Y429929D01*
X37525Y429904D01*
X37387Y429875D01*
X37251Y429842D01*
X37116Y429805D01*
X36982Y429764D01*
X36849Y429719D01*
X36717Y429671D01*
X36587Y429619D01*
X36458Y429564D01*
X36331Y429505D01*
X36205Y429442D01*
X36081Y429376D01*
X35960Y429307D01*
X35840Y429234D01*
X35722Y429157D01*
X35607Y429078D01*
X35493Y428995D01*
X35383Y428909D01*
X35274Y428820D01*
X35168Y428728D01*
X35065Y428633D01*
X34964Y428536D01*
X34867Y428435D01*
X34772Y428332D01*
X34680Y428226D01*
X34591Y428117D01*
X34505Y428007D01*
X34422Y427893D01*
X34343Y427778D01*
X34266Y427660D01*
X34193Y427540D01*
X34124Y427419D01*
X34058Y427295D01*
X33995Y427169D01*
X33936Y427042D01*
X33881Y426913D01*
X33829Y426783D01*
X33781Y426651D01*
X33736Y426518D01*
X33695Y426384D01*
X33658Y426249D01*
X33625Y426113D01*
X33596Y425975D01*
X33571Y425838D01*
X33549Y425699D01*
X33531Y425560D01*
X33518Y425420D01*
X33508Y425280D01*
X33502Y425140D01*
X33500Y425000D01*
X26500Y425000D02*
X26498Y425140D01*
X26492Y425280D01*
X26482Y425420D01*
X26469Y425560D01*
X26451Y425699D01*
X26429Y425838D01*
X26404Y425975D01*
X26375Y426113D01*
X26342Y426249D01*
X26305Y426384D01*
X26264Y426518D01*
X26219Y426651D01*
X26171Y426783D01*
X26119Y426913D01*
X26064Y427042D01*
X26005Y427169D01*
X25942Y427295D01*
X25876Y427419D01*
X25807Y427540D01*
X25734Y427660D01*
X25657Y427778D01*
X25578Y427893D01*
X25495Y428007D01*
X25409Y428117D01*
X25320Y428226D01*
X25228Y428332D01*
X25133Y428435D01*
X25036Y428536D01*
X24935Y428633D01*
X24832Y428728D01*
X24726Y428820D01*
X24617Y428909D01*
X24507Y428995D01*
X24393Y429078D01*
X24278Y429157D01*
X24160Y429234D01*
X24040Y429307D01*
X23919Y429376D01*
X23795Y429442D01*
X23669Y429505D01*
X23542Y429564D01*
X23413Y429619D01*
X23283Y429671D01*
X23151Y429719D01*
X23018Y429764D01*
X22884Y429805D01*
X22749Y429842D01*
X22613Y429875D01*
X22475Y429904D01*
X22338Y429929D01*
X22199Y429951D01*
X22060Y429969D01*
X21920Y429982D01*
X21780Y429992D01*
X21640Y429998D01*
X21500Y430000D01*
X373500Y425000D02*
X373502Y425140D01*
X373508Y425280D01*
X373518Y425420D01*
X373531Y425560D01*
X373549Y425699D01*
X373571Y425838D01*
X373596Y425975D01*
X373625Y426113D01*
X373658Y426249D01*
X373695Y426384D01*
X373736Y426518D01*
X373781Y426651D01*
X373829Y426783D01*
X373881Y426913D01*
X373936Y427042D01*
X373995Y427169D01*
X374058Y427295D01*
X374124Y427419D01*
X374193Y427540D01*
X374266Y427660D01*
X374343Y427778D01*
X374422Y427893D01*
X374505Y428007D01*
X374591Y428117D01*
X374680Y428226D01*
X374772Y428332D01*
X374867Y428435D01*
X374964Y428536D01*
X375065Y428633D01*
X375168Y428728D01*
X375274Y428820D01*
X375383Y428909D01*
X375493Y428995D01*
X375607Y429078D01*
X375722Y429157D01*
X375840Y429234D01*
X375960Y429307D01*
X376081Y429376D01*
X376205Y429442D01*
X376331Y429505D01*
X376458Y429564D01*
X376587Y429619D01*
X376717Y429671D01*
X376849Y429719D01*
X376982Y429764D01*
X377116Y429805D01*
X377251Y429842D01*
X377387Y429875D01*
X377525Y429904D01*
X377662Y429929D01*
X377801Y429951D01*
X377940Y429969D01*
X378080Y429982D01*
X378220Y429992D01*
X378360Y429998D01*
X378500Y430000D01*
X366500Y425000D02*
X366498Y425140D01*
X366492Y425280D01*
X366482Y425420D01*
X366469Y425560D01*
X366451Y425699D01*
X366429Y425838D01*
X366404Y425975D01*
X366375Y426113D01*
X366342Y426249D01*
X366305Y426384D01*
X366264Y426518D01*
X366219Y426651D01*
X366171Y426783D01*
X366119Y426913D01*
X366064Y427042D01*
X366005Y427169D01*
X365942Y427295D01*
X365876Y427419D01*
X365807Y427540D01*
X365734Y427660D01*
X365657Y427778D01*
X365578Y427893D01*
X365495Y428007D01*
X365409Y428117D01*
X365320Y428226D01*
X365228Y428332D01*
X365133Y428435D01*
X365036Y428536D01*
X364935Y428633D01*
X364832Y428728D01*
X364726Y428820D01*
X364617Y428909D01*
X364507Y428995D01*
X364393Y429078D01*
X364278Y429157D01*
X364160Y429234D01*
X364040Y429307D01*
X363919Y429376D01*
X363795Y429442D01*
X363669Y429505D01*
X363542Y429564D01*
X363413Y429619D01*
X363283Y429671D01*
X363151Y429719D01*
X363018Y429764D01*
X362884Y429805D01*
X362749Y429842D01*
X362613Y429875D01*
X362475Y429904D01*
X362338Y429929D01*
X362199Y429951D01*
X362060Y429969D01*
X361920Y429982D01*
X361780Y429992D01*
X361640Y429998D01*
X361500Y430000D01*
D11*
X78800Y63000D02*
X66200Y63000D01*
X131200Y63000D02*
X143800Y63000D01*
X78800Y17000D02*
X66200Y17000D01*
X131200Y17000D02*
X143800Y17000D01*
X161200Y63000D02*
X173800Y63000D01*
X226200Y63000D02*
X238800Y63000D01*
X173800Y17000D02*
X161200Y17000D01*
X226200Y17000D02*
X238800Y17000D01*
X256200Y63000D02*
X268800Y63000D01*
X321200Y63000D02*
X333800Y63000D01*
X268800Y17000D02*
X256200Y17000D01*
X321200Y17000D02*
X333800Y17000D01*
X78800Y143000D02*
X66200Y143000D01*
X131200Y143000D02*
X143800Y143000D01*
X78800Y97000D02*
X66200Y97000D01*
X131200Y97000D02*
X143800Y97000D01*
X161200Y143000D02*
X173800Y143000D01*
X226200Y143000D02*
X238800Y143000D01*
X173800Y97000D02*
X161200Y97000D01*
X226200Y97000D02*
X238800Y97000D01*
X256200Y143000D02*
X268800Y143000D01*
X321200Y143000D02*
X333800Y143000D01*
X268800Y97000D02*
X256200Y97000D01*
X321200Y97000D02*
X333800Y97000D01*
X78800Y223000D02*
X66200Y223000D01*
X131200Y223000D02*
X143800Y223000D01*
X78800Y177000D02*
X66200Y177000D01*
X131200Y177000D02*
X143800Y177000D01*
X161200Y223000D02*
X173800Y223000D01*
X226200Y223000D02*
X238800Y223000D01*
X173800Y177000D02*
X161200Y177000D01*
X226200Y177000D02*
X238800Y177000D01*
X256200Y223000D02*
X268800Y223000D01*
X321200Y223000D02*
X333800Y223000D01*
X268800Y177000D02*
X256200Y177000D01*
X321200Y177000D02*
X333800Y177000D01*
X78800Y303000D02*
X66200Y303000D01*
X131200Y303000D02*
X143800Y303000D01*
X78800Y257000D02*
X66200Y257000D01*
X131200Y257000D02*
X143800Y257000D01*
X161200Y303000D02*
X173800Y303000D01*
X226200Y303000D02*
X238800Y303000D01*
X173800Y257000D02*
X161200Y257000D01*
X226200Y257000D02*
X238800Y257000D01*
X256200Y303000D02*
X268800Y303000D01*
X321200Y303000D02*
X333800Y303000D01*
X268800Y257000D02*
X256200Y257000D01*
X321200Y257000D02*
X333800Y257000D01*
X78800Y383000D02*
X66200Y383000D01*
X131200Y383000D02*
X143800Y383000D01*
X78800Y337000D02*
X66200Y337000D01*
X131200Y337000D02*
X143800Y337000D01*
X161200Y383000D02*
X173800Y383000D01*
X226200Y383000D02*
X238800Y383000D01*
X173800Y337000D02*
X161200Y337000D01*
X226200Y337000D02*
X238800Y337000D01*
X256200Y383000D02*
X268800Y383000D01*
X321200Y383000D02*
X333800Y383000D01*
X268800Y337000D02*
X256200Y337000D01*
X321200Y337000D02*
X333800Y337000D01*
D12*
X295000Y360000D03*
X105000Y40000D03*
D13*
X40000Y70000D03*
X20000Y70000D03*
X40000Y90000D03*
X20000Y90000D03*
X40000Y110000D03*
X20000Y110000D03*
X40000Y130000D03*
X20000Y130000D03*
X40000Y150000D03*
X20000Y150000D03*
X20000Y170000D03*
X40000Y190000D03*
X20000Y190000D03*
X40000Y170000D03*
X40000Y210000D03*
X20000Y210000D03*
X40000Y230000D03*
X20000Y230000D03*
X40000Y250000D03*
X20000Y250000D03*
X40000Y270000D03*
X20000Y270000D03*
X40000Y290000D03*
X20000Y290000D03*
X40000Y310000D03*
X20000Y310000D03*
X40000Y330000D03*
X20000Y330000D03*
D11*
X496200Y63000D02*
X508800Y63000D01*
X561200Y63000D02*
X573800Y63000D01*
X508800Y17000D02*
X496200Y17000D01*
X561200Y17000D02*
X573800Y17000D01*
X591200Y63000D02*
X603800Y63000D01*
X656200Y63000D02*
X668800Y63000D01*
X603800Y17000D02*
X591200Y17000D01*
X656200Y17000D02*
X668800Y17000D01*
X686200Y63000D02*
X698800Y63000D01*
X751200Y63000D02*
X763800Y63000D01*
X698800Y17000D02*
X686200Y17000D01*
X751200Y17000D02*
X763800Y17000D01*
X508800Y143000D02*
X496200Y143000D01*
X561200Y143000D02*
X573800Y143000D01*
X508800Y97000D02*
X496200Y97000D01*
X561200Y97000D02*
X573800Y97000D01*
X591200Y143000D02*
X603800Y143000D01*
X656200Y143000D02*
X668800Y143000D01*
X603800Y97000D02*
X591200Y97000D01*
X656200Y97000D02*
X668800Y97000D01*
X686200Y143000D02*
X698800Y143000D01*
X751200Y143000D02*
X763800Y143000D01*
X698800Y97000D02*
X686200Y97000D01*
X751200Y97000D02*
X763800Y97000D01*
X508800Y223000D02*
X496200Y223000D01*
X561200Y223000D02*
X573800Y223000D01*
X508800Y177000D02*
X496200Y177000D01*
X561200Y177000D02*
X573800Y177000D01*
X591200Y223000D02*
X603800Y223000D01*
X656200Y223000D02*
X668800Y223000D01*
X603800Y177000D02*
X591200Y177000D01*
X656200Y177000D02*
X668800Y177000D01*
X686200Y223000D02*
X698800Y223000D01*
X751200Y223000D02*
X763800Y223000D01*
X698800Y177000D02*
X686200Y177000D01*
X751200Y177000D02*
X763800Y177000D01*
X508800Y303000D02*
X496200Y303000D01*
X561200Y303000D02*
X573800Y303000D01*
X508800Y257000D02*
X496200Y257000D01*
X561200Y257000D02*
X573800Y257000D01*
X591200Y303000D02*
X603800Y303000D01*
X656200Y303000D02*
X668800Y303000D01*
X603800Y257000D02*
X591200Y257000D01*
X656200Y257000D02*
X668800Y257000D01*
X686200Y303000D02*
X698800Y303000D01*
X751200Y303000D02*
X763800Y303000D01*
X698800Y257000D02*
X686200Y257000D01*
X751200Y257000D02*
X763800Y257000D01*
X508800Y383000D02*
X496200Y383000D01*
X561200Y383000D02*
X573800Y383000D01*
X508800Y337000D02*
X496200Y337000D01*
X561200Y337000D02*
X573800Y337000D01*
X591200Y383000D02*
X603800Y383000D01*
X656200Y383000D02*
X668800Y383000D01*
X603800Y337000D02*
X591200Y337000D01*
X656200Y337000D02*
X668800Y337000D01*
X686200Y383000D02*
X698800Y383000D01*
X751200Y383000D02*
X763800Y383000D01*
X698800Y337000D02*
X686200Y337000D01*
X751200Y337000D02*
X763800Y337000D01*
D12*
X725000Y360000D03*
X535000Y40000D03*
D13*
X470000Y70000D03*
X450000Y70000D03*
X470000Y90000D03*
X450000Y90000D03*
X470000Y110000D03*
X450000Y110000D03*
X470000Y130000D03*
X450000Y130000D03*
X470000Y150000D03*
X450000Y150000D03*
X450000Y170000D03*
X470000Y190000D03*
X450000Y190000D03*
X470000Y170000D03*
X470000Y210000D03*
X450000Y210000D03*
X470000Y230000D03*
X450000Y230000D03*
X470000Y250000D03*
X450000Y250000D03*
X470000Y270000D03*
X450000Y270000D03*
X470000Y290000D03*
X450000Y290000D03*
X470000Y310000D03*
X450000Y310000D03*
X470000Y330000D03*
X450000Y330000D03*
D11*
X78800Y493000D02*
X66200Y493000D01*
X131200Y493000D02*
X143800Y493000D01*
X78800Y447000D02*
X66200Y447000D01*
X131200Y447000D02*
X143800Y447000D01*
X161200Y493000D02*
X173800Y493000D01*
X226200Y493000D02*
X238800Y493000D01*
X173800Y447000D02*
X161200Y447000D01*
X226200Y447000D02*
X238800Y447000D01*
X256200Y493000D02*
X268800Y493000D01*
X321200Y493000D02*
X333800Y493000D01*
X268800Y447000D02*
X256200Y447000D01*
X321200Y447000D02*
X333800Y447000D01*
X78800Y573000D02*
X66200Y573000D01*
X131200Y573000D02*
X143800Y573000D01*
X78800Y527000D02*
X66200Y527000D01*
X131200Y527000D02*
X143800Y527000D01*
X161200Y573000D02*
X173800Y573000D01*
X226200Y573000D02*
X238800Y573000D01*
X173800Y527000D02*
X161200Y527000D01*
X226200Y527000D02*
X238800Y527000D01*
X256200Y573000D02*
X268800Y573000D01*
X321200Y573000D02*
X333800Y573000D01*
X268800Y527000D02*
X256200Y527000D01*
X321200Y527000D02*
X333800Y527000D01*
X78800Y653000D02*
X66200Y653000D01*
X131200Y653000D02*
X143800Y653000D01*
X78800Y607000D02*
X66200Y607000D01*
X131200Y607000D02*
X143800Y607000D01*
X161200Y653000D02*
X173800Y653000D01*
X226200Y653000D02*
X238800Y653000D01*
X173800Y607000D02*
X161200Y607000D01*
X226200Y607000D02*
X238800Y607000D01*
X256200Y653000D02*
X268800Y653000D01*
X321200Y653000D02*
X333800Y653000D01*
X268800Y607000D02*
X256200Y607000D01*
X321200Y607000D02*
X333800Y607000D01*
X78800Y733000D02*
X66200Y733000D01*
X131200Y733000D02*
X143800Y733000D01*
X78800Y687000D02*
X66200Y687000D01*
X131200Y687000D02*
X143800Y687000D01*
X161200Y733000D02*
X173800Y733000D01*
X226200Y733000D02*
X238800Y733000D01*
X173800Y687000D02*
X161200Y687000D01*
X226200Y687000D02*
X238800Y687000D01*
X256200Y733000D02*
X268800Y733000D01*
X321200Y733000D02*
X333800Y733000D01*
X268800Y687000D02*
X256200Y687000D01*
X321200Y687000D02*
X333800Y687000D01*
X78800Y813000D02*
X66200Y813000D01*
X131200Y813000D02*
X143800Y813000D01*
X78800Y767000D02*
X66200Y767000D01*
X131200Y767000D02*
X143800Y767000D01*
X161200Y813000D02*
X173800Y813000D01*
X226200Y813000D02*
X238800Y813000D01*
X173800Y767000D02*
X161200Y767000D01*
X226200Y767000D02*
X238800Y767000D01*
X256200Y813000D02*
X268800Y813000D01*
X321200Y813000D02*
X333800Y813000D01*
X268800Y767000D02*
X256200Y767000D01*
X321200Y767000D02*
X333800Y767000D01*
D12*
X295000Y790000D03*
X105000Y470000D03*
D13*
X40000Y500000D03*
X20000Y500000D03*
X40000Y520000D03*
X20000Y520000D03*
X40000Y540000D03*
X20000Y540000D03*
X40000Y560000D03*
X20000Y560000D03*
X40000Y580000D03*
X20000Y580000D03*
X20000Y600000D03*
X40000Y620000D03*
X20000Y620000D03*
X40000Y600000D03*
X40000Y640000D03*
X20000Y640000D03*
X40000Y660000D03*
X20000Y660000D03*
X40000Y680000D03*
X20000Y680000D03*
X40000Y700000D03*
X20000Y700000D03*
X40000Y720000D03*
X20000Y720000D03*
X40000Y740000D03*
X20000Y740000D03*
X40000Y760000D03*
X20000Y760000D03*
D11*
X496200Y493000D02*
X508800Y493000D01*
X561200Y493000D02*
X573800Y493000D01*
X508800Y447000D02*
X496200Y447000D01*
X561200Y447000D02*
X573800Y447000D01*
X591200Y493000D02*
X603800Y493000D01*
X656200Y493000D02*
X668800Y493000D01*
X603800Y447000D02*
X591200Y447000D01*
X656200Y447000D02*
X668800Y447000D01*
X686200Y493000D02*
X698800Y493000D01*
X751200Y493000D02*
X763800Y493000D01*
X698800Y447000D02*
X686200Y447000D01*
X751200Y447000D02*
X763800Y447000D01*
X508800Y573000D02*
X496200Y573000D01*
X561200Y573000D02*
X573800Y573000D01*
X508800Y527000D02*
X496200Y527000D01*
X561200Y527000D02*
X573800Y527000D01*
X591200Y573000D02*
X603800Y573000D01*
X656200Y573000D02*
X668800Y573000D01*
X603800Y527000D02*
X591200Y527000D01*
X656200Y527000D02*
X668800Y527000D01*
X686200Y573000D02*
X698800Y573000D01*
X751200Y573000D02*
X763800Y573000D01*
X698800Y527000D02*
X686200Y527000D01*
X751200Y527000D02*
X763800Y527000D01*
X508800Y653000D02*
X496200Y653000D01*
X561200Y653000D02*
X573800Y653000D01*
X508800Y607000D02*
X496200Y607000D01*
X561200Y607000D02*
X573800Y607000D01*
X591200Y653000D02*
X603800Y653000D01*
X656200Y653000D02*
X668800Y653000D01*
X603800Y607000D02*
X591200Y607000D01*
X656200Y607000D02*
X668800Y607000D01*
X686200Y653000D02*
X698800Y653000D01*
X751200Y653000D02*
X763800Y653000D01*
X698800Y607000D02*
X686200Y607000D01*
X751200Y607000D02*
X763800Y607000D01*
X508800Y733000D02*
X496200Y733000D01*
X561200Y733000D02*
X573800Y733000D01*
X508800Y687000D02*
X496200Y687000D01*
X561200Y687000D02*
X573800Y687000D01*
X591200Y733000D02*
X603800Y733000D01*
X656200Y733000D02*
X668800Y733000D01*
X603800Y687000D02*
X591200Y687000D01*
X656200Y687000D02*
X668800Y687000D01*
X686200Y733000D02*
X698800Y733000D01*
X751200Y733000D02*
X763800Y733000D01*
X698800Y687000D02*
X686200Y687000D01*
X751200Y687000D02*
X763800Y687000D01*
X508800Y813000D02*
X496200Y813000D01*
X561200Y813000D02*
X573800Y813000D01*
X508800Y767000D02*
X496200Y767000D01*
X561200Y767000D02*
X573800Y767000D01*
X591200Y813000D02*
X603800Y813000D01*
X656200Y813000D02*
X668800Y813000D01*
X603800Y767000D02*
X591200Y767000D01*
X656200Y767000D02*
X668800Y767000D01*
X686200Y813000D02*
X698800Y813000D01*
X751200Y813000D02*
X763800Y813000D01*
X698800Y767000D02*
X686200Y767000D01*
X751200Y767000D02*
X763800Y767000D01*
D12*
X725000Y790000D03*
X535000Y470000D03*
D13*
X470000Y500000D03*
X450000Y500000D03*
X470000Y520000D03*
X450000Y520000D03*
X470000Y540000D03*
X450000Y540000D03*
X470000Y560000D03*
X450000Y560000D03*
X470000Y580000D03*
X450000Y580000D03*
X450000Y600000D03*
X470000Y620000D03*
X450000Y620000D03*
X470000Y600000D03*
X470000Y640000D03*
X450000Y640000D03*
X470000Y660000D03*
X450000Y660000D03*
X470000Y680000D03*
X450000Y680000D03*
X470000Y700000D03*
X450000Y700000D03*
X470000Y720000D03*
X450000Y720000D03*
X470000Y740000D03*
X450000Y740000D03*
X470000Y760000D03*
X450000Y760000D03*
D14*
X30000Y370000D03*
X370000Y370000D03*
X370000Y30000D03*
X30000Y30000D03*
X460000Y370000D03*
X800000Y370000D03*
X800000Y30000D03*
X460000Y30000D03*
X30000Y800000D03*
X370000Y800000D03*
X370000Y460000D03*
X30000Y460000D03*
X460000Y800000D03*
X800000Y800000D03*
X800000Y460000D03*
X460000Y460000D03*
M02*
