G75*
%MOIN*%
%OFA0B0*%
%FSLAX25Y25*%
%IPPOS*%
%LPD*%
%AMOC8*
5,1,8,0,0,1.08239X$1,22.5*
%
%ADD10C,0.00000*%
%ADD11C,0.00941*%
%ADD12C,0.01134*%
%ADD13C,0.03780*%
%ADD14OC8,0.07087*%
%ADD15C,0.00935*%
%ADD16OC8,0.05906*%
%ADD17C,0.01077*%
%ADD18C,0.00945*%
%ADD19C,0.05512*%
%ADD20C,0.00950*%
%ADD21R,0.05906X0.05906*%
%ADD22R,0.06102X0.06102*%
%ADD23C,0.02008*%
%ADD24C,0.01575*%
%ADD25OC8,0.20472*%
%ADD26OC8,0.05118*%
D10*
X0001680Y0001394D02*
X0001680Y0158874D01*
X0009555Y0158874D01*
X0009555Y0174622D01*
X0001680Y0174622D01*
X0001680Y0332102D01*
X0025303Y0332102D01*
X0025303Y0313205D01*
X0025305Y0313081D01*
X0025311Y0312958D01*
X0025320Y0312834D01*
X0025334Y0312712D01*
X0025351Y0312589D01*
X0025373Y0312467D01*
X0025398Y0312346D01*
X0025427Y0312226D01*
X0025459Y0312107D01*
X0025496Y0311988D01*
X0025536Y0311871D01*
X0025579Y0311756D01*
X0025627Y0311641D01*
X0025678Y0311529D01*
X0025732Y0311418D01*
X0025790Y0311308D01*
X0025851Y0311201D01*
X0025916Y0311095D01*
X0025984Y0310992D01*
X0026055Y0310891D01*
X0026129Y0310792D01*
X0026206Y0310695D01*
X0026287Y0310601D01*
X0026370Y0310510D01*
X0026456Y0310421D01*
X0026545Y0310335D01*
X0026636Y0310252D01*
X0026730Y0310171D01*
X0026827Y0310094D01*
X0026926Y0310020D01*
X0027027Y0309949D01*
X0027130Y0309881D01*
X0027236Y0309816D01*
X0027343Y0309755D01*
X0027453Y0309697D01*
X0027564Y0309643D01*
X0027676Y0309592D01*
X0027791Y0309544D01*
X0027906Y0309501D01*
X0028023Y0309461D01*
X0028142Y0309424D01*
X0028261Y0309392D01*
X0028381Y0309363D01*
X0028502Y0309338D01*
X0028624Y0309316D01*
X0028747Y0309299D01*
X0028869Y0309285D01*
X0028993Y0309276D01*
X0029116Y0309270D01*
X0029240Y0309268D01*
X0084358Y0309268D01*
X0084482Y0309270D01*
X0084605Y0309276D01*
X0084729Y0309285D01*
X0084851Y0309299D01*
X0084974Y0309316D01*
X0085096Y0309338D01*
X0085217Y0309363D01*
X0085337Y0309392D01*
X0085456Y0309424D01*
X0085575Y0309461D01*
X0085692Y0309501D01*
X0085807Y0309544D01*
X0085922Y0309592D01*
X0086034Y0309643D01*
X0086145Y0309697D01*
X0086255Y0309755D01*
X0086362Y0309816D01*
X0086468Y0309881D01*
X0086571Y0309949D01*
X0086672Y0310020D01*
X0086771Y0310094D01*
X0086868Y0310171D01*
X0086962Y0310252D01*
X0087053Y0310335D01*
X0087142Y0310421D01*
X0087228Y0310510D01*
X0087311Y0310601D01*
X0087392Y0310695D01*
X0087469Y0310792D01*
X0087543Y0310891D01*
X0087614Y0310992D01*
X0087682Y0311095D01*
X0087747Y0311201D01*
X0087808Y0311308D01*
X0087866Y0311418D01*
X0087920Y0311529D01*
X0087971Y0311641D01*
X0088019Y0311756D01*
X0088062Y0311871D01*
X0088102Y0311988D01*
X0088139Y0312107D01*
X0088171Y0312226D01*
X0088200Y0312346D01*
X0088225Y0312467D01*
X0088247Y0312589D01*
X0088264Y0312712D01*
X0088278Y0312834D01*
X0088287Y0312958D01*
X0088293Y0313081D01*
X0088295Y0313205D01*
X0088295Y0332102D01*
X0127665Y0332102D01*
X0127665Y0313205D01*
X0127667Y0313081D01*
X0127673Y0312958D01*
X0127682Y0312834D01*
X0127696Y0312712D01*
X0127713Y0312589D01*
X0127735Y0312467D01*
X0127760Y0312346D01*
X0127789Y0312226D01*
X0127821Y0312107D01*
X0127858Y0311988D01*
X0127898Y0311871D01*
X0127941Y0311756D01*
X0127989Y0311641D01*
X0128040Y0311529D01*
X0128094Y0311418D01*
X0128152Y0311308D01*
X0128213Y0311201D01*
X0128278Y0311095D01*
X0128346Y0310992D01*
X0128417Y0310891D01*
X0128491Y0310792D01*
X0128568Y0310695D01*
X0128649Y0310601D01*
X0128732Y0310510D01*
X0128818Y0310421D01*
X0128907Y0310335D01*
X0128998Y0310252D01*
X0129092Y0310171D01*
X0129189Y0310094D01*
X0129288Y0310020D01*
X0129389Y0309949D01*
X0129492Y0309881D01*
X0129598Y0309816D01*
X0129705Y0309755D01*
X0129815Y0309697D01*
X0129926Y0309643D01*
X0130038Y0309592D01*
X0130153Y0309544D01*
X0130268Y0309501D01*
X0130385Y0309461D01*
X0130504Y0309424D01*
X0130623Y0309392D01*
X0130743Y0309363D01*
X0130864Y0309338D01*
X0130986Y0309316D01*
X0131109Y0309299D01*
X0131231Y0309285D01*
X0131355Y0309276D01*
X0131478Y0309270D01*
X0131602Y0309268D01*
X0131726Y0309270D01*
X0131849Y0309276D01*
X0131973Y0309285D01*
X0132095Y0309299D01*
X0132218Y0309316D01*
X0132340Y0309338D01*
X0132461Y0309363D01*
X0132581Y0309392D01*
X0132700Y0309424D01*
X0132819Y0309461D01*
X0132936Y0309501D01*
X0133051Y0309544D01*
X0133166Y0309592D01*
X0133278Y0309643D01*
X0133389Y0309697D01*
X0133499Y0309755D01*
X0133606Y0309816D01*
X0133712Y0309881D01*
X0133815Y0309949D01*
X0133916Y0310020D01*
X0134015Y0310094D01*
X0134112Y0310171D01*
X0134206Y0310252D01*
X0134297Y0310335D01*
X0134386Y0310421D01*
X0134472Y0310510D01*
X0134555Y0310601D01*
X0134636Y0310695D01*
X0134713Y0310792D01*
X0134787Y0310891D01*
X0134858Y0310992D01*
X0134926Y0311095D01*
X0134991Y0311201D01*
X0135052Y0311308D01*
X0135110Y0311418D01*
X0135164Y0311529D01*
X0135215Y0311641D01*
X0135263Y0311756D01*
X0135306Y0311871D01*
X0135346Y0311988D01*
X0135383Y0312107D01*
X0135415Y0312226D01*
X0135444Y0312346D01*
X0135469Y0312467D01*
X0135491Y0312589D01*
X0135508Y0312712D01*
X0135522Y0312834D01*
X0135531Y0312958D01*
X0135537Y0313081D01*
X0135539Y0313205D01*
X0135539Y0332102D01*
X0159161Y0332102D01*
X0159161Y0324228D01*
X0174909Y0324228D01*
X0174909Y0332102D01*
X0198531Y0332102D01*
X0198531Y0313205D01*
X0198533Y0313081D01*
X0198539Y0312958D01*
X0198548Y0312834D01*
X0198562Y0312712D01*
X0198579Y0312589D01*
X0198601Y0312467D01*
X0198626Y0312346D01*
X0198655Y0312226D01*
X0198687Y0312107D01*
X0198724Y0311988D01*
X0198764Y0311871D01*
X0198807Y0311756D01*
X0198855Y0311641D01*
X0198906Y0311529D01*
X0198960Y0311418D01*
X0199018Y0311308D01*
X0199079Y0311201D01*
X0199144Y0311095D01*
X0199212Y0310992D01*
X0199283Y0310891D01*
X0199357Y0310792D01*
X0199434Y0310695D01*
X0199515Y0310601D01*
X0199598Y0310510D01*
X0199684Y0310421D01*
X0199773Y0310335D01*
X0199864Y0310252D01*
X0199958Y0310171D01*
X0200055Y0310094D01*
X0200154Y0310020D01*
X0200255Y0309949D01*
X0200358Y0309881D01*
X0200464Y0309816D01*
X0200571Y0309755D01*
X0200681Y0309697D01*
X0200792Y0309643D01*
X0200904Y0309592D01*
X0201019Y0309544D01*
X0201134Y0309501D01*
X0201251Y0309461D01*
X0201370Y0309424D01*
X0201489Y0309392D01*
X0201609Y0309363D01*
X0201730Y0309338D01*
X0201852Y0309316D01*
X0201975Y0309299D01*
X0202097Y0309285D01*
X0202221Y0309276D01*
X0202344Y0309270D01*
X0202468Y0309268D01*
X0257586Y0309268D01*
X0257710Y0309270D01*
X0257833Y0309276D01*
X0257957Y0309285D01*
X0258079Y0309299D01*
X0258202Y0309316D01*
X0258324Y0309338D01*
X0258445Y0309363D01*
X0258565Y0309392D01*
X0258684Y0309424D01*
X0258803Y0309461D01*
X0258920Y0309501D01*
X0259035Y0309544D01*
X0259150Y0309592D01*
X0259262Y0309643D01*
X0259373Y0309697D01*
X0259483Y0309755D01*
X0259590Y0309816D01*
X0259696Y0309881D01*
X0259799Y0309949D01*
X0259900Y0310020D01*
X0259999Y0310094D01*
X0260096Y0310171D01*
X0260190Y0310252D01*
X0260281Y0310335D01*
X0260370Y0310421D01*
X0260456Y0310510D01*
X0260539Y0310601D01*
X0260620Y0310695D01*
X0260697Y0310792D01*
X0260771Y0310891D01*
X0260842Y0310992D01*
X0260910Y0311095D01*
X0260975Y0311201D01*
X0261036Y0311308D01*
X0261094Y0311418D01*
X0261148Y0311529D01*
X0261199Y0311641D01*
X0261247Y0311756D01*
X0261290Y0311871D01*
X0261330Y0311988D01*
X0261367Y0312107D01*
X0261399Y0312226D01*
X0261428Y0312346D01*
X0261453Y0312467D01*
X0261475Y0312589D01*
X0261492Y0312712D01*
X0261506Y0312834D01*
X0261515Y0312958D01*
X0261521Y0313081D01*
X0261523Y0313205D01*
X0261523Y0332102D01*
X0300893Y0332102D01*
X0300893Y0313205D01*
X0300895Y0313081D01*
X0300901Y0312958D01*
X0300910Y0312834D01*
X0300924Y0312712D01*
X0300941Y0312589D01*
X0300963Y0312467D01*
X0300988Y0312346D01*
X0301017Y0312226D01*
X0301049Y0312107D01*
X0301086Y0311988D01*
X0301126Y0311871D01*
X0301169Y0311756D01*
X0301217Y0311641D01*
X0301268Y0311529D01*
X0301322Y0311418D01*
X0301380Y0311308D01*
X0301441Y0311201D01*
X0301506Y0311095D01*
X0301574Y0310992D01*
X0301645Y0310891D01*
X0301719Y0310792D01*
X0301796Y0310695D01*
X0301877Y0310601D01*
X0301960Y0310510D01*
X0302046Y0310421D01*
X0302135Y0310335D01*
X0302226Y0310252D01*
X0302320Y0310171D01*
X0302417Y0310094D01*
X0302516Y0310020D01*
X0302617Y0309949D01*
X0302720Y0309881D01*
X0302826Y0309816D01*
X0302933Y0309755D01*
X0303043Y0309697D01*
X0303154Y0309643D01*
X0303266Y0309592D01*
X0303381Y0309544D01*
X0303496Y0309501D01*
X0303613Y0309461D01*
X0303732Y0309424D01*
X0303851Y0309392D01*
X0303971Y0309363D01*
X0304092Y0309338D01*
X0304214Y0309316D01*
X0304337Y0309299D01*
X0304459Y0309285D01*
X0304583Y0309276D01*
X0304706Y0309270D01*
X0304830Y0309268D01*
X0304954Y0309270D01*
X0305077Y0309276D01*
X0305201Y0309285D01*
X0305323Y0309299D01*
X0305446Y0309316D01*
X0305568Y0309338D01*
X0305689Y0309363D01*
X0305809Y0309392D01*
X0305928Y0309424D01*
X0306047Y0309461D01*
X0306164Y0309501D01*
X0306279Y0309544D01*
X0306394Y0309592D01*
X0306506Y0309643D01*
X0306617Y0309697D01*
X0306727Y0309755D01*
X0306834Y0309816D01*
X0306940Y0309881D01*
X0307043Y0309949D01*
X0307144Y0310020D01*
X0307243Y0310094D01*
X0307340Y0310171D01*
X0307434Y0310252D01*
X0307525Y0310335D01*
X0307614Y0310421D01*
X0307700Y0310510D01*
X0307783Y0310601D01*
X0307864Y0310695D01*
X0307941Y0310792D01*
X0308015Y0310891D01*
X0308086Y0310992D01*
X0308154Y0311095D01*
X0308219Y0311201D01*
X0308280Y0311308D01*
X0308338Y0311418D01*
X0308392Y0311529D01*
X0308443Y0311641D01*
X0308491Y0311756D01*
X0308534Y0311871D01*
X0308574Y0311988D01*
X0308611Y0312107D01*
X0308643Y0312226D01*
X0308672Y0312346D01*
X0308697Y0312467D01*
X0308719Y0312589D01*
X0308736Y0312712D01*
X0308750Y0312834D01*
X0308759Y0312958D01*
X0308765Y0313081D01*
X0308767Y0313205D01*
X0308767Y0332102D01*
X0332389Y0332102D01*
X0332389Y0174622D01*
X0324515Y0174622D01*
X0324515Y0158874D01*
X0332389Y0158874D01*
X0332389Y0001394D01*
X0174909Y0001394D01*
X0174909Y0009268D01*
X0159161Y0009268D01*
X0159161Y0001394D01*
X0001680Y0001394D01*
X0041444Y0111630D02*
X0041446Y0111709D01*
X0041452Y0111788D01*
X0041462Y0111867D01*
X0041476Y0111945D01*
X0041493Y0112022D01*
X0041515Y0112098D01*
X0041540Y0112173D01*
X0041570Y0112246D01*
X0041602Y0112318D01*
X0041639Y0112389D01*
X0041679Y0112457D01*
X0041722Y0112523D01*
X0041768Y0112587D01*
X0041818Y0112649D01*
X0041871Y0112708D01*
X0041926Y0112764D01*
X0041985Y0112818D01*
X0042046Y0112868D01*
X0042109Y0112916D01*
X0042175Y0112960D01*
X0042243Y0113001D01*
X0042313Y0113038D01*
X0042384Y0113072D01*
X0042458Y0113102D01*
X0042532Y0113128D01*
X0042608Y0113150D01*
X0042685Y0113169D01*
X0042763Y0113184D01*
X0042841Y0113195D01*
X0042920Y0113202D01*
X0042999Y0113205D01*
X0043078Y0113204D01*
X0043157Y0113199D01*
X0043236Y0113190D01*
X0043314Y0113177D01*
X0043391Y0113160D01*
X0043468Y0113140D01*
X0043543Y0113115D01*
X0043617Y0113087D01*
X0043690Y0113055D01*
X0043760Y0113020D01*
X0043829Y0112981D01*
X0043896Y0112938D01*
X0043961Y0112892D01*
X0044023Y0112844D01*
X0044083Y0112792D01*
X0044140Y0112737D01*
X0044194Y0112679D01*
X0044245Y0112619D01*
X0044293Y0112556D01*
X0044338Y0112491D01*
X0044380Y0112423D01*
X0044418Y0112354D01*
X0044452Y0112283D01*
X0044483Y0112210D01*
X0044511Y0112135D01*
X0044534Y0112060D01*
X0044554Y0111983D01*
X0044570Y0111906D01*
X0044582Y0111827D01*
X0044590Y0111749D01*
X0044594Y0111670D01*
X0044594Y0111590D01*
X0044590Y0111511D01*
X0044582Y0111433D01*
X0044570Y0111354D01*
X0044554Y0111277D01*
X0044534Y0111200D01*
X0044511Y0111125D01*
X0044483Y0111050D01*
X0044452Y0110977D01*
X0044418Y0110906D01*
X0044380Y0110837D01*
X0044338Y0110769D01*
X0044293Y0110704D01*
X0044245Y0110641D01*
X0044194Y0110581D01*
X0044140Y0110523D01*
X0044083Y0110468D01*
X0044023Y0110416D01*
X0043961Y0110368D01*
X0043896Y0110322D01*
X0043829Y0110279D01*
X0043760Y0110240D01*
X0043690Y0110205D01*
X0043617Y0110173D01*
X0043543Y0110145D01*
X0043468Y0110120D01*
X0043391Y0110100D01*
X0043314Y0110083D01*
X0043236Y0110070D01*
X0043157Y0110061D01*
X0043078Y0110056D01*
X0042999Y0110055D01*
X0042920Y0110058D01*
X0042841Y0110065D01*
X0042763Y0110076D01*
X0042685Y0110091D01*
X0042608Y0110110D01*
X0042532Y0110132D01*
X0042458Y0110158D01*
X0042384Y0110188D01*
X0042313Y0110222D01*
X0042243Y0110259D01*
X0042175Y0110300D01*
X0042109Y0110344D01*
X0042046Y0110392D01*
X0041985Y0110442D01*
X0041926Y0110496D01*
X0041871Y0110552D01*
X0041818Y0110611D01*
X0041768Y0110673D01*
X0041722Y0110737D01*
X0041679Y0110803D01*
X0041639Y0110871D01*
X0041602Y0110942D01*
X0041570Y0111014D01*
X0041540Y0111087D01*
X0041515Y0111162D01*
X0041493Y0111238D01*
X0041476Y0111315D01*
X0041462Y0111393D01*
X0041452Y0111472D01*
X0041446Y0111551D01*
X0041444Y0111630D01*
X0029240Y0136039D02*
X0084358Y0136039D01*
X0084482Y0136041D01*
X0084605Y0136047D01*
X0084729Y0136056D01*
X0084851Y0136070D01*
X0084974Y0136087D01*
X0085096Y0136109D01*
X0085217Y0136134D01*
X0085337Y0136163D01*
X0085456Y0136195D01*
X0085575Y0136232D01*
X0085692Y0136272D01*
X0085807Y0136315D01*
X0085922Y0136363D01*
X0086034Y0136414D01*
X0086145Y0136468D01*
X0086255Y0136526D01*
X0086362Y0136587D01*
X0086468Y0136652D01*
X0086571Y0136720D01*
X0086672Y0136791D01*
X0086771Y0136865D01*
X0086868Y0136942D01*
X0086962Y0137023D01*
X0087053Y0137106D01*
X0087142Y0137192D01*
X0087228Y0137281D01*
X0087311Y0137372D01*
X0087392Y0137466D01*
X0087469Y0137563D01*
X0087543Y0137662D01*
X0087614Y0137763D01*
X0087682Y0137866D01*
X0087747Y0137972D01*
X0087808Y0138079D01*
X0087866Y0138189D01*
X0087920Y0138300D01*
X0087971Y0138412D01*
X0088019Y0138527D01*
X0088062Y0138642D01*
X0088102Y0138759D01*
X0088139Y0138878D01*
X0088171Y0138997D01*
X0088200Y0139117D01*
X0088225Y0139238D01*
X0088247Y0139360D01*
X0088264Y0139483D01*
X0088278Y0139605D01*
X0088287Y0139729D01*
X0088293Y0139852D01*
X0088295Y0139976D01*
X0088295Y0158874D01*
X0127665Y0158874D01*
X0127665Y0139976D01*
X0127667Y0139852D01*
X0127673Y0139729D01*
X0127682Y0139605D01*
X0127696Y0139483D01*
X0127713Y0139360D01*
X0127735Y0139238D01*
X0127760Y0139117D01*
X0127789Y0138997D01*
X0127821Y0138878D01*
X0127858Y0138759D01*
X0127898Y0138642D01*
X0127941Y0138527D01*
X0127989Y0138412D01*
X0128040Y0138300D01*
X0128094Y0138189D01*
X0128152Y0138079D01*
X0128213Y0137972D01*
X0128278Y0137866D01*
X0128346Y0137763D01*
X0128417Y0137662D01*
X0128491Y0137563D01*
X0128568Y0137466D01*
X0128649Y0137372D01*
X0128732Y0137281D01*
X0128818Y0137192D01*
X0128907Y0137106D01*
X0128998Y0137023D01*
X0129092Y0136942D01*
X0129189Y0136865D01*
X0129288Y0136791D01*
X0129389Y0136720D01*
X0129492Y0136652D01*
X0129598Y0136587D01*
X0129705Y0136526D01*
X0129815Y0136468D01*
X0129926Y0136414D01*
X0130038Y0136363D01*
X0130153Y0136315D01*
X0130268Y0136272D01*
X0130385Y0136232D01*
X0130504Y0136195D01*
X0130623Y0136163D01*
X0130743Y0136134D01*
X0130864Y0136109D01*
X0130986Y0136087D01*
X0131109Y0136070D01*
X0131231Y0136056D01*
X0131355Y0136047D01*
X0131478Y0136041D01*
X0131602Y0136039D01*
X0131726Y0136041D01*
X0131849Y0136047D01*
X0131973Y0136056D01*
X0132095Y0136070D01*
X0132218Y0136087D01*
X0132340Y0136109D01*
X0132461Y0136134D01*
X0132581Y0136163D01*
X0132700Y0136195D01*
X0132819Y0136232D01*
X0132936Y0136272D01*
X0133051Y0136315D01*
X0133166Y0136363D01*
X0133278Y0136414D01*
X0133389Y0136468D01*
X0133499Y0136526D01*
X0133606Y0136587D01*
X0133712Y0136652D01*
X0133815Y0136720D01*
X0133916Y0136791D01*
X0134015Y0136865D01*
X0134112Y0136942D01*
X0134206Y0137023D01*
X0134297Y0137106D01*
X0134386Y0137192D01*
X0134472Y0137281D01*
X0134555Y0137372D01*
X0134636Y0137466D01*
X0134713Y0137563D01*
X0134787Y0137662D01*
X0134858Y0137763D01*
X0134926Y0137866D01*
X0134991Y0137972D01*
X0135052Y0138079D01*
X0135110Y0138189D01*
X0135164Y0138300D01*
X0135215Y0138412D01*
X0135263Y0138527D01*
X0135306Y0138642D01*
X0135346Y0138759D01*
X0135383Y0138878D01*
X0135415Y0138997D01*
X0135444Y0139117D01*
X0135469Y0139238D01*
X0135491Y0139360D01*
X0135508Y0139483D01*
X0135522Y0139605D01*
X0135531Y0139729D01*
X0135537Y0139852D01*
X0135539Y0139976D01*
X0135539Y0158874D01*
X0143413Y0158874D01*
X0143413Y0174622D01*
X0017429Y0174622D01*
X0017429Y0158874D01*
X0025303Y0158874D01*
X0025303Y0139976D01*
X0025305Y0139852D01*
X0025311Y0139729D01*
X0025320Y0139605D01*
X0025334Y0139483D01*
X0025351Y0139360D01*
X0025373Y0139238D01*
X0025398Y0139117D01*
X0025427Y0138997D01*
X0025459Y0138878D01*
X0025496Y0138759D01*
X0025536Y0138642D01*
X0025579Y0138527D01*
X0025627Y0138412D01*
X0025678Y0138300D01*
X0025732Y0138189D01*
X0025790Y0138079D01*
X0025851Y0137972D01*
X0025916Y0137866D01*
X0025984Y0137763D01*
X0026055Y0137662D01*
X0026129Y0137563D01*
X0026206Y0137466D01*
X0026287Y0137372D01*
X0026370Y0137281D01*
X0026456Y0137192D01*
X0026545Y0137106D01*
X0026636Y0137023D01*
X0026730Y0136942D01*
X0026827Y0136865D01*
X0026926Y0136791D01*
X0027027Y0136720D01*
X0027130Y0136652D01*
X0027236Y0136587D01*
X0027343Y0136526D01*
X0027453Y0136468D01*
X0027564Y0136414D01*
X0027676Y0136363D01*
X0027791Y0136315D01*
X0027906Y0136272D01*
X0028023Y0136232D01*
X0028142Y0136195D01*
X0028261Y0136163D01*
X0028381Y0136134D01*
X0028502Y0136109D01*
X0028624Y0136087D01*
X0028747Y0136070D01*
X0028869Y0136056D01*
X0028993Y0136047D01*
X0029116Y0136041D01*
X0029240Y0136039D01*
X0151287Y0158874D02*
X0151287Y0174622D01*
X0159161Y0174622D01*
X0159161Y0182496D01*
X0174909Y0182496D01*
X0174909Y0174622D01*
X0182783Y0174622D01*
X0182783Y0158874D01*
X0174909Y0158874D01*
X0174909Y0151000D01*
X0159161Y0151000D01*
X0159161Y0158874D01*
X0151287Y0158874D01*
X0159161Y0143126D02*
X0174909Y0143126D01*
X0174909Y0017142D01*
X0159161Y0017142D01*
X0159161Y0143126D01*
X0190657Y0158874D02*
X0190657Y0174622D01*
X0316641Y0174622D01*
X0316641Y0158874D01*
X0308767Y0158874D01*
X0308767Y0139976D01*
X0304830Y0136039D02*
X0304706Y0136041D01*
X0304583Y0136047D01*
X0304459Y0136056D01*
X0304337Y0136070D01*
X0304214Y0136087D01*
X0304092Y0136109D01*
X0303971Y0136134D01*
X0303851Y0136163D01*
X0303732Y0136195D01*
X0303613Y0136232D01*
X0303496Y0136272D01*
X0303381Y0136315D01*
X0303266Y0136363D01*
X0303154Y0136414D01*
X0303043Y0136468D01*
X0302933Y0136526D01*
X0302826Y0136587D01*
X0302720Y0136652D01*
X0302617Y0136720D01*
X0302516Y0136791D01*
X0302417Y0136865D01*
X0302320Y0136942D01*
X0302226Y0137023D01*
X0302135Y0137106D01*
X0302046Y0137192D01*
X0301960Y0137281D01*
X0301877Y0137372D01*
X0301796Y0137466D01*
X0301719Y0137563D01*
X0301645Y0137662D01*
X0301574Y0137763D01*
X0301506Y0137866D01*
X0301441Y0137972D01*
X0301380Y0138079D01*
X0301322Y0138189D01*
X0301268Y0138300D01*
X0301217Y0138412D01*
X0301169Y0138527D01*
X0301126Y0138642D01*
X0301086Y0138759D01*
X0301049Y0138878D01*
X0301017Y0138997D01*
X0300988Y0139117D01*
X0300963Y0139238D01*
X0300941Y0139360D01*
X0300924Y0139483D01*
X0300910Y0139605D01*
X0300901Y0139729D01*
X0300895Y0139852D01*
X0300893Y0139976D01*
X0300893Y0158874D01*
X0261523Y0158874D01*
X0261523Y0139976D01*
X0261521Y0139852D01*
X0261515Y0139729D01*
X0261506Y0139605D01*
X0261492Y0139483D01*
X0261475Y0139360D01*
X0261453Y0139238D01*
X0261428Y0139117D01*
X0261399Y0138997D01*
X0261367Y0138878D01*
X0261330Y0138759D01*
X0261290Y0138642D01*
X0261247Y0138527D01*
X0261199Y0138412D01*
X0261148Y0138300D01*
X0261094Y0138189D01*
X0261036Y0138079D01*
X0260975Y0137972D01*
X0260910Y0137866D01*
X0260842Y0137763D01*
X0260771Y0137662D01*
X0260697Y0137563D01*
X0260620Y0137466D01*
X0260539Y0137372D01*
X0260456Y0137281D01*
X0260370Y0137192D01*
X0260281Y0137106D01*
X0260190Y0137023D01*
X0260096Y0136942D01*
X0259999Y0136865D01*
X0259900Y0136791D01*
X0259799Y0136720D01*
X0259696Y0136652D01*
X0259590Y0136587D01*
X0259483Y0136526D01*
X0259373Y0136468D01*
X0259262Y0136414D01*
X0259150Y0136363D01*
X0259035Y0136315D01*
X0258920Y0136272D01*
X0258803Y0136232D01*
X0258684Y0136195D01*
X0258565Y0136163D01*
X0258445Y0136134D01*
X0258324Y0136109D01*
X0258202Y0136087D01*
X0258079Y0136070D01*
X0257957Y0136056D01*
X0257833Y0136047D01*
X0257710Y0136041D01*
X0257586Y0136039D01*
X0202468Y0136039D01*
X0202344Y0136041D01*
X0202221Y0136047D01*
X0202097Y0136056D01*
X0201975Y0136070D01*
X0201852Y0136087D01*
X0201730Y0136109D01*
X0201609Y0136134D01*
X0201489Y0136163D01*
X0201370Y0136195D01*
X0201251Y0136232D01*
X0201134Y0136272D01*
X0201019Y0136315D01*
X0200904Y0136363D01*
X0200792Y0136414D01*
X0200681Y0136468D01*
X0200571Y0136526D01*
X0200464Y0136587D01*
X0200358Y0136652D01*
X0200255Y0136720D01*
X0200154Y0136791D01*
X0200055Y0136865D01*
X0199958Y0136942D01*
X0199864Y0137023D01*
X0199773Y0137106D01*
X0199684Y0137192D01*
X0199598Y0137281D01*
X0199515Y0137372D01*
X0199434Y0137466D01*
X0199357Y0137563D01*
X0199283Y0137662D01*
X0199212Y0137763D01*
X0199144Y0137866D01*
X0199079Y0137972D01*
X0199018Y0138079D01*
X0198960Y0138189D01*
X0198906Y0138300D01*
X0198855Y0138412D01*
X0198807Y0138527D01*
X0198764Y0138642D01*
X0198724Y0138759D01*
X0198687Y0138878D01*
X0198655Y0138997D01*
X0198626Y0139117D01*
X0198601Y0139238D01*
X0198579Y0139360D01*
X0198562Y0139483D01*
X0198548Y0139605D01*
X0198539Y0139729D01*
X0198533Y0139852D01*
X0198531Y0139976D01*
X0198531Y0158874D01*
X0190657Y0158874D01*
X0174909Y0190370D02*
X0159161Y0190370D01*
X0159161Y0316354D01*
X0174909Y0316354D01*
X0174909Y0190370D01*
X0214672Y0111630D02*
X0214674Y0111709D01*
X0214680Y0111788D01*
X0214690Y0111867D01*
X0214704Y0111945D01*
X0214721Y0112022D01*
X0214743Y0112098D01*
X0214768Y0112173D01*
X0214798Y0112246D01*
X0214830Y0112318D01*
X0214867Y0112389D01*
X0214907Y0112457D01*
X0214950Y0112523D01*
X0214996Y0112587D01*
X0215046Y0112649D01*
X0215099Y0112708D01*
X0215154Y0112764D01*
X0215213Y0112818D01*
X0215274Y0112868D01*
X0215337Y0112916D01*
X0215403Y0112960D01*
X0215471Y0113001D01*
X0215541Y0113038D01*
X0215612Y0113072D01*
X0215686Y0113102D01*
X0215760Y0113128D01*
X0215836Y0113150D01*
X0215913Y0113169D01*
X0215991Y0113184D01*
X0216069Y0113195D01*
X0216148Y0113202D01*
X0216227Y0113205D01*
X0216306Y0113204D01*
X0216385Y0113199D01*
X0216464Y0113190D01*
X0216542Y0113177D01*
X0216619Y0113160D01*
X0216696Y0113140D01*
X0216771Y0113115D01*
X0216845Y0113087D01*
X0216918Y0113055D01*
X0216988Y0113020D01*
X0217057Y0112981D01*
X0217124Y0112938D01*
X0217189Y0112892D01*
X0217251Y0112844D01*
X0217311Y0112792D01*
X0217368Y0112737D01*
X0217422Y0112679D01*
X0217473Y0112619D01*
X0217521Y0112556D01*
X0217566Y0112491D01*
X0217608Y0112423D01*
X0217646Y0112354D01*
X0217680Y0112283D01*
X0217711Y0112210D01*
X0217739Y0112135D01*
X0217762Y0112060D01*
X0217782Y0111983D01*
X0217798Y0111906D01*
X0217810Y0111827D01*
X0217818Y0111749D01*
X0217822Y0111670D01*
X0217822Y0111590D01*
X0217818Y0111511D01*
X0217810Y0111433D01*
X0217798Y0111354D01*
X0217782Y0111277D01*
X0217762Y0111200D01*
X0217739Y0111125D01*
X0217711Y0111050D01*
X0217680Y0110977D01*
X0217646Y0110906D01*
X0217608Y0110837D01*
X0217566Y0110769D01*
X0217521Y0110704D01*
X0217473Y0110641D01*
X0217422Y0110581D01*
X0217368Y0110523D01*
X0217311Y0110468D01*
X0217251Y0110416D01*
X0217189Y0110368D01*
X0217124Y0110322D01*
X0217057Y0110279D01*
X0216988Y0110240D01*
X0216918Y0110205D01*
X0216845Y0110173D01*
X0216771Y0110145D01*
X0216696Y0110120D01*
X0216619Y0110100D01*
X0216542Y0110083D01*
X0216464Y0110070D01*
X0216385Y0110061D01*
X0216306Y0110056D01*
X0216227Y0110055D01*
X0216148Y0110058D01*
X0216069Y0110065D01*
X0215991Y0110076D01*
X0215913Y0110091D01*
X0215836Y0110110D01*
X0215760Y0110132D01*
X0215686Y0110158D01*
X0215612Y0110188D01*
X0215541Y0110222D01*
X0215471Y0110259D01*
X0215403Y0110300D01*
X0215337Y0110344D01*
X0215274Y0110392D01*
X0215213Y0110442D01*
X0215154Y0110496D01*
X0215099Y0110552D01*
X0215046Y0110611D01*
X0214996Y0110673D01*
X0214950Y0110737D01*
X0214907Y0110803D01*
X0214867Y0110871D01*
X0214830Y0110942D01*
X0214798Y0111014D01*
X0214768Y0111087D01*
X0214743Y0111162D01*
X0214721Y0111238D01*
X0214704Y0111315D01*
X0214690Y0111393D01*
X0214680Y0111472D01*
X0214674Y0111551D01*
X0214672Y0111630D01*
X0304830Y0136039D02*
X0304954Y0136041D01*
X0305077Y0136047D01*
X0305201Y0136056D01*
X0305323Y0136070D01*
X0305446Y0136087D01*
X0305568Y0136109D01*
X0305689Y0136134D01*
X0305809Y0136163D01*
X0305928Y0136195D01*
X0306047Y0136232D01*
X0306164Y0136272D01*
X0306279Y0136315D01*
X0306394Y0136363D01*
X0306506Y0136414D01*
X0306617Y0136468D01*
X0306727Y0136526D01*
X0306834Y0136587D01*
X0306940Y0136652D01*
X0307043Y0136720D01*
X0307144Y0136791D01*
X0307243Y0136865D01*
X0307340Y0136942D01*
X0307434Y0137023D01*
X0307525Y0137106D01*
X0307614Y0137192D01*
X0307700Y0137281D01*
X0307783Y0137372D01*
X0307864Y0137466D01*
X0307941Y0137563D01*
X0308015Y0137662D01*
X0308086Y0137763D01*
X0308154Y0137866D01*
X0308219Y0137972D01*
X0308280Y0138079D01*
X0308338Y0138189D01*
X0308392Y0138300D01*
X0308443Y0138412D01*
X0308491Y0138527D01*
X0308534Y0138642D01*
X0308574Y0138759D01*
X0308611Y0138878D01*
X0308643Y0138997D01*
X0308672Y0139117D01*
X0308697Y0139238D01*
X0308719Y0139360D01*
X0308736Y0139483D01*
X0308750Y0139605D01*
X0308759Y0139729D01*
X0308765Y0139852D01*
X0308767Y0139976D01*
X0214672Y0284858D02*
X0214674Y0284937D01*
X0214680Y0285016D01*
X0214690Y0285095D01*
X0214704Y0285173D01*
X0214721Y0285250D01*
X0214743Y0285326D01*
X0214768Y0285401D01*
X0214798Y0285474D01*
X0214830Y0285546D01*
X0214867Y0285617D01*
X0214907Y0285685D01*
X0214950Y0285751D01*
X0214996Y0285815D01*
X0215046Y0285877D01*
X0215099Y0285936D01*
X0215154Y0285992D01*
X0215213Y0286046D01*
X0215274Y0286096D01*
X0215337Y0286144D01*
X0215403Y0286188D01*
X0215471Y0286229D01*
X0215541Y0286266D01*
X0215612Y0286300D01*
X0215686Y0286330D01*
X0215760Y0286356D01*
X0215836Y0286378D01*
X0215913Y0286397D01*
X0215991Y0286412D01*
X0216069Y0286423D01*
X0216148Y0286430D01*
X0216227Y0286433D01*
X0216306Y0286432D01*
X0216385Y0286427D01*
X0216464Y0286418D01*
X0216542Y0286405D01*
X0216619Y0286388D01*
X0216696Y0286368D01*
X0216771Y0286343D01*
X0216845Y0286315D01*
X0216918Y0286283D01*
X0216988Y0286248D01*
X0217057Y0286209D01*
X0217124Y0286166D01*
X0217189Y0286120D01*
X0217251Y0286072D01*
X0217311Y0286020D01*
X0217368Y0285965D01*
X0217422Y0285907D01*
X0217473Y0285847D01*
X0217521Y0285784D01*
X0217566Y0285719D01*
X0217608Y0285651D01*
X0217646Y0285582D01*
X0217680Y0285511D01*
X0217711Y0285438D01*
X0217739Y0285363D01*
X0217762Y0285288D01*
X0217782Y0285211D01*
X0217798Y0285134D01*
X0217810Y0285055D01*
X0217818Y0284977D01*
X0217822Y0284898D01*
X0217822Y0284818D01*
X0217818Y0284739D01*
X0217810Y0284661D01*
X0217798Y0284582D01*
X0217782Y0284505D01*
X0217762Y0284428D01*
X0217739Y0284353D01*
X0217711Y0284278D01*
X0217680Y0284205D01*
X0217646Y0284134D01*
X0217608Y0284065D01*
X0217566Y0283997D01*
X0217521Y0283932D01*
X0217473Y0283869D01*
X0217422Y0283809D01*
X0217368Y0283751D01*
X0217311Y0283696D01*
X0217251Y0283644D01*
X0217189Y0283596D01*
X0217124Y0283550D01*
X0217057Y0283507D01*
X0216988Y0283468D01*
X0216918Y0283433D01*
X0216845Y0283401D01*
X0216771Y0283373D01*
X0216696Y0283348D01*
X0216619Y0283328D01*
X0216542Y0283311D01*
X0216464Y0283298D01*
X0216385Y0283289D01*
X0216306Y0283284D01*
X0216227Y0283283D01*
X0216148Y0283286D01*
X0216069Y0283293D01*
X0215991Y0283304D01*
X0215913Y0283319D01*
X0215836Y0283338D01*
X0215760Y0283360D01*
X0215686Y0283386D01*
X0215612Y0283416D01*
X0215541Y0283450D01*
X0215471Y0283487D01*
X0215403Y0283528D01*
X0215337Y0283572D01*
X0215274Y0283620D01*
X0215213Y0283670D01*
X0215154Y0283724D01*
X0215099Y0283780D01*
X0215046Y0283839D01*
X0214996Y0283901D01*
X0214950Y0283965D01*
X0214907Y0284031D01*
X0214867Y0284099D01*
X0214830Y0284170D01*
X0214798Y0284242D01*
X0214768Y0284315D01*
X0214743Y0284390D01*
X0214721Y0284466D01*
X0214704Y0284543D01*
X0214690Y0284621D01*
X0214680Y0284700D01*
X0214674Y0284779D01*
X0214672Y0284858D01*
X0041444Y0284858D02*
X0041446Y0284937D01*
X0041452Y0285016D01*
X0041462Y0285095D01*
X0041476Y0285173D01*
X0041493Y0285250D01*
X0041515Y0285326D01*
X0041540Y0285401D01*
X0041570Y0285474D01*
X0041602Y0285546D01*
X0041639Y0285617D01*
X0041679Y0285685D01*
X0041722Y0285751D01*
X0041768Y0285815D01*
X0041818Y0285877D01*
X0041871Y0285936D01*
X0041926Y0285992D01*
X0041985Y0286046D01*
X0042046Y0286096D01*
X0042109Y0286144D01*
X0042175Y0286188D01*
X0042243Y0286229D01*
X0042313Y0286266D01*
X0042384Y0286300D01*
X0042458Y0286330D01*
X0042532Y0286356D01*
X0042608Y0286378D01*
X0042685Y0286397D01*
X0042763Y0286412D01*
X0042841Y0286423D01*
X0042920Y0286430D01*
X0042999Y0286433D01*
X0043078Y0286432D01*
X0043157Y0286427D01*
X0043236Y0286418D01*
X0043314Y0286405D01*
X0043391Y0286388D01*
X0043468Y0286368D01*
X0043543Y0286343D01*
X0043617Y0286315D01*
X0043690Y0286283D01*
X0043760Y0286248D01*
X0043829Y0286209D01*
X0043896Y0286166D01*
X0043961Y0286120D01*
X0044023Y0286072D01*
X0044083Y0286020D01*
X0044140Y0285965D01*
X0044194Y0285907D01*
X0044245Y0285847D01*
X0044293Y0285784D01*
X0044338Y0285719D01*
X0044380Y0285651D01*
X0044418Y0285582D01*
X0044452Y0285511D01*
X0044483Y0285438D01*
X0044511Y0285363D01*
X0044534Y0285288D01*
X0044554Y0285211D01*
X0044570Y0285134D01*
X0044582Y0285055D01*
X0044590Y0284977D01*
X0044594Y0284898D01*
X0044594Y0284818D01*
X0044590Y0284739D01*
X0044582Y0284661D01*
X0044570Y0284582D01*
X0044554Y0284505D01*
X0044534Y0284428D01*
X0044511Y0284353D01*
X0044483Y0284278D01*
X0044452Y0284205D01*
X0044418Y0284134D01*
X0044380Y0284065D01*
X0044338Y0283997D01*
X0044293Y0283932D01*
X0044245Y0283869D01*
X0044194Y0283809D01*
X0044140Y0283751D01*
X0044083Y0283696D01*
X0044023Y0283644D01*
X0043961Y0283596D01*
X0043896Y0283550D01*
X0043829Y0283507D01*
X0043760Y0283468D01*
X0043690Y0283433D01*
X0043617Y0283401D01*
X0043543Y0283373D01*
X0043468Y0283348D01*
X0043391Y0283328D01*
X0043314Y0283311D01*
X0043236Y0283298D01*
X0043157Y0283289D01*
X0043078Y0283284D01*
X0042999Y0283283D01*
X0042920Y0283286D01*
X0042841Y0283293D01*
X0042763Y0283304D01*
X0042685Y0283319D01*
X0042608Y0283338D01*
X0042532Y0283360D01*
X0042458Y0283386D01*
X0042384Y0283416D01*
X0042313Y0283450D01*
X0042243Y0283487D01*
X0042175Y0283528D01*
X0042109Y0283572D01*
X0042046Y0283620D01*
X0041985Y0283670D01*
X0041926Y0283724D01*
X0041871Y0283780D01*
X0041818Y0283839D01*
X0041768Y0283901D01*
X0041722Y0283965D01*
X0041679Y0284031D01*
X0041639Y0284099D01*
X0041602Y0284170D01*
X0041570Y0284242D01*
X0041540Y0284315D01*
X0041515Y0284390D01*
X0041493Y0284466D01*
X0041476Y0284543D01*
X0041462Y0284621D01*
X0041452Y0284700D01*
X0041446Y0284779D01*
X0041444Y0284858D01*
D11*
X0120199Y0272646D02*
X0123179Y0272646D01*
X0120199Y0272646D02*
X0120199Y0273626D01*
X0123179Y0273626D01*
X0123179Y0272646D01*
X0123179Y0273586D02*
X0120199Y0273586D01*
X0120199Y0270146D02*
X0123179Y0270146D01*
X0120199Y0270146D02*
X0120199Y0271126D01*
X0123179Y0271126D01*
X0123179Y0270146D01*
X0123179Y0271086D02*
X0120199Y0271086D01*
X0120199Y0267646D02*
X0123179Y0267646D01*
X0120199Y0267646D02*
X0120199Y0268626D01*
X0123179Y0268626D01*
X0123179Y0267646D01*
X0123179Y0268586D02*
X0120199Y0268586D01*
X0120199Y0265146D02*
X0123179Y0265146D01*
X0120199Y0265146D02*
X0120199Y0266126D01*
X0123179Y0266126D01*
X0123179Y0265146D01*
X0123179Y0266086D02*
X0120199Y0266086D01*
X0120199Y0262646D02*
X0123179Y0262646D01*
X0120199Y0262646D02*
X0120199Y0263626D01*
X0123179Y0263626D01*
X0123179Y0262646D01*
X0123179Y0263586D02*
X0120199Y0263586D01*
X0120199Y0260146D02*
X0123179Y0260146D01*
X0120199Y0260146D02*
X0120199Y0261126D01*
X0123179Y0261126D01*
X0123179Y0260146D01*
X0123179Y0261086D02*
X0120199Y0261086D01*
X0120199Y0257646D02*
X0123179Y0257646D01*
X0120199Y0257646D02*
X0120199Y0258626D01*
X0123179Y0258626D01*
X0123179Y0257646D01*
X0123179Y0258586D02*
X0120199Y0258586D01*
X0120199Y0255146D02*
X0123179Y0255146D01*
X0120199Y0255146D02*
X0120199Y0256126D01*
X0123179Y0256126D01*
X0123179Y0255146D01*
X0123179Y0256086D02*
X0120199Y0256086D01*
X0141599Y0255146D02*
X0144579Y0255146D01*
X0141599Y0255146D02*
X0141599Y0256126D01*
X0144579Y0256126D01*
X0144579Y0255146D01*
X0144579Y0256086D02*
X0141599Y0256086D01*
X0141599Y0257646D02*
X0144579Y0257646D01*
X0141599Y0257646D02*
X0141599Y0258626D01*
X0144579Y0258626D01*
X0144579Y0257646D01*
X0144579Y0258586D02*
X0141599Y0258586D01*
X0141599Y0260146D02*
X0144579Y0260146D01*
X0141599Y0260146D02*
X0141599Y0261126D01*
X0144579Y0261126D01*
X0144579Y0260146D01*
X0144579Y0261086D02*
X0141599Y0261086D01*
X0141599Y0262646D02*
X0144579Y0262646D01*
X0141599Y0262646D02*
X0141599Y0263626D01*
X0144579Y0263626D01*
X0144579Y0262646D01*
X0144579Y0263586D02*
X0141599Y0263586D01*
X0141599Y0265146D02*
X0144579Y0265146D01*
X0141599Y0265146D02*
X0141599Y0266126D01*
X0144579Y0266126D01*
X0144579Y0265146D01*
X0144579Y0266086D02*
X0141599Y0266086D01*
X0141599Y0267646D02*
X0144579Y0267646D01*
X0141599Y0267646D02*
X0141599Y0268626D01*
X0144579Y0268626D01*
X0144579Y0267646D01*
X0144579Y0268586D02*
X0141599Y0268586D01*
X0141599Y0270146D02*
X0144579Y0270146D01*
X0141599Y0270146D02*
X0141599Y0271126D01*
X0144579Y0271126D01*
X0144579Y0270146D01*
X0144579Y0271086D02*
X0141599Y0271086D01*
X0141599Y0272646D02*
X0144579Y0272646D01*
X0141599Y0272646D02*
X0141599Y0273626D01*
X0144579Y0273626D01*
X0144579Y0272646D01*
X0144579Y0273586D02*
X0141599Y0273586D01*
X0293427Y0272646D02*
X0296407Y0272646D01*
X0293427Y0272646D02*
X0293427Y0273626D01*
X0296407Y0273626D01*
X0296407Y0272646D01*
X0296407Y0273586D02*
X0293427Y0273586D01*
X0293427Y0270146D02*
X0296407Y0270146D01*
X0293427Y0270146D02*
X0293427Y0271126D01*
X0296407Y0271126D01*
X0296407Y0270146D01*
X0296407Y0271086D02*
X0293427Y0271086D01*
X0293427Y0267646D02*
X0296407Y0267646D01*
X0293427Y0267646D02*
X0293427Y0268626D01*
X0296407Y0268626D01*
X0296407Y0267646D01*
X0296407Y0268586D02*
X0293427Y0268586D01*
X0293427Y0265146D02*
X0296407Y0265146D01*
X0293427Y0265146D02*
X0293427Y0266126D01*
X0296407Y0266126D01*
X0296407Y0265146D01*
X0296407Y0266086D02*
X0293427Y0266086D01*
X0293427Y0262646D02*
X0296407Y0262646D01*
X0293427Y0262646D02*
X0293427Y0263626D01*
X0296407Y0263626D01*
X0296407Y0262646D01*
X0296407Y0263586D02*
X0293427Y0263586D01*
X0293427Y0260146D02*
X0296407Y0260146D01*
X0293427Y0260146D02*
X0293427Y0261126D01*
X0296407Y0261126D01*
X0296407Y0260146D01*
X0296407Y0261086D02*
X0293427Y0261086D01*
X0293427Y0257646D02*
X0296407Y0257646D01*
X0293427Y0257646D02*
X0293427Y0258626D01*
X0296407Y0258626D01*
X0296407Y0257646D01*
X0296407Y0258586D02*
X0293427Y0258586D01*
X0293427Y0255146D02*
X0296407Y0255146D01*
X0293427Y0255146D02*
X0293427Y0256126D01*
X0296407Y0256126D01*
X0296407Y0255146D01*
X0296407Y0256086D02*
X0293427Y0256086D01*
X0314827Y0255146D02*
X0317807Y0255146D01*
X0314827Y0255146D02*
X0314827Y0256126D01*
X0317807Y0256126D01*
X0317807Y0255146D01*
X0317807Y0256086D02*
X0314827Y0256086D01*
X0314827Y0257646D02*
X0317807Y0257646D01*
X0314827Y0257646D02*
X0314827Y0258626D01*
X0317807Y0258626D01*
X0317807Y0257646D01*
X0317807Y0258586D02*
X0314827Y0258586D01*
X0314827Y0260146D02*
X0317807Y0260146D01*
X0314827Y0260146D02*
X0314827Y0261126D01*
X0317807Y0261126D01*
X0317807Y0260146D01*
X0317807Y0261086D02*
X0314827Y0261086D01*
X0314827Y0262646D02*
X0317807Y0262646D01*
X0314827Y0262646D02*
X0314827Y0263626D01*
X0317807Y0263626D01*
X0317807Y0262646D01*
X0317807Y0263586D02*
X0314827Y0263586D01*
X0314827Y0265146D02*
X0317807Y0265146D01*
X0314827Y0265146D02*
X0314827Y0266126D01*
X0317807Y0266126D01*
X0317807Y0265146D01*
X0317807Y0266086D02*
X0314827Y0266086D01*
X0314827Y0267646D02*
X0317807Y0267646D01*
X0314827Y0267646D02*
X0314827Y0268626D01*
X0317807Y0268626D01*
X0317807Y0267646D01*
X0317807Y0268586D02*
X0314827Y0268586D01*
X0314827Y0270146D02*
X0317807Y0270146D01*
X0314827Y0270146D02*
X0314827Y0271126D01*
X0317807Y0271126D01*
X0317807Y0270146D01*
X0317807Y0271086D02*
X0314827Y0271086D01*
X0314827Y0272646D02*
X0317807Y0272646D01*
X0314827Y0272646D02*
X0314827Y0273626D01*
X0317807Y0273626D01*
X0317807Y0272646D01*
X0317807Y0273586D02*
X0314827Y0273586D01*
X0314827Y0099417D02*
X0317807Y0099417D01*
X0314827Y0099417D02*
X0314827Y0100397D01*
X0317807Y0100397D01*
X0317807Y0099417D01*
X0317807Y0100357D02*
X0314827Y0100357D01*
X0314827Y0096917D02*
X0317807Y0096917D01*
X0314827Y0096917D02*
X0314827Y0097897D01*
X0317807Y0097897D01*
X0317807Y0096917D01*
X0317807Y0097857D02*
X0314827Y0097857D01*
X0314827Y0094417D02*
X0317807Y0094417D01*
X0314827Y0094417D02*
X0314827Y0095397D01*
X0317807Y0095397D01*
X0317807Y0094417D01*
X0317807Y0095357D02*
X0314827Y0095357D01*
X0314827Y0091917D02*
X0317807Y0091917D01*
X0314827Y0091917D02*
X0314827Y0092897D01*
X0317807Y0092897D01*
X0317807Y0091917D01*
X0317807Y0092857D02*
X0314827Y0092857D01*
X0314827Y0089417D02*
X0317807Y0089417D01*
X0314827Y0089417D02*
X0314827Y0090397D01*
X0317807Y0090397D01*
X0317807Y0089417D01*
X0317807Y0090357D02*
X0314827Y0090357D01*
X0314827Y0086917D02*
X0317807Y0086917D01*
X0314827Y0086917D02*
X0314827Y0087897D01*
X0317807Y0087897D01*
X0317807Y0086917D01*
X0317807Y0087857D02*
X0314827Y0087857D01*
X0314827Y0084417D02*
X0317807Y0084417D01*
X0314827Y0084417D02*
X0314827Y0085397D01*
X0317807Y0085397D01*
X0317807Y0084417D01*
X0317807Y0085357D02*
X0314827Y0085357D01*
X0314827Y0081917D02*
X0317807Y0081917D01*
X0314827Y0081917D02*
X0314827Y0082897D01*
X0317807Y0082897D01*
X0317807Y0081917D01*
X0317807Y0082857D02*
X0314827Y0082857D01*
X0296407Y0081917D02*
X0293427Y0081917D01*
X0293427Y0082897D01*
X0296407Y0082897D01*
X0296407Y0081917D01*
X0296407Y0082857D02*
X0293427Y0082857D01*
X0293427Y0084417D02*
X0296407Y0084417D01*
X0293427Y0084417D02*
X0293427Y0085397D01*
X0296407Y0085397D01*
X0296407Y0084417D01*
X0296407Y0085357D02*
X0293427Y0085357D01*
X0293427Y0086917D02*
X0296407Y0086917D01*
X0293427Y0086917D02*
X0293427Y0087897D01*
X0296407Y0087897D01*
X0296407Y0086917D01*
X0296407Y0087857D02*
X0293427Y0087857D01*
X0293427Y0089417D02*
X0296407Y0089417D01*
X0293427Y0089417D02*
X0293427Y0090397D01*
X0296407Y0090397D01*
X0296407Y0089417D01*
X0296407Y0090357D02*
X0293427Y0090357D01*
X0293427Y0091917D02*
X0296407Y0091917D01*
X0293427Y0091917D02*
X0293427Y0092897D01*
X0296407Y0092897D01*
X0296407Y0091917D01*
X0296407Y0092857D02*
X0293427Y0092857D01*
X0293427Y0094417D02*
X0296407Y0094417D01*
X0293427Y0094417D02*
X0293427Y0095397D01*
X0296407Y0095397D01*
X0296407Y0094417D01*
X0296407Y0095357D02*
X0293427Y0095357D01*
X0293427Y0096917D02*
X0296407Y0096917D01*
X0293427Y0096917D02*
X0293427Y0097897D01*
X0296407Y0097897D01*
X0296407Y0096917D01*
X0296407Y0097857D02*
X0293427Y0097857D01*
X0293427Y0099417D02*
X0296407Y0099417D01*
X0293427Y0099417D02*
X0293427Y0100397D01*
X0296407Y0100397D01*
X0296407Y0099417D01*
X0296407Y0100357D02*
X0293427Y0100357D01*
X0144579Y0099417D02*
X0141599Y0099417D01*
X0141599Y0100397D01*
X0144579Y0100397D01*
X0144579Y0099417D01*
X0144579Y0100357D02*
X0141599Y0100357D01*
X0141599Y0096917D02*
X0144579Y0096917D01*
X0141599Y0096917D02*
X0141599Y0097897D01*
X0144579Y0097897D01*
X0144579Y0096917D01*
X0144579Y0097857D02*
X0141599Y0097857D01*
X0141599Y0094417D02*
X0144579Y0094417D01*
X0141599Y0094417D02*
X0141599Y0095397D01*
X0144579Y0095397D01*
X0144579Y0094417D01*
X0144579Y0095357D02*
X0141599Y0095357D01*
X0141599Y0091917D02*
X0144579Y0091917D01*
X0141599Y0091917D02*
X0141599Y0092897D01*
X0144579Y0092897D01*
X0144579Y0091917D01*
X0144579Y0092857D02*
X0141599Y0092857D01*
X0141599Y0089417D02*
X0144579Y0089417D01*
X0141599Y0089417D02*
X0141599Y0090397D01*
X0144579Y0090397D01*
X0144579Y0089417D01*
X0144579Y0090357D02*
X0141599Y0090357D01*
X0141599Y0086917D02*
X0144579Y0086917D01*
X0141599Y0086917D02*
X0141599Y0087897D01*
X0144579Y0087897D01*
X0144579Y0086917D01*
X0144579Y0087857D02*
X0141599Y0087857D01*
X0141599Y0084417D02*
X0144579Y0084417D01*
X0141599Y0084417D02*
X0141599Y0085397D01*
X0144579Y0085397D01*
X0144579Y0084417D01*
X0144579Y0085357D02*
X0141599Y0085357D01*
X0141599Y0081917D02*
X0144579Y0081917D01*
X0141599Y0081917D02*
X0141599Y0082897D01*
X0144579Y0082897D01*
X0144579Y0081917D01*
X0144579Y0082857D02*
X0141599Y0082857D01*
X0123179Y0081917D02*
X0120199Y0081917D01*
X0120199Y0082897D01*
X0123179Y0082897D01*
X0123179Y0081917D01*
X0123179Y0082857D02*
X0120199Y0082857D01*
X0120199Y0084417D02*
X0123179Y0084417D01*
X0120199Y0084417D02*
X0120199Y0085397D01*
X0123179Y0085397D01*
X0123179Y0084417D01*
X0123179Y0085357D02*
X0120199Y0085357D01*
X0120199Y0086917D02*
X0123179Y0086917D01*
X0120199Y0086917D02*
X0120199Y0087897D01*
X0123179Y0087897D01*
X0123179Y0086917D01*
X0123179Y0087857D02*
X0120199Y0087857D01*
X0120199Y0089417D02*
X0123179Y0089417D01*
X0120199Y0089417D02*
X0120199Y0090397D01*
X0123179Y0090397D01*
X0123179Y0089417D01*
X0123179Y0090357D02*
X0120199Y0090357D01*
X0120199Y0091917D02*
X0123179Y0091917D01*
X0120199Y0091917D02*
X0120199Y0092897D01*
X0123179Y0092897D01*
X0123179Y0091917D01*
X0123179Y0092857D02*
X0120199Y0092857D01*
X0120199Y0094417D02*
X0123179Y0094417D01*
X0120199Y0094417D02*
X0120199Y0095397D01*
X0123179Y0095397D01*
X0123179Y0094417D01*
X0123179Y0095357D02*
X0120199Y0095357D01*
X0120199Y0096917D02*
X0123179Y0096917D01*
X0120199Y0096917D02*
X0120199Y0097897D01*
X0123179Y0097897D01*
X0123179Y0096917D01*
X0123179Y0097857D02*
X0120199Y0097857D01*
X0120199Y0099417D02*
X0123179Y0099417D01*
X0120199Y0099417D02*
X0120199Y0100397D01*
X0123179Y0100397D01*
X0123179Y0099417D01*
X0123179Y0100357D02*
X0120199Y0100357D01*
D12*
X0051035Y0108536D02*
X0051035Y0114724D01*
X0051035Y0108536D02*
X0048389Y0108536D01*
X0048389Y0114724D01*
X0051035Y0114724D01*
X0051035Y0109669D02*
X0048389Y0109669D01*
X0048389Y0110802D02*
X0051035Y0110802D01*
X0051035Y0111935D02*
X0048389Y0111935D01*
X0048389Y0113068D02*
X0051035Y0113068D01*
X0051035Y0114201D02*
X0048389Y0114201D01*
X0044342Y0107047D02*
X0044342Y0103221D01*
X0041696Y0103221D01*
X0041696Y0107047D01*
X0044342Y0107047D01*
X0044342Y0104354D02*
X0041696Y0104354D01*
X0041696Y0105487D02*
X0044342Y0105487D01*
X0044342Y0106620D02*
X0041696Y0106620D01*
X0037649Y0108536D02*
X0037649Y0114724D01*
X0037649Y0108536D02*
X0035003Y0108536D01*
X0035003Y0114724D01*
X0037649Y0114724D01*
X0037649Y0109669D02*
X0035003Y0109669D01*
X0035003Y0110802D02*
X0037649Y0110802D01*
X0037649Y0111935D02*
X0035003Y0111935D01*
X0035003Y0113068D02*
X0037649Y0113068D01*
X0037649Y0114201D02*
X0035003Y0114201D01*
X0044342Y0276449D02*
X0044342Y0280275D01*
X0044342Y0276449D02*
X0041696Y0276449D01*
X0041696Y0280275D01*
X0044342Y0280275D01*
X0044342Y0277582D02*
X0041696Y0277582D01*
X0041696Y0278715D02*
X0044342Y0278715D01*
X0044342Y0279848D02*
X0041696Y0279848D01*
X0037649Y0281764D02*
X0037649Y0287952D01*
X0037649Y0281764D02*
X0035003Y0281764D01*
X0035003Y0287952D01*
X0037649Y0287952D01*
X0037649Y0282897D02*
X0035003Y0282897D01*
X0035003Y0284030D02*
X0037649Y0284030D01*
X0037649Y0285163D02*
X0035003Y0285163D01*
X0035003Y0286296D02*
X0037649Y0286296D01*
X0037649Y0287429D02*
X0035003Y0287429D01*
X0051035Y0287952D02*
X0051035Y0281764D01*
X0048389Y0281764D01*
X0048389Y0287952D01*
X0051035Y0287952D01*
X0051035Y0282897D02*
X0048389Y0282897D01*
X0048389Y0284030D02*
X0051035Y0284030D01*
X0051035Y0285163D02*
X0048389Y0285163D01*
X0048389Y0286296D02*
X0051035Y0286296D01*
X0051035Y0287429D02*
X0048389Y0287429D01*
X0210878Y0287952D02*
X0210878Y0281764D01*
X0208232Y0281764D01*
X0208232Y0287952D01*
X0210878Y0287952D01*
X0210878Y0282897D02*
X0208232Y0282897D01*
X0208232Y0284030D02*
X0210878Y0284030D01*
X0210878Y0285163D02*
X0208232Y0285163D01*
X0208232Y0286296D02*
X0210878Y0286296D01*
X0210878Y0287429D02*
X0208232Y0287429D01*
X0217570Y0280275D02*
X0217570Y0276449D01*
X0214924Y0276449D01*
X0214924Y0280275D01*
X0217570Y0280275D01*
X0217570Y0277582D02*
X0214924Y0277582D01*
X0214924Y0278715D02*
X0217570Y0278715D01*
X0217570Y0279848D02*
X0214924Y0279848D01*
X0224263Y0281764D02*
X0224263Y0287952D01*
X0224263Y0281764D02*
X0221617Y0281764D01*
X0221617Y0287952D01*
X0224263Y0287952D01*
X0224263Y0282897D02*
X0221617Y0282897D01*
X0221617Y0284030D02*
X0224263Y0284030D01*
X0224263Y0285163D02*
X0221617Y0285163D01*
X0221617Y0286296D02*
X0224263Y0286296D01*
X0224263Y0287429D02*
X0221617Y0287429D01*
X0224263Y0114724D02*
X0224263Y0108536D01*
X0221617Y0108536D01*
X0221617Y0114724D01*
X0224263Y0114724D01*
X0224263Y0109669D02*
X0221617Y0109669D01*
X0221617Y0110802D02*
X0224263Y0110802D01*
X0224263Y0111935D02*
X0221617Y0111935D01*
X0221617Y0113068D02*
X0224263Y0113068D01*
X0224263Y0114201D02*
X0221617Y0114201D01*
X0217570Y0107047D02*
X0217570Y0103221D01*
X0214924Y0103221D01*
X0214924Y0107047D01*
X0217570Y0107047D01*
X0217570Y0104354D02*
X0214924Y0104354D01*
X0214924Y0105487D02*
X0217570Y0105487D01*
X0217570Y0106620D02*
X0214924Y0106620D01*
X0210878Y0108536D02*
X0210878Y0114724D01*
X0210878Y0108536D02*
X0208232Y0108536D01*
X0208232Y0114724D01*
X0210878Y0114724D01*
X0210878Y0109669D02*
X0208232Y0109669D01*
X0208232Y0110802D02*
X0210878Y0110802D01*
X0210878Y0111935D02*
X0208232Y0111935D01*
X0208232Y0113068D02*
X0210878Y0113068D01*
X0210878Y0114201D02*
X0208232Y0114201D01*
D13*
X0216247Y0111630D03*
X0216247Y0284858D03*
X0043019Y0284858D03*
X0043019Y0111630D03*
D14*
X0042862Y0182496D03*
X0052862Y0182496D03*
X0062862Y0182496D03*
X0072862Y0182496D03*
X0032862Y0182496D03*
X0032862Y0009268D03*
X0042862Y0009268D03*
X0052862Y0009268D03*
X0062862Y0009268D03*
X0072862Y0009268D03*
X0206090Y0009268D03*
X0216090Y0009268D03*
X0226090Y0009268D03*
X0236090Y0009268D03*
X0246090Y0009268D03*
X0246090Y0182496D03*
X0236090Y0182496D03*
X0226090Y0182496D03*
X0216090Y0182496D03*
X0206090Y0182496D03*
D15*
X0223565Y0220719D02*
X0223565Y0222619D01*
X0225465Y0222619D01*
X0225465Y0220719D01*
X0223565Y0220719D01*
X0223565Y0221653D02*
X0225465Y0221653D01*
X0225465Y0222587D02*
X0223565Y0222587D01*
X0223565Y0225050D02*
X0223565Y0226950D01*
X0225465Y0226950D01*
X0225465Y0225050D01*
X0223565Y0225050D01*
X0223565Y0225984D02*
X0225465Y0225984D01*
X0225465Y0226918D02*
X0223565Y0226918D01*
X0222975Y0278722D02*
X0224875Y0278722D01*
X0224875Y0276822D01*
X0222975Y0276822D01*
X0222975Y0278722D01*
X0222975Y0277756D02*
X0224875Y0277756D01*
X0224875Y0278690D02*
X0222975Y0278690D01*
X0227305Y0278722D02*
X0229205Y0278722D01*
X0229205Y0276822D01*
X0227305Y0276822D01*
X0227305Y0278722D01*
X0227305Y0277756D02*
X0229205Y0277756D01*
X0229205Y0278690D02*
X0227305Y0278690D01*
X0272975Y0309430D02*
X0274875Y0309430D01*
X0274875Y0307530D01*
X0272975Y0307530D01*
X0272975Y0309430D01*
X0272975Y0308464D02*
X0274875Y0308464D01*
X0274875Y0309398D02*
X0272975Y0309398D01*
X0277305Y0309430D02*
X0279205Y0309430D01*
X0279205Y0307530D01*
X0277305Y0307530D01*
X0277305Y0309430D01*
X0277305Y0308464D02*
X0279205Y0308464D01*
X0279205Y0309398D02*
X0277305Y0309398D01*
X0283211Y0307530D02*
X0285111Y0307530D01*
X0283211Y0307530D02*
X0283211Y0309430D01*
X0285111Y0309430D01*
X0285111Y0307530D01*
X0285111Y0308464D02*
X0283211Y0308464D01*
X0283211Y0309398D02*
X0285111Y0309398D01*
X0287542Y0307530D02*
X0289442Y0307530D01*
X0287542Y0307530D02*
X0287542Y0309430D01*
X0289442Y0309430D01*
X0289442Y0307530D01*
X0289442Y0308464D02*
X0287542Y0308464D01*
X0287542Y0309398D02*
X0289442Y0309398D01*
X0287670Y0288761D02*
X0287670Y0286861D01*
X0285770Y0286861D01*
X0285770Y0288761D01*
X0287670Y0288761D01*
X0287670Y0287795D02*
X0285770Y0287795D01*
X0285770Y0288729D02*
X0287670Y0288729D01*
X0283733Y0288761D02*
X0283733Y0286861D01*
X0281833Y0286861D01*
X0281833Y0288761D01*
X0283733Y0288761D01*
X0283733Y0287795D02*
X0281833Y0287795D01*
X0281833Y0288729D02*
X0283733Y0288729D01*
X0283733Y0284430D02*
X0283733Y0282530D01*
X0281833Y0282530D01*
X0281833Y0284430D01*
X0283733Y0284430D01*
X0283733Y0283464D02*
X0281833Y0283464D01*
X0281833Y0284398D02*
X0283733Y0284398D01*
X0287670Y0284430D02*
X0287670Y0282530D01*
X0285770Y0282530D01*
X0285770Y0284430D01*
X0287670Y0284430D01*
X0287670Y0283464D02*
X0285770Y0283464D01*
X0285770Y0284398D02*
X0287670Y0284398D01*
X0290819Y0266320D02*
X0290819Y0264420D01*
X0288919Y0264420D01*
X0288919Y0266320D01*
X0290819Y0266320D01*
X0290819Y0265354D02*
X0288919Y0265354D01*
X0288919Y0266288D02*
X0290819Y0266288D01*
X0290819Y0261989D02*
X0290819Y0260089D01*
X0288919Y0260089D01*
X0288919Y0261989D01*
X0290819Y0261989D01*
X0290819Y0261023D02*
X0288919Y0261023D01*
X0288919Y0261957D02*
X0290819Y0261957D01*
X0320416Y0261270D02*
X0320416Y0263170D01*
X0322316Y0263170D01*
X0322316Y0261270D01*
X0320416Y0261270D01*
X0320416Y0262204D02*
X0322316Y0262204D01*
X0322316Y0263138D02*
X0320416Y0263138D01*
X0320416Y0265601D02*
X0320416Y0267501D01*
X0322316Y0267501D01*
X0322316Y0265601D01*
X0320416Y0265601D01*
X0320416Y0266535D02*
X0322316Y0266535D01*
X0322316Y0267469D02*
X0320416Y0267469D01*
X0284323Y0224853D02*
X0282423Y0224853D01*
X0282423Y0226753D01*
X0284323Y0226753D01*
X0284323Y0224853D01*
X0284323Y0225787D02*
X0282423Y0225787D01*
X0282423Y0226721D02*
X0284323Y0226721D01*
X0279993Y0224853D02*
X0278093Y0224853D01*
X0278093Y0226753D01*
X0279993Y0226753D01*
X0279993Y0224853D01*
X0279993Y0225787D02*
X0278093Y0225787D01*
X0278093Y0226721D02*
X0279993Y0226721D01*
X0279205Y0136202D02*
X0277305Y0136202D01*
X0279205Y0136202D02*
X0279205Y0134302D01*
X0277305Y0134302D01*
X0277305Y0136202D01*
X0277305Y0135236D02*
X0279205Y0135236D01*
X0279205Y0136170D02*
X0277305Y0136170D01*
X0274875Y0136202D02*
X0272975Y0136202D01*
X0274875Y0136202D02*
X0274875Y0134302D01*
X0272975Y0134302D01*
X0272975Y0136202D01*
X0272975Y0135236D02*
X0274875Y0135236D01*
X0274875Y0136170D02*
X0272975Y0136170D01*
X0283211Y0134302D02*
X0285111Y0134302D01*
X0283211Y0134302D02*
X0283211Y0136202D01*
X0285111Y0136202D01*
X0285111Y0134302D01*
X0285111Y0135236D02*
X0283211Y0135236D01*
X0283211Y0136170D02*
X0285111Y0136170D01*
X0287542Y0134302D02*
X0289442Y0134302D01*
X0287542Y0134302D02*
X0287542Y0136202D01*
X0289442Y0136202D01*
X0289442Y0134302D01*
X0289442Y0135236D02*
X0287542Y0135236D01*
X0287542Y0136170D02*
X0289442Y0136170D01*
X0287670Y0115533D02*
X0287670Y0113633D01*
X0285770Y0113633D01*
X0285770Y0115533D01*
X0287670Y0115533D01*
X0287670Y0114567D02*
X0285770Y0114567D01*
X0285770Y0115501D02*
X0287670Y0115501D01*
X0283733Y0115533D02*
X0283733Y0113633D01*
X0281833Y0113633D01*
X0281833Y0115533D01*
X0283733Y0115533D01*
X0283733Y0114567D02*
X0281833Y0114567D01*
X0281833Y0115501D02*
X0283733Y0115501D01*
X0283733Y0111202D02*
X0283733Y0109302D01*
X0281833Y0109302D01*
X0281833Y0111202D01*
X0283733Y0111202D01*
X0283733Y0110236D02*
X0281833Y0110236D01*
X0281833Y0111170D02*
X0283733Y0111170D01*
X0287670Y0111202D02*
X0287670Y0109302D01*
X0285770Y0109302D01*
X0285770Y0111202D01*
X0287670Y0111202D01*
X0287670Y0110236D02*
X0285770Y0110236D01*
X0285770Y0111170D02*
X0287670Y0111170D01*
X0290819Y0093092D02*
X0290819Y0091192D01*
X0288919Y0091192D01*
X0288919Y0093092D01*
X0290819Y0093092D01*
X0290819Y0092126D02*
X0288919Y0092126D01*
X0288919Y0093060D02*
X0290819Y0093060D01*
X0290819Y0088761D02*
X0290819Y0086861D01*
X0288919Y0086861D01*
X0288919Y0088761D01*
X0290819Y0088761D01*
X0290819Y0087795D02*
X0288919Y0087795D01*
X0288919Y0088729D02*
X0290819Y0088729D01*
X0320416Y0088042D02*
X0320416Y0089942D01*
X0322316Y0089942D01*
X0322316Y0088042D01*
X0320416Y0088042D01*
X0320416Y0088976D02*
X0322316Y0088976D01*
X0322316Y0089910D02*
X0320416Y0089910D01*
X0320416Y0092373D02*
X0320416Y0094273D01*
X0322316Y0094273D01*
X0322316Y0092373D01*
X0320416Y0092373D01*
X0320416Y0093307D02*
X0322316Y0093307D01*
X0322316Y0094241D02*
X0320416Y0094241D01*
X0284323Y0051625D02*
X0282423Y0051625D01*
X0282423Y0053525D01*
X0284323Y0053525D01*
X0284323Y0051625D01*
X0284323Y0052559D02*
X0282423Y0052559D01*
X0282423Y0053493D02*
X0284323Y0053493D01*
X0279993Y0051625D02*
X0278093Y0051625D01*
X0278093Y0053525D01*
X0279993Y0053525D01*
X0279993Y0051625D01*
X0279993Y0052559D02*
X0278093Y0052559D01*
X0278093Y0053493D02*
X0279993Y0053493D01*
X0229205Y0105493D02*
X0227305Y0105493D01*
X0229205Y0105493D02*
X0229205Y0103593D01*
X0227305Y0103593D01*
X0227305Y0105493D01*
X0227305Y0104527D02*
X0229205Y0104527D01*
X0229205Y0105461D02*
X0227305Y0105461D01*
X0224875Y0105493D02*
X0222975Y0105493D01*
X0224875Y0105493D02*
X0224875Y0103593D01*
X0222975Y0103593D01*
X0222975Y0105493D01*
X0222975Y0104527D02*
X0224875Y0104527D01*
X0224875Y0105461D02*
X0222975Y0105461D01*
X0223565Y0053722D02*
X0223565Y0051822D01*
X0223565Y0053722D02*
X0225465Y0053722D01*
X0225465Y0051822D01*
X0223565Y0051822D01*
X0223565Y0052756D02*
X0225465Y0052756D01*
X0225465Y0053690D02*
X0223565Y0053690D01*
X0223565Y0049391D02*
X0223565Y0047491D01*
X0223565Y0049391D02*
X0225465Y0049391D01*
X0225465Y0047491D01*
X0223565Y0047491D01*
X0223565Y0048425D02*
X0225465Y0048425D01*
X0225465Y0049359D02*
X0223565Y0049359D01*
X0147187Y0088042D02*
X0147187Y0089942D01*
X0149087Y0089942D01*
X0149087Y0088042D01*
X0147187Y0088042D01*
X0147187Y0088976D02*
X0149087Y0088976D01*
X0149087Y0089910D02*
X0147187Y0089910D01*
X0147187Y0092373D02*
X0147187Y0094273D01*
X0149087Y0094273D01*
X0149087Y0092373D01*
X0147187Y0092373D01*
X0147187Y0093307D02*
X0149087Y0093307D01*
X0149087Y0094241D02*
X0147187Y0094241D01*
X0117591Y0093092D02*
X0117591Y0091192D01*
X0115691Y0091192D01*
X0115691Y0093092D01*
X0117591Y0093092D01*
X0117591Y0092126D02*
X0115691Y0092126D01*
X0115691Y0093060D02*
X0117591Y0093060D01*
X0117591Y0088761D02*
X0117591Y0086861D01*
X0115691Y0086861D01*
X0115691Y0088761D01*
X0117591Y0088761D01*
X0117591Y0087795D02*
X0115691Y0087795D01*
X0115691Y0088729D02*
X0117591Y0088729D01*
X0114442Y0109302D02*
X0114442Y0111202D01*
X0114442Y0109302D02*
X0112542Y0109302D01*
X0112542Y0111202D01*
X0114442Y0111202D01*
X0114442Y0110236D02*
X0112542Y0110236D01*
X0112542Y0111170D02*
X0114442Y0111170D01*
X0114442Y0113633D02*
X0114442Y0115533D01*
X0114442Y0113633D02*
X0112542Y0113633D01*
X0112542Y0115533D01*
X0114442Y0115533D01*
X0114442Y0114567D02*
X0112542Y0114567D01*
X0112542Y0115501D02*
X0114442Y0115501D01*
X0110505Y0115533D02*
X0110505Y0113633D01*
X0108605Y0113633D01*
X0108605Y0115533D01*
X0110505Y0115533D01*
X0110505Y0114567D02*
X0108605Y0114567D01*
X0108605Y0115501D02*
X0110505Y0115501D01*
X0110505Y0111202D02*
X0110505Y0109302D01*
X0108605Y0109302D01*
X0108605Y0111202D01*
X0110505Y0111202D01*
X0110505Y0110236D02*
X0108605Y0110236D01*
X0108605Y0111170D02*
X0110505Y0111170D01*
X0109982Y0134302D02*
X0111882Y0134302D01*
X0109982Y0134302D02*
X0109982Y0136202D01*
X0111882Y0136202D01*
X0111882Y0134302D01*
X0111882Y0135236D02*
X0109982Y0135236D01*
X0109982Y0136170D02*
X0111882Y0136170D01*
X0114313Y0134302D02*
X0116213Y0134302D01*
X0114313Y0134302D02*
X0114313Y0136202D01*
X0116213Y0136202D01*
X0116213Y0134302D01*
X0116213Y0135236D02*
X0114313Y0135236D01*
X0114313Y0136170D02*
X0116213Y0136170D01*
X0105977Y0136202D02*
X0104077Y0136202D01*
X0105977Y0136202D02*
X0105977Y0134302D01*
X0104077Y0134302D01*
X0104077Y0136202D01*
X0104077Y0135236D02*
X0105977Y0135236D01*
X0105977Y0136170D02*
X0104077Y0136170D01*
X0101646Y0136202D02*
X0099746Y0136202D01*
X0101646Y0136202D02*
X0101646Y0134302D01*
X0099746Y0134302D01*
X0099746Y0136202D01*
X0099746Y0135236D02*
X0101646Y0135236D01*
X0101646Y0136170D02*
X0099746Y0136170D01*
X0055977Y0105493D02*
X0054077Y0105493D01*
X0055977Y0105493D02*
X0055977Y0103593D01*
X0054077Y0103593D01*
X0054077Y0105493D01*
X0054077Y0104527D02*
X0055977Y0104527D01*
X0055977Y0105461D02*
X0054077Y0105461D01*
X0051646Y0105493D02*
X0049746Y0105493D01*
X0051646Y0105493D02*
X0051646Y0103593D01*
X0049746Y0103593D01*
X0049746Y0105493D01*
X0049746Y0104527D02*
X0051646Y0104527D01*
X0051646Y0105461D02*
X0049746Y0105461D01*
X0050337Y0053722D02*
X0050337Y0051822D01*
X0050337Y0053722D02*
X0052237Y0053722D01*
X0052237Y0051822D01*
X0050337Y0051822D01*
X0050337Y0052756D02*
X0052237Y0052756D01*
X0052237Y0053690D02*
X0050337Y0053690D01*
X0050337Y0049391D02*
X0050337Y0047491D01*
X0050337Y0049391D02*
X0052237Y0049391D01*
X0052237Y0047491D01*
X0050337Y0047491D01*
X0050337Y0048425D02*
X0052237Y0048425D01*
X0052237Y0049359D02*
X0050337Y0049359D01*
X0104864Y0051625D02*
X0106764Y0051625D01*
X0104864Y0051625D02*
X0104864Y0053525D01*
X0106764Y0053525D01*
X0106764Y0051625D01*
X0106764Y0052559D02*
X0104864Y0052559D01*
X0104864Y0053493D02*
X0106764Y0053493D01*
X0109195Y0051625D02*
X0111095Y0051625D01*
X0109195Y0051625D02*
X0109195Y0053525D01*
X0111095Y0053525D01*
X0111095Y0051625D01*
X0111095Y0052559D02*
X0109195Y0052559D01*
X0109195Y0053493D02*
X0111095Y0053493D01*
X0050337Y0220719D02*
X0050337Y0222619D01*
X0052237Y0222619D01*
X0052237Y0220719D01*
X0050337Y0220719D01*
X0050337Y0221653D02*
X0052237Y0221653D01*
X0052237Y0222587D02*
X0050337Y0222587D01*
X0050337Y0225050D02*
X0050337Y0226950D01*
X0052237Y0226950D01*
X0052237Y0225050D01*
X0050337Y0225050D01*
X0050337Y0225984D02*
X0052237Y0225984D01*
X0052237Y0226918D02*
X0050337Y0226918D01*
X0049746Y0278722D02*
X0051646Y0278722D01*
X0051646Y0276822D01*
X0049746Y0276822D01*
X0049746Y0278722D01*
X0049746Y0277756D02*
X0051646Y0277756D01*
X0051646Y0278690D02*
X0049746Y0278690D01*
X0054077Y0278722D02*
X0055977Y0278722D01*
X0055977Y0276822D01*
X0054077Y0276822D01*
X0054077Y0278722D01*
X0054077Y0277756D02*
X0055977Y0277756D01*
X0055977Y0278690D02*
X0054077Y0278690D01*
X0099746Y0309430D02*
X0101646Y0309430D01*
X0101646Y0307530D01*
X0099746Y0307530D01*
X0099746Y0309430D01*
X0099746Y0308464D02*
X0101646Y0308464D01*
X0101646Y0309398D02*
X0099746Y0309398D01*
X0104077Y0309430D02*
X0105977Y0309430D01*
X0105977Y0307530D01*
X0104077Y0307530D01*
X0104077Y0309430D01*
X0104077Y0308464D02*
X0105977Y0308464D01*
X0105977Y0309398D02*
X0104077Y0309398D01*
X0109982Y0307530D02*
X0111882Y0307530D01*
X0109982Y0307530D02*
X0109982Y0309430D01*
X0111882Y0309430D01*
X0111882Y0307530D01*
X0111882Y0308464D02*
X0109982Y0308464D01*
X0109982Y0309398D02*
X0111882Y0309398D01*
X0114313Y0307530D02*
X0116213Y0307530D01*
X0114313Y0307530D02*
X0114313Y0309430D01*
X0116213Y0309430D01*
X0116213Y0307530D01*
X0116213Y0308464D02*
X0114313Y0308464D01*
X0114313Y0309398D02*
X0116213Y0309398D01*
X0114442Y0288761D02*
X0114442Y0286861D01*
X0112542Y0286861D01*
X0112542Y0288761D01*
X0114442Y0288761D01*
X0114442Y0287795D02*
X0112542Y0287795D01*
X0112542Y0288729D02*
X0114442Y0288729D01*
X0110505Y0288761D02*
X0110505Y0286861D01*
X0108605Y0286861D01*
X0108605Y0288761D01*
X0110505Y0288761D01*
X0110505Y0287795D02*
X0108605Y0287795D01*
X0108605Y0288729D02*
X0110505Y0288729D01*
X0110505Y0284430D02*
X0110505Y0282530D01*
X0108605Y0282530D01*
X0108605Y0284430D01*
X0110505Y0284430D01*
X0110505Y0283464D02*
X0108605Y0283464D01*
X0108605Y0284398D02*
X0110505Y0284398D01*
X0114442Y0284430D02*
X0114442Y0282530D01*
X0112542Y0282530D01*
X0112542Y0284430D01*
X0114442Y0284430D01*
X0114442Y0283464D02*
X0112542Y0283464D01*
X0112542Y0284398D02*
X0114442Y0284398D01*
X0117591Y0266320D02*
X0117591Y0264420D01*
X0115691Y0264420D01*
X0115691Y0266320D01*
X0117591Y0266320D01*
X0117591Y0265354D02*
X0115691Y0265354D01*
X0115691Y0266288D02*
X0117591Y0266288D01*
X0117591Y0261989D02*
X0117591Y0260089D01*
X0115691Y0260089D01*
X0115691Y0261989D01*
X0117591Y0261989D01*
X0117591Y0261023D02*
X0115691Y0261023D01*
X0115691Y0261957D02*
X0117591Y0261957D01*
X0147187Y0261270D02*
X0147187Y0263170D01*
X0149087Y0263170D01*
X0149087Y0261270D01*
X0147187Y0261270D01*
X0147187Y0262204D02*
X0149087Y0262204D01*
X0149087Y0263138D02*
X0147187Y0263138D01*
X0147187Y0265601D02*
X0147187Y0267501D01*
X0149087Y0267501D01*
X0149087Y0265601D01*
X0147187Y0265601D01*
X0147187Y0266535D02*
X0149087Y0266535D01*
X0149087Y0267469D02*
X0147187Y0267469D01*
X0111095Y0224853D02*
X0109195Y0224853D01*
X0109195Y0226753D01*
X0111095Y0226753D01*
X0111095Y0224853D01*
X0111095Y0225787D02*
X0109195Y0225787D01*
X0109195Y0226721D02*
X0111095Y0226721D01*
X0106764Y0224853D02*
X0104864Y0224853D01*
X0104864Y0226753D01*
X0106764Y0226753D01*
X0106764Y0224853D01*
X0106764Y0225787D02*
X0104864Y0225787D01*
X0104864Y0226721D02*
X0106764Y0226721D01*
D16*
X0182783Y0225803D03*
X0182783Y0217929D03*
X0190657Y0217929D03*
X0190657Y0210055D03*
X0182783Y0210055D03*
X0182783Y0202181D03*
X0190657Y0202181D03*
X0190657Y0225803D03*
X0190657Y0233677D03*
X0182783Y0233677D03*
X0182783Y0241551D03*
X0190657Y0241551D03*
X0190657Y0249425D03*
X0182783Y0249425D03*
X0182783Y0257299D03*
X0190657Y0257299D03*
X0190657Y0265173D03*
X0182783Y0265173D03*
X0182783Y0273047D03*
X0190657Y0273047D03*
X0190657Y0280921D03*
X0182783Y0280921D03*
X0182783Y0288795D03*
X0190657Y0288795D03*
X0190657Y0296669D03*
X0182783Y0296669D03*
X0182783Y0304543D03*
X0190657Y0304543D03*
X0017429Y0304543D03*
X0017429Y0296669D03*
X0017429Y0288795D03*
X0017429Y0280921D03*
X0017429Y0273047D03*
X0017429Y0265173D03*
X0017429Y0257299D03*
X0017429Y0249425D03*
X0017429Y0241551D03*
X0017429Y0233677D03*
X0017429Y0225803D03*
X0017429Y0217929D03*
X0017429Y0210055D03*
X0017429Y0202181D03*
X0009555Y0202181D03*
X0009555Y0210055D03*
X0009555Y0217929D03*
X0009555Y0225803D03*
X0009555Y0233677D03*
X0009555Y0241551D03*
X0009555Y0249425D03*
X0009555Y0257299D03*
X0009555Y0265173D03*
X0009555Y0273047D03*
X0009555Y0280921D03*
X0009555Y0288795D03*
X0009555Y0296669D03*
X0009555Y0304543D03*
X0009555Y0131315D03*
X0009555Y0123441D03*
X0009555Y0115567D03*
X0017429Y0115567D03*
X0017429Y0123441D03*
X0017429Y0131315D03*
X0017429Y0107693D03*
X0017429Y0099819D03*
X0017429Y0091945D03*
X0017429Y0084071D03*
X0017429Y0076197D03*
X0017429Y0068323D03*
X0017429Y0060449D03*
X0017429Y0052575D03*
X0017429Y0044701D03*
X0017429Y0036827D03*
X0017429Y0028953D03*
X0009555Y0028953D03*
X0009555Y0036827D03*
X0009555Y0044701D03*
X0009555Y0052575D03*
X0009555Y0060449D03*
X0009555Y0068323D03*
X0009555Y0076197D03*
X0009555Y0084071D03*
X0009555Y0091945D03*
X0009555Y0099819D03*
X0009555Y0107693D03*
X0182783Y0107693D03*
X0190657Y0107693D03*
X0190657Y0099819D03*
X0190657Y0091945D03*
X0182783Y0091945D03*
X0182783Y0099819D03*
X0182783Y0115567D03*
X0190657Y0115567D03*
X0190657Y0123441D03*
X0190657Y0131315D03*
X0182783Y0131315D03*
X0182783Y0123441D03*
X0182783Y0084071D03*
X0190657Y0084071D03*
X0190657Y0076197D03*
X0182783Y0076197D03*
X0182783Y0068323D03*
X0190657Y0068323D03*
X0190657Y0060449D03*
X0182783Y0060449D03*
X0182783Y0052575D03*
X0190657Y0052575D03*
X0190657Y0044701D03*
X0182783Y0044701D03*
X0182783Y0036827D03*
X0190657Y0036827D03*
X0190657Y0028953D03*
X0182783Y0028953D03*
D17*
X0237077Y0098891D02*
X0239591Y0098891D01*
X0239591Y0094369D01*
X0237077Y0094369D01*
X0237077Y0098891D01*
X0237077Y0095445D02*
X0239591Y0095445D01*
X0239591Y0096521D02*
X0237077Y0096521D01*
X0237077Y0097597D02*
X0239591Y0097597D01*
X0239591Y0098673D02*
X0237077Y0098673D01*
X0242077Y0098891D02*
X0244591Y0098891D01*
X0244591Y0094369D01*
X0242077Y0094369D01*
X0242077Y0098891D01*
X0242077Y0095445D02*
X0244591Y0095445D01*
X0244591Y0096521D02*
X0242077Y0096521D01*
X0242077Y0097597D02*
X0244591Y0097597D01*
X0244591Y0098673D02*
X0242077Y0098673D01*
X0247077Y0098891D02*
X0249591Y0098891D01*
X0249591Y0094369D01*
X0247077Y0094369D01*
X0247077Y0098891D01*
X0247077Y0095445D02*
X0249591Y0095445D01*
X0249591Y0096521D02*
X0247077Y0096521D01*
X0247077Y0097597D02*
X0249591Y0097597D01*
X0249591Y0098673D02*
X0247077Y0098673D01*
X0252077Y0098891D02*
X0254591Y0098891D01*
X0254591Y0094369D01*
X0252077Y0094369D01*
X0252077Y0098891D01*
X0252077Y0095445D02*
X0254591Y0095445D01*
X0254591Y0096521D02*
X0252077Y0096521D01*
X0252077Y0097597D02*
X0254591Y0097597D01*
X0254591Y0098673D02*
X0252077Y0098673D01*
X0252077Y0128891D02*
X0254591Y0128891D01*
X0254591Y0124369D01*
X0252077Y0124369D01*
X0252077Y0128891D01*
X0252077Y0125445D02*
X0254591Y0125445D01*
X0254591Y0126521D02*
X0252077Y0126521D01*
X0252077Y0127597D02*
X0254591Y0127597D01*
X0254591Y0128673D02*
X0252077Y0128673D01*
X0249591Y0128891D02*
X0247077Y0128891D01*
X0249591Y0128891D02*
X0249591Y0124369D01*
X0247077Y0124369D01*
X0247077Y0128891D01*
X0247077Y0125445D02*
X0249591Y0125445D01*
X0249591Y0126521D02*
X0247077Y0126521D01*
X0247077Y0127597D02*
X0249591Y0127597D01*
X0249591Y0128673D02*
X0247077Y0128673D01*
X0244591Y0128891D02*
X0242077Y0128891D01*
X0244591Y0128891D02*
X0244591Y0124369D01*
X0242077Y0124369D01*
X0242077Y0128891D01*
X0242077Y0125445D02*
X0244591Y0125445D01*
X0244591Y0126521D02*
X0242077Y0126521D01*
X0242077Y0127597D02*
X0244591Y0127597D01*
X0244591Y0128673D02*
X0242077Y0128673D01*
X0239591Y0128891D02*
X0237077Y0128891D01*
X0239591Y0128891D02*
X0239591Y0124369D01*
X0237077Y0124369D01*
X0237077Y0128891D01*
X0237077Y0125445D02*
X0239591Y0125445D01*
X0239591Y0126521D02*
X0237077Y0126521D01*
X0237077Y0127597D02*
X0239591Y0127597D01*
X0239591Y0128673D02*
X0237077Y0128673D01*
X0237077Y0272119D02*
X0239591Y0272119D01*
X0239591Y0267597D01*
X0237077Y0267597D01*
X0237077Y0272119D01*
X0237077Y0268673D02*
X0239591Y0268673D01*
X0239591Y0269749D02*
X0237077Y0269749D01*
X0237077Y0270825D02*
X0239591Y0270825D01*
X0239591Y0271901D02*
X0237077Y0271901D01*
X0242077Y0272119D02*
X0244591Y0272119D01*
X0244591Y0267597D01*
X0242077Y0267597D01*
X0242077Y0272119D01*
X0242077Y0268673D02*
X0244591Y0268673D01*
X0244591Y0269749D02*
X0242077Y0269749D01*
X0242077Y0270825D02*
X0244591Y0270825D01*
X0244591Y0271901D02*
X0242077Y0271901D01*
X0247077Y0272119D02*
X0249591Y0272119D01*
X0249591Y0267597D01*
X0247077Y0267597D01*
X0247077Y0272119D01*
X0247077Y0268673D02*
X0249591Y0268673D01*
X0249591Y0269749D02*
X0247077Y0269749D01*
X0247077Y0270825D02*
X0249591Y0270825D01*
X0249591Y0271901D02*
X0247077Y0271901D01*
X0252077Y0272119D02*
X0254591Y0272119D01*
X0254591Y0267597D01*
X0252077Y0267597D01*
X0252077Y0272119D01*
X0252077Y0268673D02*
X0254591Y0268673D01*
X0254591Y0269749D02*
X0252077Y0269749D01*
X0252077Y0270825D02*
X0254591Y0270825D01*
X0254591Y0271901D02*
X0252077Y0271901D01*
X0252077Y0302119D02*
X0254591Y0302119D01*
X0254591Y0297597D01*
X0252077Y0297597D01*
X0252077Y0302119D01*
X0252077Y0298673D02*
X0254591Y0298673D01*
X0254591Y0299749D02*
X0252077Y0299749D01*
X0252077Y0300825D02*
X0254591Y0300825D01*
X0254591Y0301901D02*
X0252077Y0301901D01*
X0249591Y0302119D02*
X0247077Y0302119D01*
X0249591Y0302119D02*
X0249591Y0297597D01*
X0247077Y0297597D01*
X0247077Y0302119D01*
X0247077Y0298673D02*
X0249591Y0298673D01*
X0249591Y0299749D02*
X0247077Y0299749D01*
X0247077Y0300825D02*
X0249591Y0300825D01*
X0249591Y0301901D02*
X0247077Y0301901D01*
X0244591Y0302119D02*
X0242077Y0302119D01*
X0244591Y0302119D02*
X0244591Y0297597D01*
X0242077Y0297597D01*
X0242077Y0302119D01*
X0242077Y0298673D02*
X0244591Y0298673D01*
X0244591Y0299749D02*
X0242077Y0299749D01*
X0242077Y0300825D02*
X0244591Y0300825D01*
X0244591Y0301901D02*
X0242077Y0301901D01*
X0239591Y0302119D02*
X0237077Y0302119D01*
X0239591Y0302119D02*
X0239591Y0297597D01*
X0237077Y0297597D01*
X0237077Y0302119D01*
X0237077Y0298673D02*
X0239591Y0298673D01*
X0239591Y0299749D02*
X0237077Y0299749D01*
X0237077Y0300825D02*
X0239591Y0300825D01*
X0239591Y0301901D02*
X0237077Y0301901D01*
X0081363Y0302119D02*
X0078849Y0302119D01*
X0081363Y0302119D02*
X0081363Y0297597D01*
X0078849Y0297597D01*
X0078849Y0302119D01*
X0078849Y0298673D02*
X0081363Y0298673D01*
X0081363Y0299749D02*
X0078849Y0299749D01*
X0078849Y0300825D02*
X0081363Y0300825D01*
X0081363Y0301901D02*
X0078849Y0301901D01*
X0076363Y0302119D02*
X0073849Y0302119D01*
X0076363Y0302119D02*
X0076363Y0297597D01*
X0073849Y0297597D01*
X0073849Y0302119D01*
X0073849Y0298673D02*
X0076363Y0298673D01*
X0076363Y0299749D02*
X0073849Y0299749D01*
X0073849Y0300825D02*
X0076363Y0300825D01*
X0076363Y0301901D02*
X0073849Y0301901D01*
X0071363Y0302119D02*
X0068849Y0302119D01*
X0071363Y0302119D02*
X0071363Y0297597D01*
X0068849Y0297597D01*
X0068849Y0302119D01*
X0068849Y0298673D02*
X0071363Y0298673D01*
X0071363Y0299749D02*
X0068849Y0299749D01*
X0068849Y0300825D02*
X0071363Y0300825D01*
X0071363Y0301901D02*
X0068849Y0301901D01*
X0066363Y0302119D02*
X0063849Y0302119D01*
X0066363Y0302119D02*
X0066363Y0297597D01*
X0063849Y0297597D01*
X0063849Y0302119D01*
X0063849Y0298673D02*
X0066363Y0298673D01*
X0066363Y0299749D02*
X0063849Y0299749D01*
X0063849Y0300825D02*
X0066363Y0300825D01*
X0066363Y0301901D02*
X0063849Y0301901D01*
X0063849Y0272119D02*
X0066363Y0272119D01*
X0066363Y0267597D01*
X0063849Y0267597D01*
X0063849Y0272119D01*
X0063849Y0268673D02*
X0066363Y0268673D01*
X0066363Y0269749D02*
X0063849Y0269749D01*
X0063849Y0270825D02*
X0066363Y0270825D01*
X0066363Y0271901D02*
X0063849Y0271901D01*
X0068849Y0272119D02*
X0071363Y0272119D01*
X0071363Y0267597D01*
X0068849Y0267597D01*
X0068849Y0272119D01*
X0068849Y0268673D02*
X0071363Y0268673D01*
X0071363Y0269749D02*
X0068849Y0269749D01*
X0068849Y0270825D02*
X0071363Y0270825D01*
X0071363Y0271901D02*
X0068849Y0271901D01*
X0073849Y0272119D02*
X0076363Y0272119D01*
X0076363Y0267597D01*
X0073849Y0267597D01*
X0073849Y0272119D01*
X0073849Y0268673D02*
X0076363Y0268673D01*
X0076363Y0269749D02*
X0073849Y0269749D01*
X0073849Y0270825D02*
X0076363Y0270825D01*
X0076363Y0271901D02*
X0073849Y0271901D01*
X0078849Y0272119D02*
X0081363Y0272119D01*
X0081363Y0267597D01*
X0078849Y0267597D01*
X0078849Y0272119D01*
X0078849Y0268673D02*
X0081363Y0268673D01*
X0081363Y0269749D02*
X0078849Y0269749D01*
X0078849Y0270825D02*
X0081363Y0270825D01*
X0081363Y0271901D02*
X0078849Y0271901D01*
X0078849Y0128891D02*
X0081363Y0128891D01*
X0081363Y0124369D01*
X0078849Y0124369D01*
X0078849Y0128891D01*
X0078849Y0125445D02*
X0081363Y0125445D01*
X0081363Y0126521D02*
X0078849Y0126521D01*
X0078849Y0127597D02*
X0081363Y0127597D01*
X0081363Y0128673D02*
X0078849Y0128673D01*
X0076363Y0128891D02*
X0073849Y0128891D01*
X0076363Y0128891D02*
X0076363Y0124369D01*
X0073849Y0124369D01*
X0073849Y0128891D01*
X0073849Y0125445D02*
X0076363Y0125445D01*
X0076363Y0126521D02*
X0073849Y0126521D01*
X0073849Y0127597D02*
X0076363Y0127597D01*
X0076363Y0128673D02*
X0073849Y0128673D01*
X0071363Y0128891D02*
X0068849Y0128891D01*
X0071363Y0128891D02*
X0071363Y0124369D01*
X0068849Y0124369D01*
X0068849Y0128891D01*
X0068849Y0125445D02*
X0071363Y0125445D01*
X0071363Y0126521D02*
X0068849Y0126521D01*
X0068849Y0127597D02*
X0071363Y0127597D01*
X0071363Y0128673D02*
X0068849Y0128673D01*
X0066363Y0128891D02*
X0063849Y0128891D01*
X0066363Y0128891D02*
X0066363Y0124369D01*
X0063849Y0124369D01*
X0063849Y0128891D01*
X0063849Y0125445D02*
X0066363Y0125445D01*
X0066363Y0126521D02*
X0063849Y0126521D01*
X0063849Y0127597D02*
X0066363Y0127597D01*
X0066363Y0128673D02*
X0063849Y0128673D01*
X0063849Y0098891D02*
X0066363Y0098891D01*
X0066363Y0094369D01*
X0063849Y0094369D01*
X0063849Y0098891D01*
X0063849Y0095445D02*
X0066363Y0095445D01*
X0066363Y0096521D02*
X0063849Y0096521D01*
X0063849Y0097597D02*
X0066363Y0097597D01*
X0066363Y0098673D02*
X0063849Y0098673D01*
X0068849Y0098891D02*
X0071363Y0098891D01*
X0071363Y0094369D01*
X0068849Y0094369D01*
X0068849Y0098891D01*
X0068849Y0095445D02*
X0071363Y0095445D01*
X0071363Y0096521D02*
X0068849Y0096521D01*
X0068849Y0097597D02*
X0071363Y0097597D01*
X0071363Y0098673D02*
X0068849Y0098673D01*
X0073849Y0098891D02*
X0076363Y0098891D01*
X0076363Y0094369D01*
X0073849Y0094369D01*
X0073849Y0098891D01*
X0073849Y0095445D02*
X0076363Y0095445D01*
X0076363Y0096521D02*
X0073849Y0096521D01*
X0073849Y0097597D02*
X0076363Y0097597D01*
X0076363Y0098673D02*
X0073849Y0098673D01*
X0078849Y0098891D02*
X0081363Y0098891D01*
X0081363Y0094369D01*
X0078849Y0094369D01*
X0078849Y0098891D01*
X0078849Y0095445D02*
X0081363Y0095445D01*
X0081363Y0096521D02*
X0078849Y0096521D01*
X0078849Y0097597D02*
X0081363Y0097597D01*
X0081363Y0098673D02*
X0078849Y0098673D01*
D18*
X0029949Y0110568D02*
X0028531Y0110568D01*
X0029949Y0110568D02*
X0029949Y0108362D01*
X0028531Y0108362D01*
X0028531Y0110568D01*
X0028531Y0109306D02*
X0029949Y0109306D01*
X0029949Y0110250D02*
X0028531Y0110250D01*
X0028531Y0114898D02*
X0029949Y0114898D01*
X0029949Y0112692D01*
X0028531Y0112692D01*
X0028531Y0114898D01*
X0028531Y0113636D02*
X0029949Y0113636D01*
X0029949Y0114580D02*
X0028531Y0114580D01*
X0028531Y0283796D02*
X0029949Y0283796D01*
X0029949Y0281590D01*
X0028531Y0281590D01*
X0028531Y0283796D01*
X0028531Y0282534D02*
X0029949Y0282534D01*
X0029949Y0283478D02*
X0028531Y0283478D01*
X0028531Y0288127D02*
X0029949Y0288127D01*
X0029949Y0285921D01*
X0028531Y0285921D01*
X0028531Y0288127D01*
X0028531Y0286865D02*
X0029949Y0286865D01*
X0029949Y0287809D02*
X0028531Y0287809D01*
X0201759Y0288127D02*
X0203177Y0288127D01*
X0203177Y0285921D01*
X0201759Y0285921D01*
X0201759Y0288127D01*
X0201759Y0286865D02*
X0203177Y0286865D01*
X0203177Y0287809D02*
X0201759Y0287809D01*
X0201759Y0283796D02*
X0203177Y0283796D01*
X0203177Y0281590D01*
X0201759Y0281590D01*
X0201759Y0283796D01*
X0201759Y0282534D02*
X0203177Y0282534D01*
X0203177Y0283478D02*
X0201759Y0283478D01*
X0201759Y0114898D02*
X0203177Y0114898D01*
X0203177Y0112692D01*
X0201759Y0112692D01*
X0201759Y0114898D01*
X0201759Y0113636D02*
X0203177Y0113636D01*
X0203177Y0114580D02*
X0201759Y0114580D01*
X0201759Y0110568D02*
X0203177Y0110568D01*
X0203177Y0108362D01*
X0201759Y0108362D01*
X0201759Y0110568D01*
X0201759Y0109306D02*
X0203177Y0109306D01*
X0203177Y0110250D02*
X0201759Y0110250D01*
D19*
X0155224Y0119504D02*
X0150499Y0119504D01*
X0150499Y0127378D02*
X0155224Y0127378D01*
X0136326Y0127378D02*
X0131602Y0127378D01*
X0131602Y0119504D02*
X0136326Y0119504D01*
X0304830Y0119504D02*
X0309555Y0119504D01*
X0309555Y0127378D02*
X0304830Y0127378D01*
X0323728Y0127378D02*
X0328452Y0127378D01*
X0328452Y0119504D02*
X0323728Y0119504D01*
X0323728Y0292732D02*
X0328452Y0292732D01*
X0328452Y0300606D02*
X0323728Y0300606D01*
X0309555Y0300606D02*
X0304830Y0300606D01*
X0304830Y0292732D02*
X0309555Y0292732D01*
X0155224Y0292732D02*
X0150499Y0292732D01*
X0150499Y0300606D02*
X0155224Y0300606D01*
X0136326Y0300606D02*
X0131602Y0300606D01*
X0131602Y0292732D02*
X0136326Y0292732D01*
D20*
X0093843Y0250249D02*
X0093377Y0250249D01*
X0093843Y0250249D02*
X0093843Y0246239D01*
X0093377Y0246239D01*
X0093377Y0250249D01*
X0093377Y0247188D02*
X0093843Y0247188D01*
X0093843Y0248137D02*
X0093377Y0248137D01*
X0093377Y0249086D02*
X0093843Y0249086D01*
X0093843Y0250035D02*
X0093377Y0250035D01*
X0091874Y0250249D02*
X0091408Y0250249D01*
X0091874Y0250249D02*
X0091874Y0246239D01*
X0091408Y0246239D01*
X0091408Y0250249D01*
X0091408Y0247188D02*
X0091874Y0247188D01*
X0091874Y0248137D02*
X0091408Y0248137D01*
X0091408Y0249086D02*
X0091874Y0249086D01*
X0091874Y0250035D02*
X0091408Y0250035D01*
X0089906Y0250249D02*
X0089440Y0250249D01*
X0089906Y0250249D02*
X0089906Y0246239D01*
X0089440Y0246239D01*
X0089440Y0250249D01*
X0089440Y0247188D02*
X0089906Y0247188D01*
X0089906Y0248137D02*
X0089440Y0248137D01*
X0089440Y0249086D02*
X0089906Y0249086D01*
X0089906Y0250035D02*
X0089440Y0250035D01*
X0087937Y0250249D02*
X0087471Y0250249D01*
X0087937Y0250249D02*
X0087937Y0246239D01*
X0087471Y0246239D01*
X0087471Y0250249D01*
X0087471Y0247188D02*
X0087937Y0247188D01*
X0087937Y0248137D02*
X0087471Y0248137D01*
X0087471Y0249086D02*
X0087937Y0249086D01*
X0087937Y0250035D02*
X0087471Y0250035D01*
X0085969Y0250249D02*
X0085503Y0250249D01*
X0085969Y0250249D02*
X0085969Y0246239D01*
X0085503Y0246239D01*
X0085503Y0250249D01*
X0085503Y0247188D02*
X0085969Y0247188D01*
X0085969Y0248137D02*
X0085503Y0248137D01*
X0085503Y0249086D02*
X0085969Y0249086D01*
X0085969Y0250035D02*
X0085503Y0250035D01*
X0084000Y0250249D02*
X0083534Y0250249D01*
X0084000Y0250249D02*
X0084000Y0246239D01*
X0083534Y0246239D01*
X0083534Y0250249D01*
X0083534Y0247188D02*
X0084000Y0247188D01*
X0084000Y0248137D02*
X0083534Y0248137D01*
X0083534Y0249086D02*
X0084000Y0249086D01*
X0084000Y0250035D02*
X0083534Y0250035D01*
X0082032Y0250249D02*
X0081566Y0250249D01*
X0082032Y0250249D02*
X0082032Y0246239D01*
X0081566Y0246239D01*
X0081566Y0250249D01*
X0081566Y0247188D02*
X0082032Y0247188D01*
X0082032Y0248137D02*
X0081566Y0248137D01*
X0081566Y0249086D02*
X0082032Y0249086D01*
X0082032Y0250035D02*
X0081566Y0250035D01*
X0080063Y0250249D02*
X0079597Y0250249D01*
X0080063Y0250249D02*
X0080063Y0246239D01*
X0079597Y0246239D01*
X0079597Y0250249D01*
X0079597Y0247188D02*
X0080063Y0247188D01*
X0080063Y0248137D02*
X0079597Y0248137D01*
X0079597Y0249086D02*
X0080063Y0249086D01*
X0080063Y0250035D02*
X0079597Y0250035D01*
X0078095Y0250249D02*
X0077629Y0250249D01*
X0078095Y0250249D02*
X0078095Y0246239D01*
X0077629Y0246239D01*
X0077629Y0250249D01*
X0077629Y0247188D02*
X0078095Y0247188D01*
X0078095Y0248137D02*
X0077629Y0248137D01*
X0077629Y0249086D02*
X0078095Y0249086D01*
X0078095Y0250035D02*
X0077629Y0250035D01*
X0076126Y0250249D02*
X0075660Y0250249D01*
X0076126Y0250249D02*
X0076126Y0246239D01*
X0075660Y0246239D01*
X0075660Y0250249D01*
X0075660Y0247188D02*
X0076126Y0247188D01*
X0076126Y0248137D02*
X0075660Y0248137D01*
X0075660Y0249086D02*
X0076126Y0249086D01*
X0076126Y0250035D02*
X0075660Y0250035D01*
X0074158Y0250249D02*
X0073692Y0250249D01*
X0074158Y0250249D02*
X0074158Y0246239D01*
X0073692Y0246239D01*
X0073692Y0250249D01*
X0073692Y0247188D02*
X0074158Y0247188D01*
X0074158Y0248137D02*
X0073692Y0248137D01*
X0073692Y0249086D02*
X0074158Y0249086D01*
X0074158Y0250035D02*
X0073692Y0250035D01*
X0072189Y0250249D02*
X0071723Y0250249D01*
X0072189Y0250249D02*
X0072189Y0246239D01*
X0071723Y0246239D01*
X0071723Y0250249D01*
X0071723Y0247188D02*
X0072189Y0247188D01*
X0072189Y0248137D02*
X0071723Y0248137D01*
X0071723Y0249086D02*
X0072189Y0249086D01*
X0072189Y0250035D02*
X0071723Y0250035D01*
X0070221Y0250249D02*
X0069755Y0250249D01*
X0070221Y0250249D02*
X0070221Y0246239D01*
X0069755Y0246239D01*
X0069755Y0250249D01*
X0069755Y0247188D02*
X0070221Y0247188D01*
X0070221Y0248137D02*
X0069755Y0248137D01*
X0069755Y0249086D02*
X0070221Y0249086D01*
X0070221Y0250035D02*
X0069755Y0250035D01*
X0068252Y0250249D02*
X0067786Y0250249D01*
X0068252Y0250249D02*
X0068252Y0246239D01*
X0067786Y0246239D01*
X0067786Y0250249D01*
X0067786Y0247188D02*
X0068252Y0247188D01*
X0068252Y0248137D02*
X0067786Y0248137D01*
X0067786Y0249086D02*
X0068252Y0249086D01*
X0068252Y0250035D02*
X0067786Y0250035D01*
X0066284Y0250249D02*
X0065818Y0250249D01*
X0066284Y0250249D02*
X0066284Y0246239D01*
X0065818Y0246239D01*
X0065818Y0250249D01*
X0065818Y0247188D02*
X0066284Y0247188D01*
X0066284Y0248137D02*
X0065818Y0248137D01*
X0065818Y0249086D02*
X0066284Y0249086D01*
X0066284Y0250035D02*
X0065818Y0250035D01*
X0064315Y0250249D02*
X0063849Y0250249D01*
X0064315Y0250249D02*
X0064315Y0246239D01*
X0063849Y0246239D01*
X0063849Y0250249D01*
X0063849Y0247188D02*
X0064315Y0247188D01*
X0064315Y0248137D02*
X0063849Y0248137D01*
X0063849Y0249086D02*
X0064315Y0249086D01*
X0064315Y0250035D02*
X0063849Y0250035D01*
X0058410Y0240800D02*
X0054400Y0240800D01*
X0058410Y0240800D02*
X0058410Y0240334D01*
X0054400Y0240334D01*
X0054400Y0240800D01*
X0054400Y0238831D02*
X0058410Y0238831D01*
X0058410Y0238365D01*
X0054400Y0238365D01*
X0054400Y0238831D01*
X0054400Y0236863D02*
X0058410Y0236863D01*
X0058410Y0236397D01*
X0054400Y0236397D01*
X0054400Y0236863D01*
X0054400Y0234894D02*
X0058410Y0234894D01*
X0058410Y0234428D01*
X0054400Y0234428D01*
X0054400Y0234894D01*
X0054400Y0232926D02*
X0058410Y0232926D01*
X0058410Y0232460D01*
X0054400Y0232460D01*
X0054400Y0232926D01*
X0054400Y0230957D02*
X0058410Y0230957D01*
X0058410Y0230491D01*
X0054400Y0230491D01*
X0054400Y0230957D01*
X0054400Y0228989D02*
X0058410Y0228989D01*
X0058410Y0228523D01*
X0054400Y0228523D01*
X0054400Y0228989D01*
X0054400Y0227020D02*
X0058410Y0227020D01*
X0058410Y0226554D01*
X0054400Y0226554D01*
X0054400Y0227020D01*
X0054400Y0225052D02*
X0058410Y0225052D01*
X0058410Y0224586D01*
X0054400Y0224586D01*
X0054400Y0225052D01*
X0054400Y0223083D02*
X0058410Y0223083D01*
X0058410Y0222617D01*
X0054400Y0222617D01*
X0054400Y0223083D01*
X0054400Y0221115D02*
X0058410Y0221115D01*
X0058410Y0220649D01*
X0054400Y0220649D01*
X0054400Y0221115D01*
X0054400Y0219146D02*
X0058410Y0219146D01*
X0058410Y0218680D01*
X0054400Y0218680D01*
X0054400Y0219146D01*
X0054400Y0217178D02*
X0058410Y0217178D01*
X0058410Y0216712D01*
X0054400Y0216712D01*
X0054400Y0217178D01*
X0054400Y0215209D02*
X0058410Y0215209D01*
X0058410Y0214743D01*
X0054400Y0214743D01*
X0054400Y0215209D01*
X0054400Y0213241D02*
X0058410Y0213241D01*
X0058410Y0212775D01*
X0054400Y0212775D01*
X0054400Y0213241D01*
X0054400Y0211272D02*
X0058410Y0211272D01*
X0058410Y0210806D01*
X0054400Y0210806D01*
X0054400Y0211272D01*
X0063849Y0205367D02*
X0064315Y0205367D01*
X0064315Y0201357D01*
X0063849Y0201357D01*
X0063849Y0205367D01*
X0063849Y0202306D02*
X0064315Y0202306D01*
X0064315Y0203255D02*
X0063849Y0203255D01*
X0063849Y0204204D02*
X0064315Y0204204D01*
X0064315Y0205153D02*
X0063849Y0205153D01*
X0065818Y0205367D02*
X0066284Y0205367D01*
X0066284Y0201357D01*
X0065818Y0201357D01*
X0065818Y0205367D01*
X0065818Y0202306D02*
X0066284Y0202306D01*
X0066284Y0203255D02*
X0065818Y0203255D01*
X0065818Y0204204D02*
X0066284Y0204204D01*
X0066284Y0205153D02*
X0065818Y0205153D01*
X0067786Y0205367D02*
X0068252Y0205367D01*
X0068252Y0201357D01*
X0067786Y0201357D01*
X0067786Y0205367D01*
X0067786Y0202306D02*
X0068252Y0202306D01*
X0068252Y0203255D02*
X0067786Y0203255D01*
X0067786Y0204204D02*
X0068252Y0204204D01*
X0068252Y0205153D02*
X0067786Y0205153D01*
X0069755Y0205367D02*
X0070221Y0205367D01*
X0070221Y0201357D01*
X0069755Y0201357D01*
X0069755Y0205367D01*
X0069755Y0202306D02*
X0070221Y0202306D01*
X0070221Y0203255D02*
X0069755Y0203255D01*
X0069755Y0204204D02*
X0070221Y0204204D01*
X0070221Y0205153D02*
X0069755Y0205153D01*
X0071723Y0205367D02*
X0072189Y0205367D01*
X0072189Y0201357D01*
X0071723Y0201357D01*
X0071723Y0205367D01*
X0071723Y0202306D02*
X0072189Y0202306D01*
X0072189Y0203255D02*
X0071723Y0203255D01*
X0071723Y0204204D02*
X0072189Y0204204D01*
X0072189Y0205153D02*
X0071723Y0205153D01*
X0073692Y0205367D02*
X0074158Y0205367D01*
X0074158Y0201357D01*
X0073692Y0201357D01*
X0073692Y0205367D01*
X0073692Y0202306D02*
X0074158Y0202306D01*
X0074158Y0203255D02*
X0073692Y0203255D01*
X0073692Y0204204D02*
X0074158Y0204204D01*
X0074158Y0205153D02*
X0073692Y0205153D01*
X0075660Y0205367D02*
X0076126Y0205367D01*
X0076126Y0201357D01*
X0075660Y0201357D01*
X0075660Y0205367D01*
X0075660Y0202306D02*
X0076126Y0202306D01*
X0076126Y0203255D02*
X0075660Y0203255D01*
X0075660Y0204204D02*
X0076126Y0204204D01*
X0076126Y0205153D02*
X0075660Y0205153D01*
X0077629Y0205367D02*
X0078095Y0205367D01*
X0078095Y0201357D01*
X0077629Y0201357D01*
X0077629Y0205367D01*
X0077629Y0202306D02*
X0078095Y0202306D01*
X0078095Y0203255D02*
X0077629Y0203255D01*
X0077629Y0204204D02*
X0078095Y0204204D01*
X0078095Y0205153D02*
X0077629Y0205153D01*
X0079597Y0205367D02*
X0080063Y0205367D01*
X0080063Y0201357D01*
X0079597Y0201357D01*
X0079597Y0205367D01*
X0079597Y0202306D02*
X0080063Y0202306D01*
X0080063Y0203255D02*
X0079597Y0203255D01*
X0079597Y0204204D02*
X0080063Y0204204D01*
X0080063Y0205153D02*
X0079597Y0205153D01*
X0081566Y0205367D02*
X0082032Y0205367D01*
X0082032Y0201357D01*
X0081566Y0201357D01*
X0081566Y0205367D01*
X0081566Y0202306D02*
X0082032Y0202306D01*
X0082032Y0203255D02*
X0081566Y0203255D01*
X0081566Y0204204D02*
X0082032Y0204204D01*
X0082032Y0205153D02*
X0081566Y0205153D01*
X0083534Y0205367D02*
X0084000Y0205367D01*
X0084000Y0201357D01*
X0083534Y0201357D01*
X0083534Y0205367D01*
X0083534Y0202306D02*
X0084000Y0202306D01*
X0084000Y0203255D02*
X0083534Y0203255D01*
X0083534Y0204204D02*
X0084000Y0204204D01*
X0084000Y0205153D02*
X0083534Y0205153D01*
X0085503Y0205367D02*
X0085969Y0205367D01*
X0085969Y0201357D01*
X0085503Y0201357D01*
X0085503Y0205367D01*
X0085503Y0202306D02*
X0085969Y0202306D01*
X0085969Y0203255D02*
X0085503Y0203255D01*
X0085503Y0204204D02*
X0085969Y0204204D01*
X0085969Y0205153D02*
X0085503Y0205153D01*
X0087471Y0205367D02*
X0087937Y0205367D01*
X0087937Y0201357D01*
X0087471Y0201357D01*
X0087471Y0205367D01*
X0087471Y0202306D02*
X0087937Y0202306D01*
X0087937Y0203255D02*
X0087471Y0203255D01*
X0087471Y0204204D02*
X0087937Y0204204D01*
X0087937Y0205153D02*
X0087471Y0205153D01*
X0089440Y0205367D02*
X0089906Y0205367D01*
X0089906Y0201357D01*
X0089440Y0201357D01*
X0089440Y0205367D01*
X0089440Y0202306D02*
X0089906Y0202306D01*
X0089906Y0203255D02*
X0089440Y0203255D01*
X0089440Y0204204D02*
X0089906Y0204204D01*
X0089906Y0205153D02*
X0089440Y0205153D01*
X0091408Y0205367D02*
X0091874Y0205367D01*
X0091874Y0201357D01*
X0091408Y0201357D01*
X0091408Y0205367D01*
X0091408Y0202306D02*
X0091874Y0202306D01*
X0091874Y0203255D02*
X0091408Y0203255D01*
X0091408Y0204204D02*
X0091874Y0204204D01*
X0091874Y0205153D02*
X0091408Y0205153D01*
X0093377Y0205367D02*
X0093843Y0205367D01*
X0093843Y0201357D01*
X0093377Y0201357D01*
X0093377Y0205367D01*
X0093377Y0202306D02*
X0093843Y0202306D01*
X0093843Y0203255D02*
X0093377Y0203255D01*
X0093377Y0204204D02*
X0093843Y0204204D01*
X0093843Y0205153D02*
X0093377Y0205153D01*
X0099282Y0211272D02*
X0103292Y0211272D01*
X0103292Y0210806D01*
X0099282Y0210806D01*
X0099282Y0211272D01*
X0099282Y0213241D02*
X0103292Y0213241D01*
X0103292Y0212775D01*
X0099282Y0212775D01*
X0099282Y0213241D01*
X0099282Y0215209D02*
X0103292Y0215209D01*
X0103292Y0214743D01*
X0099282Y0214743D01*
X0099282Y0215209D01*
X0099282Y0217178D02*
X0103292Y0217178D01*
X0103292Y0216712D01*
X0099282Y0216712D01*
X0099282Y0217178D01*
X0099282Y0219146D02*
X0103292Y0219146D01*
X0103292Y0218680D01*
X0099282Y0218680D01*
X0099282Y0219146D01*
X0099282Y0221115D02*
X0103292Y0221115D01*
X0103292Y0220649D01*
X0099282Y0220649D01*
X0099282Y0221115D01*
X0099282Y0223083D02*
X0103292Y0223083D01*
X0103292Y0222617D01*
X0099282Y0222617D01*
X0099282Y0223083D01*
X0099282Y0225052D02*
X0103292Y0225052D01*
X0103292Y0224586D01*
X0099282Y0224586D01*
X0099282Y0225052D01*
X0099282Y0227020D02*
X0103292Y0227020D01*
X0103292Y0226554D01*
X0099282Y0226554D01*
X0099282Y0227020D01*
X0099282Y0228989D02*
X0103292Y0228989D01*
X0103292Y0228523D01*
X0099282Y0228523D01*
X0099282Y0228989D01*
X0099282Y0230957D02*
X0103292Y0230957D01*
X0103292Y0230491D01*
X0099282Y0230491D01*
X0099282Y0230957D01*
X0099282Y0232926D02*
X0103292Y0232926D01*
X0103292Y0232460D01*
X0099282Y0232460D01*
X0099282Y0232926D01*
X0099282Y0234894D02*
X0103292Y0234894D01*
X0103292Y0234428D01*
X0099282Y0234428D01*
X0099282Y0234894D01*
X0099282Y0236863D02*
X0103292Y0236863D01*
X0103292Y0236397D01*
X0099282Y0236397D01*
X0099282Y0236863D01*
X0099282Y0238831D02*
X0103292Y0238831D01*
X0103292Y0238365D01*
X0099282Y0238365D01*
X0099282Y0238831D01*
X0099282Y0240800D02*
X0103292Y0240800D01*
X0103292Y0240334D01*
X0099282Y0240334D01*
X0099282Y0240800D01*
X0227628Y0240800D02*
X0231638Y0240800D01*
X0231638Y0240334D01*
X0227628Y0240334D01*
X0227628Y0240800D01*
X0227628Y0238831D02*
X0231638Y0238831D01*
X0231638Y0238365D01*
X0227628Y0238365D01*
X0227628Y0238831D01*
X0227628Y0236863D02*
X0231638Y0236863D01*
X0231638Y0236397D01*
X0227628Y0236397D01*
X0227628Y0236863D01*
X0227628Y0234894D02*
X0231638Y0234894D01*
X0231638Y0234428D01*
X0227628Y0234428D01*
X0227628Y0234894D01*
X0227628Y0232926D02*
X0231638Y0232926D01*
X0231638Y0232460D01*
X0227628Y0232460D01*
X0227628Y0232926D01*
X0227628Y0230957D02*
X0231638Y0230957D01*
X0231638Y0230491D01*
X0227628Y0230491D01*
X0227628Y0230957D01*
X0227628Y0228989D02*
X0231638Y0228989D01*
X0231638Y0228523D01*
X0227628Y0228523D01*
X0227628Y0228989D01*
X0227628Y0227020D02*
X0231638Y0227020D01*
X0231638Y0226554D01*
X0227628Y0226554D01*
X0227628Y0227020D01*
X0227628Y0225052D02*
X0231638Y0225052D01*
X0231638Y0224586D01*
X0227628Y0224586D01*
X0227628Y0225052D01*
X0227628Y0223083D02*
X0231638Y0223083D01*
X0231638Y0222617D01*
X0227628Y0222617D01*
X0227628Y0223083D01*
X0227628Y0221115D02*
X0231638Y0221115D01*
X0231638Y0220649D01*
X0227628Y0220649D01*
X0227628Y0221115D01*
X0227628Y0219146D02*
X0231638Y0219146D01*
X0231638Y0218680D01*
X0227628Y0218680D01*
X0227628Y0219146D01*
X0227628Y0217178D02*
X0231638Y0217178D01*
X0231638Y0216712D01*
X0227628Y0216712D01*
X0227628Y0217178D01*
X0227628Y0215209D02*
X0231638Y0215209D01*
X0231638Y0214743D01*
X0227628Y0214743D01*
X0227628Y0215209D01*
X0227628Y0213241D02*
X0231638Y0213241D01*
X0231638Y0212775D01*
X0227628Y0212775D01*
X0227628Y0213241D01*
X0227628Y0211272D02*
X0231638Y0211272D01*
X0231638Y0210806D01*
X0227628Y0210806D01*
X0227628Y0211272D01*
X0237077Y0205367D02*
X0237543Y0205367D01*
X0237543Y0201357D01*
X0237077Y0201357D01*
X0237077Y0205367D01*
X0237077Y0202306D02*
X0237543Y0202306D01*
X0237543Y0203255D02*
X0237077Y0203255D01*
X0237077Y0204204D02*
X0237543Y0204204D01*
X0237543Y0205153D02*
X0237077Y0205153D01*
X0239046Y0205367D02*
X0239512Y0205367D01*
X0239512Y0201357D01*
X0239046Y0201357D01*
X0239046Y0205367D01*
X0239046Y0202306D02*
X0239512Y0202306D01*
X0239512Y0203255D02*
X0239046Y0203255D01*
X0239046Y0204204D02*
X0239512Y0204204D01*
X0239512Y0205153D02*
X0239046Y0205153D01*
X0241014Y0205367D02*
X0241480Y0205367D01*
X0241480Y0201357D01*
X0241014Y0201357D01*
X0241014Y0205367D01*
X0241014Y0202306D02*
X0241480Y0202306D01*
X0241480Y0203255D02*
X0241014Y0203255D01*
X0241014Y0204204D02*
X0241480Y0204204D01*
X0241480Y0205153D02*
X0241014Y0205153D01*
X0242983Y0205367D02*
X0243449Y0205367D01*
X0243449Y0201357D01*
X0242983Y0201357D01*
X0242983Y0205367D01*
X0242983Y0202306D02*
X0243449Y0202306D01*
X0243449Y0203255D02*
X0242983Y0203255D01*
X0242983Y0204204D02*
X0243449Y0204204D01*
X0243449Y0205153D02*
X0242983Y0205153D01*
X0244951Y0205367D02*
X0245417Y0205367D01*
X0245417Y0201357D01*
X0244951Y0201357D01*
X0244951Y0205367D01*
X0244951Y0202306D02*
X0245417Y0202306D01*
X0245417Y0203255D02*
X0244951Y0203255D01*
X0244951Y0204204D02*
X0245417Y0204204D01*
X0245417Y0205153D02*
X0244951Y0205153D01*
X0246920Y0205367D02*
X0247386Y0205367D01*
X0247386Y0201357D01*
X0246920Y0201357D01*
X0246920Y0205367D01*
X0246920Y0202306D02*
X0247386Y0202306D01*
X0247386Y0203255D02*
X0246920Y0203255D01*
X0246920Y0204204D02*
X0247386Y0204204D01*
X0247386Y0205153D02*
X0246920Y0205153D01*
X0248888Y0205367D02*
X0249354Y0205367D01*
X0249354Y0201357D01*
X0248888Y0201357D01*
X0248888Y0205367D01*
X0248888Y0202306D02*
X0249354Y0202306D01*
X0249354Y0203255D02*
X0248888Y0203255D01*
X0248888Y0204204D02*
X0249354Y0204204D01*
X0249354Y0205153D02*
X0248888Y0205153D01*
X0250857Y0205367D02*
X0251323Y0205367D01*
X0251323Y0201357D01*
X0250857Y0201357D01*
X0250857Y0205367D01*
X0250857Y0202306D02*
X0251323Y0202306D01*
X0251323Y0203255D02*
X0250857Y0203255D01*
X0250857Y0204204D02*
X0251323Y0204204D01*
X0251323Y0205153D02*
X0250857Y0205153D01*
X0252825Y0205367D02*
X0253291Y0205367D01*
X0253291Y0201357D01*
X0252825Y0201357D01*
X0252825Y0205367D01*
X0252825Y0202306D02*
X0253291Y0202306D01*
X0253291Y0203255D02*
X0252825Y0203255D01*
X0252825Y0204204D02*
X0253291Y0204204D01*
X0253291Y0205153D02*
X0252825Y0205153D01*
X0254794Y0205367D02*
X0255260Y0205367D01*
X0255260Y0201357D01*
X0254794Y0201357D01*
X0254794Y0205367D01*
X0254794Y0202306D02*
X0255260Y0202306D01*
X0255260Y0203255D02*
X0254794Y0203255D01*
X0254794Y0204204D02*
X0255260Y0204204D01*
X0255260Y0205153D02*
X0254794Y0205153D01*
X0256762Y0205367D02*
X0257228Y0205367D01*
X0257228Y0201357D01*
X0256762Y0201357D01*
X0256762Y0205367D01*
X0256762Y0202306D02*
X0257228Y0202306D01*
X0257228Y0203255D02*
X0256762Y0203255D01*
X0256762Y0204204D02*
X0257228Y0204204D01*
X0257228Y0205153D02*
X0256762Y0205153D01*
X0258731Y0205367D02*
X0259197Y0205367D01*
X0259197Y0201357D01*
X0258731Y0201357D01*
X0258731Y0205367D01*
X0258731Y0202306D02*
X0259197Y0202306D01*
X0259197Y0203255D02*
X0258731Y0203255D01*
X0258731Y0204204D02*
X0259197Y0204204D01*
X0259197Y0205153D02*
X0258731Y0205153D01*
X0260699Y0205367D02*
X0261165Y0205367D01*
X0261165Y0201357D01*
X0260699Y0201357D01*
X0260699Y0205367D01*
X0260699Y0202306D02*
X0261165Y0202306D01*
X0261165Y0203255D02*
X0260699Y0203255D01*
X0260699Y0204204D02*
X0261165Y0204204D01*
X0261165Y0205153D02*
X0260699Y0205153D01*
X0262668Y0205367D02*
X0263134Y0205367D01*
X0263134Y0201357D01*
X0262668Y0201357D01*
X0262668Y0205367D01*
X0262668Y0202306D02*
X0263134Y0202306D01*
X0263134Y0203255D02*
X0262668Y0203255D01*
X0262668Y0204204D02*
X0263134Y0204204D01*
X0263134Y0205153D02*
X0262668Y0205153D01*
X0264636Y0205367D02*
X0265102Y0205367D01*
X0265102Y0201357D01*
X0264636Y0201357D01*
X0264636Y0205367D01*
X0264636Y0202306D02*
X0265102Y0202306D01*
X0265102Y0203255D02*
X0264636Y0203255D01*
X0264636Y0204204D02*
X0265102Y0204204D01*
X0265102Y0205153D02*
X0264636Y0205153D01*
X0266605Y0205367D02*
X0267071Y0205367D01*
X0267071Y0201357D01*
X0266605Y0201357D01*
X0266605Y0205367D01*
X0266605Y0202306D02*
X0267071Y0202306D01*
X0267071Y0203255D02*
X0266605Y0203255D01*
X0266605Y0204204D02*
X0267071Y0204204D01*
X0267071Y0205153D02*
X0266605Y0205153D01*
X0272510Y0211272D02*
X0276520Y0211272D01*
X0276520Y0210806D01*
X0272510Y0210806D01*
X0272510Y0211272D01*
X0272510Y0213241D02*
X0276520Y0213241D01*
X0276520Y0212775D01*
X0272510Y0212775D01*
X0272510Y0213241D01*
X0272510Y0215209D02*
X0276520Y0215209D01*
X0276520Y0214743D01*
X0272510Y0214743D01*
X0272510Y0215209D01*
X0272510Y0217178D02*
X0276520Y0217178D01*
X0276520Y0216712D01*
X0272510Y0216712D01*
X0272510Y0217178D01*
X0272510Y0219146D02*
X0276520Y0219146D01*
X0276520Y0218680D01*
X0272510Y0218680D01*
X0272510Y0219146D01*
X0272510Y0221115D02*
X0276520Y0221115D01*
X0276520Y0220649D01*
X0272510Y0220649D01*
X0272510Y0221115D01*
X0272510Y0223083D02*
X0276520Y0223083D01*
X0276520Y0222617D01*
X0272510Y0222617D01*
X0272510Y0223083D01*
X0272510Y0225052D02*
X0276520Y0225052D01*
X0276520Y0224586D01*
X0272510Y0224586D01*
X0272510Y0225052D01*
X0272510Y0227020D02*
X0276520Y0227020D01*
X0276520Y0226554D01*
X0272510Y0226554D01*
X0272510Y0227020D01*
X0272510Y0228989D02*
X0276520Y0228989D01*
X0276520Y0228523D01*
X0272510Y0228523D01*
X0272510Y0228989D01*
X0272510Y0230957D02*
X0276520Y0230957D01*
X0276520Y0230491D01*
X0272510Y0230491D01*
X0272510Y0230957D01*
X0272510Y0232926D02*
X0276520Y0232926D01*
X0276520Y0232460D01*
X0272510Y0232460D01*
X0272510Y0232926D01*
X0272510Y0234894D02*
X0276520Y0234894D01*
X0276520Y0234428D01*
X0272510Y0234428D01*
X0272510Y0234894D01*
X0272510Y0236863D02*
X0276520Y0236863D01*
X0276520Y0236397D01*
X0272510Y0236397D01*
X0272510Y0236863D01*
X0272510Y0238831D02*
X0276520Y0238831D01*
X0276520Y0238365D01*
X0272510Y0238365D01*
X0272510Y0238831D01*
X0272510Y0240800D02*
X0276520Y0240800D01*
X0276520Y0240334D01*
X0272510Y0240334D01*
X0272510Y0240800D01*
X0267071Y0250249D02*
X0266605Y0250249D01*
X0267071Y0250249D02*
X0267071Y0246239D01*
X0266605Y0246239D01*
X0266605Y0250249D01*
X0266605Y0247188D02*
X0267071Y0247188D01*
X0267071Y0248137D02*
X0266605Y0248137D01*
X0266605Y0249086D02*
X0267071Y0249086D01*
X0267071Y0250035D02*
X0266605Y0250035D01*
X0265102Y0250249D02*
X0264636Y0250249D01*
X0265102Y0250249D02*
X0265102Y0246239D01*
X0264636Y0246239D01*
X0264636Y0250249D01*
X0264636Y0247188D02*
X0265102Y0247188D01*
X0265102Y0248137D02*
X0264636Y0248137D01*
X0264636Y0249086D02*
X0265102Y0249086D01*
X0265102Y0250035D02*
X0264636Y0250035D01*
X0263134Y0250249D02*
X0262668Y0250249D01*
X0263134Y0250249D02*
X0263134Y0246239D01*
X0262668Y0246239D01*
X0262668Y0250249D01*
X0262668Y0247188D02*
X0263134Y0247188D01*
X0263134Y0248137D02*
X0262668Y0248137D01*
X0262668Y0249086D02*
X0263134Y0249086D01*
X0263134Y0250035D02*
X0262668Y0250035D01*
X0261165Y0250249D02*
X0260699Y0250249D01*
X0261165Y0250249D02*
X0261165Y0246239D01*
X0260699Y0246239D01*
X0260699Y0250249D01*
X0260699Y0247188D02*
X0261165Y0247188D01*
X0261165Y0248137D02*
X0260699Y0248137D01*
X0260699Y0249086D02*
X0261165Y0249086D01*
X0261165Y0250035D02*
X0260699Y0250035D01*
X0259197Y0250249D02*
X0258731Y0250249D01*
X0259197Y0250249D02*
X0259197Y0246239D01*
X0258731Y0246239D01*
X0258731Y0250249D01*
X0258731Y0247188D02*
X0259197Y0247188D01*
X0259197Y0248137D02*
X0258731Y0248137D01*
X0258731Y0249086D02*
X0259197Y0249086D01*
X0259197Y0250035D02*
X0258731Y0250035D01*
X0257228Y0250249D02*
X0256762Y0250249D01*
X0257228Y0250249D02*
X0257228Y0246239D01*
X0256762Y0246239D01*
X0256762Y0250249D01*
X0256762Y0247188D02*
X0257228Y0247188D01*
X0257228Y0248137D02*
X0256762Y0248137D01*
X0256762Y0249086D02*
X0257228Y0249086D01*
X0257228Y0250035D02*
X0256762Y0250035D01*
X0255260Y0250249D02*
X0254794Y0250249D01*
X0255260Y0250249D02*
X0255260Y0246239D01*
X0254794Y0246239D01*
X0254794Y0250249D01*
X0254794Y0247188D02*
X0255260Y0247188D01*
X0255260Y0248137D02*
X0254794Y0248137D01*
X0254794Y0249086D02*
X0255260Y0249086D01*
X0255260Y0250035D02*
X0254794Y0250035D01*
X0253291Y0250249D02*
X0252825Y0250249D01*
X0253291Y0250249D02*
X0253291Y0246239D01*
X0252825Y0246239D01*
X0252825Y0250249D01*
X0252825Y0247188D02*
X0253291Y0247188D01*
X0253291Y0248137D02*
X0252825Y0248137D01*
X0252825Y0249086D02*
X0253291Y0249086D01*
X0253291Y0250035D02*
X0252825Y0250035D01*
X0251323Y0250249D02*
X0250857Y0250249D01*
X0251323Y0250249D02*
X0251323Y0246239D01*
X0250857Y0246239D01*
X0250857Y0250249D01*
X0250857Y0247188D02*
X0251323Y0247188D01*
X0251323Y0248137D02*
X0250857Y0248137D01*
X0250857Y0249086D02*
X0251323Y0249086D01*
X0251323Y0250035D02*
X0250857Y0250035D01*
X0249354Y0250249D02*
X0248888Y0250249D01*
X0249354Y0250249D02*
X0249354Y0246239D01*
X0248888Y0246239D01*
X0248888Y0250249D01*
X0248888Y0247188D02*
X0249354Y0247188D01*
X0249354Y0248137D02*
X0248888Y0248137D01*
X0248888Y0249086D02*
X0249354Y0249086D01*
X0249354Y0250035D02*
X0248888Y0250035D01*
X0247386Y0250249D02*
X0246920Y0250249D01*
X0247386Y0250249D02*
X0247386Y0246239D01*
X0246920Y0246239D01*
X0246920Y0250249D01*
X0246920Y0247188D02*
X0247386Y0247188D01*
X0247386Y0248137D02*
X0246920Y0248137D01*
X0246920Y0249086D02*
X0247386Y0249086D01*
X0247386Y0250035D02*
X0246920Y0250035D01*
X0245417Y0250249D02*
X0244951Y0250249D01*
X0245417Y0250249D02*
X0245417Y0246239D01*
X0244951Y0246239D01*
X0244951Y0250249D01*
X0244951Y0247188D02*
X0245417Y0247188D01*
X0245417Y0248137D02*
X0244951Y0248137D01*
X0244951Y0249086D02*
X0245417Y0249086D01*
X0245417Y0250035D02*
X0244951Y0250035D01*
X0243449Y0250249D02*
X0242983Y0250249D01*
X0243449Y0250249D02*
X0243449Y0246239D01*
X0242983Y0246239D01*
X0242983Y0250249D01*
X0242983Y0247188D02*
X0243449Y0247188D01*
X0243449Y0248137D02*
X0242983Y0248137D01*
X0242983Y0249086D02*
X0243449Y0249086D01*
X0243449Y0250035D02*
X0242983Y0250035D01*
X0241480Y0250249D02*
X0241014Y0250249D01*
X0241480Y0250249D02*
X0241480Y0246239D01*
X0241014Y0246239D01*
X0241014Y0250249D01*
X0241014Y0247188D02*
X0241480Y0247188D01*
X0241480Y0248137D02*
X0241014Y0248137D01*
X0241014Y0249086D02*
X0241480Y0249086D01*
X0241480Y0250035D02*
X0241014Y0250035D01*
X0239512Y0250249D02*
X0239046Y0250249D01*
X0239512Y0250249D02*
X0239512Y0246239D01*
X0239046Y0246239D01*
X0239046Y0250249D01*
X0239046Y0247188D02*
X0239512Y0247188D01*
X0239512Y0248137D02*
X0239046Y0248137D01*
X0239046Y0249086D02*
X0239512Y0249086D01*
X0239512Y0250035D02*
X0239046Y0250035D01*
X0237543Y0250249D02*
X0237077Y0250249D01*
X0237543Y0250249D02*
X0237543Y0246239D01*
X0237077Y0246239D01*
X0237077Y0250249D01*
X0237077Y0247188D02*
X0237543Y0247188D01*
X0237543Y0248137D02*
X0237077Y0248137D01*
X0237077Y0249086D02*
X0237543Y0249086D01*
X0237543Y0250035D02*
X0237077Y0250035D01*
X0237077Y0077021D02*
X0237543Y0077021D01*
X0237543Y0073011D01*
X0237077Y0073011D01*
X0237077Y0077021D01*
X0237077Y0073960D02*
X0237543Y0073960D01*
X0237543Y0074909D02*
X0237077Y0074909D01*
X0237077Y0075858D02*
X0237543Y0075858D01*
X0237543Y0076807D02*
X0237077Y0076807D01*
X0239046Y0077021D02*
X0239512Y0077021D01*
X0239512Y0073011D01*
X0239046Y0073011D01*
X0239046Y0077021D01*
X0239046Y0073960D02*
X0239512Y0073960D01*
X0239512Y0074909D02*
X0239046Y0074909D01*
X0239046Y0075858D02*
X0239512Y0075858D01*
X0239512Y0076807D02*
X0239046Y0076807D01*
X0241014Y0077021D02*
X0241480Y0077021D01*
X0241480Y0073011D01*
X0241014Y0073011D01*
X0241014Y0077021D01*
X0241014Y0073960D02*
X0241480Y0073960D01*
X0241480Y0074909D02*
X0241014Y0074909D01*
X0241014Y0075858D02*
X0241480Y0075858D01*
X0241480Y0076807D02*
X0241014Y0076807D01*
X0242983Y0077021D02*
X0243449Y0077021D01*
X0243449Y0073011D01*
X0242983Y0073011D01*
X0242983Y0077021D01*
X0242983Y0073960D02*
X0243449Y0073960D01*
X0243449Y0074909D02*
X0242983Y0074909D01*
X0242983Y0075858D02*
X0243449Y0075858D01*
X0243449Y0076807D02*
X0242983Y0076807D01*
X0244951Y0077021D02*
X0245417Y0077021D01*
X0245417Y0073011D01*
X0244951Y0073011D01*
X0244951Y0077021D01*
X0244951Y0073960D02*
X0245417Y0073960D01*
X0245417Y0074909D02*
X0244951Y0074909D01*
X0244951Y0075858D02*
X0245417Y0075858D01*
X0245417Y0076807D02*
X0244951Y0076807D01*
X0246920Y0077021D02*
X0247386Y0077021D01*
X0247386Y0073011D01*
X0246920Y0073011D01*
X0246920Y0077021D01*
X0246920Y0073960D02*
X0247386Y0073960D01*
X0247386Y0074909D02*
X0246920Y0074909D01*
X0246920Y0075858D02*
X0247386Y0075858D01*
X0247386Y0076807D02*
X0246920Y0076807D01*
X0248888Y0077021D02*
X0249354Y0077021D01*
X0249354Y0073011D01*
X0248888Y0073011D01*
X0248888Y0077021D01*
X0248888Y0073960D02*
X0249354Y0073960D01*
X0249354Y0074909D02*
X0248888Y0074909D01*
X0248888Y0075858D02*
X0249354Y0075858D01*
X0249354Y0076807D02*
X0248888Y0076807D01*
X0250857Y0077021D02*
X0251323Y0077021D01*
X0251323Y0073011D01*
X0250857Y0073011D01*
X0250857Y0077021D01*
X0250857Y0073960D02*
X0251323Y0073960D01*
X0251323Y0074909D02*
X0250857Y0074909D01*
X0250857Y0075858D02*
X0251323Y0075858D01*
X0251323Y0076807D02*
X0250857Y0076807D01*
X0252825Y0077021D02*
X0253291Y0077021D01*
X0253291Y0073011D01*
X0252825Y0073011D01*
X0252825Y0077021D01*
X0252825Y0073960D02*
X0253291Y0073960D01*
X0253291Y0074909D02*
X0252825Y0074909D01*
X0252825Y0075858D02*
X0253291Y0075858D01*
X0253291Y0076807D02*
X0252825Y0076807D01*
X0254794Y0077021D02*
X0255260Y0077021D01*
X0255260Y0073011D01*
X0254794Y0073011D01*
X0254794Y0077021D01*
X0254794Y0073960D02*
X0255260Y0073960D01*
X0255260Y0074909D02*
X0254794Y0074909D01*
X0254794Y0075858D02*
X0255260Y0075858D01*
X0255260Y0076807D02*
X0254794Y0076807D01*
X0256762Y0077021D02*
X0257228Y0077021D01*
X0257228Y0073011D01*
X0256762Y0073011D01*
X0256762Y0077021D01*
X0256762Y0073960D02*
X0257228Y0073960D01*
X0257228Y0074909D02*
X0256762Y0074909D01*
X0256762Y0075858D02*
X0257228Y0075858D01*
X0257228Y0076807D02*
X0256762Y0076807D01*
X0258731Y0077021D02*
X0259197Y0077021D01*
X0259197Y0073011D01*
X0258731Y0073011D01*
X0258731Y0077021D01*
X0258731Y0073960D02*
X0259197Y0073960D01*
X0259197Y0074909D02*
X0258731Y0074909D01*
X0258731Y0075858D02*
X0259197Y0075858D01*
X0259197Y0076807D02*
X0258731Y0076807D01*
X0260699Y0077021D02*
X0261165Y0077021D01*
X0261165Y0073011D01*
X0260699Y0073011D01*
X0260699Y0077021D01*
X0260699Y0073960D02*
X0261165Y0073960D01*
X0261165Y0074909D02*
X0260699Y0074909D01*
X0260699Y0075858D02*
X0261165Y0075858D01*
X0261165Y0076807D02*
X0260699Y0076807D01*
X0262668Y0077021D02*
X0263134Y0077021D01*
X0263134Y0073011D01*
X0262668Y0073011D01*
X0262668Y0077021D01*
X0262668Y0073960D02*
X0263134Y0073960D01*
X0263134Y0074909D02*
X0262668Y0074909D01*
X0262668Y0075858D02*
X0263134Y0075858D01*
X0263134Y0076807D02*
X0262668Y0076807D01*
X0264636Y0077021D02*
X0265102Y0077021D01*
X0265102Y0073011D01*
X0264636Y0073011D01*
X0264636Y0077021D01*
X0264636Y0073960D02*
X0265102Y0073960D01*
X0265102Y0074909D02*
X0264636Y0074909D01*
X0264636Y0075858D02*
X0265102Y0075858D01*
X0265102Y0076807D02*
X0264636Y0076807D01*
X0266605Y0077021D02*
X0267071Y0077021D01*
X0267071Y0073011D01*
X0266605Y0073011D01*
X0266605Y0077021D01*
X0266605Y0073960D02*
X0267071Y0073960D01*
X0267071Y0074909D02*
X0266605Y0074909D01*
X0266605Y0075858D02*
X0267071Y0075858D01*
X0267071Y0076807D02*
X0266605Y0076807D01*
X0272510Y0067572D02*
X0276520Y0067572D01*
X0276520Y0067106D01*
X0272510Y0067106D01*
X0272510Y0067572D01*
X0272510Y0065603D02*
X0276520Y0065603D01*
X0276520Y0065137D01*
X0272510Y0065137D01*
X0272510Y0065603D01*
X0272510Y0063635D02*
X0276520Y0063635D01*
X0276520Y0063169D01*
X0272510Y0063169D01*
X0272510Y0063635D01*
X0272510Y0061666D02*
X0276520Y0061666D01*
X0276520Y0061200D01*
X0272510Y0061200D01*
X0272510Y0061666D01*
X0272510Y0059698D02*
X0276520Y0059698D01*
X0276520Y0059232D01*
X0272510Y0059232D01*
X0272510Y0059698D01*
X0272510Y0057729D02*
X0276520Y0057729D01*
X0276520Y0057263D01*
X0272510Y0057263D01*
X0272510Y0057729D01*
X0272510Y0055761D02*
X0276520Y0055761D01*
X0276520Y0055295D01*
X0272510Y0055295D01*
X0272510Y0055761D01*
X0272510Y0053792D02*
X0276520Y0053792D01*
X0276520Y0053326D01*
X0272510Y0053326D01*
X0272510Y0053792D01*
X0272510Y0051824D02*
X0276520Y0051824D01*
X0276520Y0051358D01*
X0272510Y0051358D01*
X0272510Y0051824D01*
X0272510Y0049855D02*
X0276520Y0049855D01*
X0276520Y0049389D01*
X0272510Y0049389D01*
X0272510Y0049855D01*
X0272510Y0047887D02*
X0276520Y0047887D01*
X0276520Y0047421D01*
X0272510Y0047421D01*
X0272510Y0047887D01*
X0272510Y0045918D02*
X0276520Y0045918D01*
X0276520Y0045452D01*
X0272510Y0045452D01*
X0272510Y0045918D01*
X0272510Y0043950D02*
X0276520Y0043950D01*
X0276520Y0043484D01*
X0272510Y0043484D01*
X0272510Y0043950D01*
X0272510Y0041981D02*
X0276520Y0041981D01*
X0276520Y0041515D01*
X0272510Y0041515D01*
X0272510Y0041981D01*
X0272510Y0040013D02*
X0276520Y0040013D01*
X0276520Y0039547D01*
X0272510Y0039547D01*
X0272510Y0040013D01*
X0272510Y0038044D02*
X0276520Y0038044D01*
X0276520Y0037578D01*
X0272510Y0037578D01*
X0272510Y0038044D01*
X0267071Y0032139D02*
X0266605Y0032139D01*
X0267071Y0032139D02*
X0267071Y0028129D01*
X0266605Y0028129D01*
X0266605Y0032139D01*
X0266605Y0029078D02*
X0267071Y0029078D01*
X0267071Y0030027D02*
X0266605Y0030027D01*
X0266605Y0030976D02*
X0267071Y0030976D01*
X0267071Y0031925D02*
X0266605Y0031925D01*
X0265102Y0032139D02*
X0264636Y0032139D01*
X0265102Y0032139D02*
X0265102Y0028129D01*
X0264636Y0028129D01*
X0264636Y0032139D01*
X0264636Y0029078D02*
X0265102Y0029078D01*
X0265102Y0030027D02*
X0264636Y0030027D01*
X0264636Y0030976D02*
X0265102Y0030976D01*
X0265102Y0031925D02*
X0264636Y0031925D01*
X0263134Y0032139D02*
X0262668Y0032139D01*
X0263134Y0032139D02*
X0263134Y0028129D01*
X0262668Y0028129D01*
X0262668Y0032139D01*
X0262668Y0029078D02*
X0263134Y0029078D01*
X0263134Y0030027D02*
X0262668Y0030027D01*
X0262668Y0030976D02*
X0263134Y0030976D01*
X0263134Y0031925D02*
X0262668Y0031925D01*
X0261165Y0032139D02*
X0260699Y0032139D01*
X0261165Y0032139D02*
X0261165Y0028129D01*
X0260699Y0028129D01*
X0260699Y0032139D01*
X0260699Y0029078D02*
X0261165Y0029078D01*
X0261165Y0030027D02*
X0260699Y0030027D01*
X0260699Y0030976D02*
X0261165Y0030976D01*
X0261165Y0031925D02*
X0260699Y0031925D01*
X0259197Y0032139D02*
X0258731Y0032139D01*
X0259197Y0032139D02*
X0259197Y0028129D01*
X0258731Y0028129D01*
X0258731Y0032139D01*
X0258731Y0029078D02*
X0259197Y0029078D01*
X0259197Y0030027D02*
X0258731Y0030027D01*
X0258731Y0030976D02*
X0259197Y0030976D01*
X0259197Y0031925D02*
X0258731Y0031925D01*
X0257228Y0032139D02*
X0256762Y0032139D01*
X0257228Y0032139D02*
X0257228Y0028129D01*
X0256762Y0028129D01*
X0256762Y0032139D01*
X0256762Y0029078D02*
X0257228Y0029078D01*
X0257228Y0030027D02*
X0256762Y0030027D01*
X0256762Y0030976D02*
X0257228Y0030976D01*
X0257228Y0031925D02*
X0256762Y0031925D01*
X0255260Y0032139D02*
X0254794Y0032139D01*
X0255260Y0032139D02*
X0255260Y0028129D01*
X0254794Y0028129D01*
X0254794Y0032139D01*
X0254794Y0029078D02*
X0255260Y0029078D01*
X0255260Y0030027D02*
X0254794Y0030027D01*
X0254794Y0030976D02*
X0255260Y0030976D01*
X0255260Y0031925D02*
X0254794Y0031925D01*
X0253291Y0032139D02*
X0252825Y0032139D01*
X0253291Y0032139D02*
X0253291Y0028129D01*
X0252825Y0028129D01*
X0252825Y0032139D01*
X0252825Y0029078D02*
X0253291Y0029078D01*
X0253291Y0030027D02*
X0252825Y0030027D01*
X0252825Y0030976D02*
X0253291Y0030976D01*
X0253291Y0031925D02*
X0252825Y0031925D01*
X0251323Y0032139D02*
X0250857Y0032139D01*
X0251323Y0032139D02*
X0251323Y0028129D01*
X0250857Y0028129D01*
X0250857Y0032139D01*
X0250857Y0029078D02*
X0251323Y0029078D01*
X0251323Y0030027D02*
X0250857Y0030027D01*
X0250857Y0030976D02*
X0251323Y0030976D01*
X0251323Y0031925D02*
X0250857Y0031925D01*
X0249354Y0032139D02*
X0248888Y0032139D01*
X0249354Y0032139D02*
X0249354Y0028129D01*
X0248888Y0028129D01*
X0248888Y0032139D01*
X0248888Y0029078D02*
X0249354Y0029078D01*
X0249354Y0030027D02*
X0248888Y0030027D01*
X0248888Y0030976D02*
X0249354Y0030976D01*
X0249354Y0031925D02*
X0248888Y0031925D01*
X0247386Y0032139D02*
X0246920Y0032139D01*
X0247386Y0032139D02*
X0247386Y0028129D01*
X0246920Y0028129D01*
X0246920Y0032139D01*
X0246920Y0029078D02*
X0247386Y0029078D01*
X0247386Y0030027D02*
X0246920Y0030027D01*
X0246920Y0030976D02*
X0247386Y0030976D01*
X0247386Y0031925D02*
X0246920Y0031925D01*
X0245417Y0032139D02*
X0244951Y0032139D01*
X0245417Y0032139D02*
X0245417Y0028129D01*
X0244951Y0028129D01*
X0244951Y0032139D01*
X0244951Y0029078D02*
X0245417Y0029078D01*
X0245417Y0030027D02*
X0244951Y0030027D01*
X0244951Y0030976D02*
X0245417Y0030976D01*
X0245417Y0031925D02*
X0244951Y0031925D01*
X0243449Y0032139D02*
X0242983Y0032139D01*
X0243449Y0032139D02*
X0243449Y0028129D01*
X0242983Y0028129D01*
X0242983Y0032139D01*
X0242983Y0029078D02*
X0243449Y0029078D01*
X0243449Y0030027D02*
X0242983Y0030027D01*
X0242983Y0030976D02*
X0243449Y0030976D01*
X0243449Y0031925D02*
X0242983Y0031925D01*
X0241480Y0032139D02*
X0241014Y0032139D01*
X0241480Y0032139D02*
X0241480Y0028129D01*
X0241014Y0028129D01*
X0241014Y0032139D01*
X0241014Y0029078D02*
X0241480Y0029078D01*
X0241480Y0030027D02*
X0241014Y0030027D01*
X0241014Y0030976D02*
X0241480Y0030976D01*
X0241480Y0031925D02*
X0241014Y0031925D01*
X0239512Y0032139D02*
X0239046Y0032139D01*
X0239512Y0032139D02*
X0239512Y0028129D01*
X0239046Y0028129D01*
X0239046Y0032139D01*
X0239046Y0029078D02*
X0239512Y0029078D01*
X0239512Y0030027D02*
X0239046Y0030027D01*
X0239046Y0030976D02*
X0239512Y0030976D01*
X0239512Y0031925D02*
X0239046Y0031925D01*
X0237543Y0032139D02*
X0237077Y0032139D01*
X0237543Y0032139D02*
X0237543Y0028129D01*
X0237077Y0028129D01*
X0237077Y0032139D01*
X0237077Y0029078D02*
X0237543Y0029078D01*
X0237543Y0030027D02*
X0237077Y0030027D01*
X0237077Y0030976D02*
X0237543Y0030976D01*
X0237543Y0031925D02*
X0237077Y0031925D01*
X0231638Y0038044D02*
X0227628Y0038044D01*
X0231638Y0038044D02*
X0231638Y0037578D01*
X0227628Y0037578D01*
X0227628Y0038044D01*
X0227628Y0040013D02*
X0231638Y0040013D01*
X0231638Y0039547D01*
X0227628Y0039547D01*
X0227628Y0040013D01*
X0227628Y0041981D02*
X0231638Y0041981D01*
X0231638Y0041515D01*
X0227628Y0041515D01*
X0227628Y0041981D01*
X0227628Y0043950D02*
X0231638Y0043950D01*
X0231638Y0043484D01*
X0227628Y0043484D01*
X0227628Y0043950D01*
X0227628Y0045918D02*
X0231638Y0045918D01*
X0231638Y0045452D01*
X0227628Y0045452D01*
X0227628Y0045918D01*
X0227628Y0047887D02*
X0231638Y0047887D01*
X0231638Y0047421D01*
X0227628Y0047421D01*
X0227628Y0047887D01*
X0227628Y0049855D02*
X0231638Y0049855D01*
X0231638Y0049389D01*
X0227628Y0049389D01*
X0227628Y0049855D01*
X0227628Y0051824D02*
X0231638Y0051824D01*
X0231638Y0051358D01*
X0227628Y0051358D01*
X0227628Y0051824D01*
X0227628Y0053792D02*
X0231638Y0053792D01*
X0231638Y0053326D01*
X0227628Y0053326D01*
X0227628Y0053792D01*
X0227628Y0055761D02*
X0231638Y0055761D01*
X0231638Y0055295D01*
X0227628Y0055295D01*
X0227628Y0055761D01*
X0227628Y0057729D02*
X0231638Y0057729D01*
X0231638Y0057263D01*
X0227628Y0057263D01*
X0227628Y0057729D01*
X0227628Y0059698D02*
X0231638Y0059698D01*
X0231638Y0059232D01*
X0227628Y0059232D01*
X0227628Y0059698D01*
X0227628Y0061666D02*
X0231638Y0061666D01*
X0231638Y0061200D01*
X0227628Y0061200D01*
X0227628Y0061666D01*
X0227628Y0063635D02*
X0231638Y0063635D01*
X0231638Y0063169D01*
X0227628Y0063169D01*
X0227628Y0063635D01*
X0227628Y0065603D02*
X0231638Y0065603D01*
X0231638Y0065137D01*
X0227628Y0065137D01*
X0227628Y0065603D01*
X0227628Y0067572D02*
X0231638Y0067572D01*
X0231638Y0067106D01*
X0227628Y0067106D01*
X0227628Y0067572D01*
X0103292Y0067572D02*
X0099282Y0067572D01*
X0103292Y0067572D02*
X0103292Y0067106D01*
X0099282Y0067106D01*
X0099282Y0067572D01*
X0099282Y0065603D02*
X0103292Y0065603D01*
X0103292Y0065137D01*
X0099282Y0065137D01*
X0099282Y0065603D01*
X0099282Y0063635D02*
X0103292Y0063635D01*
X0103292Y0063169D01*
X0099282Y0063169D01*
X0099282Y0063635D01*
X0099282Y0061666D02*
X0103292Y0061666D01*
X0103292Y0061200D01*
X0099282Y0061200D01*
X0099282Y0061666D01*
X0099282Y0059698D02*
X0103292Y0059698D01*
X0103292Y0059232D01*
X0099282Y0059232D01*
X0099282Y0059698D01*
X0099282Y0057729D02*
X0103292Y0057729D01*
X0103292Y0057263D01*
X0099282Y0057263D01*
X0099282Y0057729D01*
X0099282Y0055761D02*
X0103292Y0055761D01*
X0103292Y0055295D01*
X0099282Y0055295D01*
X0099282Y0055761D01*
X0099282Y0053792D02*
X0103292Y0053792D01*
X0103292Y0053326D01*
X0099282Y0053326D01*
X0099282Y0053792D01*
X0099282Y0051824D02*
X0103292Y0051824D01*
X0103292Y0051358D01*
X0099282Y0051358D01*
X0099282Y0051824D01*
X0099282Y0049855D02*
X0103292Y0049855D01*
X0103292Y0049389D01*
X0099282Y0049389D01*
X0099282Y0049855D01*
X0099282Y0047887D02*
X0103292Y0047887D01*
X0103292Y0047421D01*
X0099282Y0047421D01*
X0099282Y0047887D01*
X0099282Y0045918D02*
X0103292Y0045918D01*
X0103292Y0045452D01*
X0099282Y0045452D01*
X0099282Y0045918D01*
X0099282Y0043950D02*
X0103292Y0043950D01*
X0103292Y0043484D01*
X0099282Y0043484D01*
X0099282Y0043950D01*
X0099282Y0041981D02*
X0103292Y0041981D01*
X0103292Y0041515D01*
X0099282Y0041515D01*
X0099282Y0041981D01*
X0099282Y0040013D02*
X0103292Y0040013D01*
X0103292Y0039547D01*
X0099282Y0039547D01*
X0099282Y0040013D01*
X0099282Y0038044D02*
X0103292Y0038044D01*
X0103292Y0037578D01*
X0099282Y0037578D01*
X0099282Y0038044D01*
X0093843Y0032139D02*
X0093377Y0032139D01*
X0093843Y0032139D02*
X0093843Y0028129D01*
X0093377Y0028129D01*
X0093377Y0032139D01*
X0093377Y0029078D02*
X0093843Y0029078D01*
X0093843Y0030027D02*
X0093377Y0030027D01*
X0093377Y0030976D02*
X0093843Y0030976D01*
X0093843Y0031925D02*
X0093377Y0031925D01*
X0091874Y0032139D02*
X0091408Y0032139D01*
X0091874Y0032139D02*
X0091874Y0028129D01*
X0091408Y0028129D01*
X0091408Y0032139D01*
X0091408Y0029078D02*
X0091874Y0029078D01*
X0091874Y0030027D02*
X0091408Y0030027D01*
X0091408Y0030976D02*
X0091874Y0030976D01*
X0091874Y0031925D02*
X0091408Y0031925D01*
X0089906Y0032139D02*
X0089440Y0032139D01*
X0089906Y0032139D02*
X0089906Y0028129D01*
X0089440Y0028129D01*
X0089440Y0032139D01*
X0089440Y0029078D02*
X0089906Y0029078D01*
X0089906Y0030027D02*
X0089440Y0030027D01*
X0089440Y0030976D02*
X0089906Y0030976D01*
X0089906Y0031925D02*
X0089440Y0031925D01*
X0087937Y0032139D02*
X0087471Y0032139D01*
X0087937Y0032139D02*
X0087937Y0028129D01*
X0087471Y0028129D01*
X0087471Y0032139D01*
X0087471Y0029078D02*
X0087937Y0029078D01*
X0087937Y0030027D02*
X0087471Y0030027D01*
X0087471Y0030976D02*
X0087937Y0030976D01*
X0087937Y0031925D02*
X0087471Y0031925D01*
X0085969Y0032139D02*
X0085503Y0032139D01*
X0085969Y0032139D02*
X0085969Y0028129D01*
X0085503Y0028129D01*
X0085503Y0032139D01*
X0085503Y0029078D02*
X0085969Y0029078D01*
X0085969Y0030027D02*
X0085503Y0030027D01*
X0085503Y0030976D02*
X0085969Y0030976D01*
X0085969Y0031925D02*
X0085503Y0031925D01*
X0084000Y0032139D02*
X0083534Y0032139D01*
X0084000Y0032139D02*
X0084000Y0028129D01*
X0083534Y0028129D01*
X0083534Y0032139D01*
X0083534Y0029078D02*
X0084000Y0029078D01*
X0084000Y0030027D02*
X0083534Y0030027D01*
X0083534Y0030976D02*
X0084000Y0030976D01*
X0084000Y0031925D02*
X0083534Y0031925D01*
X0082032Y0032139D02*
X0081566Y0032139D01*
X0082032Y0032139D02*
X0082032Y0028129D01*
X0081566Y0028129D01*
X0081566Y0032139D01*
X0081566Y0029078D02*
X0082032Y0029078D01*
X0082032Y0030027D02*
X0081566Y0030027D01*
X0081566Y0030976D02*
X0082032Y0030976D01*
X0082032Y0031925D02*
X0081566Y0031925D01*
X0080063Y0032139D02*
X0079597Y0032139D01*
X0080063Y0032139D02*
X0080063Y0028129D01*
X0079597Y0028129D01*
X0079597Y0032139D01*
X0079597Y0029078D02*
X0080063Y0029078D01*
X0080063Y0030027D02*
X0079597Y0030027D01*
X0079597Y0030976D02*
X0080063Y0030976D01*
X0080063Y0031925D02*
X0079597Y0031925D01*
X0078095Y0032139D02*
X0077629Y0032139D01*
X0078095Y0032139D02*
X0078095Y0028129D01*
X0077629Y0028129D01*
X0077629Y0032139D01*
X0077629Y0029078D02*
X0078095Y0029078D01*
X0078095Y0030027D02*
X0077629Y0030027D01*
X0077629Y0030976D02*
X0078095Y0030976D01*
X0078095Y0031925D02*
X0077629Y0031925D01*
X0076126Y0032139D02*
X0075660Y0032139D01*
X0076126Y0032139D02*
X0076126Y0028129D01*
X0075660Y0028129D01*
X0075660Y0032139D01*
X0075660Y0029078D02*
X0076126Y0029078D01*
X0076126Y0030027D02*
X0075660Y0030027D01*
X0075660Y0030976D02*
X0076126Y0030976D01*
X0076126Y0031925D02*
X0075660Y0031925D01*
X0074158Y0032139D02*
X0073692Y0032139D01*
X0074158Y0032139D02*
X0074158Y0028129D01*
X0073692Y0028129D01*
X0073692Y0032139D01*
X0073692Y0029078D02*
X0074158Y0029078D01*
X0074158Y0030027D02*
X0073692Y0030027D01*
X0073692Y0030976D02*
X0074158Y0030976D01*
X0074158Y0031925D02*
X0073692Y0031925D01*
X0072189Y0032139D02*
X0071723Y0032139D01*
X0072189Y0032139D02*
X0072189Y0028129D01*
X0071723Y0028129D01*
X0071723Y0032139D01*
X0071723Y0029078D02*
X0072189Y0029078D01*
X0072189Y0030027D02*
X0071723Y0030027D01*
X0071723Y0030976D02*
X0072189Y0030976D01*
X0072189Y0031925D02*
X0071723Y0031925D01*
X0070221Y0032139D02*
X0069755Y0032139D01*
X0070221Y0032139D02*
X0070221Y0028129D01*
X0069755Y0028129D01*
X0069755Y0032139D01*
X0069755Y0029078D02*
X0070221Y0029078D01*
X0070221Y0030027D02*
X0069755Y0030027D01*
X0069755Y0030976D02*
X0070221Y0030976D01*
X0070221Y0031925D02*
X0069755Y0031925D01*
X0068252Y0032139D02*
X0067786Y0032139D01*
X0068252Y0032139D02*
X0068252Y0028129D01*
X0067786Y0028129D01*
X0067786Y0032139D01*
X0067786Y0029078D02*
X0068252Y0029078D01*
X0068252Y0030027D02*
X0067786Y0030027D01*
X0067786Y0030976D02*
X0068252Y0030976D01*
X0068252Y0031925D02*
X0067786Y0031925D01*
X0066284Y0032139D02*
X0065818Y0032139D01*
X0066284Y0032139D02*
X0066284Y0028129D01*
X0065818Y0028129D01*
X0065818Y0032139D01*
X0065818Y0029078D02*
X0066284Y0029078D01*
X0066284Y0030027D02*
X0065818Y0030027D01*
X0065818Y0030976D02*
X0066284Y0030976D01*
X0066284Y0031925D02*
X0065818Y0031925D01*
X0064315Y0032139D02*
X0063849Y0032139D01*
X0064315Y0032139D02*
X0064315Y0028129D01*
X0063849Y0028129D01*
X0063849Y0032139D01*
X0063849Y0029078D02*
X0064315Y0029078D01*
X0064315Y0030027D02*
X0063849Y0030027D01*
X0063849Y0030976D02*
X0064315Y0030976D01*
X0064315Y0031925D02*
X0063849Y0031925D01*
X0058410Y0038044D02*
X0054400Y0038044D01*
X0058410Y0038044D02*
X0058410Y0037578D01*
X0054400Y0037578D01*
X0054400Y0038044D01*
X0054400Y0040013D02*
X0058410Y0040013D01*
X0058410Y0039547D01*
X0054400Y0039547D01*
X0054400Y0040013D01*
X0054400Y0041981D02*
X0058410Y0041981D01*
X0058410Y0041515D01*
X0054400Y0041515D01*
X0054400Y0041981D01*
X0054400Y0043950D02*
X0058410Y0043950D01*
X0058410Y0043484D01*
X0054400Y0043484D01*
X0054400Y0043950D01*
X0054400Y0045918D02*
X0058410Y0045918D01*
X0058410Y0045452D01*
X0054400Y0045452D01*
X0054400Y0045918D01*
X0054400Y0047887D02*
X0058410Y0047887D01*
X0058410Y0047421D01*
X0054400Y0047421D01*
X0054400Y0047887D01*
X0054400Y0049855D02*
X0058410Y0049855D01*
X0058410Y0049389D01*
X0054400Y0049389D01*
X0054400Y0049855D01*
X0054400Y0051824D02*
X0058410Y0051824D01*
X0058410Y0051358D01*
X0054400Y0051358D01*
X0054400Y0051824D01*
X0054400Y0053792D02*
X0058410Y0053792D01*
X0058410Y0053326D01*
X0054400Y0053326D01*
X0054400Y0053792D01*
X0054400Y0055761D02*
X0058410Y0055761D01*
X0058410Y0055295D01*
X0054400Y0055295D01*
X0054400Y0055761D01*
X0054400Y0057729D02*
X0058410Y0057729D01*
X0058410Y0057263D01*
X0054400Y0057263D01*
X0054400Y0057729D01*
X0054400Y0059698D02*
X0058410Y0059698D01*
X0058410Y0059232D01*
X0054400Y0059232D01*
X0054400Y0059698D01*
X0054400Y0061666D02*
X0058410Y0061666D01*
X0058410Y0061200D01*
X0054400Y0061200D01*
X0054400Y0061666D01*
X0054400Y0063635D02*
X0058410Y0063635D01*
X0058410Y0063169D01*
X0054400Y0063169D01*
X0054400Y0063635D01*
X0054400Y0065603D02*
X0058410Y0065603D01*
X0058410Y0065137D01*
X0054400Y0065137D01*
X0054400Y0065603D01*
X0054400Y0067572D02*
X0058410Y0067572D01*
X0058410Y0067106D01*
X0054400Y0067106D01*
X0054400Y0067572D01*
X0063849Y0077021D02*
X0064315Y0077021D01*
X0064315Y0073011D01*
X0063849Y0073011D01*
X0063849Y0077021D01*
X0063849Y0073960D02*
X0064315Y0073960D01*
X0064315Y0074909D02*
X0063849Y0074909D01*
X0063849Y0075858D02*
X0064315Y0075858D01*
X0064315Y0076807D02*
X0063849Y0076807D01*
X0065818Y0077021D02*
X0066284Y0077021D01*
X0066284Y0073011D01*
X0065818Y0073011D01*
X0065818Y0077021D01*
X0065818Y0073960D02*
X0066284Y0073960D01*
X0066284Y0074909D02*
X0065818Y0074909D01*
X0065818Y0075858D02*
X0066284Y0075858D01*
X0066284Y0076807D02*
X0065818Y0076807D01*
X0067786Y0077021D02*
X0068252Y0077021D01*
X0068252Y0073011D01*
X0067786Y0073011D01*
X0067786Y0077021D01*
X0067786Y0073960D02*
X0068252Y0073960D01*
X0068252Y0074909D02*
X0067786Y0074909D01*
X0067786Y0075858D02*
X0068252Y0075858D01*
X0068252Y0076807D02*
X0067786Y0076807D01*
X0069755Y0077021D02*
X0070221Y0077021D01*
X0070221Y0073011D01*
X0069755Y0073011D01*
X0069755Y0077021D01*
X0069755Y0073960D02*
X0070221Y0073960D01*
X0070221Y0074909D02*
X0069755Y0074909D01*
X0069755Y0075858D02*
X0070221Y0075858D01*
X0070221Y0076807D02*
X0069755Y0076807D01*
X0071723Y0077021D02*
X0072189Y0077021D01*
X0072189Y0073011D01*
X0071723Y0073011D01*
X0071723Y0077021D01*
X0071723Y0073960D02*
X0072189Y0073960D01*
X0072189Y0074909D02*
X0071723Y0074909D01*
X0071723Y0075858D02*
X0072189Y0075858D01*
X0072189Y0076807D02*
X0071723Y0076807D01*
X0073692Y0077021D02*
X0074158Y0077021D01*
X0074158Y0073011D01*
X0073692Y0073011D01*
X0073692Y0077021D01*
X0073692Y0073960D02*
X0074158Y0073960D01*
X0074158Y0074909D02*
X0073692Y0074909D01*
X0073692Y0075858D02*
X0074158Y0075858D01*
X0074158Y0076807D02*
X0073692Y0076807D01*
X0075660Y0077021D02*
X0076126Y0077021D01*
X0076126Y0073011D01*
X0075660Y0073011D01*
X0075660Y0077021D01*
X0075660Y0073960D02*
X0076126Y0073960D01*
X0076126Y0074909D02*
X0075660Y0074909D01*
X0075660Y0075858D02*
X0076126Y0075858D01*
X0076126Y0076807D02*
X0075660Y0076807D01*
X0077629Y0077021D02*
X0078095Y0077021D01*
X0078095Y0073011D01*
X0077629Y0073011D01*
X0077629Y0077021D01*
X0077629Y0073960D02*
X0078095Y0073960D01*
X0078095Y0074909D02*
X0077629Y0074909D01*
X0077629Y0075858D02*
X0078095Y0075858D01*
X0078095Y0076807D02*
X0077629Y0076807D01*
X0079597Y0077021D02*
X0080063Y0077021D01*
X0080063Y0073011D01*
X0079597Y0073011D01*
X0079597Y0077021D01*
X0079597Y0073960D02*
X0080063Y0073960D01*
X0080063Y0074909D02*
X0079597Y0074909D01*
X0079597Y0075858D02*
X0080063Y0075858D01*
X0080063Y0076807D02*
X0079597Y0076807D01*
X0081566Y0077021D02*
X0082032Y0077021D01*
X0082032Y0073011D01*
X0081566Y0073011D01*
X0081566Y0077021D01*
X0081566Y0073960D02*
X0082032Y0073960D01*
X0082032Y0074909D02*
X0081566Y0074909D01*
X0081566Y0075858D02*
X0082032Y0075858D01*
X0082032Y0076807D02*
X0081566Y0076807D01*
X0083534Y0077021D02*
X0084000Y0077021D01*
X0084000Y0073011D01*
X0083534Y0073011D01*
X0083534Y0077021D01*
X0083534Y0073960D02*
X0084000Y0073960D01*
X0084000Y0074909D02*
X0083534Y0074909D01*
X0083534Y0075858D02*
X0084000Y0075858D01*
X0084000Y0076807D02*
X0083534Y0076807D01*
X0085503Y0077021D02*
X0085969Y0077021D01*
X0085969Y0073011D01*
X0085503Y0073011D01*
X0085503Y0077021D01*
X0085503Y0073960D02*
X0085969Y0073960D01*
X0085969Y0074909D02*
X0085503Y0074909D01*
X0085503Y0075858D02*
X0085969Y0075858D01*
X0085969Y0076807D02*
X0085503Y0076807D01*
X0087471Y0077021D02*
X0087937Y0077021D01*
X0087937Y0073011D01*
X0087471Y0073011D01*
X0087471Y0077021D01*
X0087471Y0073960D02*
X0087937Y0073960D01*
X0087937Y0074909D02*
X0087471Y0074909D01*
X0087471Y0075858D02*
X0087937Y0075858D01*
X0087937Y0076807D02*
X0087471Y0076807D01*
X0089440Y0077021D02*
X0089906Y0077021D01*
X0089906Y0073011D01*
X0089440Y0073011D01*
X0089440Y0077021D01*
X0089440Y0073960D02*
X0089906Y0073960D01*
X0089906Y0074909D02*
X0089440Y0074909D01*
X0089440Y0075858D02*
X0089906Y0075858D01*
X0089906Y0076807D02*
X0089440Y0076807D01*
X0091408Y0077021D02*
X0091874Y0077021D01*
X0091874Y0073011D01*
X0091408Y0073011D01*
X0091408Y0077021D01*
X0091408Y0073960D02*
X0091874Y0073960D01*
X0091874Y0074909D02*
X0091408Y0074909D01*
X0091408Y0075858D02*
X0091874Y0075858D01*
X0091874Y0076807D02*
X0091408Y0076807D01*
X0093377Y0077021D02*
X0093843Y0077021D01*
X0093843Y0073011D01*
X0093377Y0073011D01*
X0093377Y0077021D01*
X0093377Y0073960D02*
X0093843Y0073960D01*
X0093843Y0074909D02*
X0093377Y0074909D01*
X0093377Y0075858D02*
X0093843Y0075858D01*
X0093843Y0076807D02*
X0093377Y0076807D01*
D21*
X0094200Y0152575D03*
X0094200Y0153756D03*
X0121759Y0153756D03*
X0121759Y0152575D03*
X0267429Y0152575D03*
X0267429Y0153756D03*
X0294988Y0153756D03*
X0294988Y0152575D03*
X0294988Y0325803D03*
X0294988Y0326984D03*
X0267429Y0326984D03*
X0267429Y0325803D03*
X0121759Y0325803D03*
X0121759Y0326984D03*
X0094200Y0326984D03*
X0094200Y0325803D03*
D22*
X0098137Y0315764D03*
X0117822Y0315764D03*
X0271366Y0315764D03*
X0291051Y0315764D03*
X0291051Y0142535D03*
X0271366Y0142535D03*
X0117822Y0142535D03*
X0098137Y0142535D03*
D23*
X0096542Y0156098D02*
X0091858Y0156098D01*
X0096542Y0156098D02*
X0096542Y0150232D01*
X0091858Y0150232D01*
X0091858Y0156098D01*
X0091858Y0152239D02*
X0096542Y0152239D01*
X0096542Y0154246D02*
X0091858Y0154246D01*
X0119417Y0156098D02*
X0124101Y0156098D01*
X0124101Y0150232D01*
X0119417Y0150232D01*
X0119417Y0156098D01*
X0119417Y0152239D02*
X0124101Y0152239D01*
X0124101Y0154246D02*
X0119417Y0154246D01*
X0265087Y0156098D02*
X0269771Y0156098D01*
X0269771Y0150232D01*
X0265087Y0150232D01*
X0265087Y0156098D01*
X0265087Y0152239D02*
X0269771Y0152239D01*
X0269771Y0154246D02*
X0265087Y0154246D01*
X0292646Y0156098D02*
X0297330Y0156098D01*
X0297330Y0150232D01*
X0292646Y0150232D01*
X0292646Y0156098D01*
X0292646Y0152239D02*
X0297330Y0152239D01*
X0297330Y0154246D02*
X0292646Y0154246D01*
X0292646Y0329327D02*
X0297330Y0329327D01*
X0297330Y0323461D01*
X0292646Y0323461D01*
X0292646Y0329327D01*
X0292646Y0325468D02*
X0297330Y0325468D01*
X0297330Y0327475D02*
X0292646Y0327475D01*
X0269771Y0329327D02*
X0265087Y0329327D01*
X0269771Y0329327D02*
X0269771Y0323461D01*
X0265087Y0323461D01*
X0265087Y0329327D01*
X0265087Y0325468D02*
X0269771Y0325468D01*
X0269771Y0327475D02*
X0265087Y0327475D01*
X0124101Y0329327D02*
X0119417Y0329327D01*
X0124101Y0329327D02*
X0124101Y0323461D01*
X0119417Y0323461D01*
X0119417Y0329327D01*
X0119417Y0325468D02*
X0124101Y0325468D01*
X0124101Y0327475D02*
X0119417Y0327475D01*
X0096542Y0329327D02*
X0091858Y0329327D01*
X0096542Y0329327D02*
X0096542Y0323461D01*
X0091858Y0323461D01*
X0091858Y0329327D01*
X0091858Y0325468D02*
X0096542Y0325468D01*
X0096542Y0327475D02*
X0091858Y0327475D01*
D24*
X0107980Y0324228D03*
X0053649Y0272260D03*
X0131602Y0202181D03*
X0107980Y0151000D03*
X0053649Y0099031D03*
X0131602Y0028953D03*
X0226877Y0099031D03*
X0281208Y0151000D03*
X0304830Y0202181D03*
X0226877Y0272260D03*
X0281208Y0324228D03*
X0304830Y0028953D03*
D25*
X0320578Y0013205D03*
X0320578Y0147063D03*
X0320578Y0186433D03*
X0320578Y0320291D03*
X0186720Y0320291D03*
X0147350Y0320291D03*
X0147350Y0186433D03*
X0186720Y0186433D03*
X0186720Y0147063D03*
X0147350Y0147063D03*
X0013492Y0147063D03*
X0013492Y0186433D03*
X0013492Y0320291D03*
X0013492Y0013205D03*
X0147350Y0013205D03*
X0186720Y0013205D03*
D26*
X0130814Y0009268D03*
X0125303Y0009268D03*
X0119791Y0009268D03*
X0114279Y0009268D03*
X0108767Y0009268D03*
X0108767Y0182496D03*
X0114279Y0182496D03*
X0119791Y0182496D03*
X0125303Y0182496D03*
X0130814Y0182496D03*
X0281995Y0182496D03*
X0287507Y0182496D03*
X0293019Y0182496D03*
X0298531Y0182496D03*
X0304043Y0182496D03*
X0304043Y0009268D03*
X0298531Y0009268D03*
X0293019Y0009268D03*
X0287507Y0009268D03*
X0281995Y0009268D03*
M02*
