%
M48
M72
T01C0.02362
T02C0.02756
T03C0.03150
T04C0.12598
%
T01
X26090Y28953
X37114Y20291
X58373Y32102
X45775Y44701
X46562Y50213
X41051Y50213
X70972Y16354
X79633Y8480
X85145Y8480
X90657Y8480
X100893Y21866
X106405Y24228
X110342Y31315
X104830Y34465
X99318Y32102
X114279Y48638
X118216Y52575
X111917Y63598
X111917Y69110
X99318Y73047
X116641Y84071
X116641Y96669
X131602Y78559
X129240Y70685
X155224Y60449
X132389Y35252
X124515Y41551
X120578Y37614
X123728Y26591
X122940Y20291
X125303Y9268
X130814Y9268
X119791Y9268
X114279Y9268
X108767Y9268
X144200Y32102
X199318Y28953
X210342Y20291
X231602Y32102
X219003Y44701
X219791Y50213
X214279Y50213
X244200Y16354
X252862Y8480
X258373Y8480
X263885Y8480
X274121Y21866
X279633Y24228
X283570Y31315
X278058Y34465
X272547Y32102
X287507Y48638
X291444Y52575
X285145Y63598
X285145Y69110
X272547Y73047
X289869Y84071
X289869Y96669
X304830Y78559
X302468Y70685
X328452Y60449
X305617Y35252
X297743Y41551
X293806Y37614
X296956Y26591
X296169Y20291
X298531Y9268
X304043Y9268
X293019Y9268
X287507Y9268
X281995Y9268
X317429Y32102
X321366Y98244
X325303Y105331
X289869Y130528
X283964Y130528
X278452Y130528
X272547Y130528
X259161Y125016
X258373Y181709
X263885Y181709
X252862Y181709
X244200Y189583
X231602Y205331
X219003Y217929
X219791Y223441
X214279Y223441
X199318Y202181
X210342Y193520
X155224Y233677
X131602Y251787
X129240Y243913
X116641Y257299
X116641Y269898
X99318Y246276
X111917Y242339
X111917Y236827
X118216Y225803
X114279Y221866
X124515Y214780
X120578Y210843
X123728Y199819
X122940Y193520
X125303Y182496
X130814Y182496
X119791Y182496
X114279Y182496
X108767Y182496
X100893Y195094
X106405Y197457
X110342Y204543
X104830Y207693
X99318Y205331
X90657Y181709
X85145Y181709
X79633Y181709
X70972Y189583
X58373Y205331
X45775Y217929
X46562Y223441
X41051Y223441
X26090Y202181
X37114Y193520
X99318Y130528
X105224Y130528
X110736Y130528
X116641Y130528
X85932Y125016
X148137Y98244
X152074Y105331
X144200Y205331
X132389Y208480
X148137Y271472
X152074Y278559
X116641Y303756
X110736Y303756
X105224Y303756
X99318Y303756
X85932Y298244
X259161Y298244
X272547Y303756
X278452Y303756
X283964Y303756
X289869Y303756
X321366Y271472
X325303Y278559
X304830Y251787
X302468Y243913
X289869Y257299
X289869Y269898
X272547Y246276
X285145Y242339
X285145Y236827
X291444Y225803
X287507Y221866
X297743Y214780
X293806Y210843
X296956Y199819
X296169Y193520
X298531Y182496
X304043Y182496
X293019Y182496
X287507Y182496
X281995Y182496
X274121Y195094
X279633Y197457
X283570Y204543
X278058Y207693
X272547Y205331
X305617Y208480
X317429Y205331
X328452Y233677
T02
X326090Y292732
X326090Y300606
X307192Y300606
X307192Y292732
X152862Y292732
X152862Y300606
X133964Y300606
X133964Y292732
X133964Y127378
X133964Y119504
X152862Y119504
X152862Y127378
X307192Y127378
X307192Y119504
X326090Y119504
X326090Y127378
T03
X294988Y152575
X294988Y153756
X291051Y142535
X271366Y142535
X267429Y152575
X267429Y153756
X246090Y182496
X236090Y182496
X226090Y182496
X216090Y182496
X206090Y182496
X190657Y202181
X182783Y202181
X182783Y210055
X190657Y210055
X190657Y217929
X190657Y225803
X182783Y225803
X182783Y217929
X182783Y233677
X190657Y233677
X190657Y241551
X182783Y241551
X182783Y249425
X190657Y249425
X190657Y257299
X182783Y257299
X182783Y265173
X190657Y265173
X190657Y273047
X182783Y273047
X182783Y280921
X190657Y280921
X190657Y288795
X182783Y288795
X182783Y296669
X190657Y296669
X190657Y304543
X182783Y304543
X216247Y284858
X267429Y325803
X267429Y326984
X271366Y315764
X291051Y315764
X294988Y325803
X294988Y326984
X121759Y326984
X121759Y325803
X117822Y315764
X98137Y315764
X94200Y325803
X94200Y326984
X43019Y284858
X17429Y280921
X17429Y288795
X17429Y296669
X17429Y304543
X9555Y304543
X9555Y296669
X9555Y288795
X9555Y280921
X9555Y273047
X9555Y265173
X9555Y257299
X17429Y257299
X17429Y265173
X17429Y273047
X17429Y249425
X17429Y241551
X17429Y233677
X17429Y225803
X17429Y217929
X17429Y210055
X17429Y202181
X9555Y202181
X9555Y210055
X9555Y217929
X9555Y225803
X9555Y233677
X9555Y241551
X9555Y249425
X32862Y182496
X42862Y182496
X52862Y182496
X62862Y182496
X72862Y182496
X94200Y153756
X94200Y152575
X98137Y142535
X117822Y142535
X121759Y152575
X121759Y153756
X182783Y131315
X190657Y131315
X190657Y123441
X190657Y115567
X182783Y115567
X182783Y123441
X182783Y107693
X190657Y107693
X190657Y99819
X190657Y91945
X182783Y91945
X182783Y99819
X182783Y84071
X190657Y84071
X190657Y76197
X182783Y76197
X182783Y68323
X190657Y68323
X190657Y60449
X182783Y60449
X182783Y52575
X190657Y52575
X190657Y44701
X182783Y44701
X182783Y36827
X190657Y36827
X190657Y28953
X182783Y28953
X206090Y9268
X216090Y9268
X226090Y9268
X236090Y9268
X246090Y9268
X216247Y111630
X72862Y9268
X62862Y9268
X52862Y9268
X42862Y9268
X32862Y9268
X17429Y28953
X17429Y36827
X17429Y44701
X17429Y52575
X17429Y60449
X17429Y68323
X17429Y76197
X17429Y84071
X17429Y91945
X17429Y99819
X17429Y107693
X17429Y115567
X17429Y123441
X17429Y131315
X9555Y131315
X9555Y123441
X9555Y115567
X9555Y107693
X9555Y99819
X9555Y91945
X9555Y84071
X9555Y76197
X9555Y68323
X9555Y60449
X9555Y52575
X9555Y44701
X9555Y36827
X9555Y28953
X43019Y111630
T04
X13492Y13205
X147350Y13205
X186720Y13205
X186720Y147063
X186720Y186433
X147350Y186433
X147350Y147063
X13492Y147063
X13492Y186433
X13492Y320291
X147350Y320291
X186720Y320291
X320578Y320291
X320578Y186433
X320578Y147063
X320578Y13205
M30
