G75*
%MOIN*%
%OFA0B0*%
%FSLAX25Y25*%
%IPPOS*%
%LPD*%
%AMOC8*
5,1,8,0,0,1.08239X$1,22.5*
%
%ADD10C,0.00000*%
%ADD11C,0.01134*%
%ADD12C,0.02008*%
%ADD13C,0.00992*%
%ADD14C,0.00935*%
%ADD15C,0.00943*%
%ADD16C,0.03780*%
%ADD17OC8,0.07087*%
%ADD18C,0.01772*%
%ADD19OC8,0.05906*%
%ADD20C,0.01616*%
%ADD21R,0.07200X0.00600*%
%ADD22C,0.05512*%
%ADD23C,0.00945*%
%ADD24C,0.02126*%
%ADD25R,0.05906X0.05906*%
%ADD26R,0.06102X0.06102*%
%ADD27C,0.01575*%
%ADD28C,0.01417*%
%ADD29OC8,0.20472*%
%ADD30OC8,0.05118*%
D10*
X0001680Y0001394D02*
X0001680Y0158874D01*
X0009555Y0158874D01*
X0009555Y0174622D01*
X0001680Y0174622D01*
X0001680Y0332102D01*
X0025303Y0332102D01*
X0025303Y0313205D01*
X0025305Y0313081D01*
X0025311Y0312958D01*
X0025320Y0312834D01*
X0025334Y0312712D01*
X0025351Y0312589D01*
X0025373Y0312467D01*
X0025398Y0312346D01*
X0025427Y0312226D01*
X0025459Y0312107D01*
X0025496Y0311988D01*
X0025536Y0311871D01*
X0025579Y0311756D01*
X0025627Y0311641D01*
X0025678Y0311529D01*
X0025732Y0311418D01*
X0025790Y0311308D01*
X0025851Y0311201D01*
X0025916Y0311095D01*
X0025984Y0310992D01*
X0026055Y0310891D01*
X0026129Y0310792D01*
X0026206Y0310695D01*
X0026287Y0310601D01*
X0026370Y0310510D01*
X0026456Y0310421D01*
X0026545Y0310335D01*
X0026636Y0310252D01*
X0026730Y0310171D01*
X0026827Y0310094D01*
X0026926Y0310020D01*
X0027027Y0309949D01*
X0027130Y0309881D01*
X0027236Y0309816D01*
X0027343Y0309755D01*
X0027453Y0309697D01*
X0027564Y0309643D01*
X0027676Y0309592D01*
X0027791Y0309544D01*
X0027906Y0309501D01*
X0028023Y0309461D01*
X0028142Y0309424D01*
X0028261Y0309392D01*
X0028381Y0309363D01*
X0028502Y0309338D01*
X0028624Y0309316D01*
X0028747Y0309299D01*
X0028869Y0309285D01*
X0028993Y0309276D01*
X0029116Y0309270D01*
X0029240Y0309268D01*
X0084358Y0309268D01*
X0084482Y0309270D01*
X0084605Y0309276D01*
X0084729Y0309285D01*
X0084851Y0309299D01*
X0084974Y0309316D01*
X0085096Y0309338D01*
X0085217Y0309363D01*
X0085337Y0309392D01*
X0085456Y0309424D01*
X0085575Y0309461D01*
X0085692Y0309501D01*
X0085807Y0309544D01*
X0085922Y0309592D01*
X0086034Y0309643D01*
X0086145Y0309697D01*
X0086255Y0309755D01*
X0086362Y0309816D01*
X0086468Y0309881D01*
X0086571Y0309949D01*
X0086672Y0310020D01*
X0086771Y0310094D01*
X0086868Y0310171D01*
X0086962Y0310252D01*
X0087053Y0310335D01*
X0087142Y0310421D01*
X0087228Y0310510D01*
X0087311Y0310601D01*
X0087392Y0310695D01*
X0087469Y0310792D01*
X0087543Y0310891D01*
X0087614Y0310992D01*
X0087682Y0311095D01*
X0087747Y0311201D01*
X0087808Y0311308D01*
X0087866Y0311418D01*
X0087920Y0311529D01*
X0087971Y0311641D01*
X0088019Y0311756D01*
X0088062Y0311871D01*
X0088102Y0311988D01*
X0088139Y0312107D01*
X0088171Y0312226D01*
X0088200Y0312346D01*
X0088225Y0312467D01*
X0088247Y0312589D01*
X0088264Y0312712D01*
X0088278Y0312834D01*
X0088287Y0312958D01*
X0088293Y0313081D01*
X0088295Y0313205D01*
X0088295Y0332102D01*
X0127665Y0332102D01*
X0127665Y0313205D01*
X0127667Y0313081D01*
X0127673Y0312958D01*
X0127682Y0312834D01*
X0127696Y0312712D01*
X0127713Y0312589D01*
X0127735Y0312467D01*
X0127760Y0312346D01*
X0127789Y0312226D01*
X0127821Y0312107D01*
X0127858Y0311988D01*
X0127898Y0311871D01*
X0127941Y0311756D01*
X0127989Y0311641D01*
X0128040Y0311529D01*
X0128094Y0311418D01*
X0128152Y0311308D01*
X0128213Y0311201D01*
X0128278Y0311095D01*
X0128346Y0310992D01*
X0128417Y0310891D01*
X0128491Y0310792D01*
X0128568Y0310695D01*
X0128649Y0310601D01*
X0128732Y0310510D01*
X0128818Y0310421D01*
X0128907Y0310335D01*
X0128998Y0310252D01*
X0129092Y0310171D01*
X0129189Y0310094D01*
X0129288Y0310020D01*
X0129389Y0309949D01*
X0129492Y0309881D01*
X0129598Y0309816D01*
X0129705Y0309755D01*
X0129815Y0309697D01*
X0129926Y0309643D01*
X0130038Y0309592D01*
X0130153Y0309544D01*
X0130268Y0309501D01*
X0130385Y0309461D01*
X0130504Y0309424D01*
X0130623Y0309392D01*
X0130743Y0309363D01*
X0130864Y0309338D01*
X0130986Y0309316D01*
X0131109Y0309299D01*
X0131231Y0309285D01*
X0131355Y0309276D01*
X0131478Y0309270D01*
X0131602Y0309268D01*
X0131726Y0309270D01*
X0131849Y0309276D01*
X0131973Y0309285D01*
X0132095Y0309299D01*
X0132218Y0309316D01*
X0132340Y0309338D01*
X0132461Y0309363D01*
X0132581Y0309392D01*
X0132700Y0309424D01*
X0132819Y0309461D01*
X0132936Y0309501D01*
X0133051Y0309544D01*
X0133166Y0309592D01*
X0133278Y0309643D01*
X0133389Y0309697D01*
X0133499Y0309755D01*
X0133606Y0309816D01*
X0133712Y0309881D01*
X0133815Y0309949D01*
X0133916Y0310020D01*
X0134015Y0310094D01*
X0134112Y0310171D01*
X0134206Y0310252D01*
X0134297Y0310335D01*
X0134386Y0310421D01*
X0134472Y0310510D01*
X0134555Y0310601D01*
X0134636Y0310695D01*
X0134713Y0310792D01*
X0134787Y0310891D01*
X0134858Y0310992D01*
X0134926Y0311095D01*
X0134991Y0311201D01*
X0135052Y0311308D01*
X0135110Y0311418D01*
X0135164Y0311529D01*
X0135215Y0311641D01*
X0135263Y0311756D01*
X0135306Y0311871D01*
X0135346Y0311988D01*
X0135383Y0312107D01*
X0135415Y0312226D01*
X0135444Y0312346D01*
X0135469Y0312467D01*
X0135491Y0312589D01*
X0135508Y0312712D01*
X0135522Y0312834D01*
X0135531Y0312958D01*
X0135537Y0313081D01*
X0135539Y0313205D01*
X0135539Y0332102D01*
X0159161Y0332102D01*
X0159161Y0324228D01*
X0174909Y0324228D01*
X0174909Y0332102D01*
X0198531Y0332102D01*
X0198531Y0313205D01*
X0198533Y0313081D01*
X0198539Y0312958D01*
X0198548Y0312834D01*
X0198562Y0312712D01*
X0198579Y0312589D01*
X0198601Y0312467D01*
X0198626Y0312346D01*
X0198655Y0312226D01*
X0198687Y0312107D01*
X0198724Y0311988D01*
X0198764Y0311871D01*
X0198807Y0311756D01*
X0198855Y0311641D01*
X0198906Y0311529D01*
X0198960Y0311418D01*
X0199018Y0311308D01*
X0199079Y0311201D01*
X0199144Y0311095D01*
X0199212Y0310992D01*
X0199283Y0310891D01*
X0199357Y0310792D01*
X0199434Y0310695D01*
X0199515Y0310601D01*
X0199598Y0310510D01*
X0199684Y0310421D01*
X0199773Y0310335D01*
X0199864Y0310252D01*
X0199958Y0310171D01*
X0200055Y0310094D01*
X0200154Y0310020D01*
X0200255Y0309949D01*
X0200358Y0309881D01*
X0200464Y0309816D01*
X0200571Y0309755D01*
X0200681Y0309697D01*
X0200792Y0309643D01*
X0200904Y0309592D01*
X0201019Y0309544D01*
X0201134Y0309501D01*
X0201251Y0309461D01*
X0201370Y0309424D01*
X0201489Y0309392D01*
X0201609Y0309363D01*
X0201730Y0309338D01*
X0201852Y0309316D01*
X0201975Y0309299D01*
X0202097Y0309285D01*
X0202221Y0309276D01*
X0202344Y0309270D01*
X0202468Y0309268D01*
X0257586Y0309268D01*
X0257710Y0309270D01*
X0257833Y0309276D01*
X0257957Y0309285D01*
X0258079Y0309299D01*
X0258202Y0309316D01*
X0258324Y0309338D01*
X0258445Y0309363D01*
X0258565Y0309392D01*
X0258684Y0309424D01*
X0258803Y0309461D01*
X0258920Y0309501D01*
X0259035Y0309544D01*
X0259150Y0309592D01*
X0259262Y0309643D01*
X0259373Y0309697D01*
X0259483Y0309755D01*
X0259590Y0309816D01*
X0259696Y0309881D01*
X0259799Y0309949D01*
X0259900Y0310020D01*
X0259999Y0310094D01*
X0260096Y0310171D01*
X0260190Y0310252D01*
X0260281Y0310335D01*
X0260370Y0310421D01*
X0260456Y0310510D01*
X0260539Y0310601D01*
X0260620Y0310695D01*
X0260697Y0310792D01*
X0260771Y0310891D01*
X0260842Y0310992D01*
X0260910Y0311095D01*
X0260975Y0311201D01*
X0261036Y0311308D01*
X0261094Y0311418D01*
X0261148Y0311529D01*
X0261199Y0311641D01*
X0261247Y0311756D01*
X0261290Y0311871D01*
X0261330Y0311988D01*
X0261367Y0312107D01*
X0261399Y0312226D01*
X0261428Y0312346D01*
X0261453Y0312467D01*
X0261475Y0312589D01*
X0261492Y0312712D01*
X0261506Y0312834D01*
X0261515Y0312958D01*
X0261521Y0313081D01*
X0261523Y0313205D01*
X0261523Y0332102D01*
X0300893Y0332102D01*
X0300893Y0313205D01*
X0300895Y0313081D01*
X0300901Y0312958D01*
X0300910Y0312834D01*
X0300924Y0312712D01*
X0300941Y0312589D01*
X0300963Y0312467D01*
X0300988Y0312346D01*
X0301017Y0312226D01*
X0301049Y0312107D01*
X0301086Y0311988D01*
X0301126Y0311871D01*
X0301169Y0311756D01*
X0301217Y0311641D01*
X0301268Y0311529D01*
X0301322Y0311418D01*
X0301380Y0311308D01*
X0301441Y0311201D01*
X0301506Y0311095D01*
X0301574Y0310992D01*
X0301645Y0310891D01*
X0301719Y0310792D01*
X0301796Y0310695D01*
X0301877Y0310601D01*
X0301960Y0310510D01*
X0302046Y0310421D01*
X0302135Y0310335D01*
X0302226Y0310252D01*
X0302320Y0310171D01*
X0302417Y0310094D01*
X0302516Y0310020D01*
X0302617Y0309949D01*
X0302720Y0309881D01*
X0302826Y0309816D01*
X0302933Y0309755D01*
X0303043Y0309697D01*
X0303154Y0309643D01*
X0303266Y0309592D01*
X0303381Y0309544D01*
X0303496Y0309501D01*
X0303613Y0309461D01*
X0303732Y0309424D01*
X0303851Y0309392D01*
X0303971Y0309363D01*
X0304092Y0309338D01*
X0304214Y0309316D01*
X0304337Y0309299D01*
X0304459Y0309285D01*
X0304583Y0309276D01*
X0304706Y0309270D01*
X0304830Y0309268D01*
X0304954Y0309270D01*
X0305077Y0309276D01*
X0305201Y0309285D01*
X0305323Y0309299D01*
X0305446Y0309316D01*
X0305568Y0309338D01*
X0305689Y0309363D01*
X0305809Y0309392D01*
X0305928Y0309424D01*
X0306047Y0309461D01*
X0306164Y0309501D01*
X0306279Y0309544D01*
X0306394Y0309592D01*
X0306506Y0309643D01*
X0306617Y0309697D01*
X0306727Y0309755D01*
X0306834Y0309816D01*
X0306940Y0309881D01*
X0307043Y0309949D01*
X0307144Y0310020D01*
X0307243Y0310094D01*
X0307340Y0310171D01*
X0307434Y0310252D01*
X0307525Y0310335D01*
X0307614Y0310421D01*
X0307700Y0310510D01*
X0307783Y0310601D01*
X0307864Y0310695D01*
X0307941Y0310792D01*
X0308015Y0310891D01*
X0308086Y0310992D01*
X0308154Y0311095D01*
X0308219Y0311201D01*
X0308280Y0311308D01*
X0308338Y0311418D01*
X0308392Y0311529D01*
X0308443Y0311641D01*
X0308491Y0311756D01*
X0308534Y0311871D01*
X0308574Y0311988D01*
X0308611Y0312107D01*
X0308643Y0312226D01*
X0308672Y0312346D01*
X0308697Y0312467D01*
X0308719Y0312589D01*
X0308736Y0312712D01*
X0308750Y0312834D01*
X0308759Y0312958D01*
X0308765Y0313081D01*
X0308767Y0313205D01*
X0308767Y0332102D01*
X0332389Y0332102D01*
X0332389Y0174622D01*
X0324515Y0174622D01*
X0324515Y0158874D01*
X0332389Y0158874D01*
X0332389Y0001394D01*
X0174909Y0001394D01*
X0174909Y0009268D01*
X0159161Y0009268D01*
X0159161Y0001394D01*
X0001680Y0001394D01*
X0041444Y0111630D02*
X0041446Y0111709D01*
X0041452Y0111788D01*
X0041462Y0111867D01*
X0041476Y0111945D01*
X0041493Y0112022D01*
X0041515Y0112098D01*
X0041540Y0112173D01*
X0041570Y0112246D01*
X0041602Y0112318D01*
X0041639Y0112389D01*
X0041679Y0112457D01*
X0041722Y0112523D01*
X0041768Y0112587D01*
X0041818Y0112649D01*
X0041871Y0112708D01*
X0041926Y0112764D01*
X0041985Y0112818D01*
X0042046Y0112868D01*
X0042109Y0112916D01*
X0042175Y0112960D01*
X0042243Y0113001D01*
X0042313Y0113038D01*
X0042384Y0113072D01*
X0042458Y0113102D01*
X0042532Y0113128D01*
X0042608Y0113150D01*
X0042685Y0113169D01*
X0042763Y0113184D01*
X0042841Y0113195D01*
X0042920Y0113202D01*
X0042999Y0113205D01*
X0043078Y0113204D01*
X0043157Y0113199D01*
X0043236Y0113190D01*
X0043314Y0113177D01*
X0043391Y0113160D01*
X0043468Y0113140D01*
X0043543Y0113115D01*
X0043617Y0113087D01*
X0043690Y0113055D01*
X0043760Y0113020D01*
X0043829Y0112981D01*
X0043896Y0112938D01*
X0043961Y0112892D01*
X0044023Y0112844D01*
X0044083Y0112792D01*
X0044140Y0112737D01*
X0044194Y0112679D01*
X0044245Y0112619D01*
X0044293Y0112556D01*
X0044338Y0112491D01*
X0044380Y0112423D01*
X0044418Y0112354D01*
X0044452Y0112283D01*
X0044483Y0112210D01*
X0044511Y0112135D01*
X0044534Y0112060D01*
X0044554Y0111983D01*
X0044570Y0111906D01*
X0044582Y0111827D01*
X0044590Y0111749D01*
X0044594Y0111670D01*
X0044594Y0111590D01*
X0044590Y0111511D01*
X0044582Y0111433D01*
X0044570Y0111354D01*
X0044554Y0111277D01*
X0044534Y0111200D01*
X0044511Y0111125D01*
X0044483Y0111050D01*
X0044452Y0110977D01*
X0044418Y0110906D01*
X0044380Y0110837D01*
X0044338Y0110769D01*
X0044293Y0110704D01*
X0044245Y0110641D01*
X0044194Y0110581D01*
X0044140Y0110523D01*
X0044083Y0110468D01*
X0044023Y0110416D01*
X0043961Y0110368D01*
X0043896Y0110322D01*
X0043829Y0110279D01*
X0043760Y0110240D01*
X0043690Y0110205D01*
X0043617Y0110173D01*
X0043543Y0110145D01*
X0043468Y0110120D01*
X0043391Y0110100D01*
X0043314Y0110083D01*
X0043236Y0110070D01*
X0043157Y0110061D01*
X0043078Y0110056D01*
X0042999Y0110055D01*
X0042920Y0110058D01*
X0042841Y0110065D01*
X0042763Y0110076D01*
X0042685Y0110091D01*
X0042608Y0110110D01*
X0042532Y0110132D01*
X0042458Y0110158D01*
X0042384Y0110188D01*
X0042313Y0110222D01*
X0042243Y0110259D01*
X0042175Y0110300D01*
X0042109Y0110344D01*
X0042046Y0110392D01*
X0041985Y0110442D01*
X0041926Y0110496D01*
X0041871Y0110552D01*
X0041818Y0110611D01*
X0041768Y0110673D01*
X0041722Y0110737D01*
X0041679Y0110803D01*
X0041639Y0110871D01*
X0041602Y0110942D01*
X0041570Y0111014D01*
X0041540Y0111087D01*
X0041515Y0111162D01*
X0041493Y0111238D01*
X0041476Y0111315D01*
X0041462Y0111393D01*
X0041452Y0111472D01*
X0041446Y0111551D01*
X0041444Y0111630D01*
X0029240Y0136039D02*
X0084358Y0136039D01*
X0084482Y0136041D01*
X0084605Y0136047D01*
X0084729Y0136056D01*
X0084851Y0136070D01*
X0084974Y0136087D01*
X0085096Y0136109D01*
X0085217Y0136134D01*
X0085337Y0136163D01*
X0085456Y0136195D01*
X0085575Y0136232D01*
X0085692Y0136272D01*
X0085807Y0136315D01*
X0085922Y0136363D01*
X0086034Y0136414D01*
X0086145Y0136468D01*
X0086255Y0136526D01*
X0086362Y0136587D01*
X0086468Y0136652D01*
X0086571Y0136720D01*
X0086672Y0136791D01*
X0086771Y0136865D01*
X0086868Y0136942D01*
X0086962Y0137023D01*
X0087053Y0137106D01*
X0087142Y0137192D01*
X0087228Y0137281D01*
X0087311Y0137372D01*
X0087392Y0137466D01*
X0087469Y0137563D01*
X0087543Y0137662D01*
X0087614Y0137763D01*
X0087682Y0137866D01*
X0087747Y0137972D01*
X0087808Y0138079D01*
X0087866Y0138189D01*
X0087920Y0138300D01*
X0087971Y0138412D01*
X0088019Y0138527D01*
X0088062Y0138642D01*
X0088102Y0138759D01*
X0088139Y0138878D01*
X0088171Y0138997D01*
X0088200Y0139117D01*
X0088225Y0139238D01*
X0088247Y0139360D01*
X0088264Y0139483D01*
X0088278Y0139605D01*
X0088287Y0139729D01*
X0088293Y0139852D01*
X0088295Y0139976D01*
X0088295Y0158874D01*
X0127665Y0158874D01*
X0127665Y0139976D01*
X0127667Y0139852D01*
X0127673Y0139729D01*
X0127682Y0139605D01*
X0127696Y0139483D01*
X0127713Y0139360D01*
X0127735Y0139238D01*
X0127760Y0139117D01*
X0127789Y0138997D01*
X0127821Y0138878D01*
X0127858Y0138759D01*
X0127898Y0138642D01*
X0127941Y0138527D01*
X0127989Y0138412D01*
X0128040Y0138300D01*
X0128094Y0138189D01*
X0128152Y0138079D01*
X0128213Y0137972D01*
X0128278Y0137866D01*
X0128346Y0137763D01*
X0128417Y0137662D01*
X0128491Y0137563D01*
X0128568Y0137466D01*
X0128649Y0137372D01*
X0128732Y0137281D01*
X0128818Y0137192D01*
X0128907Y0137106D01*
X0128998Y0137023D01*
X0129092Y0136942D01*
X0129189Y0136865D01*
X0129288Y0136791D01*
X0129389Y0136720D01*
X0129492Y0136652D01*
X0129598Y0136587D01*
X0129705Y0136526D01*
X0129815Y0136468D01*
X0129926Y0136414D01*
X0130038Y0136363D01*
X0130153Y0136315D01*
X0130268Y0136272D01*
X0130385Y0136232D01*
X0130504Y0136195D01*
X0130623Y0136163D01*
X0130743Y0136134D01*
X0130864Y0136109D01*
X0130986Y0136087D01*
X0131109Y0136070D01*
X0131231Y0136056D01*
X0131355Y0136047D01*
X0131478Y0136041D01*
X0131602Y0136039D01*
X0131726Y0136041D01*
X0131849Y0136047D01*
X0131973Y0136056D01*
X0132095Y0136070D01*
X0132218Y0136087D01*
X0132340Y0136109D01*
X0132461Y0136134D01*
X0132581Y0136163D01*
X0132700Y0136195D01*
X0132819Y0136232D01*
X0132936Y0136272D01*
X0133051Y0136315D01*
X0133166Y0136363D01*
X0133278Y0136414D01*
X0133389Y0136468D01*
X0133499Y0136526D01*
X0133606Y0136587D01*
X0133712Y0136652D01*
X0133815Y0136720D01*
X0133916Y0136791D01*
X0134015Y0136865D01*
X0134112Y0136942D01*
X0134206Y0137023D01*
X0134297Y0137106D01*
X0134386Y0137192D01*
X0134472Y0137281D01*
X0134555Y0137372D01*
X0134636Y0137466D01*
X0134713Y0137563D01*
X0134787Y0137662D01*
X0134858Y0137763D01*
X0134926Y0137866D01*
X0134991Y0137972D01*
X0135052Y0138079D01*
X0135110Y0138189D01*
X0135164Y0138300D01*
X0135215Y0138412D01*
X0135263Y0138527D01*
X0135306Y0138642D01*
X0135346Y0138759D01*
X0135383Y0138878D01*
X0135415Y0138997D01*
X0135444Y0139117D01*
X0135469Y0139238D01*
X0135491Y0139360D01*
X0135508Y0139483D01*
X0135522Y0139605D01*
X0135531Y0139729D01*
X0135537Y0139852D01*
X0135539Y0139976D01*
X0135539Y0158874D01*
X0143413Y0158874D01*
X0143413Y0174622D01*
X0017429Y0174622D01*
X0017429Y0158874D01*
X0025303Y0158874D01*
X0025303Y0139976D01*
X0025305Y0139852D01*
X0025311Y0139729D01*
X0025320Y0139605D01*
X0025334Y0139483D01*
X0025351Y0139360D01*
X0025373Y0139238D01*
X0025398Y0139117D01*
X0025427Y0138997D01*
X0025459Y0138878D01*
X0025496Y0138759D01*
X0025536Y0138642D01*
X0025579Y0138527D01*
X0025627Y0138412D01*
X0025678Y0138300D01*
X0025732Y0138189D01*
X0025790Y0138079D01*
X0025851Y0137972D01*
X0025916Y0137866D01*
X0025984Y0137763D01*
X0026055Y0137662D01*
X0026129Y0137563D01*
X0026206Y0137466D01*
X0026287Y0137372D01*
X0026370Y0137281D01*
X0026456Y0137192D01*
X0026545Y0137106D01*
X0026636Y0137023D01*
X0026730Y0136942D01*
X0026827Y0136865D01*
X0026926Y0136791D01*
X0027027Y0136720D01*
X0027130Y0136652D01*
X0027236Y0136587D01*
X0027343Y0136526D01*
X0027453Y0136468D01*
X0027564Y0136414D01*
X0027676Y0136363D01*
X0027791Y0136315D01*
X0027906Y0136272D01*
X0028023Y0136232D01*
X0028142Y0136195D01*
X0028261Y0136163D01*
X0028381Y0136134D01*
X0028502Y0136109D01*
X0028624Y0136087D01*
X0028747Y0136070D01*
X0028869Y0136056D01*
X0028993Y0136047D01*
X0029116Y0136041D01*
X0029240Y0136039D01*
X0151287Y0158874D02*
X0151287Y0174622D01*
X0159161Y0174622D01*
X0159161Y0182496D01*
X0174909Y0182496D01*
X0174909Y0174622D01*
X0182783Y0174622D01*
X0182783Y0158874D01*
X0174909Y0158874D01*
X0174909Y0151000D01*
X0159161Y0151000D01*
X0159161Y0158874D01*
X0151287Y0158874D01*
X0159161Y0143126D02*
X0174909Y0143126D01*
X0174909Y0017142D01*
X0159161Y0017142D01*
X0159161Y0143126D01*
X0190657Y0158874D02*
X0190657Y0174622D01*
X0316641Y0174622D01*
X0316641Y0158874D01*
X0308767Y0158874D01*
X0308767Y0139976D01*
X0304830Y0136039D02*
X0304706Y0136041D01*
X0304583Y0136047D01*
X0304459Y0136056D01*
X0304337Y0136070D01*
X0304214Y0136087D01*
X0304092Y0136109D01*
X0303971Y0136134D01*
X0303851Y0136163D01*
X0303732Y0136195D01*
X0303613Y0136232D01*
X0303496Y0136272D01*
X0303381Y0136315D01*
X0303266Y0136363D01*
X0303154Y0136414D01*
X0303043Y0136468D01*
X0302933Y0136526D01*
X0302826Y0136587D01*
X0302720Y0136652D01*
X0302617Y0136720D01*
X0302516Y0136791D01*
X0302417Y0136865D01*
X0302320Y0136942D01*
X0302226Y0137023D01*
X0302135Y0137106D01*
X0302046Y0137192D01*
X0301960Y0137281D01*
X0301877Y0137372D01*
X0301796Y0137466D01*
X0301719Y0137563D01*
X0301645Y0137662D01*
X0301574Y0137763D01*
X0301506Y0137866D01*
X0301441Y0137972D01*
X0301380Y0138079D01*
X0301322Y0138189D01*
X0301268Y0138300D01*
X0301217Y0138412D01*
X0301169Y0138527D01*
X0301126Y0138642D01*
X0301086Y0138759D01*
X0301049Y0138878D01*
X0301017Y0138997D01*
X0300988Y0139117D01*
X0300963Y0139238D01*
X0300941Y0139360D01*
X0300924Y0139483D01*
X0300910Y0139605D01*
X0300901Y0139729D01*
X0300895Y0139852D01*
X0300893Y0139976D01*
X0300893Y0158874D01*
X0261523Y0158874D01*
X0261523Y0139976D01*
X0261521Y0139852D01*
X0261515Y0139729D01*
X0261506Y0139605D01*
X0261492Y0139483D01*
X0261475Y0139360D01*
X0261453Y0139238D01*
X0261428Y0139117D01*
X0261399Y0138997D01*
X0261367Y0138878D01*
X0261330Y0138759D01*
X0261290Y0138642D01*
X0261247Y0138527D01*
X0261199Y0138412D01*
X0261148Y0138300D01*
X0261094Y0138189D01*
X0261036Y0138079D01*
X0260975Y0137972D01*
X0260910Y0137866D01*
X0260842Y0137763D01*
X0260771Y0137662D01*
X0260697Y0137563D01*
X0260620Y0137466D01*
X0260539Y0137372D01*
X0260456Y0137281D01*
X0260370Y0137192D01*
X0260281Y0137106D01*
X0260190Y0137023D01*
X0260096Y0136942D01*
X0259999Y0136865D01*
X0259900Y0136791D01*
X0259799Y0136720D01*
X0259696Y0136652D01*
X0259590Y0136587D01*
X0259483Y0136526D01*
X0259373Y0136468D01*
X0259262Y0136414D01*
X0259150Y0136363D01*
X0259035Y0136315D01*
X0258920Y0136272D01*
X0258803Y0136232D01*
X0258684Y0136195D01*
X0258565Y0136163D01*
X0258445Y0136134D01*
X0258324Y0136109D01*
X0258202Y0136087D01*
X0258079Y0136070D01*
X0257957Y0136056D01*
X0257833Y0136047D01*
X0257710Y0136041D01*
X0257586Y0136039D01*
X0202468Y0136039D01*
X0202344Y0136041D01*
X0202221Y0136047D01*
X0202097Y0136056D01*
X0201975Y0136070D01*
X0201852Y0136087D01*
X0201730Y0136109D01*
X0201609Y0136134D01*
X0201489Y0136163D01*
X0201370Y0136195D01*
X0201251Y0136232D01*
X0201134Y0136272D01*
X0201019Y0136315D01*
X0200904Y0136363D01*
X0200792Y0136414D01*
X0200681Y0136468D01*
X0200571Y0136526D01*
X0200464Y0136587D01*
X0200358Y0136652D01*
X0200255Y0136720D01*
X0200154Y0136791D01*
X0200055Y0136865D01*
X0199958Y0136942D01*
X0199864Y0137023D01*
X0199773Y0137106D01*
X0199684Y0137192D01*
X0199598Y0137281D01*
X0199515Y0137372D01*
X0199434Y0137466D01*
X0199357Y0137563D01*
X0199283Y0137662D01*
X0199212Y0137763D01*
X0199144Y0137866D01*
X0199079Y0137972D01*
X0199018Y0138079D01*
X0198960Y0138189D01*
X0198906Y0138300D01*
X0198855Y0138412D01*
X0198807Y0138527D01*
X0198764Y0138642D01*
X0198724Y0138759D01*
X0198687Y0138878D01*
X0198655Y0138997D01*
X0198626Y0139117D01*
X0198601Y0139238D01*
X0198579Y0139360D01*
X0198562Y0139483D01*
X0198548Y0139605D01*
X0198539Y0139729D01*
X0198533Y0139852D01*
X0198531Y0139976D01*
X0198531Y0158874D01*
X0190657Y0158874D01*
X0174909Y0190370D02*
X0159161Y0190370D01*
X0159161Y0316354D01*
X0174909Y0316354D01*
X0174909Y0190370D01*
X0214672Y0111630D02*
X0214674Y0111709D01*
X0214680Y0111788D01*
X0214690Y0111867D01*
X0214704Y0111945D01*
X0214721Y0112022D01*
X0214743Y0112098D01*
X0214768Y0112173D01*
X0214798Y0112246D01*
X0214830Y0112318D01*
X0214867Y0112389D01*
X0214907Y0112457D01*
X0214950Y0112523D01*
X0214996Y0112587D01*
X0215046Y0112649D01*
X0215099Y0112708D01*
X0215154Y0112764D01*
X0215213Y0112818D01*
X0215274Y0112868D01*
X0215337Y0112916D01*
X0215403Y0112960D01*
X0215471Y0113001D01*
X0215541Y0113038D01*
X0215612Y0113072D01*
X0215686Y0113102D01*
X0215760Y0113128D01*
X0215836Y0113150D01*
X0215913Y0113169D01*
X0215991Y0113184D01*
X0216069Y0113195D01*
X0216148Y0113202D01*
X0216227Y0113205D01*
X0216306Y0113204D01*
X0216385Y0113199D01*
X0216464Y0113190D01*
X0216542Y0113177D01*
X0216619Y0113160D01*
X0216696Y0113140D01*
X0216771Y0113115D01*
X0216845Y0113087D01*
X0216918Y0113055D01*
X0216988Y0113020D01*
X0217057Y0112981D01*
X0217124Y0112938D01*
X0217189Y0112892D01*
X0217251Y0112844D01*
X0217311Y0112792D01*
X0217368Y0112737D01*
X0217422Y0112679D01*
X0217473Y0112619D01*
X0217521Y0112556D01*
X0217566Y0112491D01*
X0217608Y0112423D01*
X0217646Y0112354D01*
X0217680Y0112283D01*
X0217711Y0112210D01*
X0217739Y0112135D01*
X0217762Y0112060D01*
X0217782Y0111983D01*
X0217798Y0111906D01*
X0217810Y0111827D01*
X0217818Y0111749D01*
X0217822Y0111670D01*
X0217822Y0111590D01*
X0217818Y0111511D01*
X0217810Y0111433D01*
X0217798Y0111354D01*
X0217782Y0111277D01*
X0217762Y0111200D01*
X0217739Y0111125D01*
X0217711Y0111050D01*
X0217680Y0110977D01*
X0217646Y0110906D01*
X0217608Y0110837D01*
X0217566Y0110769D01*
X0217521Y0110704D01*
X0217473Y0110641D01*
X0217422Y0110581D01*
X0217368Y0110523D01*
X0217311Y0110468D01*
X0217251Y0110416D01*
X0217189Y0110368D01*
X0217124Y0110322D01*
X0217057Y0110279D01*
X0216988Y0110240D01*
X0216918Y0110205D01*
X0216845Y0110173D01*
X0216771Y0110145D01*
X0216696Y0110120D01*
X0216619Y0110100D01*
X0216542Y0110083D01*
X0216464Y0110070D01*
X0216385Y0110061D01*
X0216306Y0110056D01*
X0216227Y0110055D01*
X0216148Y0110058D01*
X0216069Y0110065D01*
X0215991Y0110076D01*
X0215913Y0110091D01*
X0215836Y0110110D01*
X0215760Y0110132D01*
X0215686Y0110158D01*
X0215612Y0110188D01*
X0215541Y0110222D01*
X0215471Y0110259D01*
X0215403Y0110300D01*
X0215337Y0110344D01*
X0215274Y0110392D01*
X0215213Y0110442D01*
X0215154Y0110496D01*
X0215099Y0110552D01*
X0215046Y0110611D01*
X0214996Y0110673D01*
X0214950Y0110737D01*
X0214907Y0110803D01*
X0214867Y0110871D01*
X0214830Y0110942D01*
X0214798Y0111014D01*
X0214768Y0111087D01*
X0214743Y0111162D01*
X0214721Y0111238D01*
X0214704Y0111315D01*
X0214690Y0111393D01*
X0214680Y0111472D01*
X0214674Y0111551D01*
X0214672Y0111630D01*
X0304830Y0136039D02*
X0304954Y0136041D01*
X0305077Y0136047D01*
X0305201Y0136056D01*
X0305323Y0136070D01*
X0305446Y0136087D01*
X0305568Y0136109D01*
X0305689Y0136134D01*
X0305809Y0136163D01*
X0305928Y0136195D01*
X0306047Y0136232D01*
X0306164Y0136272D01*
X0306279Y0136315D01*
X0306394Y0136363D01*
X0306506Y0136414D01*
X0306617Y0136468D01*
X0306727Y0136526D01*
X0306834Y0136587D01*
X0306940Y0136652D01*
X0307043Y0136720D01*
X0307144Y0136791D01*
X0307243Y0136865D01*
X0307340Y0136942D01*
X0307434Y0137023D01*
X0307525Y0137106D01*
X0307614Y0137192D01*
X0307700Y0137281D01*
X0307783Y0137372D01*
X0307864Y0137466D01*
X0307941Y0137563D01*
X0308015Y0137662D01*
X0308086Y0137763D01*
X0308154Y0137866D01*
X0308219Y0137972D01*
X0308280Y0138079D01*
X0308338Y0138189D01*
X0308392Y0138300D01*
X0308443Y0138412D01*
X0308491Y0138527D01*
X0308534Y0138642D01*
X0308574Y0138759D01*
X0308611Y0138878D01*
X0308643Y0138997D01*
X0308672Y0139117D01*
X0308697Y0139238D01*
X0308719Y0139360D01*
X0308736Y0139483D01*
X0308750Y0139605D01*
X0308759Y0139729D01*
X0308765Y0139852D01*
X0308767Y0139976D01*
X0214672Y0284858D02*
X0214674Y0284937D01*
X0214680Y0285016D01*
X0214690Y0285095D01*
X0214704Y0285173D01*
X0214721Y0285250D01*
X0214743Y0285326D01*
X0214768Y0285401D01*
X0214798Y0285474D01*
X0214830Y0285546D01*
X0214867Y0285617D01*
X0214907Y0285685D01*
X0214950Y0285751D01*
X0214996Y0285815D01*
X0215046Y0285877D01*
X0215099Y0285936D01*
X0215154Y0285992D01*
X0215213Y0286046D01*
X0215274Y0286096D01*
X0215337Y0286144D01*
X0215403Y0286188D01*
X0215471Y0286229D01*
X0215541Y0286266D01*
X0215612Y0286300D01*
X0215686Y0286330D01*
X0215760Y0286356D01*
X0215836Y0286378D01*
X0215913Y0286397D01*
X0215991Y0286412D01*
X0216069Y0286423D01*
X0216148Y0286430D01*
X0216227Y0286433D01*
X0216306Y0286432D01*
X0216385Y0286427D01*
X0216464Y0286418D01*
X0216542Y0286405D01*
X0216619Y0286388D01*
X0216696Y0286368D01*
X0216771Y0286343D01*
X0216845Y0286315D01*
X0216918Y0286283D01*
X0216988Y0286248D01*
X0217057Y0286209D01*
X0217124Y0286166D01*
X0217189Y0286120D01*
X0217251Y0286072D01*
X0217311Y0286020D01*
X0217368Y0285965D01*
X0217422Y0285907D01*
X0217473Y0285847D01*
X0217521Y0285784D01*
X0217566Y0285719D01*
X0217608Y0285651D01*
X0217646Y0285582D01*
X0217680Y0285511D01*
X0217711Y0285438D01*
X0217739Y0285363D01*
X0217762Y0285288D01*
X0217782Y0285211D01*
X0217798Y0285134D01*
X0217810Y0285055D01*
X0217818Y0284977D01*
X0217822Y0284898D01*
X0217822Y0284818D01*
X0217818Y0284739D01*
X0217810Y0284661D01*
X0217798Y0284582D01*
X0217782Y0284505D01*
X0217762Y0284428D01*
X0217739Y0284353D01*
X0217711Y0284278D01*
X0217680Y0284205D01*
X0217646Y0284134D01*
X0217608Y0284065D01*
X0217566Y0283997D01*
X0217521Y0283932D01*
X0217473Y0283869D01*
X0217422Y0283809D01*
X0217368Y0283751D01*
X0217311Y0283696D01*
X0217251Y0283644D01*
X0217189Y0283596D01*
X0217124Y0283550D01*
X0217057Y0283507D01*
X0216988Y0283468D01*
X0216918Y0283433D01*
X0216845Y0283401D01*
X0216771Y0283373D01*
X0216696Y0283348D01*
X0216619Y0283328D01*
X0216542Y0283311D01*
X0216464Y0283298D01*
X0216385Y0283289D01*
X0216306Y0283284D01*
X0216227Y0283283D01*
X0216148Y0283286D01*
X0216069Y0283293D01*
X0215991Y0283304D01*
X0215913Y0283319D01*
X0215836Y0283338D01*
X0215760Y0283360D01*
X0215686Y0283386D01*
X0215612Y0283416D01*
X0215541Y0283450D01*
X0215471Y0283487D01*
X0215403Y0283528D01*
X0215337Y0283572D01*
X0215274Y0283620D01*
X0215213Y0283670D01*
X0215154Y0283724D01*
X0215099Y0283780D01*
X0215046Y0283839D01*
X0214996Y0283901D01*
X0214950Y0283965D01*
X0214907Y0284031D01*
X0214867Y0284099D01*
X0214830Y0284170D01*
X0214798Y0284242D01*
X0214768Y0284315D01*
X0214743Y0284390D01*
X0214721Y0284466D01*
X0214704Y0284543D01*
X0214690Y0284621D01*
X0214680Y0284700D01*
X0214674Y0284779D01*
X0214672Y0284858D01*
X0041444Y0284858D02*
X0041446Y0284937D01*
X0041452Y0285016D01*
X0041462Y0285095D01*
X0041476Y0285173D01*
X0041493Y0285250D01*
X0041515Y0285326D01*
X0041540Y0285401D01*
X0041570Y0285474D01*
X0041602Y0285546D01*
X0041639Y0285617D01*
X0041679Y0285685D01*
X0041722Y0285751D01*
X0041768Y0285815D01*
X0041818Y0285877D01*
X0041871Y0285936D01*
X0041926Y0285992D01*
X0041985Y0286046D01*
X0042046Y0286096D01*
X0042109Y0286144D01*
X0042175Y0286188D01*
X0042243Y0286229D01*
X0042313Y0286266D01*
X0042384Y0286300D01*
X0042458Y0286330D01*
X0042532Y0286356D01*
X0042608Y0286378D01*
X0042685Y0286397D01*
X0042763Y0286412D01*
X0042841Y0286423D01*
X0042920Y0286430D01*
X0042999Y0286433D01*
X0043078Y0286432D01*
X0043157Y0286427D01*
X0043236Y0286418D01*
X0043314Y0286405D01*
X0043391Y0286388D01*
X0043468Y0286368D01*
X0043543Y0286343D01*
X0043617Y0286315D01*
X0043690Y0286283D01*
X0043760Y0286248D01*
X0043829Y0286209D01*
X0043896Y0286166D01*
X0043961Y0286120D01*
X0044023Y0286072D01*
X0044083Y0286020D01*
X0044140Y0285965D01*
X0044194Y0285907D01*
X0044245Y0285847D01*
X0044293Y0285784D01*
X0044338Y0285719D01*
X0044380Y0285651D01*
X0044418Y0285582D01*
X0044452Y0285511D01*
X0044483Y0285438D01*
X0044511Y0285363D01*
X0044534Y0285288D01*
X0044554Y0285211D01*
X0044570Y0285134D01*
X0044582Y0285055D01*
X0044590Y0284977D01*
X0044594Y0284898D01*
X0044594Y0284818D01*
X0044590Y0284739D01*
X0044582Y0284661D01*
X0044570Y0284582D01*
X0044554Y0284505D01*
X0044534Y0284428D01*
X0044511Y0284353D01*
X0044483Y0284278D01*
X0044452Y0284205D01*
X0044418Y0284134D01*
X0044380Y0284065D01*
X0044338Y0283997D01*
X0044293Y0283932D01*
X0044245Y0283869D01*
X0044194Y0283809D01*
X0044140Y0283751D01*
X0044083Y0283696D01*
X0044023Y0283644D01*
X0043961Y0283596D01*
X0043896Y0283550D01*
X0043829Y0283507D01*
X0043760Y0283468D01*
X0043690Y0283433D01*
X0043617Y0283401D01*
X0043543Y0283373D01*
X0043468Y0283348D01*
X0043391Y0283328D01*
X0043314Y0283311D01*
X0043236Y0283298D01*
X0043157Y0283289D01*
X0043078Y0283284D01*
X0042999Y0283283D01*
X0042920Y0283286D01*
X0042841Y0283293D01*
X0042763Y0283304D01*
X0042685Y0283319D01*
X0042608Y0283338D01*
X0042532Y0283360D01*
X0042458Y0283386D01*
X0042384Y0283416D01*
X0042313Y0283450D01*
X0042243Y0283487D01*
X0042175Y0283528D01*
X0042109Y0283572D01*
X0042046Y0283620D01*
X0041985Y0283670D01*
X0041926Y0283724D01*
X0041871Y0283780D01*
X0041818Y0283839D01*
X0041768Y0283901D01*
X0041722Y0283965D01*
X0041679Y0284031D01*
X0041639Y0284099D01*
X0041602Y0284170D01*
X0041570Y0284242D01*
X0041540Y0284315D01*
X0041515Y0284390D01*
X0041493Y0284466D01*
X0041476Y0284543D01*
X0041462Y0284621D01*
X0041452Y0284700D01*
X0041446Y0284779D01*
X0041444Y0284858D01*
D11*
X0029578Y0281960D02*
X0024964Y0281960D01*
X0024964Y0284606D01*
X0029578Y0284606D01*
X0029578Y0281960D01*
X0029578Y0283093D02*
X0024964Y0283093D01*
X0024964Y0284226D02*
X0029578Y0284226D01*
X0029578Y0286685D02*
X0024964Y0286685D01*
X0024964Y0289331D01*
X0029578Y0289331D01*
X0029578Y0286685D01*
X0029578Y0287818D02*
X0024964Y0287818D01*
X0024964Y0288951D02*
X0029578Y0288951D01*
X0029578Y0291409D02*
X0024964Y0291409D01*
X0024964Y0294055D01*
X0029578Y0294055D01*
X0029578Y0291409D01*
X0029578Y0292542D02*
X0024964Y0292542D01*
X0024964Y0293675D02*
X0029578Y0293675D01*
X0029578Y0277236D02*
X0024964Y0277236D01*
X0024964Y0279882D01*
X0029578Y0279882D01*
X0029578Y0277236D01*
X0029578Y0278369D02*
X0024964Y0278369D01*
X0024964Y0279502D02*
X0029578Y0279502D01*
X0029578Y0272512D02*
X0024964Y0272512D01*
X0024964Y0275158D01*
X0029578Y0275158D01*
X0029578Y0272512D01*
X0029578Y0273645D02*
X0024964Y0273645D01*
X0024964Y0274778D02*
X0029578Y0274778D01*
X0029578Y0267787D02*
X0024964Y0267787D01*
X0024964Y0270433D01*
X0029578Y0270433D01*
X0029578Y0267787D01*
X0029578Y0268920D02*
X0024964Y0268920D01*
X0024964Y0270053D02*
X0029578Y0270053D01*
X0029578Y0263063D02*
X0024964Y0263063D01*
X0024964Y0265709D01*
X0029578Y0265709D01*
X0029578Y0263063D01*
X0029578Y0264196D02*
X0024964Y0264196D01*
X0024964Y0265329D02*
X0029578Y0265329D01*
X0029578Y0258338D02*
X0024964Y0258338D01*
X0024964Y0260984D01*
X0029578Y0260984D01*
X0029578Y0258338D01*
X0029578Y0259471D02*
X0024964Y0259471D01*
X0024964Y0260604D02*
X0029578Y0260604D01*
X0029578Y0253614D02*
X0024964Y0253614D01*
X0024964Y0256260D01*
X0029578Y0256260D01*
X0029578Y0253614D01*
X0029578Y0254747D02*
X0024964Y0254747D01*
X0024964Y0255880D02*
X0029578Y0255880D01*
X0029578Y0248890D02*
X0024964Y0248890D01*
X0024964Y0251536D01*
X0029578Y0251536D01*
X0029578Y0248890D01*
X0029578Y0250023D02*
X0024964Y0250023D01*
X0024964Y0251156D02*
X0029578Y0251156D01*
X0029578Y0244165D02*
X0024964Y0244165D01*
X0024964Y0246811D01*
X0029578Y0246811D01*
X0029578Y0244165D01*
X0029578Y0245298D02*
X0024964Y0245298D01*
X0024964Y0246431D02*
X0029578Y0246431D01*
X0029578Y0239441D02*
X0024964Y0239441D01*
X0024964Y0242087D01*
X0029578Y0242087D01*
X0029578Y0239441D01*
X0029578Y0240574D02*
X0024964Y0240574D01*
X0024964Y0241707D02*
X0029578Y0241707D01*
X0045239Y0232047D02*
X0045239Y0227433D01*
X0045239Y0232047D02*
X0047885Y0232047D01*
X0047885Y0227433D01*
X0045239Y0227433D01*
X0045239Y0228566D02*
X0047885Y0228566D01*
X0047885Y0229699D02*
X0045239Y0229699D01*
X0045239Y0230832D02*
X0047885Y0230832D01*
X0047885Y0231965D02*
X0045239Y0231965D01*
X0049964Y0232047D02*
X0049964Y0227433D01*
X0049964Y0232047D02*
X0052610Y0232047D01*
X0052610Y0227433D01*
X0049964Y0227433D01*
X0049964Y0228566D02*
X0052610Y0228566D01*
X0052610Y0229699D02*
X0049964Y0229699D01*
X0049964Y0230832D02*
X0052610Y0230832D01*
X0052610Y0231965D02*
X0049964Y0231965D01*
X0054688Y0232047D02*
X0054688Y0227433D01*
X0054688Y0232047D02*
X0057334Y0232047D01*
X0057334Y0227433D01*
X0054688Y0227433D01*
X0054688Y0228566D02*
X0057334Y0228566D01*
X0057334Y0229699D02*
X0054688Y0229699D01*
X0054688Y0230832D02*
X0057334Y0230832D01*
X0057334Y0231965D02*
X0054688Y0231965D01*
X0059413Y0232047D02*
X0059413Y0227433D01*
X0059413Y0232047D02*
X0062059Y0232047D01*
X0062059Y0227433D01*
X0059413Y0227433D01*
X0059413Y0228566D02*
X0062059Y0228566D01*
X0062059Y0229699D02*
X0059413Y0229699D01*
X0059413Y0230832D02*
X0062059Y0230832D01*
X0062059Y0231965D02*
X0059413Y0231965D01*
X0077720Y0242087D02*
X0082334Y0242087D01*
X0082334Y0239441D01*
X0077720Y0239441D01*
X0077720Y0242087D01*
X0077720Y0240574D02*
X0082334Y0240574D01*
X0082334Y0241707D02*
X0077720Y0241707D01*
X0077720Y0246811D02*
X0082334Y0246811D01*
X0082334Y0244165D01*
X0077720Y0244165D01*
X0077720Y0246811D01*
X0077720Y0245298D02*
X0082334Y0245298D01*
X0082334Y0246431D02*
X0077720Y0246431D01*
X0077720Y0251536D02*
X0082334Y0251536D01*
X0082334Y0248890D01*
X0077720Y0248890D01*
X0077720Y0251536D01*
X0077720Y0250023D02*
X0082334Y0250023D01*
X0082334Y0251156D02*
X0077720Y0251156D01*
X0077720Y0256260D02*
X0082334Y0256260D01*
X0082334Y0253614D01*
X0077720Y0253614D01*
X0077720Y0256260D01*
X0077720Y0254747D02*
X0082334Y0254747D01*
X0082334Y0255880D02*
X0077720Y0255880D01*
X0077720Y0260984D02*
X0082334Y0260984D01*
X0082334Y0258338D01*
X0077720Y0258338D01*
X0077720Y0260984D01*
X0077720Y0259471D02*
X0082334Y0259471D01*
X0082334Y0260604D02*
X0077720Y0260604D01*
X0077720Y0265709D02*
X0082334Y0265709D01*
X0082334Y0263063D01*
X0077720Y0263063D01*
X0077720Y0265709D01*
X0077720Y0264196D02*
X0082334Y0264196D01*
X0082334Y0265329D02*
X0077720Y0265329D01*
X0077720Y0270433D02*
X0082334Y0270433D01*
X0082334Y0267787D01*
X0077720Y0267787D01*
X0077720Y0270433D01*
X0077720Y0268920D02*
X0082334Y0268920D01*
X0082334Y0270053D02*
X0077720Y0270053D01*
X0077720Y0275158D02*
X0082334Y0275158D01*
X0082334Y0272512D01*
X0077720Y0272512D01*
X0077720Y0275158D01*
X0077720Y0273645D02*
X0082334Y0273645D01*
X0082334Y0274778D02*
X0077720Y0274778D01*
X0077720Y0279882D02*
X0082334Y0279882D01*
X0082334Y0277236D01*
X0077720Y0277236D01*
X0077720Y0279882D01*
X0077720Y0278369D02*
X0082334Y0278369D01*
X0082334Y0279502D02*
X0077720Y0279502D01*
X0077720Y0284606D02*
X0082334Y0284606D01*
X0082334Y0281960D01*
X0077720Y0281960D01*
X0077720Y0284606D01*
X0077720Y0283093D02*
X0082334Y0283093D01*
X0082334Y0284226D02*
X0077720Y0284226D01*
X0077720Y0289331D02*
X0082334Y0289331D01*
X0082334Y0286685D01*
X0077720Y0286685D01*
X0077720Y0289331D01*
X0077720Y0287818D02*
X0082334Y0287818D01*
X0082334Y0288951D02*
X0077720Y0288951D01*
X0077720Y0294055D02*
X0082334Y0294055D01*
X0082334Y0291409D01*
X0077720Y0291409D01*
X0077720Y0294055D01*
X0077720Y0292542D02*
X0082334Y0292542D01*
X0082334Y0293675D02*
X0077720Y0293675D01*
X0198192Y0291409D02*
X0202806Y0291409D01*
X0198192Y0291409D02*
X0198192Y0294055D01*
X0202806Y0294055D01*
X0202806Y0291409D01*
X0202806Y0292542D02*
X0198192Y0292542D01*
X0198192Y0293675D02*
X0202806Y0293675D01*
X0202806Y0286685D02*
X0198192Y0286685D01*
X0198192Y0289331D01*
X0202806Y0289331D01*
X0202806Y0286685D01*
X0202806Y0287818D02*
X0198192Y0287818D01*
X0198192Y0288951D02*
X0202806Y0288951D01*
X0202806Y0281960D02*
X0198192Y0281960D01*
X0198192Y0284606D01*
X0202806Y0284606D01*
X0202806Y0281960D01*
X0202806Y0283093D02*
X0198192Y0283093D01*
X0198192Y0284226D02*
X0202806Y0284226D01*
X0202806Y0277236D02*
X0198192Y0277236D01*
X0198192Y0279882D01*
X0202806Y0279882D01*
X0202806Y0277236D01*
X0202806Y0278369D02*
X0198192Y0278369D01*
X0198192Y0279502D02*
X0202806Y0279502D01*
X0202806Y0272512D02*
X0198192Y0272512D01*
X0198192Y0275158D01*
X0202806Y0275158D01*
X0202806Y0272512D01*
X0202806Y0273645D02*
X0198192Y0273645D01*
X0198192Y0274778D02*
X0202806Y0274778D01*
X0202806Y0267787D02*
X0198192Y0267787D01*
X0198192Y0270433D01*
X0202806Y0270433D01*
X0202806Y0267787D01*
X0202806Y0268920D02*
X0198192Y0268920D01*
X0198192Y0270053D02*
X0202806Y0270053D01*
X0202806Y0263063D02*
X0198192Y0263063D01*
X0198192Y0265709D01*
X0202806Y0265709D01*
X0202806Y0263063D01*
X0202806Y0264196D02*
X0198192Y0264196D01*
X0198192Y0265329D02*
X0202806Y0265329D01*
X0202806Y0258338D02*
X0198192Y0258338D01*
X0198192Y0260984D01*
X0202806Y0260984D01*
X0202806Y0258338D01*
X0202806Y0259471D02*
X0198192Y0259471D01*
X0198192Y0260604D02*
X0202806Y0260604D01*
X0202806Y0253614D02*
X0198192Y0253614D01*
X0198192Y0256260D01*
X0202806Y0256260D01*
X0202806Y0253614D01*
X0202806Y0254747D02*
X0198192Y0254747D01*
X0198192Y0255880D02*
X0202806Y0255880D01*
X0202806Y0248890D02*
X0198192Y0248890D01*
X0198192Y0251536D01*
X0202806Y0251536D01*
X0202806Y0248890D01*
X0202806Y0250023D02*
X0198192Y0250023D01*
X0198192Y0251156D02*
X0202806Y0251156D01*
X0202806Y0244165D02*
X0198192Y0244165D01*
X0198192Y0246811D01*
X0202806Y0246811D01*
X0202806Y0244165D01*
X0202806Y0245298D02*
X0198192Y0245298D01*
X0198192Y0246431D02*
X0202806Y0246431D01*
X0202806Y0239441D02*
X0198192Y0239441D01*
X0198192Y0242087D01*
X0202806Y0242087D01*
X0202806Y0239441D01*
X0202806Y0240574D02*
X0198192Y0240574D01*
X0198192Y0241707D02*
X0202806Y0241707D01*
X0218468Y0232047D02*
X0218468Y0227433D01*
X0218468Y0232047D02*
X0221114Y0232047D01*
X0221114Y0227433D01*
X0218468Y0227433D01*
X0218468Y0228566D02*
X0221114Y0228566D01*
X0221114Y0229699D02*
X0218468Y0229699D01*
X0218468Y0230832D02*
X0221114Y0230832D01*
X0221114Y0231965D02*
X0218468Y0231965D01*
X0223192Y0232047D02*
X0223192Y0227433D01*
X0223192Y0232047D02*
X0225838Y0232047D01*
X0225838Y0227433D01*
X0223192Y0227433D01*
X0223192Y0228566D02*
X0225838Y0228566D01*
X0225838Y0229699D02*
X0223192Y0229699D01*
X0223192Y0230832D02*
X0225838Y0230832D01*
X0225838Y0231965D02*
X0223192Y0231965D01*
X0227917Y0232047D02*
X0227917Y0227433D01*
X0227917Y0232047D02*
X0230563Y0232047D01*
X0230563Y0227433D01*
X0227917Y0227433D01*
X0227917Y0228566D02*
X0230563Y0228566D01*
X0230563Y0229699D02*
X0227917Y0229699D01*
X0227917Y0230832D02*
X0230563Y0230832D01*
X0230563Y0231965D02*
X0227917Y0231965D01*
X0232641Y0232047D02*
X0232641Y0227433D01*
X0232641Y0232047D02*
X0235287Y0232047D01*
X0235287Y0227433D01*
X0232641Y0227433D01*
X0232641Y0228566D02*
X0235287Y0228566D01*
X0235287Y0229699D02*
X0232641Y0229699D01*
X0232641Y0230832D02*
X0235287Y0230832D01*
X0235287Y0231965D02*
X0232641Y0231965D01*
X0250948Y0242087D02*
X0255562Y0242087D01*
X0255562Y0239441D01*
X0250948Y0239441D01*
X0250948Y0242087D01*
X0250948Y0240574D02*
X0255562Y0240574D01*
X0255562Y0241707D02*
X0250948Y0241707D01*
X0250948Y0246811D02*
X0255562Y0246811D01*
X0255562Y0244165D01*
X0250948Y0244165D01*
X0250948Y0246811D01*
X0250948Y0245298D02*
X0255562Y0245298D01*
X0255562Y0246431D02*
X0250948Y0246431D01*
X0250948Y0251536D02*
X0255562Y0251536D01*
X0255562Y0248890D01*
X0250948Y0248890D01*
X0250948Y0251536D01*
X0250948Y0250023D02*
X0255562Y0250023D01*
X0255562Y0251156D02*
X0250948Y0251156D01*
X0250948Y0256260D02*
X0255562Y0256260D01*
X0255562Y0253614D01*
X0250948Y0253614D01*
X0250948Y0256260D01*
X0250948Y0254747D02*
X0255562Y0254747D01*
X0255562Y0255880D02*
X0250948Y0255880D01*
X0250948Y0260984D02*
X0255562Y0260984D01*
X0255562Y0258338D01*
X0250948Y0258338D01*
X0250948Y0260984D01*
X0250948Y0259471D02*
X0255562Y0259471D01*
X0255562Y0260604D02*
X0250948Y0260604D01*
X0250948Y0265709D02*
X0255562Y0265709D01*
X0255562Y0263063D01*
X0250948Y0263063D01*
X0250948Y0265709D01*
X0250948Y0264196D02*
X0255562Y0264196D01*
X0255562Y0265329D02*
X0250948Y0265329D01*
X0250948Y0270433D02*
X0255562Y0270433D01*
X0255562Y0267787D01*
X0250948Y0267787D01*
X0250948Y0270433D01*
X0250948Y0268920D02*
X0255562Y0268920D01*
X0255562Y0270053D02*
X0250948Y0270053D01*
X0250948Y0275158D02*
X0255562Y0275158D01*
X0255562Y0272512D01*
X0250948Y0272512D01*
X0250948Y0275158D01*
X0250948Y0273645D02*
X0255562Y0273645D01*
X0255562Y0274778D02*
X0250948Y0274778D01*
X0250948Y0279882D02*
X0255562Y0279882D01*
X0255562Y0277236D01*
X0250948Y0277236D01*
X0250948Y0279882D01*
X0250948Y0278369D02*
X0255562Y0278369D01*
X0255562Y0279502D02*
X0250948Y0279502D01*
X0250948Y0284606D02*
X0255562Y0284606D01*
X0255562Y0281960D01*
X0250948Y0281960D01*
X0250948Y0284606D01*
X0250948Y0283093D02*
X0255562Y0283093D01*
X0255562Y0284226D02*
X0250948Y0284226D01*
X0250948Y0289331D02*
X0255562Y0289331D01*
X0255562Y0286685D01*
X0250948Y0286685D01*
X0250948Y0289331D01*
X0250948Y0287818D02*
X0255562Y0287818D01*
X0255562Y0288951D02*
X0250948Y0288951D01*
X0250948Y0294055D02*
X0255562Y0294055D01*
X0255562Y0291409D01*
X0250948Y0291409D01*
X0250948Y0294055D01*
X0250948Y0292542D02*
X0255562Y0292542D01*
X0255562Y0293675D02*
X0250948Y0293675D01*
X0250948Y0120827D02*
X0255562Y0120827D01*
X0255562Y0118181D01*
X0250948Y0118181D01*
X0250948Y0120827D01*
X0250948Y0119314D02*
X0255562Y0119314D01*
X0255562Y0120447D02*
X0250948Y0120447D01*
X0250948Y0116103D02*
X0255562Y0116103D01*
X0255562Y0113457D01*
X0250948Y0113457D01*
X0250948Y0116103D01*
X0250948Y0114590D02*
X0255562Y0114590D01*
X0255562Y0115723D02*
X0250948Y0115723D01*
X0250948Y0111378D02*
X0255562Y0111378D01*
X0255562Y0108732D01*
X0250948Y0108732D01*
X0250948Y0111378D01*
X0250948Y0109865D02*
X0255562Y0109865D01*
X0255562Y0110998D02*
X0250948Y0110998D01*
X0250948Y0106654D02*
X0255562Y0106654D01*
X0255562Y0104008D01*
X0250948Y0104008D01*
X0250948Y0106654D01*
X0250948Y0105141D02*
X0255562Y0105141D01*
X0255562Y0106274D02*
X0250948Y0106274D01*
X0250948Y0101929D02*
X0255562Y0101929D01*
X0255562Y0099283D01*
X0250948Y0099283D01*
X0250948Y0101929D01*
X0250948Y0100416D02*
X0255562Y0100416D01*
X0255562Y0101549D02*
X0250948Y0101549D01*
X0250948Y0097205D02*
X0255562Y0097205D01*
X0255562Y0094559D01*
X0250948Y0094559D01*
X0250948Y0097205D01*
X0250948Y0095692D02*
X0255562Y0095692D01*
X0255562Y0096825D02*
X0250948Y0096825D01*
X0250948Y0092480D02*
X0255562Y0092480D01*
X0255562Y0089834D01*
X0250948Y0089834D01*
X0250948Y0092480D01*
X0250948Y0090967D02*
X0255562Y0090967D01*
X0255562Y0092100D02*
X0250948Y0092100D01*
X0250948Y0087756D02*
X0255562Y0087756D01*
X0255562Y0085110D01*
X0250948Y0085110D01*
X0250948Y0087756D01*
X0250948Y0086243D02*
X0255562Y0086243D01*
X0255562Y0087376D02*
X0250948Y0087376D01*
X0250948Y0083032D02*
X0255562Y0083032D01*
X0255562Y0080386D01*
X0250948Y0080386D01*
X0250948Y0083032D01*
X0250948Y0081519D02*
X0255562Y0081519D01*
X0255562Y0082652D02*
X0250948Y0082652D01*
X0250948Y0078307D02*
X0255562Y0078307D01*
X0255562Y0075661D01*
X0250948Y0075661D01*
X0250948Y0078307D01*
X0250948Y0076794D02*
X0255562Y0076794D01*
X0255562Y0077927D02*
X0250948Y0077927D01*
X0250948Y0073583D02*
X0255562Y0073583D01*
X0255562Y0070937D01*
X0250948Y0070937D01*
X0250948Y0073583D01*
X0250948Y0072070D02*
X0255562Y0072070D01*
X0255562Y0073203D02*
X0250948Y0073203D01*
X0250948Y0068858D02*
X0255562Y0068858D01*
X0255562Y0066212D01*
X0250948Y0066212D01*
X0250948Y0068858D01*
X0250948Y0067345D02*
X0255562Y0067345D01*
X0255562Y0068478D02*
X0250948Y0068478D01*
X0232641Y0058819D02*
X0232641Y0054205D01*
X0232641Y0058819D02*
X0235287Y0058819D01*
X0235287Y0054205D01*
X0232641Y0054205D01*
X0232641Y0055338D02*
X0235287Y0055338D01*
X0235287Y0056471D02*
X0232641Y0056471D01*
X0232641Y0057604D02*
X0235287Y0057604D01*
X0235287Y0058737D02*
X0232641Y0058737D01*
X0227917Y0058819D02*
X0227917Y0054205D01*
X0227917Y0058819D02*
X0230563Y0058819D01*
X0230563Y0054205D01*
X0227917Y0054205D01*
X0227917Y0055338D02*
X0230563Y0055338D01*
X0230563Y0056471D02*
X0227917Y0056471D01*
X0227917Y0057604D02*
X0230563Y0057604D01*
X0230563Y0058737D02*
X0227917Y0058737D01*
X0223192Y0058819D02*
X0223192Y0054205D01*
X0223192Y0058819D02*
X0225838Y0058819D01*
X0225838Y0054205D01*
X0223192Y0054205D01*
X0223192Y0055338D02*
X0225838Y0055338D01*
X0225838Y0056471D02*
X0223192Y0056471D01*
X0223192Y0057604D02*
X0225838Y0057604D01*
X0225838Y0058737D02*
X0223192Y0058737D01*
X0218468Y0058819D02*
X0218468Y0054205D01*
X0218468Y0058819D02*
X0221114Y0058819D01*
X0221114Y0054205D01*
X0218468Y0054205D01*
X0218468Y0055338D02*
X0221114Y0055338D01*
X0221114Y0056471D02*
X0218468Y0056471D01*
X0218468Y0057604D02*
X0221114Y0057604D01*
X0221114Y0058737D02*
X0218468Y0058737D01*
X0202806Y0066212D02*
X0198192Y0066212D01*
X0198192Y0068858D01*
X0202806Y0068858D01*
X0202806Y0066212D01*
X0202806Y0067345D02*
X0198192Y0067345D01*
X0198192Y0068478D02*
X0202806Y0068478D01*
X0202806Y0070937D02*
X0198192Y0070937D01*
X0198192Y0073583D01*
X0202806Y0073583D01*
X0202806Y0070937D01*
X0202806Y0072070D02*
X0198192Y0072070D01*
X0198192Y0073203D02*
X0202806Y0073203D01*
X0202806Y0075661D02*
X0198192Y0075661D01*
X0198192Y0078307D01*
X0202806Y0078307D01*
X0202806Y0075661D01*
X0202806Y0076794D02*
X0198192Y0076794D01*
X0198192Y0077927D02*
X0202806Y0077927D01*
X0202806Y0080386D02*
X0198192Y0080386D01*
X0198192Y0083032D01*
X0202806Y0083032D01*
X0202806Y0080386D01*
X0202806Y0081519D02*
X0198192Y0081519D01*
X0198192Y0082652D02*
X0202806Y0082652D01*
X0202806Y0085110D02*
X0198192Y0085110D01*
X0198192Y0087756D01*
X0202806Y0087756D01*
X0202806Y0085110D01*
X0202806Y0086243D02*
X0198192Y0086243D01*
X0198192Y0087376D02*
X0202806Y0087376D01*
X0202806Y0089834D02*
X0198192Y0089834D01*
X0198192Y0092480D01*
X0202806Y0092480D01*
X0202806Y0089834D01*
X0202806Y0090967D02*
X0198192Y0090967D01*
X0198192Y0092100D02*
X0202806Y0092100D01*
X0202806Y0094559D02*
X0198192Y0094559D01*
X0198192Y0097205D01*
X0202806Y0097205D01*
X0202806Y0094559D01*
X0202806Y0095692D02*
X0198192Y0095692D01*
X0198192Y0096825D02*
X0202806Y0096825D01*
X0202806Y0099283D02*
X0198192Y0099283D01*
X0198192Y0101929D01*
X0202806Y0101929D01*
X0202806Y0099283D01*
X0202806Y0100416D02*
X0198192Y0100416D01*
X0198192Y0101549D02*
X0202806Y0101549D01*
X0202806Y0104008D02*
X0198192Y0104008D01*
X0198192Y0106654D01*
X0202806Y0106654D01*
X0202806Y0104008D01*
X0202806Y0105141D02*
X0198192Y0105141D01*
X0198192Y0106274D02*
X0202806Y0106274D01*
X0202806Y0108732D02*
X0198192Y0108732D01*
X0198192Y0111378D01*
X0202806Y0111378D01*
X0202806Y0108732D01*
X0202806Y0109865D02*
X0198192Y0109865D01*
X0198192Y0110998D02*
X0202806Y0110998D01*
X0202806Y0113457D02*
X0198192Y0113457D01*
X0198192Y0116103D01*
X0202806Y0116103D01*
X0202806Y0113457D01*
X0202806Y0114590D02*
X0198192Y0114590D01*
X0198192Y0115723D02*
X0202806Y0115723D01*
X0202806Y0118181D02*
X0198192Y0118181D01*
X0198192Y0120827D01*
X0202806Y0120827D01*
X0202806Y0118181D01*
X0202806Y0119314D02*
X0198192Y0119314D01*
X0198192Y0120447D02*
X0202806Y0120447D01*
X0082334Y0120827D02*
X0077720Y0120827D01*
X0082334Y0120827D02*
X0082334Y0118181D01*
X0077720Y0118181D01*
X0077720Y0120827D01*
X0077720Y0119314D02*
X0082334Y0119314D01*
X0082334Y0120447D02*
X0077720Y0120447D01*
X0077720Y0116103D02*
X0082334Y0116103D01*
X0082334Y0113457D01*
X0077720Y0113457D01*
X0077720Y0116103D01*
X0077720Y0114590D02*
X0082334Y0114590D01*
X0082334Y0115723D02*
X0077720Y0115723D01*
X0077720Y0111378D02*
X0082334Y0111378D01*
X0082334Y0108732D01*
X0077720Y0108732D01*
X0077720Y0111378D01*
X0077720Y0109865D02*
X0082334Y0109865D01*
X0082334Y0110998D02*
X0077720Y0110998D01*
X0077720Y0106654D02*
X0082334Y0106654D01*
X0082334Y0104008D01*
X0077720Y0104008D01*
X0077720Y0106654D01*
X0077720Y0105141D02*
X0082334Y0105141D01*
X0082334Y0106274D02*
X0077720Y0106274D01*
X0077720Y0101929D02*
X0082334Y0101929D01*
X0082334Y0099283D01*
X0077720Y0099283D01*
X0077720Y0101929D01*
X0077720Y0100416D02*
X0082334Y0100416D01*
X0082334Y0101549D02*
X0077720Y0101549D01*
X0077720Y0097205D02*
X0082334Y0097205D01*
X0082334Y0094559D01*
X0077720Y0094559D01*
X0077720Y0097205D01*
X0077720Y0095692D02*
X0082334Y0095692D01*
X0082334Y0096825D02*
X0077720Y0096825D01*
X0077720Y0092480D02*
X0082334Y0092480D01*
X0082334Y0089834D01*
X0077720Y0089834D01*
X0077720Y0092480D01*
X0077720Y0090967D02*
X0082334Y0090967D01*
X0082334Y0092100D02*
X0077720Y0092100D01*
X0077720Y0087756D02*
X0082334Y0087756D01*
X0082334Y0085110D01*
X0077720Y0085110D01*
X0077720Y0087756D01*
X0077720Y0086243D02*
X0082334Y0086243D01*
X0082334Y0087376D02*
X0077720Y0087376D01*
X0077720Y0083032D02*
X0082334Y0083032D01*
X0082334Y0080386D01*
X0077720Y0080386D01*
X0077720Y0083032D01*
X0077720Y0081519D02*
X0082334Y0081519D01*
X0082334Y0082652D02*
X0077720Y0082652D01*
X0077720Y0078307D02*
X0082334Y0078307D01*
X0082334Y0075661D01*
X0077720Y0075661D01*
X0077720Y0078307D01*
X0077720Y0076794D02*
X0082334Y0076794D01*
X0082334Y0077927D02*
X0077720Y0077927D01*
X0077720Y0073583D02*
X0082334Y0073583D01*
X0082334Y0070937D01*
X0077720Y0070937D01*
X0077720Y0073583D01*
X0077720Y0072070D02*
X0082334Y0072070D01*
X0082334Y0073203D02*
X0077720Y0073203D01*
X0077720Y0068858D02*
X0082334Y0068858D01*
X0082334Y0066212D01*
X0077720Y0066212D01*
X0077720Y0068858D01*
X0077720Y0067345D02*
X0082334Y0067345D01*
X0082334Y0068478D02*
X0077720Y0068478D01*
X0059413Y0058819D02*
X0059413Y0054205D01*
X0059413Y0058819D02*
X0062059Y0058819D01*
X0062059Y0054205D01*
X0059413Y0054205D01*
X0059413Y0055338D02*
X0062059Y0055338D01*
X0062059Y0056471D02*
X0059413Y0056471D01*
X0059413Y0057604D02*
X0062059Y0057604D01*
X0062059Y0058737D02*
X0059413Y0058737D01*
X0054688Y0058819D02*
X0054688Y0054205D01*
X0054688Y0058819D02*
X0057334Y0058819D01*
X0057334Y0054205D01*
X0054688Y0054205D01*
X0054688Y0055338D02*
X0057334Y0055338D01*
X0057334Y0056471D02*
X0054688Y0056471D01*
X0054688Y0057604D02*
X0057334Y0057604D01*
X0057334Y0058737D02*
X0054688Y0058737D01*
X0049964Y0058819D02*
X0049964Y0054205D01*
X0049964Y0058819D02*
X0052610Y0058819D01*
X0052610Y0054205D01*
X0049964Y0054205D01*
X0049964Y0055338D02*
X0052610Y0055338D01*
X0052610Y0056471D02*
X0049964Y0056471D01*
X0049964Y0057604D02*
X0052610Y0057604D01*
X0052610Y0058737D02*
X0049964Y0058737D01*
X0045239Y0058819D02*
X0045239Y0054205D01*
X0045239Y0058819D02*
X0047885Y0058819D01*
X0047885Y0054205D01*
X0045239Y0054205D01*
X0045239Y0055338D02*
X0047885Y0055338D01*
X0047885Y0056471D02*
X0045239Y0056471D01*
X0045239Y0057604D02*
X0047885Y0057604D01*
X0047885Y0058737D02*
X0045239Y0058737D01*
X0029578Y0066212D02*
X0024964Y0066212D01*
X0024964Y0068858D01*
X0029578Y0068858D01*
X0029578Y0066212D01*
X0029578Y0067345D02*
X0024964Y0067345D01*
X0024964Y0068478D02*
X0029578Y0068478D01*
X0029578Y0070937D02*
X0024964Y0070937D01*
X0024964Y0073583D01*
X0029578Y0073583D01*
X0029578Y0070937D01*
X0029578Y0072070D02*
X0024964Y0072070D01*
X0024964Y0073203D02*
X0029578Y0073203D01*
X0029578Y0075661D02*
X0024964Y0075661D01*
X0024964Y0078307D01*
X0029578Y0078307D01*
X0029578Y0075661D01*
X0029578Y0076794D02*
X0024964Y0076794D01*
X0024964Y0077927D02*
X0029578Y0077927D01*
X0029578Y0080386D02*
X0024964Y0080386D01*
X0024964Y0083032D01*
X0029578Y0083032D01*
X0029578Y0080386D01*
X0029578Y0081519D02*
X0024964Y0081519D01*
X0024964Y0082652D02*
X0029578Y0082652D01*
X0029578Y0085110D02*
X0024964Y0085110D01*
X0024964Y0087756D01*
X0029578Y0087756D01*
X0029578Y0085110D01*
X0029578Y0086243D02*
X0024964Y0086243D01*
X0024964Y0087376D02*
X0029578Y0087376D01*
X0029578Y0089834D02*
X0024964Y0089834D01*
X0024964Y0092480D01*
X0029578Y0092480D01*
X0029578Y0089834D01*
X0029578Y0090967D02*
X0024964Y0090967D01*
X0024964Y0092100D02*
X0029578Y0092100D01*
X0029578Y0094559D02*
X0024964Y0094559D01*
X0024964Y0097205D01*
X0029578Y0097205D01*
X0029578Y0094559D01*
X0029578Y0095692D02*
X0024964Y0095692D01*
X0024964Y0096825D02*
X0029578Y0096825D01*
X0029578Y0099283D02*
X0024964Y0099283D01*
X0024964Y0101929D01*
X0029578Y0101929D01*
X0029578Y0099283D01*
X0029578Y0100416D02*
X0024964Y0100416D01*
X0024964Y0101549D02*
X0029578Y0101549D01*
X0029578Y0104008D02*
X0024964Y0104008D01*
X0024964Y0106654D01*
X0029578Y0106654D01*
X0029578Y0104008D01*
X0029578Y0105141D02*
X0024964Y0105141D01*
X0024964Y0106274D02*
X0029578Y0106274D01*
X0029578Y0108732D02*
X0024964Y0108732D01*
X0024964Y0111378D01*
X0029578Y0111378D01*
X0029578Y0108732D01*
X0029578Y0109865D02*
X0024964Y0109865D01*
X0024964Y0110998D02*
X0029578Y0110998D01*
X0029578Y0113457D02*
X0024964Y0113457D01*
X0024964Y0116103D01*
X0029578Y0116103D01*
X0029578Y0113457D01*
X0029578Y0114590D02*
X0024964Y0114590D01*
X0024964Y0115723D02*
X0029578Y0115723D01*
X0029578Y0118181D02*
X0024964Y0118181D01*
X0024964Y0120827D01*
X0029578Y0120827D01*
X0029578Y0118181D01*
X0029578Y0119314D02*
X0024964Y0119314D01*
X0024964Y0120447D02*
X0029578Y0120447D01*
D12*
X0028079Y0127398D02*
X0028079Y0132082D01*
X0032763Y0132082D01*
X0032763Y0127398D01*
X0028079Y0127398D01*
X0028079Y0129405D02*
X0032763Y0129405D01*
X0032763Y0131412D02*
X0028079Y0131412D01*
X0074535Y0132082D02*
X0074535Y0127398D01*
X0074535Y0132082D02*
X0079219Y0132082D01*
X0079219Y0127398D01*
X0074535Y0127398D01*
X0074535Y0129405D02*
X0079219Y0129405D01*
X0079219Y0131412D02*
X0074535Y0131412D01*
X0101701Y0155704D02*
X0106385Y0155704D01*
X0106385Y0150626D01*
X0101701Y0150626D01*
X0101701Y0155704D01*
X0101701Y0152633D02*
X0106385Y0152633D01*
X0106385Y0154640D02*
X0101701Y0154640D01*
X0109575Y0155704D02*
X0114259Y0155704D01*
X0114259Y0150626D01*
X0109575Y0150626D01*
X0109575Y0155704D01*
X0109575Y0152633D02*
X0114259Y0152633D01*
X0114259Y0154640D02*
X0109575Y0154640D01*
X0074535Y0230548D02*
X0074535Y0235232D01*
X0079219Y0235232D01*
X0079219Y0230548D01*
X0074535Y0230548D01*
X0074535Y0232555D02*
X0079219Y0232555D01*
X0079219Y0234562D02*
X0074535Y0234562D01*
X0028079Y0235232D02*
X0028079Y0230548D01*
X0028079Y0235232D02*
X0032763Y0235232D01*
X0032763Y0230548D01*
X0028079Y0230548D01*
X0028079Y0232555D02*
X0032763Y0232555D01*
X0032763Y0234562D02*
X0028079Y0234562D01*
X0028079Y0300627D02*
X0028079Y0305311D01*
X0032763Y0305311D01*
X0032763Y0300627D01*
X0028079Y0300627D01*
X0028079Y0302634D02*
X0032763Y0302634D01*
X0032763Y0304641D02*
X0028079Y0304641D01*
X0074535Y0305311D02*
X0074535Y0300627D01*
X0074535Y0305311D02*
X0079219Y0305311D01*
X0079219Y0300627D01*
X0074535Y0300627D01*
X0074535Y0302634D02*
X0079219Y0302634D01*
X0079219Y0304641D02*
X0074535Y0304641D01*
X0101701Y0328933D02*
X0106385Y0328933D01*
X0106385Y0323855D01*
X0101701Y0323855D01*
X0101701Y0328933D01*
X0101701Y0325862D02*
X0106385Y0325862D01*
X0106385Y0327869D02*
X0101701Y0327869D01*
X0109575Y0328933D02*
X0114259Y0328933D01*
X0114259Y0323855D01*
X0109575Y0323855D01*
X0109575Y0328933D01*
X0109575Y0325862D02*
X0114259Y0325862D01*
X0114259Y0327869D02*
X0109575Y0327869D01*
X0201307Y0305311D02*
X0201307Y0300627D01*
X0201307Y0305311D02*
X0205991Y0305311D01*
X0205991Y0300627D01*
X0201307Y0300627D01*
X0201307Y0302634D02*
X0205991Y0302634D01*
X0205991Y0304641D02*
X0201307Y0304641D01*
X0247764Y0305311D02*
X0247764Y0300627D01*
X0247764Y0305311D02*
X0252448Y0305311D01*
X0252448Y0300627D01*
X0247764Y0300627D01*
X0247764Y0302634D02*
X0252448Y0302634D01*
X0252448Y0304641D02*
X0247764Y0304641D01*
X0274929Y0328933D02*
X0279613Y0328933D01*
X0279613Y0323855D01*
X0274929Y0323855D01*
X0274929Y0328933D01*
X0274929Y0325862D02*
X0279613Y0325862D01*
X0279613Y0327869D02*
X0274929Y0327869D01*
X0282803Y0328933D02*
X0287487Y0328933D01*
X0287487Y0323855D01*
X0282803Y0323855D01*
X0282803Y0328933D01*
X0282803Y0325862D02*
X0287487Y0325862D01*
X0287487Y0327869D02*
X0282803Y0327869D01*
X0247764Y0235232D02*
X0247764Y0230548D01*
X0247764Y0235232D02*
X0252448Y0235232D01*
X0252448Y0230548D01*
X0247764Y0230548D01*
X0247764Y0232555D02*
X0252448Y0232555D01*
X0252448Y0234562D02*
X0247764Y0234562D01*
X0201307Y0235232D02*
X0201307Y0230548D01*
X0201307Y0235232D02*
X0205991Y0235232D01*
X0205991Y0230548D01*
X0201307Y0230548D01*
X0201307Y0232555D02*
X0205991Y0232555D01*
X0205991Y0234562D02*
X0201307Y0234562D01*
X0274929Y0155704D02*
X0279613Y0155704D01*
X0279613Y0150626D01*
X0274929Y0150626D01*
X0274929Y0155704D01*
X0274929Y0152633D02*
X0279613Y0152633D01*
X0279613Y0154640D02*
X0274929Y0154640D01*
X0282803Y0155704D02*
X0287487Y0155704D01*
X0287487Y0150626D01*
X0282803Y0150626D01*
X0282803Y0155704D01*
X0282803Y0152633D02*
X0287487Y0152633D01*
X0287487Y0154640D02*
X0282803Y0154640D01*
X0247764Y0132082D02*
X0247764Y0127398D01*
X0247764Y0132082D02*
X0252448Y0132082D01*
X0252448Y0127398D01*
X0247764Y0127398D01*
X0247764Y0129405D02*
X0252448Y0129405D01*
X0252448Y0131412D02*
X0247764Y0131412D01*
X0201307Y0132082D02*
X0201307Y0127398D01*
X0201307Y0132082D02*
X0205991Y0132082D01*
X0205991Y0127398D01*
X0201307Y0127398D01*
X0201307Y0129405D02*
X0205991Y0129405D01*
X0205991Y0131412D02*
X0201307Y0131412D01*
X0201307Y0062003D02*
X0201307Y0057319D01*
X0201307Y0062003D02*
X0205991Y0062003D01*
X0205991Y0057319D01*
X0201307Y0057319D01*
X0201307Y0059326D02*
X0205991Y0059326D01*
X0205991Y0061333D02*
X0201307Y0061333D01*
X0247764Y0062003D02*
X0247764Y0057319D01*
X0247764Y0062003D02*
X0252448Y0062003D01*
X0252448Y0057319D01*
X0247764Y0057319D01*
X0247764Y0059326D02*
X0252448Y0059326D01*
X0252448Y0061333D02*
X0247764Y0061333D01*
X0074535Y0062003D02*
X0074535Y0057319D01*
X0074535Y0062003D02*
X0079219Y0062003D01*
X0079219Y0057319D01*
X0074535Y0057319D01*
X0074535Y0059326D02*
X0079219Y0059326D01*
X0079219Y0061333D02*
X0074535Y0061333D01*
X0028079Y0062003D02*
X0028079Y0057319D01*
X0028079Y0062003D02*
X0032763Y0062003D01*
X0032763Y0057319D01*
X0028079Y0057319D01*
X0028079Y0059326D02*
X0032763Y0059326D01*
X0032763Y0061333D02*
X0028079Y0061333D01*
D13*
X0036153Y0058850D02*
X0036153Y0054174D01*
X0036153Y0058850D02*
X0038467Y0058850D01*
X0038467Y0054174D01*
X0036153Y0054174D01*
X0036153Y0055165D02*
X0038467Y0055165D01*
X0038467Y0056156D02*
X0036153Y0056156D01*
X0036153Y0057147D02*
X0038467Y0057147D01*
X0038467Y0058138D02*
X0036153Y0058138D01*
X0040484Y0058850D02*
X0040484Y0054174D01*
X0040484Y0058850D02*
X0042798Y0058850D01*
X0042798Y0054174D01*
X0040484Y0054174D01*
X0040484Y0055165D02*
X0042798Y0055165D01*
X0042798Y0056156D02*
X0040484Y0056156D01*
X0040484Y0057147D02*
X0042798Y0057147D01*
X0042798Y0058138D02*
X0040484Y0058138D01*
X0064500Y0058850D02*
X0064500Y0054174D01*
X0064500Y0058850D02*
X0066814Y0058850D01*
X0066814Y0054174D01*
X0064500Y0054174D01*
X0064500Y0055165D02*
X0066814Y0055165D01*
X0066814Y0056156D02*
X0064500Y0056156D01*
X0064500Y0057147D02*
X0066814Y0057147D01*
X0066814Y0058138D02*
X0064500Y0058138D01*
X0068831Y0058850D02*
X0068831Y0054174D01*
X0068831Y0058850D02*
X0071145Y0058850D01*
X0071145Y0054174D01*
X0068831Y0054174D01*
X0068831Y0055165D02*
X0071145Y0055165D01*
X0071145Y0056156D02*
X0068831Y0056156D01*
X0068831Y0057147D02*
X0071145Y0057147D01*
X0071145Y0058138D02*
X0068831Y0058138D01*
X0209382Y0058850D02*
X0209382Y0054174D01*
X0209382Y0058850D02*
X0211696Y0058850D01*
X0211696Y0054174D01*
X0209382Y0054174D01*
X0209382Y0055165D02*
X0211696Y0055165D01*
X0211696Y0056156D02*
X0209382Y0056156D01*
X0209382Y0057147D02*
X0211696Y0057147D01*
X0211696Y0058138D02*
X0209382Y0058138D01*
X0213712Y0058850D02*
X0213712Y0054174D01*
X0213712Y0058850D02*
X0216026Y0058850D01*
X0216026Y0054174D01*
X0213712Y0054174D01*
X0213712Y0055165D02*
X0216026Y0055165D01*
X0216026Y0056156D02*
X0213712Y0056156D01*
X0213712Y0057147D02*
X0216026Y0057147D01*
X0216026Y0058138D02*
X0213712Y0058138D01*
X0237728Y0058850D02*
X0237728Y0054174D01*
X0237728Y0058850D02*
X0240042Y0058850D01*
X0240042Y0054174D01*
X0237728Y0054174D01*
X0237728Y0055165D02*
X0240042Y0055165D01*
X0240042Y0056156D02*
X0237728Y0056156D01*
X0237728Y0057147D02*
X0240042Y0057147D01*
X0240042Y0058138D02*
X0237728Y0058138D01*
X0242059Y0058850D02*
X0242059Y0054174D01*
X0242059Y0058850D02*
X0244373Y0058850D01*
X0244373Y0054174D01*
X0242059Y0054174D01*
X0242059Y0055165D02*
X0244373Y0055165D01*
X0244373Y0056156D02*
X0242059Y0056156D01*
X0242059Y0057147D02*
X0244373Y0057147D01*
X0244373Y0058138D02*
X0242059Y0058138D01*
X0242059Y0227402D02*
X0242059Y0232078D01*
X0244373Y0232078D01*
X0244373Y0227402D01*
X0242059Y0227402D01*
X0242059Y0228393D02*
X0244373Y0228393D01*
X0244373Y0229384D02*
X0242059Y0229384D01*
X0242059Y0230375D02*
X0244373Y0230375D01*
X0244373Y0231366D02*
X0242059Y0231366D01*
X0237728Y0232078D02*
X0237728Y0227402D01*
X0237728Y0232078D02*
X0240042Y0232078D01*
X0240042Y0227402D01*
X0237728Y0227402D01*
X0237728Y0228393D02*
X0240042Y0228393D01*
X0240042Y0229384D02*
X0237728Y0229384D01*
X0237728Y0230375D02*
X0240042Y0230375D01*
X0240042Y0231366D02*
X0237728Y0231366D01*
X0213712Y0232078D02*
X0213712Y0227402D01*
X0213712Y0232078D02*
X0216026Y0232078D01*
X0216026Y0227402D01*
X0213712Y0227402D01*
X0213712Y0228393D02*
X0216026Y0228393D01*
X0216026Y0229384D02*
X0213712Y0229384D01*
X0213712Y0230375D02*
X0216026Y0230375D01*
X0216026Y0231366D02*
X0213712Y0231366D01*
X0209382Y0232078D02*
X0209382Y0227402D01*
X0209382Y0232078D02*
X0211696Y0232078D01*
X0211696Y0227402D01*
X0209382Y0227402D01*
X0209382Y0228393D02*
X0211696Y0228393D01*
X0211696Y0229384D02*
X0209382Y0229384D01*
X0209382Y0230375D02*
X0211696Y0230375D01*
X0211696Y0231366D02*
X0209382Y0231366D01*
X0068831Y0232078D02*
X0068831Y0227402D01*
X0068831Y0232078D02*
X0071145Y0232078D01*
X0071145Y0227402D01*
X0068831Y0227402D01*
X0068831Y0228393D02*
X0071145Y0228393D01*
X0071145Y0229384D02*
X0068831Y0229384D01*
X0068831Y0230375D02*
X0071145Y0230375D01*
X0071145Y0231366D02*
X0068831Y0231366D01*
X0064500Y0232078D02*
X0064500Y0227402D01*
X0064500Y0232078D02*
X0066814Y0232078D01*
X0066814Y0227402D01*
X0064500Y0227402D01*
X0064500Y0228393D02*
X0066814Y0228393D01*
X0066814Y0229384D02*
X0064500Y0229384D01*
X0064500Y0230375D02*
X0066814Y0230375D01*
X0066814Y0231366D02*
X0064500Y0231366D01*
X0040484Y0232078D02*
X0040484Y0227402D01*
X0040484Y0232078D02*
X0042798Y0232078D01*
X0042798Y0227402D01*
X0040484Y0227402D01*
X0040484Y0228393D02*
X0042798Y0228393D01*
X0042798Y0229384D02*
X0040484Y0229384D01*
X0040484Y0230375D02*
X0042798Y0230375D01*
X0042798Y0231366D02*
X0040484Y0231366D01*
X0036153Y0232078D02*
X0036153Y0227402D01*
X0036153Y0232078D02*
X0038467Y0232078D01*
X0038467Y0227402D01*
X0036153Y0227402D01*
X0036153Y0228393D02*
X0038467Y0228393D01*
X0038467Y0229384D02*
X0036153Y0229384D01*
X0036153Y0230375D02*
X0038467Y0230375D01*
X0038467Y0231366D02*
X0036153Y0231366D01*
D14*
X0085100Y0249184D02*
X0085100Y0251242D01*
X0086764Y0251242D01*
X0086764Y0249184D01*
X0085100Y0249184D01*
X0085100Y0250118D02*
X0086764Y0250118D01*
X0086764Y0251052D02*
X0085100Y0251052D01*
X0085100Y0253908D02*
X0085100Y0255966D01*
X0086764Y0255966D01*
X0086764Y0253908D01*
X0085100Y0253908D01*
X0085100Y0254842D02*
X0086764Y0254842D01*
X0086764Y0255776D02*
X0085100Y0255776D01*
X0090494Y0255690D02*
X0090494Y0253790D01*
X0090494Y0255690D02*
X0092394Y0255690D01*
X0092394Y0253790D01*
X0090494Y0253790D01*
X0090494Y0254724D02*
X0092394Y0254724D01*
X0092394Y0255658D02*
X0090494Y0255658D01*
X0090494Y0251359D02*
X0090494Y0249459D01*
X0090494Y0251359D02*
X0092394Y0251359D01*
X0092394Y0249459D01*
X0090494Y0249459D01*
X0090494Y0250393D02*
X0092394Y0250393D01*
X0092394Y0251327D02*
X0090494Y0251327D01*
X0104205Y0265207D02*
X0104205Y0267107D01*
X0104205Y0265207D02*
X0102305Y0265207D01*
X0102305Y0267107D01*
X0104205Y0267107D01*
X0104205Y0266141D02*
X0102305Y0266141D01*
X0102305Y0267075D02*
X0104205Y0267075D01*
X0104205Y0269538D02*
X0104205Y0271438D01*
X0104205Y0269538D02*
X0102305Y0269538D01*
X0102305Y0271438D01*
X0104205Y0271438D01*
X0104205Y0270472D02*
X0102305Y0270472D01*
X0102305Y0271406D02*
X0104205Y0271406D01*
X0108930Y0271438D02*
X0108930Y0269538D01*
X0107030Y0269538D01*
X0107030Y0271438D01*
X0108930Y0271438D01*
X0108930Y0270472D02*
X0107030Y0270472D01*
X0107030Y0271406D02*
X0108930Y0271406D01*
X0108930Y0267107D02*
X0108930Y0265207D01*
X0107030Y0265207D01*
X0107030Y0267107D01*
X0108930Y0267107D01*
X0108930Y0266141D02*
X0107030Y0266141D01*
X0107030Y0267075D02*
X0108930Y0267075D01*
X0108526Y0281566D02*
X0110190Y0281566D01*
X0108526Y0281566D02*
X0108526Y0285788D01*
X0110190Y0285788D01*
X0110190Y0281566D01*
X0110190Y0282500D02*
X0108526Y0282500D01*
X0108526Y0283434D02*
X0110190Y0283434D01*
X0110190Y0284368D02*
X0108526Y0284368D01*
X0108526Y0285302D02*
X0110190Y0285302D01*
X0106449Y0281566D02*
X0104785Y0281566D01*
X0104785Y0285788D01*
X0106449Y0285788D01*
X0106449Y0281566D01*
X0106449Y0282500D02*
X0104785Y0282500D01*
X0104785Y0283434D02*
X0106449Y0283434D01*
X0106449Y0284368D02*
X0104785Y0284368D01*
X0104785Y0285302D02*
X0106449Y0285302D01*
X0102709Y0281566D02*
X0101045Y0281566D01*
X0101045Y0285788D01*
X0102709Y0285788D01*
X0102709Y0281566D01*
X0102709Y0282500D02*
X0101045Y0282500D01*
X0101045Y0283434D02*
X0102709Y0283434D01*
X0102709Y0284368D02*
X0101045Y0284368D01*
X0101045Y0285302D02*
X0102709Y0285302D01*
X0102709Y0291802D02*
X0101045Y0291802D01*
X0101045Y0296024D01*
X0102709Y0296024D01*
X0102709Y0291802D01*
X0102709Y0292736D02*
X0101045Y0292736D01*
X0101045Y0293670D02*
X0102709Y0293670D01*
X0102709Y0294604D02*
X0101045Y0294604D01*
X0101045Y0295538D02*
X0102709Y0295538D01*
X0108526Y0291802D02*
X0110190Y0291802D01*
X0108526Y0291802D02*
X0108526Y0296024D01*
X0110190Y0296024D01*
X0110190Y0291802D01*
X0110190Y0292736D02*
X0108526Y0292736D01*
X0108526Y0293670D02*
X0110190Y0293670D01*
X0110190Y0294604D02*
X0108526Y0294604D01*
X0108526Y0295538D02*
X0110190Y0295538D01*
X0125140Y0257265D02*
X0125140Y0255365D01*
X0125140Y0257265D02*
X0127040Y0257265D01*
X0127040Y0255365D01*
X0125140Y0255365D01*
X0125140Y0256299D02*
X0127040Y0256299D01*
X0127040Y0257233D02*
X0125140Y0257233D01*
X0125140Y0252934D02*
X0125140Y0251034D01*
X0125140Y0252934D02*
X0127040Y0252934D01*
X0127040Y0251034D01*
X0125140Y0251034D01*
X0125140Y0251968D02*
X0127040Y0251968D01*
X0127040Y0252902D02*
X0125140Y0252902D01*
X0129284Y0238643D02*
X0129284Y0236585D01*
X0127620Y0236585D01*
X0127620Y0238643D01*
X0129284Y0238643D01*
X0129284Y0237519D02*
X0127620Y0237519D01*
X0127620Y0238453D02*
X0129284Y0238453D01*
X0129284Y0233919D02*
X0129284Y0231861D01*
X0127620Y0231861D01*
X0127620Y0233919D01*
X0129284Y0233919D01*
X0129284Y0232795D02*
X0127620Y0232795D01*
X0127620Y0233729D02*
X0129284Y0233729D01*
X0147108Y0240621D02*
X0148772Y0240621D01*
X0147108Y0240621D02*
X0147108Y0244843D01*
X0148772Y0244843D01*
X0148772Y0240621D01*
X0148772Y0241555D02*
X0147108Y0241555D01*
X0147108Y0242489D02*
X0148772Y0242489D01*
X0148772Y0243423D02*
X0147108Y0243423D01*
X0147108Y0244357D02*
X0148772Y0244357D01*
X0150848Y0240621D02*
X0152512Y0240621D01*
X0150848Y0240621D02*
X0150848Y0244843D01*
X0152512Y0244843D01*
X0152512Y0240621D01*
X0152512Y0241555D02*
X0150848Y0241555D01*
X0150848Y0242489D02*
X0152512Y0242489D01*
X0152512Y0243423D02*
X0150848Y0243423D01*
X0150848Y0244357D02*
X0152512Y0244357D01*
X0154589Y0240621D02*
X0156253Y0240621D01*
X0154589Y0240621D02*
X0154589Y0244843D01*
X0156253Y0244843D01*
X0156253Y0240621D01*
X0156253Y0241555D02*
X0154589Y0241555D01*
X0154589Y0242489D02*
X0156253Y0242489D01*
X0156253Y0243423D02*
X0154589Y0243423D01*
X0154589Y0244357D02*
X0156253Y0244357D01*
X0156253Y0250858D02*
X0154589Y0250858D01*
X0154589Y0255080D01*
X0156253Y0255080D01*
X0156253Y0250858D01*
X0156253Y0251792D02*
X0154589Y0251792D01*
X0154589Y0252726D02*
X0156253Y0252726D01*
X0156253Y0253660D02*
X0154589Y0253660D01*
X0154589Y0254594D02*
X0156253Y0254594D01*
X0148772Y0250858D02*
X0147108Y0250858D01*
X0147108Y0255080D01*
X0148772Y0255080D01*
X0148772Y0250858D01*
X0148772Y0251792D02*
X0147108Y0251792D01*
X0147108Y0252726D02*
X0148772Y0252726D01*
X0148772Y0253660D02*
X0147108Y0253660D01*
X0147108Y0254594D02*
X0148772Y0254594D01*
X0089707Y0192698D02*
X0089707Y0190798D01*
X0089707Y0192698D02*
X0091607Y0192698D01*
X0091607Y0190798D01*
X0089707Y0190798D01*
X0089707Y0191732D02*
X0091607Y0191732D01*
X0091607Y0192666D02*
X0089707Y0192666D01*
X0089707Y0188367D02*
X0089707Y0186467D01*
X0089707Y0188367D02*
X0091607Y0188367D01*
X0091607Y0186467D01*
X0089707Y0186467D01*
X0089707Y0187401D02*
X0091607Y0187401D01*
X0091607Y0188335D02*
X0089707Y0188335D01*
X0095416Y0182659D02*
X0097316Y0182659D01*
X0097316Y0180759D01*
X0095416Y0180759D01*
X0095416Y0182659D01*
X0095416Y0181693D02*
X0097316Y0181693D01*
X0097316Y0182627D02*
X0095416Y0182627D01*
X0099746Y0182659D02*
X0101646Y0182659D01*
X0101646Y0180759D01*
X0099746Y0180759D01*
X0099746Y0182659D01*
X0099746Y0181693D02*
X0101646Y0181693D01*
X0101646Y0182627D02*
X0099746Y0182627D01*
X0101045Y0118574D02*
X0102709Y0118574D01*
X0101045Y0118574D02*
X0101045Y0122796D01*
X0102709Y0122796D01*
X0102709Y0118574D01*
X0102709Y0119508D02*
X0101045Y0119508D01*
X0101045Y0120442D02*
X0102709Y0120442D01*
X0102709Y0121376D02*
X0101045Y0121376D01*
X0101045Y0122310D02*
X0102709Y0122310D01*
X0108526Y0118574D02*
X0110190Y0118574D01*
X0108526Y0118574D02*
X0108526Y0122796D01*
X0110190Y0122796D01*
X0110190Y0118574D01*
X0110190Y0119508D02*
X0108526Y0119508D01*
X0108526Y0120442D02*
X0110190Y0120442D01*
X0110190Y0121376D02*
X0108526Y0121376D01*
X0108526Y0122310D02*
X0110190Y0122310D01*
X0110190Y0108338D02*
X0108526Y0108338D01*
X0108526Y0112560D01*
X0110190Y0112560D01*
X0110190Y0108338D01*
X0110190Y0109272D02*
X0108526Y0109272D01*
X0108526Y0110206D02*
X0110190Y0110206D01*
X0110190Y0111140D02*
X0108526Y0111140D01*
X0108526Y0112074D02*
X0110190Y0112074D01*
X0106449Y0108338D02*
X0104785Y0108338D01*
X0104785Y0112560D01*
X0106449Y0112560D01*
X0106449Y0108338D01*
X0106449Y0109272D02*
X0104785Y0109272D01*
X0104785Y0110206D02*
X0106449Y0110206D01*
X0106449Y0111140D02*
X0104785Y0111140D01*
X0104785Y0112074D02*
X0106449Y0112074D01*
X0102709Y0108338D02*
X0101045Y0108338D01*
X0101045Y0112560D01*
X0102709Y0112560D01*
X0102709Y0108338D01*
X0102709Y0109272D02*
X0101045Y0109272D01*
X0101045Y0110206D02*
X0102709Y0110206D01*
X0102709Y0111140D02*
X0101045Y0111140D01*
X0101045Y0112074D02*
X0102709Y0112074D01*
X0104205Y0098210D02*
X0104205Y0096310D01*
X0102305Y0096310D01*
X0102305Y0098210D01*
X0104205Y0098210D01*
X0104205Y0097244D02*
X0102305Y0097244D01*
X0102305Y0098178D02*
X0104205Y0098178D01*
X0108930Y0098210D02*
X0108930Y0096310D01*
X0107030Y0096310D01*
X0107030Y0098210D01*
X0108930Y0098210D01*
X0108930Y0097244D02*
X0107030Y0097244D01*
X0107030Y0098178D02*
X0108930Y0098178D01*
X0108930Y0093879D02*
X0108930Y0091979D01*
X0107030Y0091979D01*
X0107030Y0093879D01*
X0108930Y0093879D01*
X0108930Y0092913D02*
X0107030Y0092913D01*
X0107030Y0093847D02*
X0108930Y0093847D01*
X0104205Y0093879D02*
X0104205Y0091979D01*
X0102305Y0091979D01*
X0102305Y0093879D01*
X0104205Y0093879D01*
X0104205Y0092913D02*
X0102305Y0092913D01*
X0102305Y0093847D02*
X0104205Y0093847D01*
X0090494Y0082462D02*
X0090494Y0080562D01*
X0090494Y0082462D02*
X0092394Y0082462D01*
X0092394Y0080562D01*
X0090494Y0080562D01*
X0090494Y0081496D02*
X0092394Y0081496D01*
X0092394Y0082430D02*
X0090494Y0082430D01*
X0085100Y0082738D02*
X0085100Y0080680D01*
X0085100Y0082738D02*
X0086764Y0082738D01*
X0086764Y0080680D01*
X0085100Y0080680D01*
X0085100Y0081614D02*
X0086764Y0081614D01*
X0086764Y0082548D02*
X0085100Y0082548D01*
X0085100Y0078013D02*
X0085100Y0075955D01*
X0085100Y0078013D02*
X0086764Y0078013D01*
X0086764Y0075955D01*
X0085100Y0075955D01*
X0085100Y0076889D02*
X0086764Y0076889D01*
X0086764Y0077823D02*
X0085100Y0077823D01*
X0090494Y0078131D02*
X0090494Y0076231D01*
X0090494Y0078131D02*
X0092394Y0078131D01*
X0092394Y0076231D01*
X0090494Y0076231D01*
X0090494Y0077165D02*
X0092394Y0077165D01*
X0092394Y0078099D02*
X0090494Y0078099D01*
X0125140Y0077806D02*
X0125140Y0079706D01*
X0127040Y0079706D01*
X0127040Y0077806D01*
X0125140Y0077806D01*
X0125140Y0078740D02*
X0127040Y0078740D01*
X0127040Y0079674D02*
X0125140Y0079674D01*
X0125140Y0082137D02*
X0125140Y0084037D01*
X0127040Y0084037D01*
X0127040Y0082137D01*
X0125140Y0082137D01*
X0125140Y0083071D02*
X0127040Y0083071D01*
X0127040Y0084005D02*
X0125140Y0084005D01*
X0129284Y0065415D02*
X0129284Y0063357D01*
X0127620Y0063357D01*
X0127620Y0065415D01*
X0129284Y0065415D01*
X0129284Y0064291D02*
X0127620Y0064291D01*
X0127620Y0065225D02*
X0129284Y0065225D01*
X0129284Y0060690D02*
X0129284Y0058632D01*
X0127620Y0058632D01*
X0127620Y0060690D01*
X0129284Y0060690D01*
X0129284Y0059566D02*
X0127620Y0059566D01*
X0127620Y0060500D02*
X0129284Y0060500D01*
X0147108Y0067393D02*
X0148772Y0067393D01*
X0147108Y0067393D02*
X0147108Y0071615D01*
X0148772Y0071615D01*
X0148772Y0067393D01*
X0148772Y0068327D02*
X0147108Y0068327D01*
X0147108Y0069261D02*
X0148772Y0069261D01*
X0148772Y0070195D02*
X0147108Y0070195D01*
X0147108Y0071129D02*
X0148772Y0071129D01*
X0150848Y0067393D02*
X0152512Y0067393D01*
X0150848Y0067393D02*
X0150848Y0071615D01*
X0152512Y0071615D01*
X0152512Y0067393D01*
X0152512Y0068327D02*
X0150848Y0068327D01*
X0150848Y0069261D02*
X0152512Y0069261D01*
X0152512Y0070195D02*
X0150848Y0070195D01*
X0150848Y0071129D02*
X0152512Y0071129D01*
X0154589Y0067393D02*
X0156253Y0067393D01*
X0154589Y0067393D02*
X0154589Y0071615D01*
X0156253Y0071615D01*
X0156253Y0067393D01*
X0156253Y0068327D02*
X0154589Y0068327D01*
X0154589Y0069261D02*
X0156253Y0069261D01*
X0156253Y0070195D02*
X0154589Y0070195D01*
X0154589Y0071129D02*
X0156253Y0071129D01*
X0156253Y0077629D02*
X0154589Y0077629D01*
X0154589Y0081851D01*
X0156253Y0081851D01*
X0156253Y0077629D01*
X0156253Y0078563D02*
X0154589Y0078563D01*
X0154589Y0079497D02*
X0156253Y0079497D01*
X0156253Y0080431D02*
X0154589Y0080431D01*
X0154589Y0081365D02*
X0156253Y0081365D01*
X0148772Y0077629D02*
X0147108Y0077629D01*
X0147108Y0081851D01*
X0148772Y0081851D01*
X0148772Y0077629D01*
X0148772Y0078563D02*
X0147108Y0078563D01*
X0147108Y0079497D02*
X0148772Y0079497D01*
X0148772Y0080431D02*
X0147108Y0080431D01*
X0147108Y0081365D02*
X0148772Y0081365D01*
X0089707Y0019470D02*
X0089707Y0017570D01*
X0089707Y0019470D02*
X0091607Y0019470D01*
X0091607Y0017570D01*
X0089707Y0017570D01*
X0089707Y0018504D02*
X0091607Y0018504D01*
X0091607Y0019438D02*
X0089707Y0019438D01*
X0089707Y0015139D02*
X0089707Y0013239D01*
X0089707Y0015139D02*
X0091607Y0015139D01*
X0091607Y0013239D01*
X0089707Y0013239D01*
X0089707Y0014173D02*
X0091607Y0014173D01*
X0091607Y0015107D02*
X0089707Y0015107D01*
X0095416Y0009430D02*
X0097316Y0009430D01*
X0097316Y0007530D01*
X0095416Y0007530D01*
X0095416Y0009430D01*
X0095416Y0008464D02*
X0097316Y0008464D01*
X0097316Y0009398D02*
X0095416Y0009398D01*
X0099746Y0009430D02*
X0101646Y0009430D01*
X0101646Y0007530D01*
X0099746Y0007530D01*
X0099746Y0009430D01*
X0099746Y0008464D02*
X0101646Y0008464D01*
X0101646Y0009398D02*
X0099746Y0009398D01*
X0258329Y0075955D02*
X0258329Y0078013D01*
X0259993Y0078013D01*
X0259993Y0075955D01*
X0258329Y0075955D01*
X0258329Y0076889D02*
X0259993Y0076889D01*
X0259993Y0077823D02*
X0258329Y0077823D01*
X0258329Y0080680D02*
X0258329Y0082738D01*
X0259993Y0082738D01*
X0259993Y0080680D01*
X0258329Y0080680D01*
X0258329Y0081614D02*
X0259993Y0081614D01*
X0259993Y0082548D02*
X0258329Y0082548D01*
X0263723Y0082462D02*
X0263723Y0080562D01*
X0263723Y0082462D02*
X0265623Y0082462D01*
X0265623Y0080562D01*
X0263723Y0080562D01*
X0263723Y0081496D02*
X0265623Y0081496D01*
X0265623Y0082430D02*
X0263723Y0082430D01*
X0263723Y0078131D02*
X0263723Y0076231D01*
X0263723Y0078131D02*
X0265623Y0078131D01*
X0265623Y0076231D01*
X0263723Y0076231D01*
X0263723Y0077165D02*
X0265623Y0077165D01*
X0265623Y0078099D02*
X0263723Y0078099D01*
X0277434Y0091979D02*
X0277434Y0093879D01*
X0277434Y0091979D02*
X0275534Y0091979D01*
X0275534Y0093879D01*
X0277434Y0093879D01*
X0277434Y0092913D02*
X0275534Y0092913D01*
X0275534Y0093847D02*
X0277434Y0093847D01*
X0277434Y0096310D02*
X0277434Y0098210D01*
X0277434Y0096310D02*
X0275534Y0096310D01*
X0275534Y0098210D01*
X0277434Y0098210D01*
X0277434Y0097244D02*
X0275534Y0097244D01*
X0275534Y0098178D02*
X0277434Y0098178D01*
X0282158Y0098210D02*
X0282158Y0096310D01*
X0280258Y0096310D01*
X0280258Y0098210D01*
X0282158Y0098210D01*
X0282158Y0097244D02*
X0280258Y0097244D01*
X0280258Y0098178D02*
X0282158Y0098178D01*
X0282158Y0093879D02*
X0282158Y0091979D01*
X0280258Y0091979D01*
X0280258Y0093879D01*
X0282158Y0093879D01*
X0282158Y0092913D02*
X0280258Y0092913D01*
X0280258Y0093847D02*
X0282158Y0093847D01*
X0281754Y0108338D02*
X0283418Y0108338D01*
X0281754Y0108338D02*
X0281754Y0112560D01*
X0283418Y0112560D01*
X0283418Y0108338D01*
X0283418Y0109272D02*
X0281754Y0109272D01*
X0281754Y0110206D02*
X0283418Y0110206D01*
X0283418Y0111140D02*
X0281754Y0111140D01*
X0281754Y0112074D02*
X0283418Y0112074D01*
X0279678Y0108338D02*
X0278014Y0108338D01*
X0278014Y0112560D01*
X0279678Y0112560D01*
X0279678Y0108338D01*
X0279678Y0109272D02*
X0278014Y0109272D01*
X0278014Y0110206D02*
X0279678Y0110206D01*
X0279678Y0111140D02*
X0278014Y0111140D01*
X0278014Y0112074D02*
X0279678Y0112074D01*
X0275938Y0108338D02*
X0274274Y0108338D01*
X0274274Y0112560D01*
X0275938Y0112560D01*
X0275938Y0108338D01*
X0275938Y0109272D02*
X0274274Y0109272D01*
X0274274Y0110206D02*
X0275938Y0110206D01*
X0275938Y0111140D02*
X0274274Y0111140D01*
X0274274Y0112074D02*
X0275938Y0112074D01*
X0275938Y0118574D02*
X0274274Y0118574D01*
X0274274Y0122796D01*
X0275938Y0122796D01*
X0275938Y0118574D01*
X0275938Y0119508D02*
X0274274Y0119508D01*
X0274274Y0120442D02*
X0275938Y0120442D01*
X0275938Y0121376D02*
X0274274Y0121376D01*
X0274274Y0122310D02*
X0275938Y0122310D01*
X0281754Y0118574D02*
X0283418Y0118574D01*
X0281754Y0118574D02*
X0281754Y0122796D01*
X0283418Y0122796D01*
X0283418Y0118574D01*
X0283418Y0119508D02*
X0281754Y0119508D01*
X0281754Y0120442D02*
X0283418Y0120442D01*
X0283418Y0121376D02*
X0281754Y0121376D01*
X0281754Y0122310D02*
X0283418Y0122310D01*
X0298368Y0084037D02*
X0298368Y0082137D01*
X0298368Y0084037D02*
X0300268Y0084037D01*
X0300268Y0082137D01*
X0298368Y0082137D01*
X0298368Y0083071D02*
X0300268Y0083071D01*
X0300268Y0084005D02*
X0298368Y0084005D01*
X0298368Y0079706D02*
X0298368Y0077806D01*
X0298368Y0079706D02*
X0300268Y0079706D01*
X0300268Y0077806D01*
X0298368Y0077806D01*
X0298368Y0078740D02*
X0300268Y0078740D01*
X0300268Y0079674D02*
X0298368Y0079674D01*
X0302512Y0065415D02*
X0302512Y0063357D01*
X0300848Y0063357D01*
X0300848Y0065415D01*
X0302512Y0065415D01*
X0302512Y0064291D02*
X0300848Y0064291D01*
X0300848Y0065225D02*
X0302512Y0065225D01*
X0302512Y0060690D02*
X0302512Y0058632D01*
X0300848Y0058632D01*
X0300848Y0060690D01*
X0302512Y0060690D01*
X0302512Y0059566D02*
X0300848Y0059566D01*
X0300848Y0060500D02*
X0302512Y0060500D01*
X0320337Y0067393D02*
X0322001Y0067393D01*
X0320337Y0067393D02*
X0320337Y0071615D01*
X0322001Y0071615D01*
X0322001Y0067393D01*
X0322001Y0068327D02*
X0320337Y0068327D01*
X0320337Y0069261D02*
X0322001Y0069261D01*
X0322001Y0070195D02*
X0320337Y0070195D01*
X0320337Y0071129D02*
X0322001Y0071129D01*
X0324077Y0067393D02*
X0325741Y0067393D01*
X0324077Y0067393D02*
X0324077Y0071615D01*
X0325741Y0071615D01*
X0325741Y0067393D01*
X0325741Y0068327D02*
X0324077Y0068327D01*
X0324077Y0069261D02*
X0325741Y0069261D01*
X0325741Y0070195D02*
X0324077Y0070195D01*
X0324077Y0071129D02*
X0325741Y0071129D01*
X0327817Y0067393D02*
X0329481Y0067393D01*
X0327817Y0067393D02*
X0327817Y0071615D01*
X0329481Y0071615D01*
X0329481Y0067393D01*
X0329481Y0068327D02*
X0327817Y0068327D01*
X0327817Y0069261D02*
X0329481Y0069261D01*
X0329481Y0070195D02*
X0327817Y0070195D01*
X0327817Y0071129D02*
X0329481Y0071129D01*
X0329481Y0077629D02*
X0327817Y0077629D01*
X0327817Y0081851D01*
X0329481Y0081851D01*
X0329481Y0077629D01*
X0329481Y0078563D02*
X0327817Y0078563D01*
X0327817Y0079497D02*
X0329481Y0079497D01*
X0329481Y0080431D02*
X0327817Y0080431D01*
X0327817Y0081365D02*
X0329481Y0081365D01*
X0322001Y0077629D02*
X0320337Y0077629D01*
X0320337Y0081851D01*
X0322001Y0081851D01*
X0322001Y0077629D01*
X0322001Y0078563D02*
X0320337Y0078563D01*
X0320337Y0079497D02*
X0322001Y0079497D01*
X0322001Y0080431D02*
X0320337Y0080431D01*
X0320337Y0081365D02*
X0322001Y0081365D01*
X0262935Y0019470D02*
X0262935Y0017570D01*
X0262935Y0019470D02*
X0264835Y0019470D01*
X0264835Y0017570D01*
X0262935Y0017570D01*
X0262935Y0018504D02*
X0264835Y0018504D01*
X0264835Y0019438D02*
X0262935Y0019438D01*
X0262935Y0015139D02*
X0262935Y0013239D01*
X0262935Y0015139D02*
X0264835Y0015139D01*
X0264835Y0013239D01*
X0262935Y0013239D01*
X0262935Y0014173D02*
X0264835Y0014173D01*
X0264835Y0015107D02*
X0262935Y0015107D01*
X0268644Y0009430D02*
X0270544Y0009430D01*
X0270544Y0007530D01*
X0268644Y0007530D01*
X0268644Y0009430D01*
X0268644Y0008464D02*
X0270544Y0008464D01*
X0270544Y0009398D02*
X0268644Y0009398D01*
X0272975Y0009430D02*
X0274875Y0009430D01*
X0274875Y0007530D01*
X0272975Y0007530D01*
X0272975Y0009430D01*
X0272975Y0008464D02*
X0274875Y0008464D01*
X0274875Y0009398D02*
X0272975Y0009398D01*
X0272975Y0182659D02*
X0274875Y0182659D01*
X0274875Y0180759D01*
X0272975Y0180759D01*
X0272975Y0182659D01*
X0272975Y0181693D02*
X0274875Y0181693D01*
X0274875Y0182627D02*
X0272975Y0182627D01*
X0270544Y0182659D02*
X0268644Y0182659D01*
X0270544Y0182659D02*
X0270544Y0180759D01*
X0268644Y0180759D01*
X0268644Y0182659D01*
X0268644Y0181693D02*
X0270544Y0181693D01*
X0270544Y0182627D02*
X0268644Y0182627D01*
X0262935Y0186467D02*
X0262935Y0188367D01*
X0264835Y0188367D01*
X0264835Y0186467D01*
X0262935Y0186467D01*
X0262935Y0187401D02*
X0264835Y0187401D01*
X0264835Y0188335D02*
X0262935Y0188335D01*
X0262935Y0190798D02*
X0262935Y0192698D01*
X0264835Y0192698D01*
X0264835Y0190798D01*
X0262935Y0190798D01*
X0262935Y0191732D02*
X0264835Y0191732D01*
X0264835Y0192666D02*
X0262935Y0192666D01*
X0302512Y0231861D02*
X0302512Y0233919D01*
X0302512Y0231861D02*
X0300848Y0231861D01*
X0300848Y0233919D01*
X0302512Y0233919D01*
X0302512Y0232795D02*
X0300848Y0232795D01*
X0300848Y0233729D02*
X0302512Y0233729D01*
X0302512Y0236585D02*
X0302512Y0238643D01*
X0302512Y0236585D02*
X0300848Y0236585D01*
X0300848Y0238643D01*
X0302512Y0238643D01*
X0302512Y0237519D02*
X0300848Y0237519D01*
X0300848Y0238453D02*
X0302512Y0238453D01*
X0298368Y0251034D02*
X0298368Y0252934D01*
X0300268Y0252934D01*
X0300268Y0251034D01*
X0298368Y0251034D01*
X0298368Y0251968D02*
X0300268Y0251968D01*
X0300268Y0252902D02*
X0298368Y0252902D01*
X0298368Y0255365D02*
X0298368Y0257265D01*
X0300268Y0257265D01*
X0300268Y0255365D01*
X0298368Y0255365D01*
X0298368Y0256299D02*
X0300268Y0256299D01*
X0300268Y0257233D02*
X0298368Y0257233D01*
X0282158Y0265207D02*
X0282158Y0267107D01*
X0282158Y0265207D02*
X0280258Y0265207D01*
X0280258Y0267107D01*
X0282158Y0267107D01*
X0282158Y0266141D02*
X0280258Y0266141D01*
X0280258Y0267075D02*
X0282158Y0267075D01*
X0282158Y0269538D02*
X0282158Y0271438D01*
X0282158Y0269538D02*
X0280258Y0269538D01*
X0280258Y0271438D01*
X0282158Y0271438D01*
X0282158Y0270472D02*
X0280258Y0270472D01*
X0280258Y0271406D02*
X0282158Y0271406D01*
X0277434Y0271438D02*
X0277434Y0269538D01*
X0275534Y0269538D01*
X0275534Y0271438D01*
X0277434Y0271438D01*
X0277434Y0270472D02*
X0275534Y0270472D01*
X0275534Y0271406D02*
X0277434Y0271406D01*
X0277434Y0267107D02*
X0277434Y0265207D01*
X0275534Y0265207D01*
X0275534Y0267107D01*
X0277434Y0267107D01*
X0277434Y0266141D02*
X0275534Y0266141D01*
X0275534Y0267075D02*
X0277434Y0267075D01*
X0278014Y0281566D02*
X0279678Y0281566D01*
X0278014Y0281566D02*
X0278014Y0285788D01*
X0279678Y0285788D01*
X0279678Y0281566D01*
X0279678Y0282500D02*
X0278014Y0282500D01*
X0278014Y0283434D02*
X0279678Y0283434D01*
X0279678Y0284368D02*
X0278014Y0284368D01*
X0278014Y0285302D02*
X0279678Y0285302D01*
X0281754Y0281566D02*
X0283418Y0281566D01*
X0281754Y0281566D02*
X0281754Y0285788D01*
X0283418Y0285788D01*
X0283418Y0281566D01*
X0283418Y0282500D02*
X0281754Y0282500D01*
X0281754Y0283434D02*
X0283418Y0283434D01*
X0283418Y0284368D02*
X0281754Y0284368D01*
X0281754Y0285302D02*
X0283418Y0285302D01*
X0275938Y0281566D02*
X0274274Y0281566D01*
X0274274Y0285788D01*
X0275938Y0285788D01*
X0275938Y0281566D01*
X0275938Y0282500D02*
X0274274Y0282500D01*
X0274274Y0283434D02*
X0275938Y0283434D01*
X0275938Y0284368D02*
X0274274Y0284368D01*
X0274274Y0285302D02*
X0275938Y0285302D01*
X0275938Y0291802D02*
X0274274Y0291802D01*
X0274274Y0296024D01*
X0275938Y0296024D01*
X0275938Y0291802D01*
X0275938Y0292736D02*
X0274274Y0292736D01*
X0274274Y0293670D02*
X0275938Y0293670D01*
X0275938Y0294604D02*
X0274274Y0294604D01*
X0274274Y0295538D02*
X0275938Y0295538D01*
X0281754Y0291802D02*
X0283418Y0291802D01*
X0281754Y0291802D02*
X0281754Y0296024D01*
X0283418Y0296024D01*
X0283418Y0291802D01*
X0283418Y0292736D02*
X0281754Y0292736D01*
X0281754Y0293670D02*
X0283418Y0293670D01*
X0283418Y0294604D02*
X0281754Y0294604D01*
X0281754Y0295538D02*
X0283418Y0295538D01*
X0263723Y0255690D02*
X0263723Y0253790D01*
X0263723Y0255690D02*
X0265623Y0255690D01*
X0265623Y0253790D01*
X0263723Y0253790D01*
X0263723Y0254724D02*
X0265623Y0254724D01*
X0265623Y0255658D02*
X0263723Y0255658D01*
X0258329Y0255966D02*
X0258329Y0253908D01*
X0258329Y0255966D02*
X0259993Y0255966D01*
X0259993Y0253908D01*
X0258329Y0253908D01*
X0258329Y0254842D02*
X0259993Y0254842D01*
X0259993Y0255776D02*
X0258329Y0255776D01*
X0258329Y0251242D02*
X0258329Y0249184D01*
X0258329Y0251242D02*
X0259993Y0251242D01*
X0259993Y0249184D01*
X0258329Y0249184D01*
X0258329Y0250118D02*
X0259993Y0250118D01*
X0259993Y0251052D02*
X0258329Y0251052D01*
X0263723Y0251359D02*
X0263723Y0249459D01*
X0263723Y0251359D02*
X0265623Y0251359D01*
X0265623Y0249459D01*
X0263723Y0249459D01*
X0263723Y0250393D02*
X0265623Y0250393D01*
X0265623Y0251327D02*
X0263723Y0251327D01*
X0320337Y0250858D02*
X0322001Y0250858D01*
X0320337Y0250858D02*
X0320337Y0255080D01*
X0322001Y0255080D01*
X0322001Y0250858D01*
X0322001Y0251792D02*
X0320337Y0251792D01*
X0320337Y0252726D02*
X0322001Y0252726D01*
X0322001Y0253660D02*
X0320337Y0253660D01*
X0320337Y0254594D02*
X0322001Y0254594D01*
X0327817Y0250858D02*
X0329481Y0250858D01*
X0327817Y0250858D02*
X0327817Y0255080D01*
X0329481Y0255080D01*
X0329481Y0250858D01*
X0329481Y0251792D02*
X0327817Y0251792D01*
X0327817Y0252726D02*
X0329481Y0252726D01*
X0329481Y0253660D02*
X0327817Y0253660D01*
X0327817Y0254594D02*
X0329481Y0254594D01*
X0329481Y0240621D02*
X0327817Y0240621D01*
X0327817Y0244843D01*
X0329481Y0244843D01*
X0329481Y0240621D01*
X0329481Y0241555D02*
X0327817Y0241555D01*
X0327817Y0242489D02*
X0329481Y0242489D01*
X0329481Y0243423D02*
X0327817Y0243423D01*
X0327817Y0244357D02*
X0329481Y0244357D01*
X0325741Y0240621D02*
X0324077Y0240621D01*
X0324077Y0244843D01*
X0325741Y0244843D01*
X0325741Y0240621D01*
X0325741Y0241555D02*
X0324077Y0241555D01*
X0324077Y0242489D02*
X0325741Y0242489D01*
X0325741Y0243423D02*
X0324077Y0243423D01*
X0324077Y0244357D02*
X0325741Y0244357D01*
X0322001Y0240621D02*
X0320337Y0240621D01*
X0320337Y0244843D01*
X0322001Y0244843D01*
X0322001Y0240621D01*
X0322001Y0241555D02*
X0320337Y0241555D01*
X0320337Y0242489D02*
X0322001Y0242489D01*
X0322001Y0243423D02*
X0320337Y0243423D01*
X0320337Y0244357D02*
X0322001Y0244357D01*
D15*
X0316810Y0247888D02*
X0316098Y0247888D01*
X0316098Y0251946D01*
X0316810Y0251946D01*
X0316810Y0247888D01*
X0316810Y0248830D02*
X0316098Y0248830D01*
X0316098Y0249772D02*
X0316810Y0249772D01*
X0316810Y0250714D02*
X0316098Y0250714D01*
X0316098Y0251656D02*
X0316810Y0251656D01*
X0314310Y0247888D02*
X0313598Y0247888D01*
X0313598Y0251946D01*
X0314310Y0251946D01*
X0314310Y0247888D01*
X0314310Y0248830D02*
X0313598Y0248830D01*
X0313598Y0249772D02*
X0314310Y0249772D01*
X0314310Y0250714D02*
X0313598Y0250714D01*
X0313598Y0251656D02*
X0314310Y0251656D01*
X0311810Y0247888D02*
X0311098Y0247888D01*
X0311098Y0251946D01*
X0311810Y0251946D01*
X0311810Y0247888D01*
X0311810Y0248830D02*
X0311098Y0248830D01*
X0311098Y0249772D02*
X0311810Y0249772D01*
X0311810Y0250714D02*
X0311098Y0250714D01*
X0311098Y0251656D02*
X0311810Y0251656D01*
X0309310Y0247888D02*
X0308598Y0247888D01*
X0308598Y0251946D01*
X0309310Y0251946D01*
X0309310Y0247888D01*
X0309310Y0248830D02*
X0308598Y0248830D01*
X0308598Y0249772D02*
X0309310Y0249772D01*
X0309310Y0250714D02*
X0308598Y0250714D01*
X0308598Y0251656D02*
X0309310Y0251656D01*
X0309310Y0229581D02*
X0308598Y0229581D01*
X0308598Y0233639D01*
X0309310Y0233639D01*
X0309310Y0229581D01*
X0309310Y0230523D02*
X0308598Y0230523D01*
X0308598Y0231465D02*
X0309310Y0231465D01*
X0309310Y0232407D02*
X0308598Y0232407D01*
X0308598Y0233349D02*
X0309310Y0233349D01*
X0311098Y0229581D02*
X0311810Y0229581D01*
X0311098Y0229581D02*
X0311098Y0233639D01*
X0311810Y0233639D01*
X0311810Y0229581D01*
X0311810Y0230523D02*
X0311098Y0230523D01*
X0311098Y0231465D02*
X0311810Y0231465D01*
X0311810Y0232407D02*
X0311098Y0232407D01*
X0311098Y0233349D02*
X0311810Y0233349D01*
X0313598Y0229581D02*
X0314310Y0229581D01*
X0313598Y0229581D02*
X0313598Y0233639D01*
X0314310Y0233639D01*
X0314310Y0229581D01*
X0314310Y0230523D02*
X0313598Y0230523D01*
X0313598Y0231465D02*
X0314310Y0231465D01*
X0314310Y0232407D02*
X0313598Y0232407D01*
X0313598Y0233349D02*
X0314310Y0233349D01*
X0316098Y0229581D02*
X0316810Y0229581D01*
X0316098Y0229581D02*
X0316098Y0233639D01*
X0316810Y0233639D01*
X0316810Y0229581D01*
X0316810Y0230523D02*
X0316098Y0230523D01*
X0316098Y0231465D02*
X0316810Y0231465D01*
X0316810Y0232407D02*
X0316098Y0232407D01*
X0316098Y0233349D02*
X0316810Y0233349D01*
X0316810Y0074660D02*
X0316098Y0074660D01*
X0316098Y0078718D01*
X0316810Y0078718D01*
X0316810Y0074660D01*
X0316810Y0075602D02*
X0316098Y0075602D01*
X0316098Y0076544D02*
X0316810Y0076544D01*
X0316810Y0077486D02*
X0316098Y0077486D01*
X0316098Y0078428D02*
X0316810Y0078428D01*
X0314310Y0074660D02*
X0313598Y0074660D01*
X0313598Y0078718D01*
X0314310Y0078718D01*
X0314310Y0074660D01*
X0314310Y0075602D02*
X0313598Y0075602D01*
X0313598Y0076544D02*
X0314310Y0076544D01*
X0314310Y0077486D02*
X0313598Y0077486D01*
X0313598Y0078428D02*
X0314310Y0078428D01*
X0311810Y0074660D02*
X0311098Y0074660D01*
X0311098Y0078718D01*
X0311810Y0078718D01*
X0311810Y0074660D01*
X0311810Y0075602D02*
X0311098Y0075602D01*
X0311098Y0076544D02*
X0311810Y0076544D01*
X0311810Y0077486D02*
X0311098Y0077486D01*
X0311098Y0078428D02*
X0311810Y0078428D01*
X0309310Y0074660D02*
X0308598Y0074660D01*
X0308598Y0078718D01*
X0309310Y0078718D01*
X0309310Y0074660D01*
X0309310Y0075602D02*
X0308598Y0075602D01*
X0308598Y0076544D02*
X0309310Y0076544D01*
X0309310Y0077486D02*
X0308598Y0077486D01*
X0308598Y0078428D02*
X0309310Y0078428D01*
X0309310Y0056353D02*
X0308598Y0056353D01*
X0308598Y0060411D01*
X0309310Y0060411D01*
X0309310Y0056353D01*
X0309310Y0057295D02*
X0308598Y0057295D01*
X0308598Y0058237D02*
X0309310Y0058237D01*
X0309310Y0059179D02*
X0308598Y0059179D01*
X0308598Y0060121D02*
X0309310Y0060121D01*
X0311098Y0056353D02*
X0311810Y0056353D01*
X0311098Y0056353D02*
X0311098Y0060411D01*
X0311810Y0060411D01*
X0311810Y0056353D01*
X0311810Y0057295D02*
X0311098Y0057295D01*
X0311098Y0058237D02*
X0311810Y0058237D01*
X0311810Y0059179D02*
X0311098Y0059179D01*
X0311098Y0060121D02*
X0311810Y0060121D01*
X0313598Y0056353D02*
X0314310Y0056353D01*
X0313598Y0056353D02*
X0313598Y0060411D01*
X0314310Y0060411D01*
X0314310Y0056353D01*
X0314310Y0057295D02*
X0313598Y0057295D01*
X0313598Y0058237D02*
X0314310Y0058237D01*
X0314310Y0059179D02*
X0313598Y0059179D01*
X0313598Y0060121D02*
X0314310Y0060121D01*
X0316098Y0056353D02*
X0316810Y0056353D01*
X0316098Y0056353D02*
X0316098Y0060411D01*
X0316810Y0060411D01*
X0316810Y0056353D01*
X0316810Y0057295D02*
X0316098Y0057295D01*
X0316098Y0058237D02*
X0316810Y0058237D01*
X0316810Y0059179D02*
X0316098Y0059179D01*
X0316098Y0060121D02*
X0316810Y0060121D01*
X0143582Y0056353D02*
X0142870Y0056353D01*
X0142870Y0060411D01*
X0143582Y0060411D01*
X0143582Y0056353D01*
X0143582Y0057295D02*
X0142870Y0057295D01*
X0142870Y0058237D02*
X0143582Y0058237D01*
X0143582Y0059179D02*
X0142870Y0059179D01*
X0142870Y0060121D02*
X0143582Y0060121D01*
X0141082Y0056353D02*
X0140370Y0056353D01*
X0140370Y0060411D01*
X0141082Y0060411D01*
X0141082Y0056353D01*
X0141082Y0057295D02*
X0140370Y0057295D01*
X0140370Y0058237D02*
X0141082Y0058237D01*
X0141082Y0059179D02*
X0140370Y0059179D01*
X0140370Y0060121D02*
X0141082Y0060121D01*
X0138582Y0056353D02*
X0137870Y0056353D01*
X0137870Y0060411D01*
X0138582Y0060411D01*
X0138582Y0056353D01*
X0138582Y0057295D02*
X0137870Y0057295D01*
X0137870Y0058237D02*
X0138582Y0058237D01*
X0138582Y0059179D02*
X0137870Y0059179D01*
X0137870Y0060121D02*
X0138582Y0060121D01*
X0136082Y0056353D02*
X0135370Y0056353D01*
X0135370Y0060411D01*
X0136082Y0060411D01*
X0136082Y0056353D01*
X0136082Y0057295D02*
X0135370Y0057295D01*
X0135370Y0058237D02*
X0136082Y0058237D01*
X0136082Y0059179D02*
X0135370Y0059179D01*
X0135370Y0060121D02*
X0136082Y0060121D01*
X0136082Y0074660D02*
X0135370Y0074660D01*
X0135370Y0078718D01*
X0136082Y0078718D01*
X0136082Y0074660D01*
X0136082Y0075602D02*
X0135370Y0075602D01*
X0135370Y0076544D02*
X0136082Y0076544D01*
X0136082Y0077486D02*
X0135370Y0077486D01*
X0135370Y0078428D02*
X0136082Y0078428D01*
X0137870Y0074660D02*
X0138582Y0074660D01*
X0137870Y0074660D02*
X0137870Y0078718D01*
X0138582Y0078718D01*
X0138582Y0074660D01*
X0138582Y0075602D02*
X0137870Y0075602D01*
X0137870Y0076544D02*
X0138582Y0076544D01*
X0138582Y0077486D02*
X0137870Y0077486D01*
X0137870Y0078428D02*
X0138582Y0078428D01*
X0140370Y0074660D02*
X0141082Y0074660D01*
X0140370Y0074660D02*
X0140370Y0078718D01*
X0141082Y0078718D01*
X0141082Y0074660D01*
X0141082Y0075602D02*
X0140370Y0075602D01*
X0140370Y0076544D02*
X0141082Y0076544D01*
X0141082Y0077486D02*
X0140370Y0077486D01*
X0140370Y0078428D02*
X0141082Y0078428D01*
X0142870Y0074660D02*
X0143582Y0074660D01*
X0142870Y0074660D02*
X0142870Y0078718D01*
X0143582Y0078718D01*
X0143582Y0074660D01*
X0143582Y0075602D02*
X0142870Y0075602D01*
X0142870Y0076544D02*
X0143582Y0076544D01*
X0143582Y0077486D02*
X0142870Y0077486D01*
X0142870Y0078428D02*
X0143582Y0078428D01*
X0143582Y0229581D02*
X0142870Y0229581D01*
X0142870Y0233639D01*
X0143582Y0233639D01*
X0143582Y0229581D01*
X0143582Y0230523D02*
X0142870Y0230523D01*
X0142870Y0231465D02*
X0143582Y0231465D01*
X0143582Y0232407D02*
X0142870Y0232407D01*
X0142870Y0233349D02*
X0143582Y0233349D01*
X0141082Y0229581D02*
X0140370Y0229581D01*
X0140370Y0233639D01*
X0141082Y0233639D01*
X0141082Y0229581D01*
X0141082Y0230523D02*
X0140370Y0230523D01*
X0140370Y0231465D02*
X0141082Y0231465D01*
X0141082Y0232407D02*
X0140370Y0232407D01*
X0140370Y0233349D02*
X0141082Y0233349D01*
X0138582Y0229581D02*
X0137870Y0229581D01*
X0137870Y0233639D01*
X0138582Y0233639D01*
X0138582Y0229581D01*
X0138582Y0230523D02*
X0137870Y0230523D01*
X0137870Y0231465D02*
X0138582Y0231465D01*
X0138582Y0232407D02*
X0137870Y0232407D01*
X0137870Y0233349D02*
X0138582Y0233349D01*
X0136082Y0229581D02*
X0135370Y0229581D01*
X0135370Y0233639D01*
X0136082Y0233639D01*
X0136082Y0229581D01*
X0136082Y0230523D02*
X0135370Y0230523D01*
X0135370Y0231465D02*
X0136082Y0231465D01*
X0136082Y0232407D02*
X0135370Y0232407D01*
X0135370Y0233349D02*
X0136082Y0233349D01*
X0136082Y0247888D02*
X0135370Y0247888D01*
X0135370Y0251946D01*
X0136082Y0251946D01*
X0136082Y0247888D01*
X0136082Y0248830D02*
X0135370Y0248830D01*
X0135370Y0249772D02*
X0136082Y0249772D01*
X0136082Y0250714D02*
X0135370Y0250714D01*
X0135370Y0251656D02*
X0136082Y0251656D01*
X0137870Y0247888D02*
X0138582Y0247888D01*
X0137870Y0247888D02*
X0137870Y0251946D01*
X0138582Y0251946D01*
X0138582Y0247888D01*
X0138582Y0248830D02*
X0137870Y0248830D01*
X0137870Y0249772D02*
X0138582Y0249772D01*
X0138582Y0250714D02*
X0137870Y0250714D01*
X0137870Y0251656D02*
X0138582Y0251656D01*
X0140370Y0247888D02*
X0141082Y0247888D01*
X0140370Y0247888D02*
X0140370Y0251946D01*
X0141082Y0251946D01*
X0141082Y0247888D01*
X0141082Y0248830D02*
X0140370Y0248830D01*
X0140370Y0249772D02*
X0141082Y0249772D01*
X0141082Y0250714D02*
X0140370Y0250714D01*
X0140370Y0251656D02*
X0141082Y0251656D01*
X0142870Y0247888D02*
X0143582Y0247888D01*
X0142870Y0247888D02*
X0142870Y0251946D01*
X0143582Y0251946D01*
X0143582Y0247888D01*
X0143582Y0248830D02*
X0142870Y0248830D01*
X0142870Y0249772D02*
X0143582Y0249772D01*
X0143582Y0250714D02*
X0142870Y0250714D01*
X0142870Y0251656D02*
X0143582Y0251656D01*
D16*
X0216247Y0284858D03*
X0216247Y0111630D03*
X0043019Y0111630D03*
X0043019Y0284858D03*
D17*
X0042862Y0182496D03*
X0052862Y0182496D03*
X0062862Y0182496D03*
X0072862Y0182496D03*
X0032862Y0182496D03*
X0032862Y0009268D03*
X0042862Y0009268D03*
X0052862Y0009268D03*
X0062862Y0009268D03*
X0072862Y0009268D03*
X0206090Y0009268D03*
X0216090Y0009268D03*
X0226090Y0009268D03*
X0236090Y0009268D03*
X0246090Y0009268D03*
X0246090Y0182496D03*
X0236090Y0182496D03*
X0226090Y0182496D03*
X0216090Y0182496D03*
X0206090Y0182496D03*
D18*
X0210440Y0200311D02*
X0210440Y0204445D01*
X0210440Y0200311D02*
X0205520Y0200311D01*
X0205520Y0204445D01*
X0210440Y0204445D01*
X0210440Y0202082D02*
X0205520Y0202082D01*
X0205520Y0203853D02*
X0210440Y0203853D01*
X0210440Y0207791D02*
X0210440Y0211925D01*
X0210440Y0207791D02*
X0205520Y0207791D01*
X0205520Y0211925D01*
X0210440Y0211925D01*
X0210440Y0209562D02*
X0205520Y0209562D01*
X0205520Y0211333D02*
X0210440Y0211333D01*
X0148433Y0209957D02*
X0144299Y0209957D01*
X0144299Y0214877D01*
X0148433Y0214877D01*
X0148433Y0209957D01*
X0148433Y0211728D02*
X0144299Y0211728D01*
X0144299Y0213499D02*
X0148433Y0213499D01*
X0148433Y0218619D02*
X0144299Y0218619D01*
X0144299Y0223539D01*
X0148433Y0223539D01*
X0148433Y0218619D01*
X0148433Y0220390D02*
X0144299Y0220390D01*
X0144299Y0222161D02*
X0148433Y0222161D01*
X0140952Y0218619D02*
X0136818Y0218619D01*
X0136818Y0223539D01*
X0140952Y0223539D01*
X0140952Y0218619D01*
X0140952Y0220390D02*
X0136818Y0220390D01*
X0136818Y0222161D02*
X0140952Y0222161D01*
X0140952Y0209957D02*
X0136818Y0209957D01*
X0136818Y0214877D01*
X0140952Y0214877D01*
X0140952Y0209957D01*
X0140952Y0211728D02*
X0136818Y0211728D01*
X0136818Y0213499D02*
X0140952Y0213499D01*
X0142133Y0258776D02*
X0137999Y0258776D01*
X0137999Y0263696D01*
X0142133Y0263696D01*
X0142133Y0258776D01*
X0142133Y0260547D02*
X0137999Y0260547D01*
X0137999Y0262318D02*
X0142133Y0262318D01*
X0134653Y0258776D02*
X0130519Y0258776D01*
X0130519Y0263696D01*
X0134653Y0263696D01*
X0134653Y0258776D01*
X0134653Y0260547D02*
X0130519Y0260547D01*
X0130519Y0262318D02*
X0134653Y0262318D01*
X0124810Y0280823D02*
X0120676Y0280823D01*
X0120676Y0285743D01*
X0124810Y0285743D01*
X0124810Y0280823D01*
X0124810Y0282594D02*
X0120676Y0282594D01*
X0120676Y0284365D02*
X0124810Y0284365D01*
X0117330Y0280823D02*
X0113196Y0280823D01*
X0113196Y0285743D01*
X0117330Y0285743D01*
X0117330Y0280823D01*
X0117330Y0282594D02*
X0113196Y0282594D01*
X0113196Y0284365D02*
X0117330Y0284365D01*
X0117330Y0291847D02*
X0113196Y0291847D01*
X0113196Y0296767D01*
X0117330Y0296767D01*
X0117330Y0291847D01*
X0117330Y0293618D02*
X0113196Y0293618D01*
X0113196Y0295389D02*
X0117330Y0295389D01*
X0120676Y0291847D02*
X0124810Y0291847D01*
X0120676Y0291847D02*
X0120676Y0296767D01*
X0124810Y0296767D01*
X0124810Y0291847D01*
X0124810Y0293618D02*
X0120676Y0293618D01*
X0120676Y0295389D02*
X0124810Y0295389D01*
X0037211Y0211925D02*
X0037211Y0207791D01*
X0032291Y0207791D01*
X0032291Y0211925D01*
X0037211Y0211925D01*
X0037211Y0209562D02*
X0032291Y0209562D01*
X0032291Y0211333D02*
X0037211Y0211333D01*
X0037211Y0204445D02*
X0037211Y0200311D01*
X0032291Y0200311D01*
X0032291Y0204445D01*
X0037211Y0204445D01*
X0037211Y0202082D02*
X0032291Y0202082D01*
X0032291Y0203853D02*
X0037211Y0203853D01*
X0113196Y0118619D02*
X0117330Y0118619D01*
X0113196Y0118619D02*
X0113196Y0123539D01*
X0117330Y0123539D01*
X0117330Y0118619D01*
X0117330Y0120390D02*
X0113196Y0120390D01*
X0113196Y0122161D02*
X0117330Y0122161D01*
X0120676Y0118619D02*
X0124810Y0118619D01*
X0120676Y0118619D02*
X0120676Y0123539D01*
X0124810Y0123539D01*
X0124810Y0118619D01*
X0124810Y0120390D02*
X0120676Y0120390D01*
X0120676Y0122161D02*
X0124810Y0122161D01*
X0124810Y0107595D02*
X0120676Y0107595D01*
X0120676Y0112515D01*
X0124810Y0112515D01*
X0124810Y0107595D01*
X0124810Y0109366D02*
X0120676Y0109366D01*
X0120676Y0111137D02*
X0124810Y0111137D01*
X0117330Y0107595D02*
X0113196Y0107595D01*
X0113196Y0112515D01*
X0117330Y0112515D01*
X0117330Y0107595D01*
X0117330Y0109366D02*
X0113196Y0109366D01*
X0113196Y0111137D02*
X0117330Y0111137D01*
X0130519Y0085548D02*
X0134653Y0085548D01*
X0130519Y0085548D02*
X0130519Y0090468D01*
X0134653Y0090468D01*
X0134653Y0085548D01*
X0134653Y0087319D02*
X0130519Y0087319D01*
X0130519Y0089090D02*
X0134653Y0089090D01*
X0137999Y0085548D02*
X0142133Y0085548D01*
X0137999Y0085548D02*
X0137999Y0090468D01*
X0142133Y0090468D01*
X0142133Y0085548D01*
X0142133Y0087319D02*
X0137999Y0087319D01*
X0137999Y0089090D02*
X0142133Y0089090D01*
X0140952Y0045390D02*
X0136818Y0045390D01*
X0136818Y0050310D01*
X0140952Y0050310D01*
X0140952Y0045390D01*
X0140952Y0047161D02*
X0136818Y0047161D01*
X0136818Y0048932D02*
X0140952Y0048932D01*
X0144299Y0045390D02*
X0148433Y0045390D01*
X0144299Y0045390D02*
X0144299Y0050310D01*
X0148433Y0050310D01*
X0148433Y0045390D01*
X0148433Y0047161D02*
X0144299Y0047161D01*
X0144299Y0048932D02*
X0148433Y0048932D01*
X0148433Y0036729D02*
X0144299Y0036729D01*
X0144299Y0041649D01*
X0148433Y0041649D01*
X0148433Y0036729D01*
X0148433Y0038500D02*
X0144299Y0038500D01*
X0144299Y0040271D02*
X0148433Y0040271D01*
X0140952Y0036729D02*
X0136818Y0036729D01*
X0136818Y0041649D01*
X0140952Y0041649D01*
X0140952Y0036729D01*
X0140952Y0038500D02*
X0136818Y0038500D01*
X0136818Y0040271D02*
X0140952Y0040271D01*
X0210440Y0038697D02*
X0210440Y0034563D01*
X0205520Y0034563D01*
X0205520Y0038697D01*
X0210440Y0038697D01*
X0210440Y0036334D02*
X0205520Y0036334D01*
X0205520Y0038105D02*
X0210440Y0038105D01*
X0210440Y0031217D02*
X0210440Y0027083D01*
X0205520Y0027083D01*
X0205520Y0031217D01*
X0210440Y0031217D01*
X0210440Y0028854D02*
X0205520Y0028854D01*
X0205520Y0030625D02*
X0210440Y0030625D01*
X0286425Y0107595D02*
X0290559Y0107595D01*
X0286425Y0107595D02*
X0286425Y0112515D01*
X0290559Y0112515D01*
X0290559Y0107595D01*
X0290559Y0109366D02*
X0286425Y0109366D01*
X0286425Y0111137D02*
X0290559Y0111137D01*
X0293905Y0107595D02*
X0298039Y0107595D01*
X0293905Y0107595D02*
X0293905Y0112515D01*
X0298039Y0112515D01*
X0298039Y0107595D01*
X0298039Y0109366D02*
X0293905Y0109366D01*
X0293905Y0111137D02*
X0298039Y0111137D01*
X0298039Y0118619D02*
X0293905Y0118619D01*
X0293905Y0123539D01*
X0298039Y0123539D01*
X0298039Y0118619D01*
X0298039Y0120390D02*
X0293905Y0120390D01*
X0293905Y0122161D02*
X0298039Y0122161D01*
X0290559Y0118619D02*
X0286425Y0118619D01*
X0286425Y0123539D01*
X0290559Y0123539D01*
X0290559Y0118619D01*
X0290559Y0120390D02*
X0286425Y0120390D01*
X0286425Y0122161D02*
X0290559Y0122161D01*
X0303747Y0085548D02*
X0307881Y0085548D01*
X0303747Y0085548D02*
X0303747Y0090468D01*
X0307881Y0090468D01*
X0307881Y0085548D01*
X0307881Y0087319D02*
X0303747Y0087319D01*
X0303747Y0089090D02*
X0307881Y0089090D01*
X0311228Y0085548D02*
X0315362Y0085548D01*
X0311228Y0085548D02*
X0311228Y0090468D01*
X0315362Y0090468D01*
X0315362Y0085548D01*
X0315362Y0087319D02*
X0311228Y0087319D01*
X0311228Y0089090D02*
X0315362Y0089090D01*
X0314181Y0045390D02*
X0310047Y0045390D01*
X0310047Y0050310D01*
X0314181Y0050310D01*
X0314181Y0045390D01*
X0314181Y0047161D02*
X0310047Y0047161D01*
X0310047Y0048932D02*
X0314181Y0048932D01*
X0317527Y0045390D02*
X0321661Y0045390D01*
X0317527Y0045390D02*
X0317527Y0050310D01*
X0321661Y0050310D01*
X0321661Y0045390D01*
X0321661Y0047161D02*
X0317527Y0047161D01*
X0317527Y0048932D02*
X0321661Y0048932D01*
X0321661Y0036729D02*
X0317527Y0036729D01*
X0317527Y0041649D01*
X0321661Y0041649D01*
X0321661Y0036729D01*
X0321661Y0038500D02*
X0317527Y0038500D01*
X0317527Y0040271D02*
X0321661Y0040271D01*
X0314181Y0036729D02*
X0310047Y0036729D01*
X0310047Y0041649D01*
X0314181Y0041649D01*
X0314181Y0036729D01*
X0314181Y0038500D02*
X0310047Y0038500D01*
X0310047Y0040271D02*
X0314181Y0040271D01*
X0314181Y0209957D02*
X0310047Y0209957D01*
X0310047Y0214877D01*
X0314181Y0214877D01*
X0314181Y0209957D01*
X0314181Y0211728D02*
X0310047Y0211728D01*
X0310047Y0213499D02*
X0314181Y0213499D01*
X0317527Y0209957D02*
X0321661Y0209957D01*
X0317527Y0209957D02*
X0317527Y0214877D01*
X0321661Y0214877D01*
X0321661Y0209957D01*
X0321661Y0211728D02*
X0317527Y0211728D01*
X0317527Y0213499D02*
X0321661Y0213499D01*
X0321661Y0218619D02*
X0317527Y0218619D01*
X0317527Y0223539D01*
X0321661Y0223539D01*
X0321661Y0218619D01*
X0321661Y0220390D02*
X0317527Y0220390D01*
X0317527Y0222161D02*
X0321661Y0222161D01*
X0314181Y0218619D02*
X0310047Y0218619D01*
X0310047Y0223539D01*
X0314181Y0223539D01*
X0314181Y0218619D01*
X0314181Y0220390D02*
X0310047Y0220390D01*
X0310047Y0222161D02*
X0314181Y0222161D01*
X0315362Y0258776D02*
X0311228Y0258776D01*
X0311228Y0263696D01*
X0315362Y0263696D01*
X0315362Y0258776D01*
X0315362Y0260547D02*
X0311228Y0260547D01*
X0311228Y0262318D02*
X0315362Y0262318D01*
X0307881Y0258776D02*
X0303747Y0258776D01*
X0303747Y0263696D01*
X0307881Y0263696D01*
X0307881Y0258776D01*
X0307881Y0260547D02*
X0303747Y0260547D01*
X0303747Y0262318D02*
X0307881Y0262318D01*
X0298039Y0280823D02*
X0293905Y0280823D01*
X0293905Y0285743D01*
X0298039Y0285743D01*
X0298039Y0280823D01*
X0298039Y0282594D02*
X0293905Y0282594D01*
X0293905Y0284365D02*
X0298039Y0284365D01*
X0290559Y0280823D02*
X0286425Y0280823D01*
X0286425Y0285743D01*
X0290559Y0285743D01*
X0290559Y0280823D01*
X0290559Y0282594D02*
X0286425Y0282594D01*
X0286425Y0284365D02*
X0290559Y0284365D01*
X0290559Y0291847D02*
X0286425Y0291847D01*
X0286425Y0296767D01*
X0290559Y0296767D01*
X0290559Y0291847D01*
X0290559Y0293618D02*
X0286425Y0293618D01*
X0286425Y0295389D02*
X0290559Y0295389D01*
X0293905Y0291847D02*
X0298039Y0291847D01*
X0293905Y0291847D02*
X0293905Y0296767D01*
X0298039Y0296767D01*
X0298039Y0291847D01*
X0298039Y0293618D02*
X0293905Y0293618D01*
X0293905Y0295389D02*
X0298039Y0295389D01*
X0037211Y0038697D02*
X0037211Y0034563D01*
X0032291Y0034563D01*
X0032291Y0038697D01*
X0037211Y0038697D01*
X0037211Y0036334D02*
X0032291Y0036334D01*
X0032291Y0038105D02*
X0037211Y0038105D01*
X0037211Y0031217D02*
X0037211Y0027083D01*
X0032291Y0027083D01*
X0032291Y0031217D01*
X0037211Y0031217D01*
X0037211Y0028854D02*
X0032291Y0028854D01*
X0032291Y0030625D02*
X0037211Y0030625D01*
D19*
X0017429Y0028953D03*
X0017429Y0036827D03*
X0017429Y0044701D03*
X0017429Y0052575D03*
X0017429Y0060449D03*
X0017429Y0068323D03*
X0017429Y0076197D03*
X0017429Y0084071D03*
X0017429Y0091945D03*
X0017429Y0099819D03*
X0017429Y0107693D03*
X0017429Y0115567D03*
X0017429Y0123441D03*
X0017429Y0131315D03*
X0009555Y0131315D03*
X0009555Y0123441D03*
X0009555Y0115567D03*
X0009555Y0107693D03*
X0009555Y0099819D03*
X0009555Y0091945D03*
X0009555Y0084071D03*
X0009555Y0076197D03*
X0009555Y0068323D03*
X0009555Y0060449D03*
X0009555Y0052575D03*
X0009555Y0044701D03*
X0009555Y0036827D03*
X0009555Y0028953D03*
X0009555Y0202181D03*
X0017429Y0202181D03*
X0017429Y0210055D03*
X0017429Y0217929D03*
X0017429Y0225803D03*
X0017429Y0233677D03*
X0017429Y0241551D03*
X0017429Y0249425D03*
X0017429Y0257299D03*
X0017429Y0265173D03*
X0017429Y0273047D03*
X0017429Y0280921D03*
X0017429Y0288795D03*
X0017429Y0296669D03*
X0017429Y0304543D03*
X0009555Y0304543D03*
X0009555Y0296669D03*
X0009555Y0288795D03*
X0009555Y0280921D03*
X0009555Y0273047D03*
X0009555Y0265173D03*
X0009555Y0257299D03*
X0009555Y0249425D03*
X0009555Y0241551D03*
X0009555Y0233677D03*
X0009555Y0225803D03*
X0009555Y0217929D03*
X0009555Y0210055D03*
X0182783Y0210055D03*
X0190657Y0210055D03*
X0190657Y0217929D03*
X0190657Y0225803D03*
X0182783Y0225803D03*
X0182783Y0217929D03*
X0182783Y0202181D03*
X0190657Y0202181D03*
X0190657Y0233677D03*
X0182783Y0233677D03*
X0182783Y0241551D03*
X0190657Y0241551D03*
X0190657Y0249425D03*
X0182783Y0249425D03*
X0182783Y0257299D03*
X0190657Y0257299D03*
X0190657Y0265173D03*
X0182783Y0265173D03*
X0182783Y0273047D03*
X0190657Y0273047D03*
X0190657Y0280921D03*
X0182783Y0280921D03*
X0182783Y0288795D03*
X0190657Y0288795D03*
X0190657Y0296669D03*
X0182783Y0296669D03*
X0182783Y0304543D03*
X0190657Y0304543D03*
X0190657Y0131315D03*
X0190657Y0123441D03*
X0190657Y0115567D03*
X0182783Y0115567D03*
X0182783Y0123441D03*
X0182783Y0131315D03*
X0182783Y0107693D03*
X0190657Y0107693D03*
X0190657Y0099819D03*
X0190657Y0091945D03*
X0182783Y0091945D03*
X0182783Y0099819D03*
X0182783Y0084071D03*
X0190657Y0084071D03*
X0190657Y0076197D03*
X0182783Y0076197D03*
X0182783Y0068323D03*
X0190657Y0068323D03*
X0190657Y0060449D03*
X0182783Y0060449D03*
X0182783Y0052575D03*
X0190657Y0052575D03*
X0190657Y0044701D03*
X0182783Y0044701D03*
X0182783Y0036827D03*
X0190657Y0036827D03*
X0190657Y0028953D03*
X0182783Y0028953D03*
D20*
X0261150Y0089422D02*
X0261150Y0093192D01*
X0266620Y0093192D01*
X0266620Y0089422D01*
X0261150Y0089422D01*
X0261150Y0091037D02*
X0266620Y0091037D01*
X0266620Y0092652D02*
X0261150Y0092652D01*
X0261150Y0095422D02*
X0261150Y0099192D01*
X0266620Y0099192D01*
X0266620Y0095422D01*
X0261150Y0095422D01*
X0261150Y0097037D02*
X0266620Y0097037D01*
X0266620Y0098652D02*
X0261150Y0098652D01*
X0261150Y0262650D02*
X0261150Y0266420D01*
X0266620Y0266420D01*
X0266620Y0262650D01*
X0261150Y0262650D01*
X0261150Y0264265D02*
X0266620Y0264265D01*
X0266620Y0265880D02*
X0261150Y0265880D01*
X0261150Y0268650D02*
X0261150Y0272420D01*
X0266620Y0272420D01*
X0266620Y0268650D01*
X0261150Y0268650D01*
X0261150Y0270265D02*
X0266620Y0270265D01*
X0266620Y0271880D02*
X0261150Y0271880D01*
X0087922Y0272420D02*
X0087922Y0268650D01*
X0087922Y0272420D02*
X0093392Y0272420D01*
X0093392Y0268650D01*
X0087922Y0268650D01*
X0087922Y0270265D02*
X0093392Y0270265D01*
X0093392Y0271880D02*
X0087922Y0271880D01*
X0087922Y0266420D02*
X0087922Y0262650D01*
X0087922Y0266420D02*
X0093392Y0266420D01*
X0093392Y0262650D01*
X0087922Y0262650D01*
X0087922Y0264265D02*
X0093392Y0264265D01*
X0093392Y0265880D02*
X0087922Y0265880D01*
X0087922Y0099192D02*
X0087922Y0095422D01*
X0087922Y0099192D02*
X0093392Y0099192D01*
X0093392Y0095422D01*
X0087922Y0095422D01*
X0087922Y0097037D02*
X0093392Y0097037D01*
X0093392Y0098652D02*
X0087922Y0098652D01*
X0087922Y0093192D02*
X0087922Y0089422D01*
X0087922Y0093192D02*
X0093392Y0093192D01*
X0093392Y0089422D01*
X0087922Y0089422D01*
X0087922Y0091037D02*
X0093392Y0091037D01*
X0093392Y0092652D02*
X0087922Y0092652D01*
D21*
X0090657Y0094307D03*
X0263885Y0094307D03*
X0263885Y0267535D03*
X0090657Y0267535D03*
D22*
X0131602Y0292732D02*
X0136326Y0292732D01*
X0136326Y0300606D02*
X0131602Y0300606D01*
X0150499Y0300606D02*
X0155224Y0300606D01*
X0155224Y0292732D02*
X0150499Y0292732D01*
X0304830Y0292732D02*
X0309555Y0292732D01*
X0309555Y0300606D02*
X0304830Y0300606D01*
X0323728Y0300606D02*
X0328452Y0300606D01*
X0328452Y0292732D02*
X0323728Y0292732D01*
X0323728Y0127378D02*
X0328452Y0127378D01*
X0328452Y0119504D02*
X0323728Y0119504D01*
X0309555Y0119504D02*
X0304830Y0119504D01*
X0304830Y0127378D02*
X0309555Y0127378D01*
X0155224Y0127378D02*
X0150499Y0127378D01*
X0150499Y0119504D02*
X0155224Y0119504D01*
X0136326Y0119504D02*
X0131602Y0119504D01*
X0131602Y0127378D02*
X0136326Y0127378D01*
D23*
X0113571Y0144878D02*
X0112625Y0144878D01*
X0113571Y0144878D02*
X0113571Y0140192D01*
X0112625Y0140192D01*
X0112625Y0144878D01*
X0112625Y0141136D02*
X0113571Y0141136D01*
X0113571Y0142080D02*
X0112625Y0142080D01*
X0112625Y0143024D02*
X0113571Y0143024D01*
X0113571Y0143968D02*
X0112625Y0143968D01*
X0111012Y0144878D02*
X0110066Y0144878D01*
X0111012Y0144878D02*
X0111012Y0140192D01*
X0110066Y0140192D01*
X0110066Y0144878D01*
X0110066Y0141136D02*
X0111012Y0141136D01*
X0111012Y0142080D02*
X0110066Y0142080D01*
X0110066Y0143024D02*
X0111012Y0143024D01*
X0111012Y0143968D02*
X0110066Y0143968D01*
X0108453Y0144878D02*
X0107507Y0144878D01*
X0108453Y0144878D02*
X0108453Y0140192D01*
X0107507Y0140192D01*
X0107507Y0144878D01*
X0107507Y0141136D02*
X0108453Y0141136D01*
X0108453Y0142080D02*
X0107507Y0142080D01*
X0107507Y0143024D02*
X0108453Y0143024D01*
X0108453Y0143968D02*
X0107507Y0143968D01*
X0105894Y0144878D02*
X0104948Y0144878D01*
X0105894Y0144878D02*
X0105894Y0140192D01*
X0104948Y0140192D01*
X0104948Y0144878D01*
X0104948Y0141136D02*
X0105894Y0141136D01*
X0105894Y0142080D02*
X0104948Y0142080D01*
X0104948Y0143024D02*
X0105894Y0143024D01*
X0105894Y0143968D02*
X0104948Y0143968D01*
X0103335Y0144878D02*
X0102389Y0144878D01*
X0103335Y0144878D02*
X0103335Y0140192D01*
X0102389Y0140192D01*
X0102389Y0144878D01*
X0102389Y0141136D02*
X0103335Y0141136D01*
X0103335Y0142080D02*
X0102389Y0142080D01*
X0102389Y0143024D02*
X0103335Y0143024D01*
X0103335Y0143968D02*
X0102389Y0143968D01*
X0087823Y0186315D02*
X0086405Y0186315D01*
X0086405Y0187733D01*
X0087823Y0187733D01*
X0087823Y0186315D01*
X0087823Y0187259D02*
X0086405Y0187259D01*
X0083886Y0186315D02*
X0082468Y0186315D01*
X0082468Y0187733D01*
X0083886Y0187733D01*
X0083886Y0186315D01*
X0083886Y0187259D02*
X0082468Y0187259D01*
X0084436Y0191433D02*
X0085854Y0191433D01*
X0084436Y0191433D02*
X0084436Y0192851D01*
X0085854Y0192851D01*
X0085854Y0191433D01*
X0085854Y0192377D02*
X0084436Y0192377D01*
X0102349Y0257771D02*
X0102349Y0259189D01*
X0103767Y0259189D01*
X0103767Y0257771D01*
X0102349Y0257771D01*
X0102349Y0258715D02*
X0103767Y0258715D01*
X0102349Y0261708D02*
X0102349Y0263126D01*
X0103767Y0263126D01*
X0103767Y0261708D01*
X0102349Y0261708D01*
X0102349Y0262652D02*
X0103767Y0262652D01*
X0107468Y0261158D02*
X0107468Y0259740D01*
X0107468Y0261158D02*
X0108886Y0261158D01*
X0108886Y0259740D01*
X0107468Y0259740D01*
X0107468Y0260684D02*
X0108886Y0260684D01*
X0108453Y0318107D02*
X0107507Y0318107D01*
X0108453Y0318107D02*
X0108453Y0313421D01*
X0107507Y0313421D01*
X0107507Y0318107D01*
X0107507Y0314365D02*
X0108453Y0314365D01*
X0108453Y0315309D02*
X0107507Y0315309D01*
X0107507Y0316253D02*
X0108453Y0316253D01*
X0108453Y0317197D02*
X0107507Y0317197D01*
X0105894Y0318107D02*
X0104948Y0318107D01*
X0105894Y0318107D02*
X0105894Y0313421D01*
X0104948Y0313421D01*
X0104948Y0318107D01*
X0104948Y0314365D02*
X0105894Y0314365D01*
X0105894Y0315309D02*
X0104948Y0315309D01*
X0104948Y0316253D02*
X0105894Y0316253D01*
X0105894Y0317197D02*
X0104948Y0317197D01*
X0103335Y0318107D02*
X0102389Y0318107D01*
X0103335Y0318107D02*
X0103335Y0313421D01*
X0102389Y0313421D01*
X0102389Y0318107D01*
X0102389Y0314365D02*
X0103335Y0314365D01*
X0103335Y0315309D02*
X0102389Y0315309D01*
X0102389Y0316253D02*
X0103335Y0316253D01*
X0103335Y0317197D02*
X0102389Y0317197D01*
X0110066Y0318107D02*
X0111012Y0318107D01*
X0111012Y0313421D01*
X0110066Y0313421D01*
X0110066Y0318107D01*
X0110066Y0314365D02*
X0111012Y0314365D01*
X0111012Y0315309D02*
X0110066Y0315309D01*
X0110066Y0316253D02*
X0111012Y0316253D01*
X0111012Y0317197D02*
X0110066Y0317197D01*
X0112625Y0318107D02*
X0113571Y0318107D01*
X0113571Y0313421D01*
X0112625Y0313421D01*
X0112625Y0318107D01*
X0112625Y0314365D02*
X0113571Y0314365D01*
X0113571Y0315309D02*
X0112625Y0315309D01*
X0112625Y0316253D02*
X0113571Y0316253D01*
X0113571Y0317197D02*
X0112625Y0317197D01*
X0255696Y0186315D02*
X0257114Y0186315D01*
X0255696Y0186315D02*
X0255696Y0187733D01*
X0257114Y0187733D01*
X0257114Y0186315D01*
X0257114Y0187259D02*
X0255696Y0187259D01*
X0259633Y0186315D02*
X0261051Y0186315D01*
X0259633Y0186315D02*
X0259633Y0187733D01*
X0261051Y0187733D01*
X0261051Y0186315D01*
X0261051Y0187259D02*
X0259633Y0187259D01*
X0259082Y0191433D02*
X0257664Y0191433D01*
X0257664Y0192851D01*
X0259082Y0192851D01*
X0259082Y0191433D01*
X0259082Y0192377D02*
X0257664Y0192377D01*
X0275617Y0144878D02*
X0276563Y0144878D01*
X0276563Y0140192D01*
X0275617Y0140192D01*
X0275617Y0144878D01*
X0275617Y0141136D02*
X0276563Y0141136D01*
X0276563Y0142080D02*
X0275617Y0142080D01*
X0275617Y0143024D02*
X0276563Y0143024D01*
X0276563Y0143968D02*
X0275617Y0143968D01*
X0278176Y0144878D02*
X0279122Y0144878D01*
X0279122Y0140192D01*
X0278176Y0140192D01*
X0278176Y0144878D01*
X0278176Y0141136D02*
X0279122Y0141136D01*
X0279122Y0142080D02*
X0278176Y0142080D01*
X0278176Y0143024D02*
X0279122Y0143024D01*
X0279122Y0143968D02*
X0278176Y0143968D01*
X0280735Y0144878D02*
X0281681Y0144878D01*
X0281681Y0140192D01*
X0280735Y0140192D01*
X0280735Y0144878D01*
X0280735Y0141136D02*
X0281681Y0141136D01*
X0281681Y0142080D02*
X0280735Y0142080D01*
X0280735Y0143024D02*
X0281681Y0143024D01*
X0281681Y0143968D02*
X0280735Y0143968D01*
X0283294Y0144878D02*
X0284240Y0144878D01*
X0284240Y0140192D01*
X0283294Y0140192D01*
X0283294Y0144878D01*
X0283294Y0141136D02*
X0284240Y0141136D01*
X0284240Y0142080D02*
X0283294Y0142080D01*
X0283294Y0143024D02*
X0284240Y0143024D01*
X0284240Y0143968D02*
X0283294Y0143968D01*
X0285853Y0144878D02*
X0286799Y0144878D01*
X0286799Y0140192D01*
X0285853Y0140192D01*
X0285853Y0144878D01*
X0285853Y0141136D02*
X0286799Y0141136D01*
X0286799Y0142080D02*
X0285853Y0142080D01*
X0285853Y0143024D02*
X0286799Y0143024D01*
X0286799Y0143968D02*
X0285853Y0143968D01*
X0275578Y0089898D02*
X0275578Y0088480D01*
X0275578Y0089898D02*
X0276996Y0089898D01*
X0276996Y0088480D01*
X0275578Y0088480D01*
X0275578Y0089424D02*
X0276996Y0089424D01*
X0275578Y0085961D02*
X0275578Y0084543D01*
X0275578Y0085961D02*
X0276996Y0085961D01*
X0276996Y0084543D01*
X0275578Y0084543D01*
X0275578Y0085487D02*
X0276996Y0085487D01*
X0280696Y0086511D02*
X0280696Y0087929D01*
X0282114Y0087929D01*
X0282114Y0086511D01*
X0280696Y0086511D01*
X0280696Y0087455D02*
X0282114Y0087455D01*
X0259082Y0018204D02*
X0257664Y0018204D01*
X0257664Y0019622D01*
X0259082Y0019622D01*
X0259082Y0018204D01*
X0259082Y0019148D02*
X0257664Y0019148D01*
X0257114Y0013086D02*
X0255696Y0013086D01*
X0255696Y0014504D01*
X0257114Y0014504D01*
X0257114Y0013086D01*
X0257114Y0014030D02*
X0255696Y0014030D01*
X0259633Y0013086D02*
X0261051Y0013086D01*
X0259633Y0013086D02*
X0259633Y0014504D01*
X0261051Y0014504D01*
X0261051Y0013086D01*
X0261051Y0014030D02*
X0259633Y0014030D01*
X0107468Y0086511D02*
X0107468Y0087929D01*
X0108886Y0087929D01*
X0108886Y0086511D01*
X0107468Y0086511D01*
X0107468Y0087455D02*
X0108886Y0087455D01*
X0102349Y0088480D02*
X0102349Y0089898D01*
X0103767Y0089898D01*
X0103767Y0088480D01*
X0102349Y0088480D01*
X0102349Y0089424D02*
X0103767Y0089424D01*
X0102349Y0085961D02*
X0102349Y0084543D01*
X0102349Y0085961D02*
X0103767Y0085961D01*
X0103767Y0084543D01*
X0102349Y0084543D01*
X0102349Y0085487D02*
X0103767Y0085487D01*
X0085854Y0018204D02*
X0084436Y0018204D01*
X0084436Y0019622D01*
X0085854Y0019622D01*
X0085854Y0018204D01*
X0085854Y0019148D02*
X0084436Y0019148D01*
X0083886Y0013086D02*
X0082468Y0013086D01*
X0082468Y0014504D01*
X0083886Y0014504D01*
X0083886Y0013086D01*
X0083886Y0014030D02*
X0082468Y0014030D01*
X0086405Y0013086D02*
X0087823Y0013086D01*
X0086405Y0013086D02*
X0086405Y0014504D01*
X0087823Y0014504D01*
X0087823Y0013086D01*
X0087823Y0014030D02*
X0086405Y0014030D01*
X0275578Y0257771D02*
X0275578Y0259189D01*
X0276996Y0259189D01*
X0276996Y0257771D01*
X0275578Y0257771D01*
X0275578Y0258715D02*
X0276996Y0258715D01*
X0275578Y0261708D02*
X0275578Y0263126D01*
X0276996Y0263126D01*
X0276996Y0261708D01*
X0275578Y0261708D01*
X0275578Y0262652D02*
X0276996Y0262652D01*
X0280696Y0261158D02*
X0280696Y0259740D01*
X0280696Y0261158D02*
X0282114Y0261158D01*
X0282114Y0259740D01*
X0280696Y0259740D01*
X0280696Y0260684D02*
X0282114Y0260684D01*
X0281681Y0318107D02*
X0280735Y0318107D01*
X0281681Y0318107D02*
X0281681Y0313421D01*
X0280735Y0313421D01*
X0280735Y0318107D01*
X0280735Y0314365D02*
X0281681Y0314365D01*
X0281681Y0315309D02*
X0280735Y0315309D01*
X0280735Y0316253D02*
X0281681Y0316253D01*
X0281681Y0317197D02*
X0280735Y0317197D01*
X0279122Y0318107D02*
X0278176Y0318107D01*
X0279122Y0318107D02*
X0279122Y0313421D01*
X0278176Y0313421D01*
X0278176Y0318107D01*
X0278176Y0314365D02*
X0279122Y0314365D01*
X0279122Y0315309D02*
X0278176Y0315309D01*
X0278176Y0316253D02*
X0279122Y0316253D01*
X0279122Y0317197D02*
X0278176Y0317197D01*
X0276563Y0318107D02*
X0275617Y0318107D01*
X0276563Y0318107D02*
X0276563Y0313421D01*
X0275617Y0313421D01*
X0275617Y0318107D01*
X0275617Y0314365D02*
X0276563Y0314365D01*
X0276563Y0315309D02*
X0275617Y0315309D01*
X0275617Y0316253D02*
X0276563Y0316253D01*
X0276563Y0317197D02*
X0275617Y0317197D01*
X0283294Y0318107D02*
X0284240Y0318107D01*
X0284240Y0313421D01*
X0283294Y0313421D01*
X0283294Y0318107D01*
X0283294Y0314365D02*
X0284240Y0314365D01*
X0284240Y0315309D02*
X0283294Y0315309D01*
X0283294Y0316253D02*
X0284240Y0316253D01*
X0284240Y0317197D02*
X0283294Y0317197D01*
X0285853Y0318107D02*
X0286799Y0318107D01*
X0286799Y0313421D01*
X0285853Y0313421D01*
X0285853Y0318107D01*
X0285853Y0314365D02*
X0286799Y0314365D01*
X0286799Y0315309D02*
X0285853Y0315309D01*
X0285853Y0316253D02*
X0286799Y0316253D01*
X0286799Y0317197D02*
X0285853Y0317197D01*
D24*
X0290933Y0328874D02*
X0297467Y0328874D01*
X0297467Y0323914D01*
X0290933Y0323914D01*
X0290933Y0328874D01*
X0290933Y0326039D02*
X0297467Y0326039D01*
X0297467Y0328164D02*
X0290933Y0328164D01*
X0271483Y0328874D02*
X0264949Y0328874D01*
X0271483Y0328874D02*
X0271483Y0323914D01*
X0264949Y0323914D01*
X0264949Y0328874D01*
X0264949Y0326039D02*
X0271483Y0326039D01*
X0271483Y0328164D02*
X0264949Y0328164D01*
X0124239Y0328874D02*
X0117705Y0328874D01*
X0124239Y0328874D02*
X0124239Y0323914D01*
X0117705Y0323914D01*
X0117705Y0328874D01*
X0117705Y0326039D02*
X0124239Y0326039D01*
X0124239Y0328164D02*
X0117705Y0328164D01*
X0098255Y0328874D02*
X0091721Y0328874D01*
X0098255Y0328874D02*
X0098255Y0323914D01*
X0091721Y0323914D01*
X0091721Y0328874D01*
X0091721Y0326039D02*
X0098255Y0326039D01*
X0098255Y0328164D02*
X0091721Y0328164D01*
X0091721Y0155645D02*
X0098255Y0155645D01*
X0098255Y0150685D01*
X0091721Y0150685D01*
X0091721Y0155645D01*
X0091721Y0152810D02*
X0098255Y0152810D01*
X0098255Y0154935D02*
X0091721Y0154935D01*
X0117705Y0155645D02*
X0124239Y0155645D01*
X0124239Y0150685D01*
X0117705Y0150685D01*
X0117705Y0155645D01*
X0117705Y0152810D02*
X0124239Y0152810D01*
X0124239Y0154935D02*
X0117705Y0154935D01*
X0264949Y0155645D02*
X0271483Y0155645D01*
X0271483Y0150685D01*
X0264949Y0150685D01*
X0264949Y0155645D01*
X0264949Y0152810D02*
X0271483Y0152810D01*
X0271483Y0154935D02*
X0264949Y0154935D01*
X0290933Y0155645D02*
X0297467Y0155645D01*
X0297467Y0150685D01*
X0290933Y0150685D01*
X0290933Y0155645D01*
X0290933Y0152810D02*
X0297467Y0152810D01*
X0297467Y0154935D02*
X0290933Y0154935D01*
D25*
X0294988Y0153756D03*
X0294988Y0152575D03*
X0267429Y0152575D03*
X0267429Y0153756D03*
X0121759Y0153756D03*
X0121759Y0152575D03*
X0094200Y0152575D03*
X0094200Y0153756D03*
X0094200Y0325803D03*
X0094200Y0326984D03*
X0121759Y0326984D03*
X0121759Y0325803D03*
X0267429Y0325803D03*
X0267429Y0326984D03*
X0294988Y0326984D03*
X0294988Y0325803D03*
D26*
X0291051Y0315764D03*
X0271366Y0315764D03*
X0117822Y0315764D03*
X0098137Y0315764D03*
X0098137Y0142535D03*
X0117822Y0142535D03*
X0271366Y0142535D03*
X0291051Y0142535D03*
D27*
X0312704Y0135252D03*
X0202468Y0190370D03*
X0139476Y0135252D03*
X0029240Y0190370D03*
X0139476Y0308480D03*
X0312704Y0308480D03*
X0202468Y0017142D03*
X0029240Y0017142D03*
D28*
X0142152Y0109976D02*
X0145854Y0109976D01*
X0142152Y0109976D02*
X0142152Y0113284D01*
X0145854Y0113284D01*
X0145854Y0109976D01*
X0145854Y0111392D02*
X0142152Y0111392D01*
X0142152Y0112808D02*
X0145854Y0112808D01*
X0148845Y0109976D02*
X0152547Y0109976D01*
X0148845Y0109976D02*
X0148845Y0113284D01*
X0152547Y0113284D01*
X0152547Y0109976D01*
X0152547Y0111392D02*
X0148845Y0111392D01*
X0148845Y0112808D02*
X0152547Y0112808D01*
X0315381Y0109976D02*
X0319083Y0109976D01*
X0315381Y0109976D02*
X0315381Y0113284D01*
X0319083Y0113284D01*
X0319083Y0109976D01*
X0319083Y0111392D02*
X0315381Y0111392D01*
X0315381Y0112808D02*
X0319083Y0112808D01*
X0322074Y0109976D02*
X0325776Y0109976D01*
X0322074Y0109976D02*
X0322074Y0113284D01*
X0325776Y0113284D01*
X0325776Y0109976D01*
X0325776Y0111392D02*
X0322074Y0111392D01*
X0322074Y0112808D02*
X0325776Y0112808D01*
X0325776Y0283204D02*
X0322074Y0283204D01*
X0322074Y0286512D01*
X0325776Y0286512D01*
X0325776Y0283204D01*
X0325776Y0284620D02*
X0322074Y0284620D01*
X0322074Y0286036D02*
X0325776Y0286036D01*
X0319083Y0283204D02*
X0315381Y0283204D01*
X0315381Y0286512D01*
X0319083Y0286512D01*
X0319083Y0283204D01*
X0319083Y0284620D02*
X0315381Y0284620D01*
X0315381Y0286036D02*
X0319083Y0286036D01*
X0152547Y0283204D02*
X0148845Y0283204D01*
X0148845Y0286512D01*
X0152547Y0286512D01*
X0152547Y0283204D01*
X0152547Y0284620D02*
X0148845Y0284620D01*
X0148845Y0286036D02*
X0152547Y0286036D01*
X0145854Y0283204D02*
X0142152Y0283204D01*
X0142152Y0286512D01*
X0145854Y0286512D01*
X0145854Y0283204D01*
X0145854Y0284620D02*
X0142152Y0284620D01*
X0142152Y0286036D02*
X0145854Y0286036D01*
D29*
X0147350Y0320291D03*
X0186720Y0320291D03*
X0186720Y0186433D03*
X0186720Y0147063D03*
X0147350Y0147063D03*
X0147350Y0186433D03*
X0013492Y0186433D03*
X0013492Y0147063D03*
X0013492Y0013205D03*
X0147350Y0013205D03*
X0186720Y0013205D03*
X0320578Y0013205D03*
X0320578Y0147063D03*
X0320578Y0186433D03*
X0320578Y0320291D03*
X0013492Y0320291D03*
D30*
X0108767Y0182496D03*
X0114279Y0182496D03*
X0119791Y0182496D03*
X0125303Y0182496D03*
X0130814Y0182496D03*
X0281995Y0182496D03*
X0287507Y0182496D03*
X0293019Y0182496D03*
X0298531Y0182496D03*
X0304043Y0182496D03*
X0304043Y0009268D03*
X0298531Y0009268D03*
X0293019Y0009268D03*
X0287507Y0009268D03*
X0281995Y0009268D03*
X0130814Y0009268D03*
X0125303Y0009268D03*
X0119791Y0009268D03*
X0114279Y0009268D03*
X0108767Y0009268D03*
M02*
