G75*
%MOIN*%
%OFA0B0*%
%FSLAX25Y25*%
%IPPOS*%
%LPD*%
%AMOC8*
5,1,8,0,0,1.08239X$1,22.5*
%
%ADD10C,0.00000*%
%ADD11C,0.00945*%
%ADD12C,0.01772*%
%ADD13C,0.00827*%
%ADD14C,0.00780*%
%ADD15C,0.00785*%
%ADD16C,0.01535*%
%ADD17C,0.01380*%
%ADD18C,0.00787*%
%ADD19C,0.01890*%
%ADD20C,0.01181*%
D10*
X0001680Y0001394D02*
X0001680Y0158874D01*
X0009555Y0158874D01*
X0009555Y0174622D01*
X0001680Y0174622D01*
X0001680Y0332102D01*
X0025303Y0332102D01*
X0025303Y0313205D01*
X0025305Y0313081D01*
X0025311Y0312958D01*
X0025320Y0312834D01*
X0025334Y0312712D01*
X0025351Y0312589D01*
X0025373Y0312467D01*
X0025398Y0312346D01*
X0025427Y0312226D01*
X0025459Y0312107D01*
X0025496Y0311988D01*
X0025536Y0311871D01*
X0025579Y0311756D01*
X0025627Y0311641D01*
X0025678Y0311529D01*
X0025732Y0311418D01*
X0025790Y0311308D01*
X0025851Y0311201D01*
X0025916Y0311095D01*
X0025984Y0310992D01*
X0026055Y0310891D01*
X0026129Y0310792D01*
X0026206Y0310695D01*
X0026287Y0310601D01*
X0026370Y0310510D01*
X0026456Y0310421D01*
X0026545Y0310335D01*
X0026636Y0310252D01*
X0026730Y0310171D01*
X0026827Y0310094D01*
X0026926Y0310020D01*
X0027027Y0309949D01*
X0027130Y0309881D01*
X0027236Y0309816D01*
X0027343Y0309755D01*
X0027453Y0309697D01*
X0027564Y0309643D01*
X0027676Y0309592D01*
X0027791Y0309544D01*
X0027906Y0309501D01*
X0028023Y0309461D01*
X0028142Y0309424D01*
X0028261Y0309392D01*
X0028381Y0309363D01*
X0028502Y0309338D01*
X0028624Y0309316D01*
X0028747Y0309299D01*
X0028869Y0309285D01*
X0028993Y0309276D01*
X0029116Y0309270D01*
X0029240Y0309268D01*
X0084358Y0309268D01*
X0084482Y0309270D01*
X0084605Y0309276D01*
X0084729Y0309285D01*
X0084851Y0309299D01*
X0084974Y0309316D01*
X0085096Y0309338D01*
X0085217Y0309363D01*
X0085337Y0309392D01*
X0085456Y0309424D01*
X0085575Y0309461D01*
X0085692Y0309501D01*
X0085807Y0309544D01*
X0085922Y0309592D01*
X0086034Y0309643D01*
X0086145Y0309697D01*
X0086255Y0309755D01*
X0086362Y0309816D01*
X0086468Y0309881D01*
X0086571Y0309949D01*
X0086672Y0310020D01*
X0086771Y0310094D01*
X0086868Y0310171D01*
X0086962Y0310252D01*
X0087053Y0310335D01*
X0087142Y0310421D01*
X0087228Y0310510D01*
X0087311Y0310601D01*
X0087392Y0310695D01*
X0087469Y0310792D01*
X0087543Y0310891D01*
X0087614Y0310992D01*
X0087682Y0311095D01*
X0087747Y0311201D01*
X0087808Y0311308D01*
X0087866Y0311418D01*
X0087920Y0311529D01*
X0087971Y0311641D01*
X0088019Y0311756D01*
X0088062Y0311871D01*
X0088102Y0311988D01*
X0088139Y0312107D01*
X0088171Y0312226D01*
X0088200Y0312346D01*
X0088225Y0312467D01*
X0088247Y0312589D01*
X0088264Y0312712D01*
X0088278Y0312834D01*
X0088287Y0312958D01*
X0088293Y0313081D01*
X0088295Y0313205D01*
X0088295Y0332102D01*
X0127665Y0332102D01*
X0127665Y0313205D01*
X0127667Y0313081D01*
X0127673Y0312958D01*
X0127682Y0312834D01*
X0127696Y0312712D01*
X0127713Y0312589D01*
X0127735Y0312467D01*
X0127760Y0312346D01*
X0127789Y0312226D01*
X0127821Y0312107D01*
X0127858Y0311988D01*
X0127898Y0311871D01*
X0127941Y0311756D01*
X0127989Y0311641D01*
X0128040Y0311529D01*
X0128094Y0311418D01*
X0128152Y0311308D01*
X0128213Y0311201D01*
X0128278Y0311095D01*
X0128346Y0310992D01*
X0128417Y0310891D01*
X0128491Y0310792D01*
X0128568Y0310695D01*
X0128649Y0310601D01*
X0128732Y0310510D01*
X0128818Y0310421D01*
X0128907Y0310335D01*
X0128998Y0310252D01*
X0129092Y0310171D01*
X0129189Y0310094D01*
X0129288Y0310020D01*
X0129389Y0309949D01*
X0129492Y0309881D01*
X0129598Y0309816D01*
X0129705Y0309755D01*
X0129815Y0309697D01*
X0129926Y0309643D01*
X0130038Y0309592D01*
X0130153Y0309544D01*
X0130268Y0309501D01*
X0130385Y0309461D01*
X0130504Y0309424D01*
X0130623Y0309392D01*
X0130743Y0309363D01*
X0130864Y0309338D01*
X0130986Y0309316D01*
X0131109Y0309299D01*
X0131231Y0309285D01*
X0131355Y0309276D01*
X0131478Y0309270D01*
X0131602Y0309268D01*
X0131726Y0309270D01*
X0131849Y0309276D01*
X0131973Y0309285D01*
X0132095Y0309299D01*
X0132218Y0309316D01*
X0132340Y0309338D01*
X0132461Y0309363D01*
X0132581Y0309392D01*
X0132700Y0309424D01*
X0132819Y0309461D01*
X0132936Y0309501D01*
X0133051Y0309544D01*
X0133166Y0309592D01*
X0133278Y0309643D01*
X0133389Y0309697D01*
X0133499Y0309755D01*
X0133606Y0309816D01*
X0133712Y0309881D01*
X0133815Y0309949D01*
X0133916Y0310020D01*
X0134015Y0310094D01*
X0134112Y0310171D01*
X0134206Y0310252D01*
X0134297Y0310335D01*
X0134386Y0310421D01*
X0134472Y0310510D01*
X0134555Y0310601D01*
X0134636Y0310695D01*
X0134713Y0310792D01*
X0134787Y0310891D01*
X0134858Y0310992D01*
X0134926Y0311095D01*
X0134991Y0311201D01*
X0135052Y0311308D01*
X0135110Y0311418D01*
X0135164Y0311529D01*
X0135215Y0311641D01*
X0135263Y0311756D01*
X0135306Y0311871D01*
X0135346Y0311988D01*
X0135383Y0312107D01*
X0135415Y0312226D01*
X0135444Y0312346D01*
X0135469Y0312467D01*
X0135491Y0312589D01*
X0135508Y0312712D01*
X0135522Y0312834D01*
X0135531Y0312958D01*
X0135537Y0313081D01*
X0135539Y0313205D01*
X0135539Y0332102D01*
X0159161Y0332102D01*
X0159161Y0324228D01*
X0174909Y0324228D01*
X0174909Y0332102D01*
X0198531Y0332102D01*
X0198531Y0313205D01*
X0198533Y0313081D01*
X0198539Y0312958D01*
X0198548Y0312834D01*
X0198562Y0312712D01*
X0198579Y0312589D01*
X0198601Y0312467D01*
X0198626Y0312346D01*
X0198655Y0312226D01*
X0198687Y0312107D01*
X0198724Y0311988D01*
X0198764Y0311871D01*
X0198807Y0311756D01*
X0198855Y0311641D01*
X0198906Y0311529D01*
X0198960Y0311418D01*
X0199018Y0311308D01*
X0199079Y0311201D01*
X0199144Y0311095D01*
X0199212Y0310992D01*
X0199283Y0310891D01*
X0199357Y0310792D01*
X0199434Y0310695D01*
X0199515Y0310601D01*
X0199598Y0310510D01*
X0199684Y0310421D01*
X0199773Y0310335D01*
X0199864Y0310252D01*
X0199958Y0310171D01*
X0200055Y0310094D01*
X0200154Y0310020D01*
X0200255Y0309949D01*
X0200358Y0309881D01*
X0200464Y0309816D01*
X0200571Y0309755D01*
X0200681Y0309697D01*
X0200792Y0309643D01*
X0200904Y0309592D01*
X0201019Y0309544D01*
X0201134Y0309501D01*
X0201251Y0309461D01*
X0201370Y0309424D01*
X0201489Y0309392D01*
X0201609Y0309363D01*
X0201730Y0309338D01*
X0201852Y0309316D01*
X0201975Y0309299D01*
X0202097Y0309285D01*
X0202221Y0309276D01*
X0202344Y0309270D01*
X0202468Y0309268D01*
X0257586Y0309268D01*
X0257710Y0309270D01*
X0257833Y0309276D01*
X0257957Y0309285D01*
X0258079Y0309299D01*
X0258202Y0309316D01*
X0258324Y0309338D01*
X0258445Y0309363D01*
X0258565Y0309392D01*
X0258684Y0309424D01*
X0258803Y0309461D01*
X0258920Y0309501D01*
X0259035Y0309544D01*
X0259150Y0309592D01*
X0259262Y0309643D01*
X0259373Y0309697D01*
X0259483Y0309755D01*
X0259590Y0309816D01*
X0259696Y0309881D01*
X0259799Y0309949D01*
X0259900Y0310020D01*
X0259999Y0310094D01*
X0260096Y0310171D01*
X0260190Y0310252D01*
X0260281Y0310335D01*
X0260370Y0310421D01*
X0260456Y0310510D01*
X0260539Y0310601D01*
X0260620Y0310695D01*
X0260697Y0310792D01*
X0260771Y0310891D01*
X0260842Y0310992D01*
X0260910Y0311095D01*
X0260975Y0311201D01*
X0261036Y0311308D01*
X0261094Y0311418D01*
X0261148Y0311529D01*
X0261199Y0311641D01*
X0261247Y0311756D01*
X0261290Y0311871D01*
X0261330Y0311988D01*
X0261367Y0312107D01*
X0261399Y0312226D01*
X0261428Y0312346D01*
X0261453Y0312467D01*
X0261475Y0312589D01*
X0261492Y0312712D01*
X0261506Y0312834D01*
X0261515Y0312958D01*
X0261521Y0313081D01*
X0261523Y0313205D01*
X0261523Y0332102D01*
X0300893Y0332102D01*
X0300893Y0313205D01*
X0300895Y0313081D01*
X0300901Y0312958D01*
X0300910Y0312834D01*
X0300924Y0312712D01*
X0300941Y0312589D01*
X0300963Y0312467D01*
X0300988Y0312346D01*
X0301017Y0312226D01*
X0301049Y0312107D01*
X0301086Y0311988D01*
X0301126Y0311871D01*
X0301169Y0311756D01*
X0301217Y0311641D01*
X0301268Y0311529D01*
X0301322Y0311418D01*
X0301380Y0311308D01*
X0301441Y0311201D01*
X0301506Y0311095D01*
X0301574Y0310992D01*
X0301645Y0310891D01*
X0301719Y0310792D01*
X0301796Y0310695D01*
X0301877Y0310601D01*
X0301960Y0310510D01*
X0302046Y0310421D01*
X0302135Y0310335D01*
X0302226Y0310252D01*
X0302320Y0310171D01*
X0302417Y0310094D01*
X0302516Y0310020D01*
X0302617Y0309949D01*
X0302720Y0309881D01*
X0302826Y0309816D01*
X0302933Y0309755D01*
X0303043Y0309697D01*
X0303154Y0309643D01*
X0303266Y0309592D01*
X0303381Y0309544D01*
X0303496Y0309501D01*
X0303613Y0309461D01*
X0303732Y0309424D01*
X0303851Y0309392D01*
X0303971Y0309363D01*
X0304092Y0309338D01*
X0304214Y0309316D01*
X0304337Y0309299D01*
X0304459Y0309285D01*
X0304583Y0309276D01*
X0304706Y0309270D01*
X0304830Y0309268D01*
X0304954Y0309270D01*
X0305077Y0309276D01*
X0305201Y0309285D01*
X0305323Y0309299D01*
X0305446Y0309316D01*
X0305568Y0309338D01*
X0305689Y0309363D01*
X0305809Y0309392D01*
X0305928Y0309424D01*
X0306047Y0309461D01*
X0306164Y0309501D01*
X0306279Y0309544D01*
X0306394Y0309592D01*
X0306506Y0309643D01*
X0306617Y0309697D01*
X0306727Y0309755D01*
X0306834Y0309816D01*
X0306940Y0309881D01*
X0307043Y0309949D01*
X0307144Y0310020D01*
X0307243Y0310094D01*
X0307340Y0310171D01*
X0307434Y0310252D01*
X0307525Y0310335D01*
X0307614Y0310421D01*
X0307700Y0310510D01*
X0307783Y0310601D01*
X0307864Y0310695D01*
X0307941Y0310792D01*
X0308015Y0310891D01*
X0308086Y0310992D01*
X0308154Y0311095D01*
X0308219Y0311201D01*
X0308280Y0311308D01*
X0308338Y0311418D01*
X0308392Y0311529D01*
X0308443Y0311641D01*
X0308491Y0311756D01*
X0308534Y0311871D01*
X0308574Y0311988D01*
X0308611Y0312107D01*
X0308643Y0312226D01*
X0308672Y0312346D01*
X0308697Y0312467D01*
X0308719Y0312589D01*
X0308736Y0312712D01*
X0308750Y0312834D01*
X0308759Y0312958D01*
X0308765Y0313081D01*
X0308767Y0313205D01*
X0308767Y0332102D01*
X0332389Y0332102D01*
X0332389Y0174622D01*
X0324515Y0174622D01*
X0324515Y0158874D01*
X0332389Y0158874D01*
X0332389Y0001394D01*
X0174909Y0001394D01*
X0174909Y0009268D01*
X0159161Y0009268D01*
X0159161Y0001394D01*
X0001680Y0001394D01*
X0041444Y0111630D02*
X0041446Y0111709D01*
X0041452Y0111788D01*
X0041462Y0111867D01*
X0041476Y0111945D01*
X0041493Y0112022D01*
X0041515Y0112098D01*
X0041540Y0112173D01*
X0041570Y0112246D01*
X0041602Y0112318D01*
X0041639Y0112389D01*
X0041679Y0112457D01*
X0041722Y0112523D01*
X0041768Y0112587D01*
X0041818Y0112649D01*
X0041871Y0112708D01*
X0041926Y0112764D01*
X0041985Y0112818D01*
X0042046Y0112868D01*
X0042109Y0112916D01*
X0042175Y0112960D01*
X0042243Y0113001D01*
X0042313Y0113038D01*
X0042384Y0113072D01*
X0042458Y0113102D01*
X0042532Y0113128D01*
X0042608Y0113150D01*
X0042685Y0113169D01*
X0042763Y0113184D01*
X0042841Y0113195D01*
X0042920Y0113202D01*
X0042999Y0113205D01*
X0043078Y0113204D01*
X0043157Y0113199D01*
X0043236Y0113190D01*
X0043314Y0113177D01*
X0043391Y0113160D01*
X0043468Y0113140D01*
X0043543Y0113115D01*
X0043617Y0113087D01*
X0043690Y0113055D01*
X0043760Y0113020D01*
X0043829Y0112981D01*
X0043896Y0112938D01*
X0043961Y0112892D01*
X0044023Y0112844D01*
X0044083Y0112792D01*
X0044140Y0112737D01*
X0044194Y0112679D01*
X0044245Y0112619D01*
X0044293Y0112556D01*
X0044338Y0112491D01*
X0044380Y0112423D01*
X0044418Y0112354D01*
X0044452Y0112283D01*
X0044483Y0112210D01*
X0044511Y0112135D01*
X0044534Y0112060D01*
X0044554Y0111983D01*
X0044570Y0111906D01*
X0044582Y0111827D01*
X0044590Y0111749D01*
X0044594Y0111670D01*
X0044594Y0111590D01*
X0044590Y0111511D01*
X0044582Y0111433D01*
X0044570Y0111354D01*
X0044554Y0111277D01*
X0044534Y0111200D01*
X0044511Y0111125D01*
X0044483Y0111050D01*
X0044452Y0110977D01*
X0044418Y0110906D01*
X0044380Y0110837D01*
X0044338Y0110769D01*
X0044293Y0110704D01*
X0044245Y0110641D01*
X0044194Y0110581D01*
X0044140Y0110523D01*
X0044083Y0110468D01*
X0044023Y0110416D01*
X0043961Y0110368D01*
X0043896Y0110322D01*
X0043829Y0110279D01*
X0043760Y0110240D01*
X0043690Y0110205D01*
X0043617Y0110173D01*
X0043543Y0110145D01*
X0043468Y0110120D01*
X0043391Y0110100D01*
X0043314Y0110083D01*
X0043236Y0110070D01*
X0043157Y0110061D01*
X0043078Y0110056D01*
X0042999Y0110055D01*
X0042920Y0110058D01*
X0042841Y0110065D01*
X0042763Y0110076D01*
X0042685Y0110091D01*
X0042608Y0110110D01*
X0042532Y0110132D01*
X0042458Y0110158D01*
X0042384Y0110188D01*
X0042313Y0110222D01*
X0042243Y0110259D01*
X0042175Y0110300D01*
X0042109Y0110344D01*
X0042046Y0110392D01*
X0041985Y0110442D01*
X0041926Y0110496D01*
X0041871Y0110552D01*
X0041818Y0110611D01*
X0041768Y0110673D01*
X0041722Y0110737D01*
X0041679Y0110803D01*
X0041639Y0110871D01*
X0041602Y0110942D01*
X0041570Y0111014D01*
X0041540Y0111087D01*
X0041515Y0111162D01*
X0041493Y0111238D01*
X0041476Y0111315D01*
X0041462Y0111393D01*
X0041452Y0111472D01*
X0041446Y0111551D01*
X0041444Y0111630D01*
X0029240Y0136039D02*
X0084358Y0136039D01*
X0084482Y0136041D01*
X0084605Y0136047D01*
X0084729Y0136056D01*
X0084851Y0136070D01*
X0084974Y0136087D01*
X0085096Y0136109D01*
X0085217Y0136134D01*
X0085337Y0136163D01*
X0085456Y0136195D01*
X0085575Y0136232D01*
X0085692Y0136272D01*
X0085807Y0136315D01*
X0085922Y0136363D01*
X0086034Y0136414D01*
X0086145Y0136468D01*
X0086255Y0136526D01*
X0086362Y0136587D01*
X0086468Y0136652D01*
X0086571Y0136720D01*
X0086672Y0136791D01*
X0086771Y0136865D01*
X0086868Y0136942D01*
X0086962Y0137023D01*
X0087053Y0137106D01*
X0087142Y0137192D01*
X0087228Y0137281D01*
X0087311Y0137372D01*
X0087392Y0137466D01*
X0087469Y0137563D01*
X0087543Y0137662D01*
X0087614Y0137763D01*
X0087682Y0137866D01*
X0087747Y0137972D01*
X0087808Y0138079D01*
X0087866Y0138189D01*
X0087920Y0138300D01*
X0087971Y0138412D01*
X0088019Y0138527D01*
X0088062Y0138642D01*
X0088102Y0138759D01*
X0088139Y0138878D01*
X0088171Y0138997D01*
X0088200Y0139117D01*
X0088225Y0139238D01*
X0088247Y0139360D01*
X0088264Y0139483D01*
X0088278Y0139605D01*
X0088287Y0139729D01*
X0088293Y0139852D01*
X0088295Y0139976D01*
X0088295Y0158874D01*
X0127665Y0158874D01*
X0127665Y0139976D01*
X0127667Y0139852D01*
X0127673Y0139729D01*
X0127682Y0139605D01*
X0127696Y0139483D01*
X0127713Y0139360D01*
X0127735Y0139238D01*
X0127760Y0139117D01*
X0127789Y0138997D01*
X0127821Y0138878D01*
X0127858Y0138759D01*
X0127898Y0138642D01*
X0127941Y0138527D01*
X0127989Y0138412D01*
X0128040Y0138300D01*
X0128094Y0138189D01*
X0128152Y0138079D01*
X0128213Y0137972D01*
X0128278Y0137866D01*
X0128346Y0137763D01*
X0128417Y0137662D01*
X0128491Y0137563D01*
X0128568Y0137466D01*
X0128649Y0137372D01*
X0128732Y0137281D01*
X0128818Y0137192D01*
X0128907Y0137106D01*
X0128998Y0137023D01*
X0129092Y0136942D01*
X0129189Y0136865D01*
X0129288Y0136791D01*
X0129389Y0136720D01*
X0129492Y0136652D01*
X0129598Y0136587D01*
X0129705Y0136526D01*
X0129815Y0136468D01*
X0129926Y0136414D01*
X0130038Y0136363D01*
X0130153Y0136315D01*
X0130268Y0136272D01*
X0130385Y0136232D01*
X0130504Y0136195D01*
X0130623Y0136163D01*
X0130743Y0136134D01*
X0130864Y0136109D01*
X0130986Y0136087D01*
X0131109Y0136070D01*
X0131231Y0136056D01*
X0131355Y0136047D01*
X0131478Y0136041D01*
X0131602Y0136039D01*
X0131726Y0136041D01*
X0131849Y0136047D01*
X0131973Y0136056D01*
X0132095Y0136070D01*
X0132218Y0136087D01*
X0132340Y0136109D01*
X0132461Y0136134D01*
X0132581Y0136163D01*
X0132700Y0136195D01*
X0132819Y0136232D01*
X0132936Y0136272D01*
X0133051Y0136315D01*
X0133166Y0136363D01*
X0133278Y0136414D01*
X0133389Y0136468D01*
X0133499Y0136526D01*
X0133606Y0136587D01*
X0133712Y0136652D01*
X0133815Y0136720D01*
X0133916Y0136791D01*
X0134015Y0136865D01*
X0134112Y0136942D01*
X0134206Y0137023D01*
X0134297Y0137106D01*
X0134386Y0137192D01*
X0134472Y0137281D01*
X0134555Y0137372D01*
X0134636Y0137466D01*
X0134713Y0137563D01*
X0134787Y0137662D01*
X0134858Y0137763D01*
X0134926Y0137866D01*
X0134991Y0137972D01*
X0135052Y0138079D01*
X0135110Y0138189D01*
X0135164Y0138300D01*
X0135215Y0138412D01*
X0135263Y0138527D01*
X0135306Y0138642D01*
X0135346Y0138759D01*
X0135383Y0138878D01*
X0135415Y0138997D01*
X0135444Y0139117D01*
X0135469Y0139238D01*
X0135491Y0139360D01*
X0135508Y0139483D01*
X0135522Y0139605D01*
X0135531Y0139729D01*
X0135537Y0139852D01*
X0135539Y0139976D01*
X0135539Y0158874D01*
X0143413Y0158874D01*
X0143413Y0174622D01*
X0017429Y0174622D01*
X0017429Y0158874D01*
X0025303Y0158874D01*
X0025303Y0139976D01*
X0025305Y0139852D01*
X0025311Y0139729D01*
X0025320Y0139605D01*
X0025334Y0139483D01*
X0025351Y0139360D01*
X0025373Y0139238D01*
X0025398Y0139117D01*
X0025427Y0138997D01*
X0025459Y0138878D01*
X0025496Y0138759D01*
X0025536Y0138642D01*
X0025579Y0138527D01*
X0025627Y0138412D01*
X0025678Y0138300D01*
X0025732Y0138189D01*
X0025790Y0138079D01*
X0025851Y0137972D01*
X0025916Y0137866D01*
X0025984Y0137763D01*
X0026055Y0137662D01*
X0026129Y0137563D01*
X0026206Y0137466D01*
X0026287Y0137372D01*
X0026370Y0137281D01*
X0026456Y0137192D01*
X0026545Y0137106D01*
X0026636Y0137023D01*
X0026730Y0136942D01*
X0026827Y0136865D01*
X0026926Y0136791D01*
X0027027Y0136720D01*
X0027130Y0136652D01*
X0027236Y0136587D01*
X0027343Y0136526D01*
X0027453Y0136468D01*
X0027564Y0136414D01*
X0027676Y0136363D01*
X0027791Y0136315D01*
X0027906Y0136272D01*
X0028023Y0136232D01*
X0028142Y0136195D01*
X0028261Y0136163D01*
X0028381Y0136134D01*
X0028502Y0136109D01*
X0028624Y0136087D01*
X0028747Y0136070D01*
X0028869Y0136056D01*
X0028993Y0136047D01*
X0029116Y0136041D01*
X0029240Y0136039D01*
X0151287Y0158874D02*
X0151287Y0174622D01*
X0159161Y0174622D01*
X0159161Y0182496D01*
X0174909Y0182496D01*
X0174909Y0174622D01*
X0182783Y0174622D01*
X0182783Y0158874D01*
X0174909Y0158874D01*
X0174909Y0151000D01*
X0159161Y0151000D01*
X0159161Y0158874D01*
X0151287Y0158874D01*
X0159161Y0143126D02*
X0174909Y0143126D01*
X0174909Y0017142D01*
X0159161Y0017142D01*
X0159161Y0143126D01*
X0190657Y0158874D02*
X0190657Y0174622D01*
X0316641Y0174622D01*
X0316641Y0158874D01*
X0308767Y0158874D01*
X0308767Y0139976D01*
X0304830Y0136039D02*
X0304706Y0136041D01*
X0304583Y0136047D01*
X0304459Y0136056D01*
X0304337Y0136070D01*
X0304214Y0136087D01*
X0304092Y0136109D01*
X0303971Y0136134D01*
X0303851Y0136163D01*
X0303732Y0136195D01*
X0303613Y0136232D01*
X0303496Y0136272D01*
X0303381Y0136315D01*
X0303266Y0136363D01*
X0303154Y0136414D01*
X0303043Y0136468D01*
X0302933Y0136526D01*
X0302826Y0136587D01*
X0302720Y0136652D01*
X0302617Y0136720D01*
X0302516Y0136791D01*
X0302417Y0136865D01*
X0302320Y0136942D01*
X0302226Y0137023D01*
X0302135Y0137106D01*
X0302046Y0137192D01*
X0301960Y0137281D01*
X0301877Y0137372D01*
X0301796Y0137466D01*
X0301719Y0137563D01*
X0301645Y0137662D01*
X0301574Y0137763D01*
X0301506Y0137866D01*
X0301441Y0137972D01*
X0301380Y0138079D01*
X0301322Y0138189D01*
X0301268Y0138300D01*
X0301217Y0138412D01*
X0301169Y0138527D01*
X0301126Y0138642D01*
X0301086Y0138759D01*
X0301049Y0138878D01*
X0301017Y0138997D01*
X0300988Y0139117D01*
X0300963Y0139238D01*
X0300941Y0139360D01*
X0300924Y0139483D01*
X0300910Y0139605D01*
X0300901Y0139729D01*
X0300895Y0139852D01*
X0300893Y0139976D01*
X0300893Y0158874D01*
X0261523Y0158874D01*
X0261523Y0139976D01*
X0261521Y0139852D01*
X0261515Y0139729D01*
X0261506Y0139605D01*
X0261492Y0139483D01*
X0261475Y0139360D01*
X0261453Y0139238D01*
X0261428Y0139117D01*
X0261399Y0138997D01*
X0261367Y0138878D01*
X0261330Y0138759D01*
X0261290Y0138642D01*
X0261247Y0138527D01*
X0261199Y0138412D01*
X0261148Y0138300D01*
X0261094Y0138189D01*
X0261036Y0138079D01*
X0260975Y0137972D01*
X0260910Y0137866D01*
X0260842Y0137763D01*
X0260771Y0137662D01*
X0260697Y0137563D01*
X0260620Y0137466D01*
X0260539Y0137372D01*
X0260456Y0137281D01*
X0260370Y0137192D01*
X0260281Y0137106D01*
X0260190Y0137023D01*
X0260096Y0136942D01*
X0259999Y0136865D01*
X0259900Y0136791D01*
X0259799Y0136720D01*
X0259696Y0136652D01*
X0259590Y0136587D01*
X0259483Y0136526D01*
X0259373Y0136468D01*
X0259262Y0136414D01*
X0259150Y0136363D01*
X0259035Y0136315D01*
X0258920Y0136272D01*
X0258803Y0136232D01*
X0258684Y0136195D01*
X0258565Y0136163D01*
X0258445Y0136134D01*
X0258324Y0136109D01*
X0258202Y0136087D01*
X0258079Y0136070D01*
X0257957Y0136056D01*
X0257833Y0136047D01*
X0257710Y0136041D01*
X0257586Y0136039D01*
X0202468Y0136039D01*
X0202344Y0136041D01*
X0202221Y0136047D01*
X0202097Y0136056D01*
X0201975Y0136070D01*
X0201852Y0136087D01*
X0201730Y0136109D01*
X0201609Y0136134D01*
X0201489Y0136163D01*
X0201370Y0136195D01*
X0201251Y0136232D01*
X0201134Y0136272D01*
X0201019Y0136315D01*
X0200904Y0136363D01*
X0200792Y0136414D01*
X0200681Y0136468D01*
X0200571Y0136526D01*
X0200464Y0136587D01*
X0200358Y0136652D01*
X0200255Y0136720D01*
X0200154Y0136791D01*
X0200055Y0136865D01*
X0199958Y0136942D01*
X0199864Y0137023D01*
X0199773Y0137106D01*
X0199684Y0137192D01*
X0199598Y0137281D01*
X0199515Y0137372D01*
X0199434Y0137466D01*
X0199357Y0137563D01*
X0199283Y0137662D01*
X0199212Y0137763D01*
X0199144Y0137866D01*
X0199079Y0137972D01*
X0199018Y0138079D01*
X0198960Y0138189D01*
X0198906Y0138300D01*
X0198855Y0138412D01*
X0198807Y0138527D01*
X0198764Y0138642D01*
X0198724Y0138759D01*
X0198687Y0138878D01*
X0198655Y0138997D01*
X0198626Y0139117D01*
X0198601Y0139238D01*
X0198579Y0139360D01*
X0198562Y0139483D01*
X0198548Y0139605D01*
X0198539Y0139729D01*
X0198533Y0139852D01*
X0198531Y0139976D01*
X0198531Y0158874D01*
X0190657Y0158874D01*
X0174909Y0190370D02*
X0159161Y0190370D01*
X0159161Y0316354D01*
X0174909Y0316354D01*
X0174909Y0190370D01*
X0214672Y0111630D02*
X0214674Y0111709D01*
X0214680Y0111788D01*
X0214690Y0111867D01*
X0214704Y0111945D01*
X0214721Y0112022D01*
X0214743Y0112098D01*
X0214768Y0112173D01*
X0214798Y0112246D01*
X0214830Y0112318D01*
X0214867Y0112389D01*
X0214907Y0112457D01*
X0214950Y0112523D01*
X0214996Y0112587D01*
X0215046Y0112649D01*
X0215099Y0112708D01*
X0215154Y0112764D01*
X0215213Y0112818D01*
X0215274Y0112868D01*
X0215337Y0112916D01*
X0215403Y0112960D01*
X0215471Y0113001D01*
X0215541Y0113038D01*
X0215612Y0113072D01*
X0215686Y0113102D01*
X0215760Y0113128D01*
X0215836Y0113150D01*
X0215913Y0113169D01*
X0215991Y0113184D01*
X0216069Y0113195D01*
X0216148Y0113202D01*
X0216227Y0113205D01*
X0216306Y0113204D01*
X0216385Y0113199D01*
X0216464Y0113190D01*
X0216542Y0113177D01*
X0216619Y0113160D01*
X0216696Y0113140D01*
X0216771Y0113115D01*
X0216845Y0113087D01*
X0216918Y0113055D01*
X0216988Y0113020D01*
X0217057Y0112981D01*
X0217124Y0112938D01*
X0217189Y0112892D01*
X0217251Y0112844D01*
X0217311Y0112792D01*
X0217368Y0112737D01*
X0217422Y0112679D01*
X0217473Y0112619D01*
X0217521Y0112556D01*
X0217566Y0112491D01*
X0217608Y0112423D01*
X0217646Y0112354D01*
X0217680Y0112283D01*
X0217711Y0112210D01*
X0217739Y0112135D01*
X0217762Y0112060D01*
X0217782Y0111983D01*
X0217798Y0111906D01*
X0217810Y0111827D01*
X0217818Y0111749D01*
X0217822Y0111670D01*
X0217822Y0111590D01*
X0217818Y0111511D01*
X0217810Y0111433D01*
X0217798Y0111354D01*
X0217782Y0111277D01*
X0217762Y0111200D01*
X0217739Y0111125D01*
X0217711Y0111050D01*
X0217680Y0110977D01*
X0217646Y0110906D01*
X0217608Y0110837D01*
X0217566Y0110769D01*
X0217521Y0110704D01*
X0217473Y0110641D01*
X0217422Y0110581D01*
X0217368Y0110523D01*
X0217311Y0110468D01*
X0217251Y0110416D01*
X0217189Y0110368D01*
X0217124Y0110322D01*
X0217057Y0110279D01*
X0216988Y0110240D01*
X0216918Y0110205D01*
X0216845Y0110173D01*
X0216771Y0110145D01*
X0216696Y0110120D01*
X0216619Y0110100D01*
X0216542Y0110083D01*
X0216464Y0110070D01*
X0216385Y0110061D01*
X0216306Y0110056D01*
X0216227Y0110055D01*
X0216148Y0110058D01*
X0216069Y0110065D01*
X0215991Y0110076D01*
X0215913Y0110091D01*
X0215836Y0110110D01*
X0215760Y0110132D01*
X0215686Y0110158D01*
X0215612Y0110188D01*
X0215541Y0110222D01*
X0215471Y0110259D01*
X0215403Y0110300D01*
X0215337Y0110344D01*
X0215274Y0110392D01*
X0215213Y0110442D01*
X0215154Y0110496D01*
X0215099Y0110552D01*
X0215046Y0110611D01*
X0214996Y0110673D01*
X0214950Y0110737D01*
X0214907Y0110803D01*
X0214867Y0110871D01*
X0214830Y0110942D01*
X0214798Y0111014D01*
X0214768Y0111087D01*
X0214743Y0111162D01*
X0214721Y0111238D01*
X0214704Y0111315D01*
X0214690Y0111393D01*
X0214680Y0111472D01*
X0214674Y0111551D01*
X0214672Y0111630D01*
X0304830Y0136039D02*
X0304954Y0136041D01*
X0305077Y0136047D01*
X0305201Y0136056D01*
X0305323Y0136070D01*
X0305446Y0136087D01*
X0305568Y0136109D01*
X0305689Y0136134D01*
X0305809Y0136163D01*
X0305928Y0136195D01*
X0306047Y0136232D01*
X0306164Y0136272D01*
X0306279Y0136315D01*
X0306394Y0136363D01*
X0306506Y0136414D01*
X0306617Y0136468D01*
X0306727Y0136526D01*
X0306834Y0136587D01*
X0306940Y0136652D01*
X0307043Y0136720D01*
X0307144Y0136791D01*
X0307243Y0136865D01*
X0307340Y0136942D01*
X0307434Y0137023D01*
X0307525Y0137106D01*
X0307614Y0137192D01*
X0307700Y0137281D01*
X0307783Y0137372D01*
X0307864Y0137466D01*
X0307941Y0137563D01*
X0308015Y0137662D01*
X0308086Y0137763D01*
X0308154Y0137866D01*
X0308219Y0137972D01*
X0308280Y0138079D01*
X0308338Y0138189D01*
X0308392Y0138300D01*
X0308443Y0138412D01*
X0308491Y0138527D01*
X0308534Y0138642D01*
X0308574Y0138759D01*
X0308611Y0138878D01*
X0308643Y0138997D01*
X0308672Y0139117D01*
X0308697Y0139238D01*
X0308719Y0139360D01*
X0308736Y0139483D01*
X0308750Y0139605D01*
X0308759Y0139729D01*
X0308765Y0139852D01*
X0308767Y0139976D01*
X0214672Y0284858D02*
X0214674Y0284937D01*
X0214680Y0285016D01*
X0214690Y0285095D01*
X0214704Y0285173D01*
X0214721Y0285250D01*
X0214743Y0285326D01*
X0214768Y0285401D01*
X0214798Y0285474D01*
X0214830Y0285546D01*
X0214867Y0285617D01*
X0214907Y0285685D01*
X0214950Y0285751D01*
X0214996Y0285815D01*
X0215046Y0285877D01*
X0215099Y0285936D01*
X0215154Y0285992D01*
X0215213Y0286046D01*
X0215274Y0286096D01*
X0215337Y0286144D01*
X0215403Y0286188D01*
X0215471Y0286229D01*
X0215541Y0286266D01*
X0215612Y0286300D01*
X0215686Y0286330D01*
X0215760Y0286356D01*
X0215836Y0286378D01*
X0215913Y0286397D01*
X0215991Y0286412D01*
X0216069Y0286423D01*
X0216148Y0286430D01*
X0216227Y0286433D01*
X0216306Y0286432D01*
X0216385Y0286427D01*
X0216464Y0286418D01*
X0216542Y0286405D01*
X0216619Y0286388D01*
X0216696Y0286368D01*
X0216771Y0286343D01*
X0216845Y0286315D01*
X0216918Y0286283D01*
X0216988Y0286248D01*
X0217057Y0286209D01*
X0217124Y0286166D01*
X0217189Y0286120D01*
X0217251Y0286072D01*
X0217311Y0286020D01*
X0217368Y0285965D01*
X0217422Y0285907D01*
X0217473Y0285847D01*
X0217521Y0285784D01*
X0217566Y0285719D01*
X0217608Y0285651D01*
X0217646Y0285582D01*
X0217680Y0285511D01*
X0217711Y0285438D01*
X0217739Y0285363D01*
X0217762Y0285288D01*
X0217782Y0285211D01*
X0217798Y0285134D01*
X0217810Y0285055D01*
X0217818Y0284977D01*
X0217822Y0284898D01*
X0217822Y0284818D01*
X0217818Y0284739D01*
X0217810Y0284661D01*
X0217798Y0284582D01*
X0217782Y0284505D01*
X0217762Y0284428D01*
X0217739Y0284353D01*
X0217711Y0284278D01*
X0217680Y0284205D01*
X0217646Y0284134D01*
X0217608Y0284065D01*
X0217566Y0283997D01*
X0217521Y0283932D01*
X0217473Y0283869D01*
X0217422Y0283809D01*
X0217368Y0283751D01*
X0217311Y0283696D01*
X0217251Y0283644D01*
X0217189Y0283596D01*
X0217124Y0283550D01*
X0217057Y0283507D01*
X0216988Y0283468D01*
X0216918Y0283433D01*
X0216845Y0283401D01*
X0216771Y0283373D01*
X0216696Y0283348D01*
X0216619Y0283328D01*
X0216542Y0283311D01*
X0216464Y0283298D01*
X0216385Y0283289D01*
X0216306Y0283284D01*
X0216227Y0283283D01*
X0216148Y0283286D01*
X0216069Y0283293D01*
X0215991Y0283304D01*
X0215913Y0283319D01*
X0215836Y0283338D01*
X0215760Y0283360D01*
X0215686Y0283386D01*
X0215612Y0283416D01*
X0215541Y0283450D01*
X0215471Y0283487D01*
X0215403Y0283528D01*
X0215337Y0283572D01*
X0215274Y0283620D01*
X0215213Y0283670D01*
X0215154Y0283724D01*
X0215099Y0283780D01*
X0215046Y0283839D01*
X0214996Y0283901D01*
X0214950Y0283965D01*
X0214907Y0284031D01*
X0214867Y0284099D01*
X0214830Y0284170D01*
X0214798Y0284242D01*
X0214768Y0284315D01*
X0214743Y0284390D01*
X0214721Y0284466D01*
X0214704Y0284543D01*
X0214690Y0284621D01*
X0214680Y0284700D01*
X0214674Y0284779D01*
X0214672Y0284858D01*
X0041444Y0284858D02*
X0041446Y0284937D01*
X0041452Y0285016D01*
X0041462Y0285095D01*
X0041476Y0285173D01*
X0041493Y0285250D01*
X0041515Y0285326D01*
X0041540Y0285401D01*
X0041570Y0285474D01*
X0041602Y0285546D01*
X0041639Y0285617D01*
X0041679Y0285685D01*
X0041722Y0285751D01*
X0041768Y0285815D01*
X0041818Y0285877D01*
X0041871Y0285936D01*
X0041926Y0285992D01*
X0041985Y0286046D01*
X0042046Y0286096D01*
X0042109Y0286144D01*
X0042175Y0286188D01*
X0042243Y0286229D01*
X0042313Y0286266D01*
X0042384Y0286300D01*
X0042458Y0286330D01*
X0042532Y0286356D01*
X0042608Y0286378D01*
X0042685Y0286397D01*
X0042763Y0286412D01*
X0042841Y0286423D01*
X0042920Y0286430D01*
X0042999Y0286433D01*
X0043078Y0286432D01*
X0043157Y0286427D01*
X0043236Y0286418D01*
X0043314Y0286405D01*
X0043391Y0286388D01*
X0043468Y0286368D01*
X0043543Y0286343D01*
X0043617Y0286315D01*
X0043690Y0286283D01*
X0043760Y0286248D01*
X0043829Y0286209D01*
X0043896Y0286166D01*
X0043961Y0286120D01*
X0044023Y0286072D01*
X0044083Y0286020D01*
X0044140Y0285965D01*
X0044194Y0285907D01*
X0044245Y0285847D01*
X0044293Y0285784D01*
X0044338Y0285719D01*
X0044380Y0285651D01*
X0044418Y0285582D01*
X0044452Y0285511D01*
X0044483Y0285438D01*
X0044511Y0285363D01*
X0044534Y0285288D01*
X0044554Y0285211D01*
X0044570Y0285134D01*
X0044582Y0285055D01*
X0044590Y0284977D01*
X0044594Y0284898D01*
X0044594Y0284818D01*
X0044590Y0284739D01*
X0044582Y0284661D01*
X0044570Y0284582D01*
X0044554Y0284505D01*
X0044534Y0284428D01*
X0044511Y0284353D01*
X0044483Y0284278D01*
X0044452Y0284205D01*
X0044418Y0284134D01*
X0044380Y0284065D01*
X0044338Y0283997D01*
X0044293Y0283932D01*
X0044245Y0283869D01*
X0044194Y0283809D01*
X0044140Y0283751D01*
X0044083Y0283696D01*
X0044023Y0283644D01*
X0043961Y0283596D01*
X0043896Y0283550D01*
X0043829Y0283507D01*
X0043760Y0283468D01*
X0043690Y0283433D01*
X0043617Y0283401D01*
X0043543Y0283373D01*
X0043468Y0283348D01*
X0043391Y0283328D01*
X0043314Y0283311D01*
X0043236Y0283298D01*
X0043157Y0283289D01*
X0043078Y0283284D01*
X0042999Y0283283D01*
X0042920Y0283286D01*
X0042841Y0283293D01*
X0042763Y0283304D01*
X0042685Y0283319D01*
X0042608Y0283338D01*
X0042532Y0283360D01*
X0042458Y0283386D01*
X0042384Y0283416D01*
X0042313Y0283450D01*
X0042243Y0283487D01*
X0042175Y0283528D01*
X0042109Y0283572D01*
X0042046Y0283620D01*
X0041985Y0283670D01*
X0041926Y0283724D01*
X0041871Y0283780D01*
X0041818Y0283839D01*
X0041768Y0283901D01*
X0041722Y0283965D01*
X0041679Y0284031D01*
X0041639Y0284099D01*
X0041602Y0284170D01*
X0041570Y0284242D01*
X0041540Y0284315D01*
X0041515Y0284390D01*
X0041493Y0284466D01*
X0041476Y0284543D01*
X0041462Y0284621D01*
X0041452Y0284700D01*
X0041446Y0284779D01*
X0041444Y0284858D01*
D11*
X0029358Y0282180D02*
X0025184Y0282180D01*
X0025184Y0284386D01*
X0029358Y0284386D01*
X0029358Y0282180D01*
X0029358Y0283124D02*
X0025184Y0283124D01*
X0025184Y0284068D02*
X0029358Y0284068D01*
X0029358Y0286905D02*
X0025184Y0286905D01*
X0025184Y0289111D01*
X0029358Y0289111D01*
X0029358Y0286905D01*
X0029358Y0287849D02*
X0025184Y0287849D01*
X0025184Y0288793D02*
X0029358Y0288793D01*
X0029358Y0291629D02*
X0025184Y0291629D01*
X0025184Y0293835D01*
X0029358Y0293835D01*
X0029358Y0291629D01*
X0029358Y0292573D02*
X0025184Y0292573D01*
X0025184Y0293517D02*
X0029358Y0293517D01*
X0029358Y0277456D02*
X0025184Y0277456D01*
X0025184Y0279662D01*
X0029358Y0279662D01*
X0029358Y0277456D01*
X0029358Y0278400D02*
X0025184Y0278400D01*
X0025184Y0279344D02*
X0029358Y0279344D01*
X0029358Y0272732D02*
X0025184Y0272732D01*
X0025184Y0274938D01*
X0029358Y0274938D01*
X0029358Y0272732D01*
X0029358Y0273676D02*
X0025184Y0273676D01*
X0025184Y0274620D02*
X0029358Y0274620D01*
X0029358Y0268007D02*
X0025184Y0268007D01*
X0025184Y0270213D01*
X0029358Y0270213D01*
X0029358Y0268007D01*
X0029358Y0268951D02*
X0025184Y0268951D01*
X0025184Y0269895D02*
X0029358Y0269895D01*
X0029358Y0263283D02*
X0025184Y0263283D01*
X0025184Y0265489D01*
X0029358Y0265489D01*
X0029358Y0263283D01*
X0029358Y0264227D02*
X0025184Y0264227D01*
X0025184Y0265171D02*
X0029358Y0265171D01*
X0029358Y0258558D02*
X0025184Y0258558D01*
X0025184Y0260764D01*
X0029358Y0260764D01*
X0029358Y0258558D01*
X0029358Y0259502D02*
X0025184Y0259502D01*
X0025184Y0260446D02*
X0029358Y0260446D01*
X0029358Y0253834D02*
X0025184Y0253834D01*
X0025184Y0256040D01*
X0029358Y0256040D01*
X0029358Y0253834D01*
X0029358Y0254778D02*
X0025184Y0254778D01*
X0025184Y0255722D02*
X0029358Y0255722D01*
X0029358Y0249110D02*
X0025184Y0249110D01*
X0025184Y0251316D01*
X0029358Y0251316D01*
X0029358Y0249110D01*
X0029358Y0250054D02*
X0025184Y0250054D01*
X0025184Y0250998D02*
X0029358Y0250998D01*
X0029358Y0244385D02*
X0025184Y0244385D01*
X0025184Y0246591D01*
X0029358Y0246591D01*
X0029358Y0244385D01*
X0029358Y0245329D02*
X0025184Y0245329D01*
X0025184Y0246273D02*
X0029358Y0246273D01*
X0029358Y0239661D02*
X0025184Y0239661D01*
X0025184Y0241867D01*
X0029358Y0241867D01*
X0029358Y0239661D01*
X0029358Y0240605D02*
X0025184Y0240605D01*
X0025184Y0241549D02*
X0029358Y0241549D01*
X0045459Y0231827D02*
X0045459Y0227653D01*
X0045459Y0231827D02*
X0047665Y0231827D01*
X0047665Y0227653D01*
X0045459Y0227653D01*
X0045459Y0228597D02*
X0047665Y0228597D01*
X0047665Y0229541D02*
X0045459Y0229541D01*
X0045459Y0230485D02*
X0047665Y0230485D01*
X0047665Y0231429D02*
X0045459Y0231429D01*
X0050184Y0231827D02*
X0050184Y0227653D01*
X0050184Y0231827D02*
X0052390Y0231827D01*
X0052390Y0227653D01*
X0050184Y0227653D01*
X0050184Y0228597D02*
X0052390Y0228597D01*
X0052390Y0229541D02*
X0050184Y0229541D01*
X0050184Y0230485D02*
X0052390Y0230485D01*
X0052390Y0231429D02*
X0050184Y0231429D01*
X0054908Y0231827D02*
X0054908Y0227653D01*
X0054908Y0231827D02*
X0057114Y0231827D01*
X0057114Y0227653D01*
X0054908Y0227653D01*
X0054908Y0228597D02*
X0057114Y0228597D01*
X0057114Y0229541D02*
X0054908Y0229541D01*
X0054908Y0230485D02*
X0057114Y0230485D01*
X0057114Y0231429D02*
X0054908Y0231429D01*
X0059633Y0231827D02*
X0059633Y0227653D01*
X0059633Y0231827D02*
X0061839Y0231827D01*
X0061839Y0227653D01*
X0059633Y0227653D01*
X0059633Y0228597D02*
X0061839Y0228597D01*
X0061839Y0229541D02*
X0059633Y0229541D01*
X0059633Y0230485D02*
X0061839Y0230485D01*
X0061839Y0231429D02*
X0059633Y0231429D01*
X0077940Y0241867D02*
X0082114Y0241867D01*
X0082114Y0239661D01*
X0077940Y0239661D01*
X0077940Y0241867D01*
X0077940Y0240605D02*
X0082114Y0240605D01*
X0082114Y0241549D02*
X0077940Y0241549D01*
X0077940Y0246591D02*
X0082114Y0246591D01*
X0082114Y0244385D01*
X0077940Y0244385D01*
X0077940Y0246591D01*
X0077940Y0245329D02*
X0082114Y0245329D01*
X0082114Y0246273D02*
X0077940Y0246273D01*
X0077940Y0251316D02*
X0082114Y0251316D01*
X0082114Y0249110D01*
X0077940Y0249110D01*
X0077940Y0251316D01*
X0077940Y0250054D02*
X0082114Y0250054D01*
X0082114Y0250998D02*
X0077940Y0250998D01*
X0077940Y0256040D02*
X0082114Y0256040D01*
X0082114Y0253834D01*
X0077940Y0253834D01*
X0077940Y0256040D01*
X0077940Y0254778D02*
X0082114Y0254778D01*
X0082114Y0255722D02*
X0077940Y0255722D01*
X0077940Y0260764D02*
X0082114Y0260764D01*
X0082114Y0258558D01*
X0077940Y0258558D01*
X0077940Y0260764D01*
X0077940Y0259502D02*
X0082114Y0259502D01*
X0082114Y0260446D02*
X0077940Y0260446D01*
X0077940Y0265489D02*
X0082114Y0265489D01*
X0082114Y0263283D01*
X0077940Y0263283D01*
X0077940Y0265489D01*
X0077940Y0264227D02*
X0082114Y0264227D01*
X0082114Y0265171D02*
X0077940Y0265171D01*
X0077940Y0270213D02*
X0082114Y0270213D01*
X0082114Y0268007D01*
X0077940Y0268007D01*
X0077940Y0270213D01*
X0077940Y0268951D02*
X0082114Y0268951D01*
X0082114Y0269895D02*
X0077940Y0269895D01*
X0077940Y0274938D02*
X0082114Y0274938D01*
X0082114Y0272732D01*
X0077940Y0272732D01*
X0077940Y0274938D01*
X0077940Y0273676D02*
X0082114Y0273676D01*
X0082114Y0274620D02*
X0077940Y0274620D01*
X0077940Y0279662D02*
X0082114Y0279662D01*
X0082114Y0277456D01*
X0077940Y0277456D01*
X0077940Y0279662D01*
X0077940Y0278400D02*
X0082114Y0278400D01*
X0082114Y0279344D02*
X0077940Y0279344D01*
X0077940Y0284386D02*
X0082114Y0284386D01*
X0082114Y0282180D01*
X0077940Y0282180D01*
X0077940Y0284386D01*
X0077940Y0283124D02*
X0082114Y0283124D01*
X0082114Y0284068D02*
X0077940Y0284068D01*
X0077940Y0289111D02*
X0082114Y0289111D01*
X0082114Y0286905D01*
X0077940Y0286905D01*
X0077940Y0289111D01*
X0077940Y0287849D02*
X0082114Y0287849D01*
X0082114Y0288793D02*
X0077940Y0288793D01*
X0077940Y0293835D02*
X0082114Y0293835D01*
X0082114Y0291629D01*
X0077940Y0291629D01*
X0077940Y0293835D01*
X0077940Y0292573D02*
X0082114Y0292573D01*
X0082114Y0293517D02*
X0077940Y0293517D01*
X0198412Y0291629D02*
X0202586Y0291629D01*
X0198412Y0291629D02*
X0198412Y0293835D01*
X0202586Y0293835D01*
X0202586Y0291629D01*
X0202586Y0292573D02*
X0198412Y0292573D01*
X0198412Y0293517D02*
X0202586Y0293517D01*
X0202586Y0286905D02*
X0198412Y0286905D01*
X0198412Y0289111D01*
X0202586Y0289111D01*
X0202586Y0286905D01*
X0202586Y0287849D02*
X0198412Y0287849D01*
X0198412Y0288793D02*
X0202586Y0288793D01*
X0202586Y0282180D02*
X0198412Y0282180D01*
X0198412Y0284386D01*
X0202586Y0284386D01*
X0202586Y0282180D01*
X0202586Y0283124D02*
X0198412Y0283124D01*
X0198412Y0284068D02*
X0202586Y0284068D01*
X0202586Y0277456D02*
X0198412Y0277456D01*
X0198412Y0279662D01*
X0202586Y0279662D01*
X0202586Y0277456D01*
X0202586Y0278400D02*
X0198412Y0278400D01*
X0198412Y0279344D02*
X0202586Y0279344D01*
X0202586Y0272732D02*
X0198412Y0272732D01*
X0198412Y0274938D01*
X0202586Y0274938D01*
X0202586Y0272732D01*
X0202586Y0273676D02*
X0198412Y0273676D01*
X0198412Y0274620D02*
X0202586Y0274620D01*
X0202586Y0268007D02*
X0198412Y0268007D01*
X0198412Y0270213D01*
X0202586Y0270213D01*
X0202586Y0268007D01*
X0202586Y0268951D02*
X0198412Y0268951D01*
X0198412Y0269895D02*
X0202586Y0269895D01*
X0202586Y0263283D02*
X0198412Y0263283D01*
X0198412Y0265489D01*
X0202586Y0265489D01*
X0202586Y0263283D01*
X0202586Y0264227D02*
X0198412Y0264227D01*
X0198412Y0265171D02*
X0202586Y0265171D01*
X0202586Y0258558D02*
X0198412Y0258558D01*
X0198412Y0260764D01*
X0202586Y0260764D01*
X0202586Y0258558D01*
X0202586Y0259502D02*
X0198412Y0259502D01*
X0198412Y0260446D02*
X0202586Y0260446D01*
X0202586Y0253834D02*
X0198412Y0253834D01*
X0198412Y0256040D01*
X0202586Y0256040D01*
X0202586Y0253834D01*
X0202586Y0254778D02*
X0198412Y0254778D01*
X0198412Y0255722D02*
X0202586Y0255722D01*
X0202586Y0249110D02*
X0198412Y0249110D01*
X0198412Y0251316D01*
X0202586Y0251316D01*
X0202586Y0249110D01*
X0202586Y0250054D02*
X0198412Y0250054D01*
X0198412Y0250998D02*
X0202586Y0250998D01*
X0202586Y0244385D02*
X0198412Y0244385D01*
X0198412Y0246591D01*
X0202586Y0246591D01*
X0202586Y0244385D01*
X0202586Y0245329D02*
X0198412Y0245329D01*
X0198412Y0246273D02*
X0202586Y0246273D01*
X0202586Y0239661D02*
X0198412Y0239661D01*
X0198412Y0241867D01*
X0202586Y0241867D01*
X0202586Y0239661D01*
X0202586Y0240605D02*
X0198412Y0240605D01*
X0198412Y0241549D02*
X0202586Y0241549D01*
X0218688Y0231827D02*
X0218688Y0227653D01*
X0218688Y0231827D02*
X0220894Y0231827D01*
X0220894Y0227653D01*
X0218688Y0227653D01*
X0218688Y0228597D02*
X0220894Y0228597D01*
X0220894Y0229541D02*
X0218688Y0229541D01*
X0218688Y0230485D02*
X0220894Y0230485D01*
X0220894Y0231429D02*
X0218688Y0231429D01*
X0223412Y0231827D02*
X0223412Y0227653D01*
X0223412Y0231827D02*
X0225618Y0231827D01*
X0225618Y0227653D01*
X0223412Y0227653D01*
X0223412Y0228597D02*
X0225618Y0228597D01*
X0225618Y0229541D02*
X0223412Y0229541D01*
X0223412Y0230485D02*
X0225618Y0230485D01*
X0225618Y0231429D02*
X0223412Y0231429D01*
X0228137Y0231827D02*
X0228137Y0227653D01*
X0228137Y0231827D02*
X0230343Y0231827D01*
X0230343Y0227653D01*
X0228137Y0227653D01*
X0228137Y0228597D02*
X0230343Y0228597D01*
X0230343Y0229541D02*
X0228137Y0229541D01*
X0228137Y0230485D02*
X0230343Y0230485D01*
X0230343Y0231429D02*
X0228137Y0231429D01*
X0232861Y0231827D02*
X0232861Y0227653D01*
X0232861Y0231827D02*
X0235067Y0231827D01*
X0235067Y0227653D01*
X0232861Y0227653D01*
X0232861Y0228597D02*
X0235067Y0228597D01*
X0235067Y0229541D02*
X0232861Y0229541D01*
X0232861Y0230485D02*
X0235067Y0230485D01*
X0235067Y0231429D02*
X0232861Y0231429D01*
X0251168Y0241867D02*
X0255342Y0241867D01*
X0255342Y0239661D01*
X0251168Y0239661D01*
X0251168Y0241867D01*
X0251168Y0240605D02*
X0255342Y0240605D01*
X0255342Y0241549D02*
X0251168Y0241549D01*
X0251168Y0246591D02*
X0255342Y0246591D01*
X0255342Y0244385D01*
X0251168Y0244385D01*
X0251168Y0246591D01*
X0251168Y0245329D02*
X0255342Y0245329D01*
X0255342Y0246273D02*
X0251168Y0246273D01*
X0251168Y0251316D02*
X0255342Y0251316D01*
X0255342Y0249110D01*
X0251168Y0249110D01*
X0251168Y0251316D01*
X0251168Y0250054D02*
X0255342Y0250054D01*
X0255342Y0250998D02*
X0251168Y0250998D01*
X0251168Y0256040D02*
X0255342Y0256040D01*
X0255342Y0253834D01*
X0251168Y0253834D01*
X0251168Y0256040D01*
X0251168Y0254778D02*
X0255342Y0254778D01*
X0255342Y0255722D02*
X0251168Y0255722D01*
X0251168Y0260764D02*
X0255342Y0260764D01*
X0255342Y0258558D01*
X0251168Y0258558D01*
X0251168Y0260764D01*
X0251168Y0259502D02*
X0255342Y0259502D01*
X0255342Y0260446D02*
X0251168Y0260446D01*
X0251168Y0265489D02*
X0255342Y0265489D01*
X0255342Y0263283D01*
X0251168Y0263283D01*
X0251168Y0265489D01*
X0251168Y0264227D02*
X0255342Y0264227D01*
X0255342Y0265171D02*
X0251168Y0265171D01*
X0251168Y0270213D02*
X0255342Y0270213D01*
X0255342Y0268007D01*
X0251168Y0268007D01*
X0251168Y0270213D01*
X0251168Y0268951D02*
X0255342Y0268951D01*
X0255342Y0269895D02*
X0251168Y0269895D01*
X0251168Y0274938D02*
X0255342Y0274938D01*
X0255342Y0272732D01*
X0251168Y0272732D01*
X0251168Y0274938D01*
X0251168Y0273676D02*
X0255342Y0273676D01*
X0255342Y0274620D02*
X0251168Y0274620D01*
X0251168Y0279662D02*
X0255342Y0279662D01*
X0255342Y0277456D01*
X0251168Y0277456D01*
X0251168Y0279662D01*
X0251168Y0278400D02*
X0255342Y0278400D01*
X0255342Y0279344D02*
X0251168Y0279344D01*
X0251168Y0284386D02*
X0255342Y0284386D01*
X0255342Y0282180D01*
X0251168Y0282180D01*
X0251168Y0284386D01*
X0251168Y0283124D02*
X0255342Y0283124D01*
X0255342Y0284068D02*
X0251168Y0284068D01*
X0251168Y0289111D02*
X0255342Y0289111D01*
X0255342Y0286905D01*
X0251168Y0286905D01*
X0251168Y0289111D01*
X0251168Y0287849D02*
X0255342Y0287849D01*
X0255342Y0288793D02*
X0251168Y0288793D01*
X0251168Y0293835D02*
X0255342Y0293835D01*
X0255342Y0291629D01*
X0251168Y0291629D01*
X0251168Y0293835D01*
X0251168Y0292573D02*
X0255342Y0292573D01*
X0255342Y0293517D02*
X0251168Y0293517D01*
X0251168Y0120607D02*
X0255342Y0120607D01*
X0255342Y0118401D01*
X0251168Y0118401D01*
X0251168Y0120607D01*
X0251168Y0119345D02*
X0255342Y0119345D01*
X0255342Y0120289D02*
X0251168Y0120289D01*
X0251168Y0115883D02*
X0255342Y0115883D01*
X0255342Y0113677D01*
X0251168Y0113677D01*
X0251168Y0115883D01*
X0251168Y0114621D02*
X0255342Y0114621D01*
X0255342Y0115565D02*
X0251168Y0115565D01*
X0251168Y0111158D02*
X0255342Y0111158D01*
X0255342Y0108952D01*
X0251168Y0108952D01*
X0251168Y0111158D01*
X0251168Y0109896D02*
X0255342Y0109896D01*
X0255342Y0110840D02*
X0251168Y0110840D01*
X0251168Y0106434D02*
X0255342Y0106434D01*
X0255342Y0104228D01*
X0251168Y0104228D01*
X0251168Y0106434D01*
X0251168Y0105172D02*
X0255342Y0105172D01*
X0255342Y0106116D02*
X0251168Y0106116D01*
X0251168Y0101709D02*
X0255342Y0101709D01*
X0255342Y0099503D01*
X0251168Y0099503D01*
X0251168Y0101709D01*
X0251168Y0100447D02*
X0255342Y0100447D01*
X0255342Y0101391D02*
X0251168Y0101391D01*
X0251168Y0096985D02*
X0255342Y0096985D01*
X0255342Y0094779D01*
X0251168Y0094779D01*
X0251168Y0096985D01*
X0251168Y0095723D02*
X0255342Y0095723D01*
X0255342Y0096667D02*
X0251168Y0096667D01*
X0251168Y0092260D02*
X0255342Y0092260D01*
X0255342Y0090054D01*
X0251168Y0090054D01*
X0251168Y0092260D01*
X0251168Y0090998D02*
X0255342Y0090998D01*
X0255342Y0091942D02*
X0251168Y0091942D01*
X0251168Y0087536D02*
X0255342Y0087536D01*
X0255342Y0085330D01*
X0251168Y0085330D01*
X0251168Y0087536D01*
X0251168Y0086274D02*
X0255342Y0086274D01*
X0255342Y0087218D02*
X0251168Y0087218D01*
X0251168Y0082812D02*
X0255342Y0082812D01*
X0255342Y0080606D01*
X0251168Y0080606D01*
X0251168Y0082812D01*
X0251168Y0081550D02*
X0255342Y0081550D01*
X0255342Y0082494D02*
X0251168Y0082494D01*
X0251168Y0078087D02*
X0255342Y0078087D01*
X0255342Y0075881D01*
X0251168Y0075881D01*
X0251168Y0078087D01*
X0251168Y0076825D02*
X0255342Y0076825D01*
X0255342Y0077769D02*
X0251168Y0077769D01*
X0251168Y0073363D02*
X0255342Y0073363D01*
X0255342Y0071157D01*
X0251168Y0071157D01*
X0251168Y0073363D01*
X0251168Y0072101D02*
X0255342Y0072101D01*
X0255342Y0073045D02*
X0251168Y0073045D01*
X0251168Y0068638D02*
X0255342Y0068638D01*
X0255342Y0066432D01*
X0251168Y0066432D01*
X0251168Y0068638D01*
X0251168Y0067376D02*
X0255342Y0067376D01*
X0255342Y0068320D02*
X0251168Y0068320D01*
X0232861Y0058599D02*
X0232861Y0054425D01*
X0232861Y0058599D02*
X0235067Y0058599D01*
X0235067Y0054425D01*
X0232861Y0054425D01*
X0232861Y0055369D02*
X0235067Y0055369D01*
X0235067Y0056313D02*
X0232861Y0056313D01*
X0232861Y0057257D02*
X0235067Y0057257D01*
X0235067Y0058201D02*
X0232861Y0058201D01*
X0228137Y0058599D02*
X0228137Y0054425D01*
X0228137Y0058599D02*
X0230343Y0058599D01*
X0230343Y0054425D01*
X0228137Y0054425D01*
X0228137Y0055369D02*
X0230343Y0055369D01*
X0230343Y0056313D02*
X0228137Y0056313D01*
X0228137Y0057257D02*
X0230343Y0057257D01*
X0230343Y0058201D02*
X0228137Y0058201D01*
X0223412Y0058599D02*
X0223412Y0054425D01*
X0223412Y0058599D02*
X0225618Y0058599D01*
X0225618Y0054425D01*
X0223412Y0054425D01*
X0223412Y0055369D02*
X0225618Y0055369D01*
X0225618Y0056313D02*
X0223412Y0056313D01*
X0223412Y0057257D02*
X0225618Y0057257D01*
X0225618Y0058201D02*
X0223412Y0058201D01*
X0218688Y0058599D02*
X0218688Y0054425D01*
X0218688Y0058599D02*
X0220894Y0058599D01*
X0220894Y0054425D01*
X0218688Y0054425D01*
X0218688Y0055369D02*
X0220894Y0055369D01*
X0220894Y0056313D02*
X0218688Y0056313D01*
X0218688Y0057257D02*
X0220894Y0057257D01*
X0220894Y0058201D02*
X0218688Y0058201D01*
X0202586Y0066432D02*
X0198412Y0066432D01*
X0198412Y0068638D01*
X0202586Y0068638D01*
X0202586Y0066432D01*
X0202586Y0067376D02*
X0198412Y0067376D01*
X0198412Y0068320D02*
X0202586Y0068320D01*
X0202586Y0071157D02*
X0198412Y0071157D01*
X0198412Y0073363D01*
X0202586Y0073363D01*
X0202586Y0071157D01*
X0202586Y0072101D02*
X0198412Y0072101D01*
X0198412Y0073045D02*
X0202586Y0073045D01*
X0202586Y0075881D02*
X0198412Y0075881D01*
X0198412Y0078087D01*
X0202586Y0078087D01*
X0202586Y0075881D01*
X0202586Y0076825D02*
X0198412Y0076825D01*
X0198412Y0077769D02*
X0202586Y0077769D01*
X0202586Y0080606D02*
X0198412Y0080606D01*
X0198412Y0082812D01*
X0202586Y0082812D01*
X0202586Y0080606D01*
X0202586Y0081550D02*
X0198412Y0081550D01*
X0198412Y0082494D02*
X0202586Y0082494D01*
X0202586Y0085330D02*
X0198412Y0085330D01*
X0198412Y0087536D01*
X0202586Y0087536D01*
X0202586Y0085330D01*
X0202586Y0086274D02*
X0198412Y0086274D01*
X0198412Y0087218D02*
X0202586Y0087218D01*
X0202586Y0090054D02*
X0198412Y0090054D01*
X0198412Y0092260D01*
X0202586Y0092260D01*
X0202586Y0090054D01*
X0202586Y0090998D02*
X0198412Y0090998D01*
X0198412Y0091942D02*
X0202586Y0091942D01*
X0202586Y0094779D02*
X0198412Y0094779D01*
X0198412Y0096985D01*
X0202586Y0096985D01*
X0202586Y0094779D01*
X0202586Y0095723D02*
X0198412Y0095723D01*
X0198412Y0096667D02*
X0202586Y0096667D01*
X0202586Y0099503D02*
X0198412Y0099503D01*
X0198412Y0101709D01*
X0202586Y0101709D01*
X0202586Y0099503D01*
X0202586Y0100447D02*
X0198412Y0100447D01*
X0198412Y0101391D02*
X0202586Y0101391D01*
X0202586Y0104228D02*
X0198412Y0104228D01*
X0198412Y0106434D01*
X0202586Y0106434D01*
X0202586Y0104228D01*
X0202586Y0105172D02*
X0198412Y0105172D01*
X0198412Y0106116D02*
X0202586Y0106116D01*
X0202586Y0108952D02*
X0198412Y0108952D01*
X0198412Y0111158D01*
X0202586Y0111158D01*
X0202586Y0108952D01*
X0202586Y0109896D02*
X0198412Y0109896D01*
X0198412Y0110840D02*
X0202586Y0110840D01*
X0202586Y0113677D02*
X0198412Y0113677D01*
X0198412Y0115883D01*
X0202586Y0115883D01*
X0202586Y0113677D01*
X0202586Y0114621D02*
X0198412Y0114621D01*
X0198412Y0115565D02*
X0202586Y0115565D01*
X0202586Y0118401D02*
X0198412Y0118401D01*
X0198412Y0120607D01*
X0202586Y0120607D01*
X0202586Y0118401D01*
X0202586Y0119345D02*
X0198412Y0119345D01*
X0198412Y0120289D02*
X0202586Y0120289D01*
X0082114Y0120607D02*
X0077940Y0120607D01*
X0082114Y0120607D02*
X0082114Y0118401D01*
X0077940Y0118401D01*
X0077940Y0120607D01*
X0077940Y0119345D02*
X0082114Y0119345D01*
X0082114Y0120289D02*
X0077940Y0120289D01*
X0077940Y0115883D02*
X0082114Y0115883D01*
X0082114Y0113677D01*
X0077940Y0113677D01*
X0077940Y0115883D01*
X0077940Y0114621D02*
X0082114Y0114621D01*
X0082114Y0115565D02*
X0077940Y0115565D01*
X0077940Y0111158D02*
X0082114Y0111158D01*
X0082114Y0108952D01*
X0077940Y0108952D01*
X0077940Y0111158D01*
X0077940Y0109896D02*
X0082114Y0109896D01*
X0082114Y0110840D02*
X0077940Y0110840D01*
X0077940Y0106434D02*
X0082114Y0106434D01*
X0082114Y0104228D01*
X0077940Y0104228D01*
X0077940Y0106434D01*
X0077940Y0105172D02*
X0082114Y0105172D01*
X0082114Y0106116D02*
X0077940Y0106116D01*
X0077940Y0101709D02*
X0082114Y0101709D01*
X0082114Y0099503D01*
X0077940Y0099503D01*
X0077940Y0101709D01*
X0077940Y0100447D02*
X0082114Y0100447D01*
X0082114Y0101391D02*
X0077940Y0101391D01*
X0077940Y0096985D02*
X0082114Y0096985D01*
X0082114Y0094779D01*
X0077940Y0094779D01*
X0077940Y0096985D01*
X0077940Y0095723D02*
X0082114Y0095723D01*
X0082114Y0096667D02*
X0077940Y0096667D01*
X0077940Y0092260D02*
X0082114Y0092260D01*
X0082114Y0090054D01*
X0077940Y0090054D01*
X0077940Y0092260D01*
X0077940Y0090998D02*
X0082114Y0090998D01*
X0082114Y0091942D02*
X0077940Y0091942D01*
X0077940Y0087536D02*
X0082114Y0087536D01*
X0082114Y0085330D01*
X0077940Y0085330D01*
X0077940Y0087536D01*
X0077940Y0086274D02*
X0082114Y0086274D01*
X0082114Y0087218D02*
X0077940Y0087218D01*
X0077940Y0082812D02*
X0082114Y0082812D01*
X0082114Y0080606D01*
X0077940Y0080606D01*
X0077940Y0082812D01*
X0077940Y0081550D02*
X0082114Y0081550D01*
X0082114Y0082494D02*
X0077940Y0082494D01*
X0077940Y0078087D02*
X0082114Y0078087D01*
X0082114Y0075881D01*
X0077940Y0075881D01*
X0077940Y0078087D01*
X0077940Y0076825D02*
X0082114Y0076825D01*
X0082114Y0077769D02*
X0077940Y0077769D01*
X0077940Y0073363D02*
X0082114Y0073363D01*
X0082114Y0071157D01*
X0077940Y0071157D01*
X0077940Y0073363D01*
X0077940Y0072101D02*
X0082114Y0072101D01*
X0082114Y0073045D02*
X0077940Y0073045D01*
X0077940Y0068638D02*
X0082114Y0068638D01*
X0082114Y0066432D01*
X0077940Y0066432D01*
X0077940Y0068638D01*
X0077940Y0067376D02*
X0082114Y0067376D01*
X0082114Y0068320D02*
X0077940Y0068320D01*
X0059633Y0058599D02*
X0059633Y0054425D01*
X0059633Y0058599D02*
X0061839Y0058599D01*
X0061839Y0054425D01*
X0059633Y0054425D01*
X0059633Y0055369D02*
X0061839Y0055369D01*
X0061839Y0056313D02*
X0059633Y0056313D01*
X0059633Y0057257D02*
X0061839Y0057257D01*
X0061839Y0058201D02*
X0059633Y0058201D01*
X0054908Y0058599D02*
X0054908Y0054425D01*
X0054908Y0058599D02*
X0057114Y0058599D01*
X0057114Y0054425D01*
X0054908Y0054425D01*
X0054908Y0055369D02*
X0057114Y0055369D01*
X0057114Y0056313D02*
X0054908Y0056313D01*
X0054908Y0057257D02*
X0057114Y0057257D01*
X0057114Y0058201D02*
X0054908Y0058201D01*
X0050184Y0058599D02*
X0050184Y0054425D01*
X0050184Y0058599D02*
X0052390Y0058599D01*
X0052390Y0054425D01*
X0050184Y0054425D01*
X0050184Y0055369D02*
X0052390Y0055369D01*
X0052390Y0056313D02*
X0050184Y0056313D01*
X0050184Y0057257D02*
X0052390Y0057257D01*
X0052390Y0058201D02*
X0050184Y0058201D01*
X0045459Y0058599D02*
X0045459Y0054425D01*
X0045459Y0058599D02*
X0047665Y0058599D01*
X0047665Y0054425D01*
X0045459Y0054425D01*
X0045459Y0055369D02*
X0047665Y0055369D01*
X0047665Y0056313D02*
X0045459Y0056313D01*
X0045459Y0057257D02*
X0047665Y0057257D01*
X0047665Y0058201D02*
X0045459Y0058201D01*
X0029358Y0066432D02*
X0025184Y0066432D01*
X0025184Y0068638D01*
X0029358Y0068638D01*
X0029358Y0066432D01*
X0029358Y0067376D02*
X0025184Y0067376D01*
X0025184Y0068320D02*
X0029358Y0068320D01*
X0029358Y0071157D02*
X0025184Y0071157D01*
X0025184Y0073363D01*
X0029358Y0073363D01*
X0029358Y0071157D01*
X0029358Y0072101D02*
X0025184Y0072101D01*
X0025184Y0073045D02*
X0029358Y0073045D01*
X0029358Y0075881D02*
X0025184Y0075881D01*
X0025184Y0078087D01*
X0029358Y0078087D01*
X0029358Y0075881D01*
X0029358Y0076825D02*
X0025184Y0076825D01*
X0025184Y0077769D02*
X0029358Y0077769D01*
X0029358Y0080606D02*
X0025184Y0080606D01*
X0025184Y0082812D01*
X0029358Y0082812D01*
X0029358Y0080606D01*
X0029358Y0081550D02*
X0025184Y0081550D01*
X0025184Y0082494D02*
X0029358Y0082494D01*
X0029358Y0085330D02*
X0025184Y0085330D01*
X0025184Y0087536D01*
X0029358Y0087536D01*
X0029358Y0085330D01*
X0029358Y0086274D02*
X0025184Y0086274D01*
X0025184Y0087218D02*
X0029358Y0087218D01*
X0029358Y0090054D02*
X0025184Y0090054D01*
X0025184Y0092260D01*
X0029358Y0092260D01*
X0029358Y0090054D01*
X0029358Y0090998D02*
X0025184Y0090998D01*
X0025184Y0091942D02*
X0029358Y0091942D01*
X0029358Y0094779D02*
X0025184Y0094779D01*
X0025184Y0096985D01*
X0029358Y0096985D01*
X0029358Y0094779D01*
X0029358Y0095723D02*
X0025184Y0095723D01*
X0025184Y0096667D02*
X0029358Y0096667D01*
X0029358Y0099503D02*
X0025184Y0099503D01*
X0025184Y0101709D01*
X0029358Y0101709D01*
X0029358Y0099503D01*
X0029358Y0100447D02*
X0025184Y0100447D01*
X0025184Y0101391D02*
X0029358Y0101391D01*
X0029358Y0104228D02*
X0025184Y0104228D01*
X0025184Y0106434D01*
X0029358Y0106434D01*
X0029358Y0104228D01*
X0029358Y0105172D02*
X0025184Y0105172D01*
X0025184Y0106116D02*
X0029358Y0106116D01*
X0029358Y0108952D02*
X0025184Y0108952D01*
X0025184Y0111158D01*
X0029358Y0111158D01*
X0029358Y0108952D01*
X0029358Y0109896D02*
X0025184Y0109896D01*
X0025184Y0110840D02*
X0029358Y0110840D01*
X0029358Y0113677D02*
X0025184Y0113677D01*
X0025184Y0115883D01*
X0029358Y0115883D01*
X0029358Y0113677D01*
X0029358Y0114621D02*
X0025184Y0114621D01*
X0025184Y0115565D02*
X0029358Y0115565D01*
X0029358Y0118401D02*
X0025184Y0118401D01*
X0025184Y0120607D01*
X0029358Y0120607D01*
X0029358Y0118401D01*
X0029358Y0119345D02*
X0025184Y0119345D01*
X0025184Y0120289D02*
X0029358Y0120289D01*
D12*
X0028354Y0127673D02*
X0028354Y0131807D01*
X0032488Y0131807D01*
X0032488Y0127673D01*
X0028354Y0127673D01*
X0028354Y0129444D02*
X0032488Y0129444D01*
X0032488Y0131215D02*
X0028354Y0131215D01*
X0074810Y0131807D02*
X0074810Y0127673D01*
X0074810Y0131807D02*
X0078944Y0131807D01*
X0078944Y0127673D01*
X0074810Y0127673D01*
X0074810Y0129444D02*
X0078944Y0129444D01*
X0078944Y0131215D02*
X0074810Y0131215D01*
X0101976Y0155428D02*
X0106110Y0155428D01*
X0106110Y0150902D01*
X0101976Y0150902D01*
X0101976Y0155428D01*
X0101976Y0152673D02*
X0106110Y0152673D01*
X0106110Y0154444D02*
X0101976Y0154444D01*
X0109850Y0155428D02*
X0113984Y0155428D01*
X0113984Y0150902D01*
X0109850Y0150902D01*
X0109850Y0155428D01*
X0109850Y0152673D02*
X0113984Y0152673D01*
X0113984Y0154444D02*
X0109850Y0154444D01*
X0074810Y0230823D02*
X0074810Y0234957D01*
X0078944Y0234957D01*
X0078944Y0230823D01*
X0074810Y0230823D01*
X0074810Y0232594D02*
X0078944Y0232594D01*
X0078944Y0234365D02*
X0074810Y0234365D01*
X0028354Y0234957D02*
X0028354Y0230823D01*
X0028354Y0234957D02*
X0032488Y0234957D01*
X0032488Y0230823D01*
X0028354Y0230823D01*
X0028354Y0232594D02*
X0032488Y0232594D01*
X0032488Y0234365D02*
X0028354Y0234365D01*
X0028354Y0300902D02*
X0028354Y0305036D01*
X0032488Y0305036D01*
X0032488Y0300902D01*
X0028354Y0300902D01*
X0028354Y0302673D02*
X0032488Y0302673D01*
X0032488Y0304444D02*
X0028354Y0304444D01*
X0074810Y0305036D02*
X0074810Y0300902D01*
X0074810Y0305036D02*
X0078944Y0305036D01*
X0078944Y0300902D01*
X0074810Y0300902D01*
X0074810Y0302673D02*
X0078944Y0302673D01*
X0078944Y0304444D02*
X0074810Y0304444D01*
X0101976Y0328657D02*
X0106110Y0328657D01*
X0106110Y0324131D01*
X0101976Y0324131D01*
X0101976Y0328657D01*
X0101976Y0325902D02*
X0106110Y0325902D01*
X0106110Y0327673D02*
X0101976Y0327673D01*
X0109850Y0328657D02*
X0113984Y0328657D01*
X0113984Y0324131D01*
X0109850Y0324131D01*
X0109850Y0328657D01*
X0109850Y0325902D02*
X0113984Y0325902D01*
X0113984Y0327673D02*
X0109850Y0327673D01*
X0201582Y0305036D02*
X0201582Y0300902D01*
X0201582Y0305036D02*
X0205716Y0305036D01*
X0205716Y0300902D01*
X0201582Y0300902D01*
X0201582Y0302673D02*
X0205716Y0302673D01*
X0205716Y0304444D02*
X0201582Y0304444D01*
X0248039Y0305036D02*
X0248039Y0300902D01*
X0248039Y0305036D02*
X0252173Y0305036D01*
X0252173Y0300902D01*
X0248039Y0300902D01*
X0248039Y0302673D02*
X0252173Y0302673D01*
X0252173Y0304444D02*
X0248039Y0304444D01*
X0275204Y0328657D02*
X0279338Y0328657D01*
X0279338Y0324131D01*
X0275204Y0324131D01*
X0275204Y0328657D01*
X0275204Y0325902D02*
X0279338Y0325902D01*
X0279338Y0327673D02*
X0275204Y0327673D01*
X0283078Y0328657D02*
X0287212Y0328657D01*
X0287212Y0324131D01*
X0283078Y0324131D01*
X0283078Y0328657D01*
X0283078Y0325902D02*
X0287212Y0325902D01*
X0287212Y0327673D02*
X0283078Y0327673D01*
X0248039Y0234957D02*
X0248039Y0230823D01*
X0248039Y0234957D02*
X0252173Y0234957D01*
X0252173Y0230823D01*
X0248039Y0230823D01*
X0248039Y0232594D02*
X0252173Y0232594D01*
X0252173Y0234365D02*
X0248039Y0234365D01*
X0201582Y0234957D02*
X0201582Y0230823D01*
X0201582Y0234957D02*
X0205716Y0234957D01*
X0205716Y0230823D01*
X0201582Y0230823D01*
X0201582Y0232594D02*
X0205716Y0232594D01*
X0205716Y0234365D02*
X0201582Y0234365D01*
X0275204Y0155428D02*
X0279338Y0155428D01*
X0279338Y0150902D01*
X0275204Y0150902D01*
X0275204Y0155428D01*
X0275204Y0152673D02*
X0279338Y0152673D01*
X0279338Y0154444D02*
X0275204Y0154444D01*
X0283078Y0155428D02*
X0287212Y0155428D01*
X0287212Y0150902D01*
X0283078Y0150902D01*
X0283078Y0155428D01*
X0283078Y0152673D02*
X0287212Y0152673D01*
X0287212Y0154444D02*
X0283078Y0154444D01*
X0248039Y0131807D02*
X0248039Y0127673D01*
X0248039Y0131807D02*
X0252173Y0131807D01*
X0252173Y0127673D01*
X0248039Y0127673D01*
X0248039Y0129444D02*
X0252173Y0129444D01*
X0252173Y0131215D02*
X0248039Y0131215D01*
X0201582Y0131807D02*
X0201582Y0127673D01*
X0201582Y0131807D02*
X0205716Y0131807D01*
X0205716Y0127673D01*
X0201582Y0127673D01*
X0201582Y0129444D02*
X0205716Y0129444D01*
X0205716Y0131215D02*
X0201582Y0131215D01*
X0201582Y0061728D02*
X0201582Y0057594D01*
X0201582Y0061728D02*
X0205716Y0061728D01*
X0205716Y0057594D01*
X0201582Y0057594D01*
X0201582Y0059365D02*
X0205716Y0059365D01*
X0205716Y0061136D02*
X0201582Y0061136D01*
X0248039Y0061728D02*
X0248039Y0057594D01*
X0248039Y0061728D02*
X0252173Y0061728D01*
X0252173Y0057594D01*
X0248039Y0057594D01*
X0248039Y0059365D02*
X0252173Y0059365D01*
X0252173Y0061136D02*
X0248039Y0061136D01*
X0074810Y0061728D02*
X0074810Y0057594D01*
X0074810Y0061728D02*
X0078944Y0061728D01*
X0078944Y0057594D01*
X0074810Y0057594D01*
X0074810Y0059365D02*
X0078944Y0059365D01*
X0078944Y0061136D02*
X0074810Y0061136D01*
X0028354Y0061728D02*
X0028354Y0057594D01*
X0028354Y0061728D02*
X0032488Y0061728D01*
X0032488Y0057594D01*
X0028354Y0057594D01*
X0028354Y0059365D02*
X0032488Y0059365D01*
X0032488Y0061136D02*
X0028354Y0061136D01*
D13*
X0036345Y0058658D02*
X0036345Y0054366D01*
X0036345Y0058658D02*
X0038275Y0058658D01*
X0038275Y0054366D01*
X0036345Y0054366D01*
X0036345Y0055192D02*
X0038275Y0055192D01*
X0038275Y0056018D02*
X0036345Y0056018D01*
X0036345Y0056844D02*
X0038275Y0056844D01*
X0038275Y0057670D02*
X0036345Y0057670D01*
X0036345Y0058496D02*
X0038275Y0058496D01*
X0040676Y0058658D02*
X0040676Y0054366D01*
X0040676Y0058658D02*
X0042606Y0058658D01*
X0042606Y0054366D01*
X0040676Y0054366D01*
X0040676Y0055192D02*
X0042606Y0055192D01*
X0042606Y0056018D02*
X0040676Y0056018D01*
X0040676Y0056844D02*
X0042606Y0056844D01*
X0042606Y0057670D02*
X0040676Y0057670D01*
X0040676Y0058496D02*
X0042606Y0058496D01*
X0064692Y0058658D02*
X0064692Y0054366D01*
X0064692Y0058658D02*
X0066622Y0058658D01*
X0066622Y0054366D01*
X0064692Y0054366D01*
X0064692Y0055192D02*
X0066622Y0055192D01*
X0066622Y0056018D02*
X0064692Y0056018D01*
X0064692Y0056844D02*
X0066622Y0056844D01*
X0066622Y0057670D02*
X0064692Y0057670D01*
X0064692Y0058496D02*
X0066622Y0058496D01*
X0069023Y0058658D02*
X0069023Y0054366D01*
X0069023Y0058658D02*
X0070953Y0058658D01*
X0070953Y0054366D01*
X0069023Y0054366D01*
X0069023Y0055192D02*
X0070953Y0055192D01*
X0070953Y0056018D02*
X0069023Y0056018D01*
X0069023Y0056844D02*
X0070953Y0056844D01*
X0070953Y0057670D02*
X0069023Y0057670D01*
X0069023Y0058496D02*
X0070953Y0058496D01*
X0209574Y0058658D02*
X0209574Y0054366D01*
X0209574Y0058658D02*
X0211504Y0058658D01*
X0211504Y0054366D01*
X0209574Y0054366D01*
X0209574Y0055192D02*
X0211504Y0055192D01*
X0211504Y0056018D02*
X0209574Y0056018D01*
X0209574Y0056844D02*
X0211504Y0056844D01*
X0211504Y0057670D02*
X0209574Y0057670D01*
X0209574Y0058496D02*
X0211504Y0058496D01*
X0213904Y0058658D02*
X0213904Y0054366D01*
X0213904Y0058658D02*
X0215834Y0058658D01*
X0215834Y0054366D01*
X0213904Y0054366D01*
X0213904Y0055192D02*
X0215834Y0055192D01*
X0215834Y0056018D02*
X0213904Y0056018D01*
X0213904Y0056844D02*
X0215834Y0056844D01*
X0215834Y0057670D02*
X0213904Y0057670D01*
X0213904Y0058496D02*
X0215834Y0058496D01*
X0237920Y0058658D02*
X0237920Y0054366D01*
X0237920Y0058658D02*
X0239850Y0058658D01*
X0239850Y0054366D01*
X0237920Y0054366D01*
X0237920Y0055192D02*
X0239850Y0055192D01*
X0239850Y0056018D02*
X0237920Y0056018D01*
X0237920Y0056844D02*
X0239850Y0056844D01*
X0239850Y0057670D02*
X0237920Y0057670D01*
X0237920Y0058496D02*
X0239850Y0058496D01*
X0242251Y0058658D02*
X0242251Y0054366D01*
X0242251Y0058658D02*
X0244181Y0058658D01*
X0244181Y0054366D01*
X0242251Y0054366D01*
X0242251Y0055192D02*
X0244181Y0055192D01*
X0244181Y0056018D02*
X0242251Y0056018D01*
X0242251Y0056844D02*
X0244181Y0056844D01*
X0244181Y0057670D02*
X0242251Y0057670D01*
X0242251Y0058496D02*
X0244181Y0058496D01*
X0242251Y0227594D02*
X0242251Y0231886D01*
X0244181Y0231886D01*
X0244181Y0227594D01*
X0242251Y0227594D01*
X0242251Y0228420D02*
X0244181Y0228420D01*
X0244181Y0229246D02*
X0242251Y0229246D01*
X0242251Y0230072D02*
X0244181Y0230072D01*
X0244181Y0230898D02*
X0242251Y0230898D01*
X0242251Y0231724D02*
X0244181Y0231724D01*
X0237920Y0231886D02*
X0237920Y0227594D01*
X0237920Y0231886D02*
X0239850Y0231886D01*
X0239850Y0227594D01*
X0237920Y0227594D01*
X0237920Y0228420D02*
X0239850Y0228420D01*
X0239850Y0229246D02*
X0237920Y0229246D01*
X0237920Y0230072D02*
X0239850Y0230072D01*
X0239850Y0230898D02*
X0237920Y0230898D01*
X0237920Y0231724D02*
X0239850Y0231724D01*
X0213904Y0231886D02*
X0213904Y0227594D01*
X0213904Y0231886D02*
X0215834Y0231886D01*
X0215834Y0227594D01*
X0213904Y0227594D01*
X0213904Y0228420D02*
X0215834Y0228420D01*
X0215834Y0229246D02*
X0213904Y0229246D01*
X0213904Y0230072D02*
X0215834Y0230072D01*
X0215834Y0230898D02*
X0213904Y0230898D01*
X0213904Y0231724D02*
X0215834Y0231724D01*
X0209574Y0231886D02*
X0209574Y0227594D01*
X0209574Y0231886D02*
X0211504Y0231886D01*
X0211504Y0227594D01*
X0209574Y0227594D01*
X0209574Y0228420D02*
X0211504Y0228420D01*
X0211504Y0229246D02*
X0209574Y0229246D01*
X0209574Y0230072D02*
X0211504Y0230072D01*
X0211504Y0230898D02*
X0209574Y0230898D01*
X0209574Y0231724D02*
X0211504Y0231724D01*
X0069023Y0231886D02*
X0069023Y0227594D01*
X0069023Y0231886D02*
X0070953Y0231886D01*
X0070953Y0227594D01*
X0069023Y0227594D01*
X0069023Y0228420D02*
X0070953Y0228420D01*
X0070953Y0229246D02*
X0069023Y0229246D01*
X0069023Y0230072D02*
X0070953Y0230072D01*
X0070953Y0230898D02*
X0069023Y0230898D01*
X0069023Y0231724D02*
X0070953Y0231724D01*
X0064692Y0231886D02*
X0064692Y0227594D01*
X0064692Y0231886D02*
X0066622Y0231886D01*
X0066622Y0227594D01*
X0064692Y0227594D01*
X0064692Y0228420D02*
X0066622Y0228420D01*
X0066622Y0229246D02*
X0064692Y0229246D01*
X0064692Y0230072D02*
X0066622Y0230072D01*
X0066622Y0230898D02*
X0064692Y0230898D01*
X0064692Y0231724D02*
X0066622Y0231724D01*
X0040676Y0231886D02*
X0040676Y0227594D01*
X0040676Y0231886D02*
X0042606Y0231886D01*
X0042606Y0227594D01*
X0040676Y0227594D01*
X0040676Y0228420D02*
X0042606Y0228420D01*
X0042606Y0229246D02*
X0040676Y0229246D01*
X0040676Y0230072D02*
X0042606Y0230072D01*
X0042606Y0230898D02*
X0040676Y0230898D01*
X0040676Y0231724D02*
X0042606Y0231724D01*
X0036345Y0231886D02*
X0036345Y0227594D01*
X0036345Y0231886D02*
X0038275Y0231886D01*
X0038275Y0227594D01*
X0036345Y0227594D01*
X0036345Y0228420D02*
X0038275Y0228420D01*
X0038275Y0229246D02*
X0036345Y0229246D01*
X0036345Y0230072D02*
X0038275Y0230072D01*
X0038275Y0230898D02*
X0036345Y0230898D01*
X0036345Y0231724D02*
X0038275Y0231724D01*
D14*
X0085240Y0249324D02*
X0085240Y0251102D01*
X0086624Y0251102D01*
X0086624Y0249324D01*
X0085240Y0249324D01*
X0085240Y0250103D02*
X0086624Y0250103D01*
X0086624Y0250882D02*
X0085240Y0250882D01*
X0085240Y0254048D02*
X0085240Y0255826D01*
X0086624Y0255826D01*
X0086624Y0254048D01*
X0085240Y0254048D01*
X0085240Y0254827D02*
X0086624Y0254827D01*
X0086624Y0255606D02*
X0085240Y0255606D01*
X0090653Y0255531D02*
X0090653Y0253949D01*
X0090653Y0255531D02*
X0092235Y0255531D01*
X0092235Y0253949D01*
X0090653Y0253949D01*
X0090653Y0254728D02*
X0092235Y0254728D01*
X0092235Y0255507D02*
X0090653Y0255507D01*
X0090653Y0251200D02*
X0090653Y0249618D01*
X0090653Y0251200D02*
X0092235Y0251200D01*
X0092235Y0249618D01*
X0090653Y0249618D01*
X0090653Y0250397D02*
X0092235Y0250397D01*
X0092235Y0251176D02*
X0090653Y0251176D01*
X0104046Y0265366D02*
X0104046Y0266948D01*
X0104046Y0265366D02*
X0102464Y0265366D01*
X0102464Y0266948D01*
X0104046Y0266948D01*
X0104046Y0266145D02*
X0102464Y0266145D01*
X0102464Y0266924D02*
X0104046Y0266924D01*
X0108771Y0266948D02*
X0108771Y0265366D01*
X0107189Y0265366D01*
X0107189Y0266948D01*
X0108771Y0266948D01*
X0108771Y0266145D02*
X0107189Y0266145D01*
X0107189Y0266924D02*
X0108771Y0266924D01*
X0108771Y0269697D02*
X0108771Y0271279D01*
X0108771Y0269697D02*
X0107189Y0269697D01*
X0107189Y0271279D01*
X0108771Y0271279D01*
X0108771Y0270476D02*
X0107189Y0270476D01*
X0107189Y0271255D02*
X0108771Y0271255D01*
X0104046Y0271279D02*
X0104046Y0269697D01*
X0102464Y0269697D01*
X0102464Y0271279D01*
X0104046Y0271279D01*
X0104046Y0270476D02*
X0102464Y0270476D01*
X0102464Y0271255D02*
X0104046Y0271255D01*
X0104925Y0281705D02*
X0106309Y0281705D01*
X0104925Y0281705D02*
X0104925Y0285649D01*
X0106309Y0285649D01*
X0106309Y0281705D01*
X0106309Y0282484D02*
X0104925Y0282484D01*
X0104925Y0283263D02*
X0106309Y0283263D01*
X0106309Y0284042D02*
X0104925Y0284042D01*
X0104925Y0284821D02*
X0106309Y0284821D01*
X0106309Y0285600D02*
X0104925Y0285600D01*
X0102569Y0281705D02*
X0101185Y0281705D01*
X0101185Y0285649D01*
X0102569Y0285649D01*
X0102569Y0281705D01*
X0102569Y0282484D02*
X0101185Y0282484D01*
X0101185Y0283263D02*
X0102569Y0283263D01*
X0102569Y0284042D02*
X0101185Y0284042D01*
X0101185Y0284821D02*
X0102569Y0284821D01*
X0102569Y0285600D02*
X0101185Y0285600D01*
X0101185Y0291941D02*
X0102569Y0291941D01*
X0101185Y0291941D02*
X0101185Y0295885D01*
X0102569Y0295885D01*
X0102569Y0291941D01*
X0102569Y0292720D02*
X0101185Y0292720D01*
X0101185Y0293499D02*
X0102569Y0293499D01*
X0102569Y0294278D02*
X0101185Y0294278D01*
X0101185Y0295057D02*
X0102569Y0295057D01*
X0102569Y0295836D02*
X0101185Y0295836D01*
X0108666Y0291941D02*
X0110050Y0291941D01*
X0108666Y0291941D02*
X0108666Y0295885D01*
X0110050Y0295885D01*
X0110050Y0291941D01*
X0110050Y0292720D02*
X0108666Y0292720D01*
X0108666Y0293499D02*
X0110050Y0293499D01*
X0110050Y0294278D02*
X0108666Y0294278D01*
X0108666Y0295057D02*
X0110050Y0295057D01*
X0110050Y0295836D02*
X0108666Y0295836D01*
X0108666Y0281705D02*
X0110050Y0281705D01*
X0108666Y0281705D02*
X0108666Y0285649D01*
X0110050Y0285649D01*
X0110050Y0281705D01*
X0110050Y0282484D02*
X0108666Y0282484D01*
X0108666Y0283263D02*
X0110050Y0283263D01*
X0110050Y0284042D02*
X0108666Y0284042D01*
X0108666Y0284821D02*
X0110050Y0284821D01*
X0110050Y0285600D02*
X0108666Y0285600D01*
X0125299Y0257106D02*
X0125299Y0255524D01*
X0125299Y0257106D02*
X0126881Y0257106D01*
X0126881Y0255524D01*
X0125299Y0255524D01*
X0125299Y0256303D02*
X0126881Y0256303D01*
X0126881Y0257082D02*
X0125299Y0257082D01*
X0125299Y0252775D02*
X0125299Y0251193D01*
X0125299Y0252775D02*
X0126881Y0252775D01*
X0126881Y0251193D01*
X0125299Y0251193D01*
X0125299Y0251972D02*
X0126881Y0251972D01*
X0126881Y0252751D02*
X0125299Y0252751D01*
X0129144Y0238503D02*
X0129144Y0236725D01*
X0127760Y0236725D01*
X0127760Y0238503D01*
X0129144Y0238503D01*
X0129144Y0237504D02*
X0127760Y0237504D01*
X0127760Y0238283D02*
X0129144Y0238283D01*
X0129144Y0233779D02*
X0129144Y0232001D01*
X0127760Y0232001D01*
X0127760Y0233779D01*
X0129144Y0233779D01*
X0129144Y0232780D02*
X0127760Y0232780D01*
X0127760Y0233559D02*
X0129144Y0233559D01*
X0147248Y0240760D02*
X0148632Y0240760D01*
X0147248Y0240760D02*
X0147248Y0244704D01*
X0148632Y0244704D01*
X0148632Y0240760D01*
X0148632Y0241539D02*
X0147248Y0241539D01*
X0147248Y0242318D02*
X0148632Y0242318D01*
X0148632Y0243097D02*
X0147248Y0243097D01*
X0147248Y0243876D02*
X0148632Y0243876D01*
X0148632Y0244655D02*
X0147248Y0244655D01*
X0150988Y0240760D02*
X0152372Y0240760D01*
X0150988Y0240760D02*
X0150988Y0244704D01*
X0152372Y0244704D01*
X0152372Y0240760D01*
X0152372Y0241539D02*
X0150988Y0241539D01*
X0150988Y0242318D02*
X0152372Y0242318D01*
X0152372Y0243097D02*
X0150988Y0243097D01*
X0150988Y0243876D02*
X0152372Y0243876D01*
X0152372Y0244655D02*
X0150988Y0244655D01*
X0154729Y0240760D02*
X0156113Y0240760D01*
X0154729Y0240760D02*
X0154729Y0244704D01*
X0156113Y0244704D01*
X0156113Y0240760D01*
X0156113Y0241539D02*
X0154729Y0241539D01*
X0154729Y0242318D02*
X0156113Y0242318D01*
X0156113Y0243097D02*
X0154729Y0243097D01*
X0154729Y0243876D02*
X0156113Y0243876D01*
X0156113Y0244655D02*
X0154729Y0244655D01*
X0154729Y0250997D02*
X0156113Y0250997D01*
X0154729Y0250997D02*
X0154729Y0254941D01*
X0156113Y0254941D01*
X0156113Y0250997D01*
X0156113Y0251776D02*
X0154729Y0251776D01*
X0154729Y0252555D02*
X0156113Y0252555D01*
X0156113Y0253334D02*
X0154729Y0253334D01*
X0154729Y0254113D02*
X0156113Y0254113D01*
X0156113Y0254892D02*
X0154729Y0254892D01*
X0148632Y0250997D02*
X0147248Y0250997D01*
X0147248Y0254941D01*
X0148632Y0254941D01*
X0148632Y0250997D01*
X0148632Y0251776D02*
X0147248Y0251776D01*
X0147248Y0252555D02*
X0148632Y0252555D01*
X0148632Y0253334D02*
X0147248Y0253334D01*
X0147248Y0254113D02*
X0148632Y0254113D01*
X0148632Y0254892D02*
X0147248Y0254892D01*
X0089866Y0192539D02*
X0089866Y0190957D01*
X0089866Y0192539D02*
X0091448Y0192539D01*
X0091448Y0190957D01*
X0089866Y0190957D01*
X0089866Y0191736D02*
X0091448Y0191736D01*
X0091448Y0192515D02*
X0089866Y0192515D01*
X0089866Y0188208D02*
X0089866Y0186626D01*
X0089866Y0188208D02*
X0091448Y0188208D01*
X0091448Y0186626D01*
X0089866Y0186626D01*
X0089866Y0187405D02*
X0091448Y0187405D01*
X0091448Y0188184D02*
X0089866Y0188184D01*
X0095575Y0182500D02*
X0097157Y0182500D01*
X0097157Y0180918D01*
X0095575Y0180918D01*
X0095575Y0182500D01*
X0095575Y0181697D02*
X0097157Y0181697D01*
X0097157Y0182476D02*
X0095575Y0182476D01*
X0099905Y0182500D02*
X0101487Y0182500D01*
X0101487Y0180918D01*
X0099905Y0180918D01*
X0099905Y0182500D01*
X0099905Y0181697D02*
X0101487Y0181697D01*
X0101487Y0182476D02*
X0099905Y0182476D01*
X0101185Y0118713D02*
X0102569Y0118713D01*
X0101185Y0118713D02*
X0101185Y0122657D01*
X0102569Y0122657D01*
X0102569Y0118713D01*
X0102569Y0119492D02*
X0101185Y0119492D01*
X0101185Y0120271D02*
X0102569Y0120271D01*
X0102569Y0121050D02*
X0101185Y0121050D01*
X0101185Y0121829D02*
X0102569Y0121829D01*
X0102569Y0122608D02*
X0101185Y0122608D01*
X0108666Y0118713D02*
X0110050Y0118713D01*
X0108666Y0118713D02*
X0108666Y0122657D01*
X0110050Y0122657D01*
X0110050Y0118713D01*
X0110050Y0119492D02*
X0108666Y0119492D01*
X0108666Y0120271D02*
X0110050Y0120271D01*
X0110050Y0121050D02*
X0108666Y0121050D01*
X0108666Y0121829D02*
X0110050Y0121829D01*
X0110050Y0122608D02*
X0108666Y0122608D01*
X0108666Y0108477D02*
X0110050Y0108477D01*
X0108666Y0108477D02*
X0108666Y0112421D01*
X0110050Y0112421D01*
X0110050Y0108477D01*
X0110050Y0109256D02*
X0108666Y0109256D01*
X0108666Y0110035D02*
X0110050Y0110035D01*
X0110050Y0110814D02*
X0108666Y0110814D01*
X0108666Y0111593D02*
X0110050Y0111593D01*
X0110050Y0112372D02*
X0108666Y0112372D01*
X0106309Y0108477D02*
X0104925Y0108477D01*
X0104925Y0112421D01*
X0106309Y0112421D01*
X0106309Y0108477D01*
X0106309Y0109256D02*
X0104925Y0109256D01*
X0104925Y0110035D02*
X0106309Y0110035D01*
X0106309Y0110814D02*
X0104925Y0110814D01*
X0104925Y0111593D02*
X0106309Y0111593D01*
X0106309Y0112372D02*
X0104925Y0112372D01*
X0102569Y0108477D02*
X0101185Y0108477D01*
X0101185Y0112421D01*
X0102569Y0112421D01*
X0102569Y0108477D01*
X0102569Y0109256D02*
X0101185Y0109256D01*
X0101185Y0110035D02*
X0102569Y0110035D01*
X0102569Y0110814D02*
X0101185Y0110814D01*
X0101185Y0111593D02*
X0102569Y0111593D01*
X0102569Y0112372D02*
X0101185Y0112372D01*
X0104046Y0098051D02*
X0104046Y0096469D01*
X0102464Y0096469D01*
X0102464Y0098051D01*
X0104046Y0098051D01*
X0104046Y0097248D02*
X0102464Y0097248D01*
X0102464Y0098027D02*
X0104046Y0098027D01*
X0108771Y0098051D02*
X0108771Y0096469D01*
X0107189Y0096469D01*
X0107189Y0098051D01*
X0108771Y0098051D01*
X0108771Y0097248D02*
X0107189Y0097248D01*
X0107189Y0098027D02*
X0108771Y0098027D01*
X0108771Y0093720D02*
X0108771Y0092138D01*
X0107189Y0092138D01*
X0107189Y0093720D01*
X0108771Y0093720D01*
X0108771Y0092917D02*
X0107189Y0092917D01*
X0107189Y0093696D02*
X0108771Y0093696D01*
X0104046Y0093720D02*
X0104046Y0092138D01*
X0102464Y0092138D01*
X0102464Y0093720D01*
X0104046Y0093720D01*
X0104046Y0092917D02*
X0102464Y0092917D01*
X0102464Y0093696D02*
X0104046Y0093696D01*
X0090653Y0082303D02*
X0090653Y0080721D01*
X0090653Y0082303D02*
X0092235Y0082303D01*
X0092235Y0080721D01*
X0090653Y0080721D01*
X0090653Y0081500D02*
X0092235Y0081500D01*
X0092235Y0082279D02*
X0090653Y0082279D01*
X0085240Y0082598D02*
X0085240Y0080820D01*
X0085240Y0082598D02*
X0086624Y0082598D01*
X0086624Y0080820D01*
X0085240Y0080820D01*
X0085240Y0081599D02*
X0086624Y0081599D01*
X0086624Y0082378D02*
X0085240Y0082378D01*
X0085240Y0077873D02*
X0085240Y0076095D01*
X0085240Y0077873D02*
X0086624Y0077873D01*
X0086624Y0076095D01*
X0085240Y0076095D01*
X0085240Y0076874D02*
X0086624Y0076874D01*
X0086624Y0077653D02*
X0085240Y0077653D01*
X0090653Y0077972D02*
X0090653Y0076390D01*
X0090653Y0077972D02*
X0092235Y0077972D01*
X0092235Y0076390D01*
X0090653Y0076390D01*
X0090653Y0077169D02*
X0092235Y0077169D01*
X0092235Y0077948D02*
X0090653Y0077948D01*
X0125299Y0077965D02*
X0125299Y0079547D01*
X0126881Y0079547D01*
X0126881Y0077965D01*
X0125299Y0077965D01*
X0125299Y0078744D02*
X0126881Y0078744D01*
X0126881Y0079523D02*
X0125299Y0079523D01*
X0125299Y0082296D02*
X0125299Y0083878D01*
X0126881Y0083878D01*
X0126881Y0082296D01*
X0125299Y0082296D01*
X0125299Y0083075D02*
X0126881Y0083075D01*
X0126881Y0083854D02*
X0125299Y0083854D01*
X0129144Y0065275D02*
X0129144Y0063497D01*
X0127760Y0063497D01*
X0127760Y0065275D01*
X0129144Y0065275D01*
X0129144Y0064276D02*
X0127760Y0064276D01*
X0127760Y0065055D02*
X0129144Y0065055D01*
X0129144Y0060550D02*
X0129144Y0058772D01*
X0127760Y0058772D01*
X0127760Y0060550D01*
X0129144Y0060550D01*
X0129144Y0059551D02*
X0127760Y0059551D01*
X0127760Y0060330D02*
X0129144Y0060330D01*
X0147248Y0067532D02*
X0148632Y0067532D01*
X0147248Y0067532D02*
X0147248Y0071476D01*
X0148632Y0071476D01*
X0148632Y0067532D01*
X0148632Y0068311D02*
X0147248Y0068311D01*
X0147248Y0069090D02*
X0148632Y0069090D01*
X0148632Y0069869D02*
X0147248Y0069869D01*
X0147248Y0070648D02*
X0148632Y0070648D01*
X0148632Y0071427D02*
X0147248Y0071427D01*
X0150988Y0067532D02*
X0152372Y0067532D01*
X0150988Y0067532D02*
X0150988Y0071476D01*
X0152372Y0071476D01*
X0152372Y0067532D01*
X0152372Y0068311D02*
X0150988Y0068311D01*
X0150988Y0069090D02*
X0152372Y0069090D01*
X0152372Y0069869D02*
X0150988Y0069869D01*
X0150988Y0070648D02*
X0152372Y0070648D01*
X0152372Y0071427D02*
X0150988Y0071427D01*
X0154729Y0067532D02*
X0156113Y0067532D01*
X0154729Y0067532D02*
X0154729Y0071476D01*
X0156113Y0071476D01*
X0156113Y0067532D01*
X0156113Y0068311D02*
X0154729Y0068311D01*
X0154729Y0069090D02*
X0156113Y0069090D01*
X0156113Y0069869D02*
X0154729Y0069869D01*
X0154729Y0070648D02*
X0156113Y0070648D01*
X0156113Y0071427D02*
X0154729Y0071427D01*
X0154729Y0077768D02*
X0156113Y0077768D01*
X0154729Y0077768D02*
X0154729Y0081712D01*
X0156113Y0081712D01*
X0156113Y0077768D01*
X0156113Y0078547D02*
X0154729Y0078547D01*
X0154729Y0079326D02*
X0156113Y0079326D01*
X0156113Y0080105D02*
X0154729Y0080105D01*
X0154729Y0080884D02*
X0156113Y0080884D01*
X0156113Y0081663D02*
X0154729Y0081663D01*
X0148632Y0077768D02*
X0147248Y0077768D01*
X0147248Y0081712D01*
X0148632Y0081712D01*
X0148632Y0077768D01*
X0148632Y0078547D02*
X0147248Y0078547D01*
X0147248Y0079326D02*
X0148632Y0079326D01*
X0148632Y0080105D02*
X0147248Y0080105D01*
X0147248Y0080884D02*
X0148632Y0080884D01*
X0148632Y0081663D02*
X0147248Y0081663D01*
X0089866Y0019311D02*
X0089866Y0017729D01*
X0089866Y0019311D02*
X0091448Y0019311D01*
X0091448Y0017729D01*
X0089866Y0017729D01*
X0089866Y0018508D02*
X0091448Y0018508D01*
X0091448Y0019287D02*
X0089866Y0019287D01*
X0089866Y0014980D02*
X0089866Y0013398D01*
X0089866Y0014980D02*
X0091448Y0014980D01*
X0091448Y0013398D01*
X0089866Y0013398D01*
X0089866Y0014177D02*
X0091448Y0014177D01*
X0091448Y0014956D02*
X0089866Y0014956D01*
X0095575Y0009271D02*
X0097157Y0009271D01*
X0097157Y0007689D01*
X0095575Y0007689D01*
X0095575Y0009271D01*
X0095575Y0008468D02*
X0097157Y0008468D01*
X0097157Y0009247D02*
X0095575Y0009247D01*
X0099905Y0009271D02*
X0101487Y0009271D01*
X0101487Y0007689D01*
X0099905Y0007689D01*
X0099905Y0009271D01*
X0099905Y0008468D02*
X0101487Y0008468D01*
X0101487Y0009247D02*
X0099905Y0009247D01*
X0258469Y0076095D02*
X0258469Y0077873D01*
X0259853Y0077873D01*
X0259853Y0076095D01*
X0258469Y0076095D01*
X0258469Y0076874D02*
X0259853Y0076874D01*
X0259853Y0077653D02*
X0258469Y0077653D01*
X0263882Y0077972D02*
X0263882Y0076390D01*
X0263882Y0077972D02*
X0265464Y0077972D01*
X0265464Y0076390D01*
X0263882Y0076390D01*
X0263882Y0077169D02*
X0265464Y0077169D01*
X0265464Y0077948D02*
X0263882Y0077948D01*
X0263882Y0080721D02*
X0263882Y0082303D01*
X0265464Y0082303D01*
X0265464Y0080721D01*
X0263882Y0080721D01*
X0263882Y0081500D02*
X0265464Y0081500D01*
X0265464Y0082279D02*
X0263882Y0082279D01*
X0258469Y0082598D02*
X0258469Y0080820D01*
X0258469Y0082598D02*
X0259853Y0082598D01*
X0259853Y0080820D01*
X0258469Y0080820D01*
X0258469Y0081599D02*
X0259853Y0081599D01*
X0259853Y0082378D02*
X0258469Y0082378D01*
X0277275Y0092138D02*
X0277275Y0093720D01*
X0277275Y0092138D02*
X0275693Y0092138D01*
X0275693Y0093720D01*
X0277275Y0093720D01*
X0277275Y0092917D02*
X0275693Y0092917D01*
X0275693Y0093696D02*
X0277275Y0093696D01*
X0277275Y0096469D02*
X0277275Y0098051D01*
X0277275Y0096469D02*
X0275693Y0096469D01*
X0275693Y0098051D01*
X0277275Y0098051D01*
X0277275Y0097248D02*
X0275693Y0097248D01*
X0275693Y0098027D02*
X0277275Y0098027D01*
X0281999Y0098051D02*
X0281999Y0096469D01*
X0280417Y0096469D01*
X0280417Y0098051D01*
X0281999Y0098051D01*
X0281999Y0097248D02*
X0280417Y0097248D01*
X0280417Y0098027D02*
X0281999Y0098027D01*
X0281999Y0093720D02*
X0281999Y0092138D01*
X0280417Y0092138D01*
X0280417Y0093720D01*
X0281999Y0093720D01*
X0281999Y0092917D02*
X0280417Y0092917D01*
X0280417Y0093696D02*
X0281999Y0093696D01*
X0281894Y0108477D02*
X0283278Y0108477D01*
X0281894Y0108477D02*
X0281894Y0112421D01*
X0283278Y0112421D01*
X0283278Y0108477D01*
X0283278Y0109256D02*
X0281894Y0109256D01*
X0281894Y0110035D02*
X0283278Y0110035D01*
X0283278Y0110814D02*
X0281894Y0110814D01*
X0281894Y0111593D02*
X0283278Y0111593D01*
X0283278Y0112372D02*
X0281894Y0112372D01*
X0279538Y0108477D02*
X0278154Y0108477D01*
X0278154Y0112421D01*
X0279538Y0112421D01*
X0279538Y0108477D01*
X0279538Y0109256D02*
X0278154Y0109256D01*
X0278154Y0110035D02*
X0279538Y0110035D01*
X0279538Y0110814D02*
X0278154Y0110814D01*
X0278154Y0111593D02*
X0279538Y0111593D01*
X0279538Y0112372D02*
X0278154Y0112372D01*
X0275798Y0108477D02*
X0274414Y0108477D01*
X0274414Y0112421D01*
X0275798Y0112421D01*
X0275798Y0108477D01*
X0275798Y0109256D02*
X0274414Y0109256D01*
X0274414Y0110035D02*
X0275798Y0110035D01*
X0275798Y0110814D02*
X0274414Y0110814D01*
X0274414Y0111593D02*
X0275798Y0111593D01*
X0275798Y0112372D02*
X0274414Y0112372D01*
X0274414Y0118713D02*
X0275798Y0118713D01*
X0274414Y0118713D02*
X0274414Y0122657D01*
X0275798Y0122657D01*
X0275798Y0118713D01*
X0275798Y0119492D02*
X0274414Y0119492D01*
X0274414Y0120271D02*
X0275798Y0120271D01*
X0275798Y0121050D02*
X0274414Y0121050D01*
X0274414Y0121829D02*
X0275798Y0121829D01*
X0275798Y0122608D02*
X0274414Y0122608D01*
X0281894Y0118713D02*
X0283278Y0118713D01*
X0281894Y0118713D02*
X0281894Y0122657D01*
X0283278Y0122657D01*
X0283278Y0118713D01*
X0283278Y0119492D02*
X0281894Y0119492D01*
X0281894Y0120271D02*
X0283278Y0120271D01*
X0283278Y0121050D02*
X0281894Y0121050D01*
X0281894Y0121829D02*
X0283278Y0121829D01*
X0283278Y0122608D02*
X0281894Y0122608D01*
X0298527Y0083878D02*
X0298527Y0082296D01*
X0298527Y0083878D02*
X0300109Y0083878D01*
X0300109Y0082296D01*
X0298527Y0082296D01*
X0298527Y0083075D02*
X0300109Y0083075D01*
X0300109Y0083854D02*
X0298527Y0083854D01*
X0298527Y0079547D02*
X0298527Y0077965D01*
X0298527Y0079547D02*
X0300109Y0079547D01*
X0300109Y0077965D01*
X0298527Y0077965D01*
X0298527Y0078744D02*
X0300109Y0078744D01*
X0300109Y0079523D02*
X0298527Y0079523D01*
X0302372Y0065275D02*
X0302372Y0063497D01*
X0300988Y0063497D01*
X0300988Y0065275D01*
X0302372Y0065275D01*
X0302372Y0064276D02*
X0300988Y0064276D01*
X0300988Y0065055D02*
X0302372Y0065055D01*
X0302372Y0060550D02*
X0302372Y0058772D01*
X0300988Y0058772D01*
X0300988Y0060550D01*
X0302372Y0060550D01*
X0302372Y0059551D02*
X0300988Y0059551D01*
X0300988Y0060330D02*
X0302372Y0060330D01*
X0320477Y0067532D02*
X0321861Y0067532D01*
X0320477Y0067532D02*
X0320477Y0071476D01*
X0321861Y0071476D01*
X0321861Y0067532D01*
X0321861Y0068311D02*
X0320477Y0068311D01*
X0320477Y0069090D02*
X0321861Y0069090D01*
X0321861Y0069869D02*
X0320477Y0069869D01*
X0320477Y0070648D02*
X0321861Y0070648D01*
X0321861Y0071427D02*
X0320477Y0071427D01*
X0324217Y0067532D02*
X0325601Y0067532D01*
X0324217Y0067532D02*
X0324217Y0071476D01*
X0325601Y0071476D01*
X0325601Y0067532D01*
X0325601Y0068311D02*
X0324217Y0068311D01*
X0324217Y0069090D02*
X0325601Y0069090D01*
X0325601Y0069869D02*
X0324217Y0069869D01*
X0324217Y0070648D02*
X0325601Y0070648D01*
X0325601Y0071427D02*
X0324217Y0071427D01*
X0327957Y0067532D02*
X0329341Y0067532D01*
X0327957Y0067532D02*
X0327957Y0071476D01*
X0329341Y0071476D01*
X0329341Y0067532D01*
X0329341Y0068311D02*
X0327957Y0068311D01*
X0327957Y0069090D02*
X0329341Y0069090D01*
X0329341Y0069869D02*
X0327957Y0069869D01*
X0327957Y0070648D02*
X0329341Y0070648D01*
X0329341Y0071427D02*
X0327957Y0071427D01*
X0327957Y0077768D02*
X0329341Y0077768D01*
X0327957Y0077768D02*
X0327957Y0081712D01*
X0329341Y0081712D01*
X0329341Y0077768D01*
X0329341Y0078547D02*
X0327957Y0078547D01*
X0327957Y0079326D02*
X0329341Y0079326D01*
X0329341Y0080105D02*
X0327957Y0080105D01*
X0327957Y0080884D02*
X0329341Y0080884D01*
X0329341Y0081663D02*
X0327957Y0081663D01*
X0321861Y0077768D02*
X0320477Y0077768D01*
X0320477Y0081712D01*
X0321861Y0081712D01*
X0321861Y0077768D01*
X0321861Y0078547D02*
X0320477Y0078547D01*
X0320477Y0079326D02*
X0321861Y0079326D01*
X0321861Y0080105D02*
X0320477Y0080105D01*
X0320477Y0080884D02*
X0321861Y0080884D01*
X0321861Y0081663D02*
X0320477Y0081663D01*
X0263094Y0019311D02*
X0263094Y0017729D01*
X0263094Y0019311D02*
X0264676Y0019311D01*
X0264676Y0017729D01*
X0263094Y0017729D01*
X0263094Y0018508D02*
X0264676Y0018508D01*
X0264676Y0019287D02*
X0263094Y0019287D01*
X0263094Y0014980D02*
X0263094Y0013398D01*
X0263094Y0014980D02*
X0264676Y0014980D01*
X0264676Y0013398D01*
X0263094Y0013398D01*
X0263094Y0014177D02*
X0264676Y0014177D01*
X0264676Y0014956D02*
X0263094Y0014956D01*
X0268803Y0009271D02*
X0270385Y0009271D01*
X0270385Y0007689D01*
X0268803Y0007689D01*
X0268803Y0009271D01*
X0268803Y0008468D02*
X0270385Y0008468D01*
X0270385Y0009247D02*
X0268803Y0009247D01*
X0273134Y0009271D02*
X0274716Y0009271D01*
X0274716Y0007689D01*
X0273134Y0007689D01*
X0273134Y0009271D01*
X0273134Y0008468D02*
X0274716Y0008468D01*
X0274716Y0009247D02*
X0273134Y0009247D01*
X0273134Y0182500D02*
X0274716Y0182500D01*
X0274716Y0180918D01*
X0273134Y0180918D01*
X0273134Y0182500D01*
X0273134Y0181697D02*
X0274716Y0181697D01*
X0274716Y0182476D02*
X0273134Y0182476D01*
X0270385Y0182500D02*
X0268803Y0182500D01*
X0270385Y0182500D02*
X0270385Y0180918D01*
X0268803Y0180918D01*
X0268803Y0182500D01*
X0268803Y0181697D02*
X0270385Y0181697D01*
X0270385Y0182476D02*
X0268803Y0182476D01*
X0263094Y0186626D02*
X0263094Y0188208D01*
X0264676Y0188208D01*
X0264676Y0186626D01*
X0263094Y0186626D01*
X0263094Y0187405D02*
X0264676Y0187405D01*
X0264676Y0188184D02*
X0263094Y0188184D01*
X0263094Y0190957D02*
X0263094Y0192539D01*
X0264676Y0192539D01*
X0264676Y0190957D01*
X0263094Y0190957D01*
X0263094Y0191736D02*
X0264676Y0191736D01*
X0264676Y0192515D02*
X0263094Y0192515D01*
X0302372Y0232001D02*
X0302372Y0233779D01*
X0302372Y0232001D02*
X0300988Y0232001D01*
X0300988Y0233779D01*
X0302372Y0233779D01*
X0302372Y0232780D02*
X0300988Y0232780D01*
X0300988Y0233559D02*
X0302372Y0233559D01*
X0302372Y0236725D02*
X0302372Y0238503D01*
X0302372Y0236725D02*
X0300988Y0236725D01*
X0300988Y0238503D01*
X0302372Y0238503D01*
X0302372Y0237504D02*
X0300988Y0237504D01*
X0300988Y0238283D02*
X0302372Y0238283D01*
X0298527Y0251193D02*
X0298527Y0252775D01*
X0300109Y0252775D01*
X0300109Y0251193D01*
X0298527Y0251193D01*
X0298527Y0251972D02*
X0300109Y0251972D01*
X0300109Y0252751D02*
X0298527Y0252751D01*
X0298527Y0255524D02*
X0298527Y0257106D01*
X0300109Y0257106D01*
X0300109Y0255524D01*
X0298527Y0255524D01*
X0298527Y0256303D02*
X0300109Y0256303D01*
X0300109Y0257082D02*
X0298527Y0257082D01*
X0281999Y0265366D02*
X0281999Y0266948D01*
X0281999Y0265366D02*
X0280417Y0265366D01*
X0280417Y0266948D01*
X0281999Y0266948D01*
X0281999Y0266145D02*
X0280417Y0266145D01*
X0280417Y0266924D02*
X0281999Y0266924D01*
X0281999Y0269697D02*
X0281999Y0271279D01*
X0281999Y0269697D02*
X0280417Y0269697D01*
X0280417Y0271279D01*
X0281999Y0271279D01*
X0281999Y0270476D02*
X0280417Y0270476D01*
X0280417Y0271255D02*
X0281999Y0271255D01*
X0277275Y0271279D02*
X0277275Y0269697D01*
X0275693Y0269697D01*
X0275693Y0271279D01*
X0277275Y0271279D01*
X0277275Y0270476D02*
X0275693Y0270476D01*
X0275693Y0271255D02*
X0277275Y0271255D01*
X0277275Y0266948D02*
X0277275Y0265366D01*
X0275693Y0265366D01*
X0275693Y0266948D01*
X0277275Y0266948D01*
X0277275Y0266145D02*
X0275693Y0266145D01*
X0275693Y0266924D02*
X0277275Y0266924D01*
X0263882Y0255531D02*
X0263882Y0253949D01*
X0263882Y0255531D02*
X0265464Y0255531D01*
X0265464Y0253949D01*
X0263882Y0253949D01*
X0263882Y0254728D02*
X0265464Y0254728D01*
X0265464Y0255507D02*
X0263882Y0255507D01*
X0258469Y0255826D02*
X0258469Y0254048D01*
X0258469Y0255826D02*
X0259853Y0255826D01*
X0259853Y0254048D01*
X0258469Y0254048D01*
X0258469Y0254827D02*
X0259853Y0254827D01*
X0259853Y0255606D02*
X0258469Y0255606D01*
X0258469Y0251102D02*
X0258469Y0249324D01*
X0258469Y0251102D02*
X0259853Y0251102D01*
X0259853Y0249324D01*
X0258469Y0249324D01*
X0258469Y0250103D02*
X0259853Y0250103D01*
X0259853Y0250882D02*
X0258469Y0250882D01*
X0263882Y0251200D02*
X0263882Y0249618D01*
X0263882Y0251200D02*
X0265464Y0251200D01*
X0265464Y0249618D01*
X0263882Y0249618D01*
X0263882Y0250397D02*
X0265464Y0250397D01*
X0265464Y0251176D02*
X0263882Y0251176D01*
X0274414Y0281705D02*
X0275798Y0281705D01*
X0274414Y0281705D02*
X0274414Y0285649D01*
X0275798Y0285649D01*
X0275798Y0281705D01*
X0275798Y0282484D02*
X0274414Y0282484D01*
X0274414Y0283263D02*
X0275798Y0283263D01*
X0275798Y0284042D02*
X0274414Y0284042D01*
X0274414Y0284821D02*
X0275798Y0284821D01*
X0275798Y0285600D02*
X0274414Y0285600D01*
X0278154Y0281705D02*
X0279538Y0281705D01*
X0278154Y0281705D02*
X0278154Y0285649D01*
X0279538Y0285649D01*
X0279538Y0281705D01*
X0279538Y0282484D02*
X0278154Y0282484D01*
X0278154Y0283263D02*
X0279538Y0283263D01*
X0279538Y0284042D02*
X0278154Y0284042D01*
X0278154Y0284821D02*
X0279538Y0284821D01*
X0279538Y0285600D02*
X0278154Y0285600D01*
X0281894Y0281705D02*
X0283278Y0281705D01*
X0281894Y0281705D02*
X0281894Y0285649D01*
X0283278Y0285649D01*
X0283278Y0281705D01*
X0283278Y0282484D02*
X0281894Y0282484D01*
X0281894Y0283263D02*
X0283278Y0283263D01*
X0283278Y0284042D02*
X0281894Y0284042D01*
X0281894Y0284821D02*
X0283278Y0284821D01*
X0283278Y0285600D02*
X0281894Y0285600D01*
X0281894Y0291941D02*
X0283278Y0291941D01*
X0281894Y0291941D02*
X0281894Y0295885D01*
X0283278Y0295885D01*
X0283278Y0291941D01*
X0283278Y0292720D02*
X0281894Y0292720D01*
X0281894Y0293499D02*
X0283278Y0293499D01*
X0283278Y0294278D02*
X0281894Y0294278D01*
X0281894Y0295057D02*
X0283278Y0295057D01*
X0283278Y0295836D02*
X0281894Y0295836D01*
X0275798Y0291941D02*
X0274414Y0291941D01*
X0274414Y0295885D01*
X0275798Y0295885D01*
X0275798Y0291941D01*
X0275798Y0292720D02*
X0274414Y0292720D01*
X0274414Y0293499D02*
X0275798Y0293499D01*
X0275798Y0294278D02*
X0274414Y0294278D01*
X0274414Y0295057D02*
X0275798Y0295057D01*
X0275798Y0295836D02*
X0274414Y0295836D01*
X0320477Y0250997D02*
X0321861Y0250997D01*
X0320477Y0250997D02*
X0320477Y0254941D01*
X0321861Y0254941D01*
X0321861Y0250997D01*
X0321861Y0251776D02*
X0320477Y0251776D01*
X0320477Y0252555D02*
X0321861Y0252555D01*
X0321861Y0253334D02*
X0320477Y0253334D01*
X0320477Y0254113D02*
X0321861Y0254113D01*
X0321861Y0254892D02*
X0320477Y0254892D01*
X0327957Y0250997D02*
X0329341Y0250997D01*
X0327957Y0250997D02*
X0327957Y0254941D01*
X0329341Y0254941D01*
X0329341Y0250997D01*
X0329341Y0251776D02*
X0327957Y0251776D01*
X0327957Y0252555D02*
X0329341Y0252555D01*
X0329341Y0253334D02*
X0327957Y0253334D01*
X0327957Y0254113D02*
X0329341Y0254113D01*
X0329341Y0254892D02*
X0327957Y0254892D01*
X0327957Y0240760D02*
X0329341Y0240760D01*
X0327957Y0240760D02*
X0327957Y0244704D01*
X0329341Y0244704D01*
X0329341Y0240760D01*
X0329341Y0241539D02*
X0327957Y0241539D01*
X0327957Y0242318D02*
X0329341Y0242318D01*
X0329341Y0243097D02*
X0327957Y0243097D01*
X0327957Y0243876D02*
X0329341Y0243876D01*
X0329341Y0244655D02*
X0327957Y0244655D01*
X0325601Y0240760D02*
X0324217Y0240760D01*
X0324217Y0244704D01*
X0325601Y0244704D01*
X0325601Y0240760D01*
X0325601Y0241539D02*
X0324217Y0241539D01*
X0324217Y0242318D02*
X0325601Y0242318D01*
X0325601Y0243097D02*
X0324217Y0243097D01*
X0324217Y0243876D02*
X0325601Y0243876D01*
X0325601Y0244655D02*
X0324217Y0244655D01*
X0321861Y0240760D02*
X0320477Y0240760D01*
X0320477Y0244704D01*
X0321861Y0244704D01*
X0321861Y0240760D01*
X0321861Y0241539D02*
X0320477Y0241539D01*
X0320477Y0242318D02*
X0321861Y0242318D01*
X0321861Y0243097D02*
X0320477Y0243097D01*
X0320477Y0243876D02*
X0321861Y0243876D01*
X0321861Y0244655D02*
X0320477Y0244655D01*
D15*
X0316751Y0247947D02*
X0316157Y0247947D01*
X0316157Y0251887D01*
X0316751Y0251887D01*
X0316751Y0247947D01*
X0316751Y0248731D02*
X0316157Y0248731D01*
X0316157Y0249515D02*
X0316751Y0249515D01*
X0316751Y0250299D02*
X0316157Y0250299D01*
X0316157Y0251083D02*
X0316751Y0251083D01*
X0316751Y0251867D02*
X0316157Y0251867D01*
X0314251Y0247947D02*
X0313657Y0247947D01*
X0313657Y0251887D01*
X0314251Y0251887D01*
X0314251Y0247947D01*
X0314251Y0248731D02*
X0313657Y0248731D01*
X0313657Y0249515D02*
X0314251Y0249515D01*
X0314251Y0250299D02*
X0313657Y0250299D01*
X0313657Y0251083D02*
X0314251Y0251083D01*
X0314251Y0251867D02*
X0313657Y0251867D01*
X0311751Y0247947D02*
X0311157Y0247947D01*
X0311157Y0251887D01*
X0311751Y0251887D01*
X0311751Y0247947D01*
X0311751Y0248731D02*
X0311157Y0248731D01*
X0311157Y0249515D02*
X0311751Y0249515D01*
X0311751Y0250299D02*
X0311157Y0250299D01*
X0311157Y0251083D02*
X0311751Y0251083D01*
X0311751Y0251867D02*
X0311157Y0251867D01*
X0309251Y0247947D02*
X0308657Y0247947D01*
X0308657Y0251887D01*
X0309251Y0251887D01*
X0309251Y0247947D01*
X0309251Y0248731D02*
X0308657Y0248731D01*
X0308657Y0249515D02*
X0309251Y0249515D01*
X0309251Y0250299D02*
X0308657Y0250299D01*
X0308657Y0251083D02*
X0309251Y0251083D01*
X0309251Y0251867D02*
X0308657Y0251867D01*
X0308657Y0229640D02*
X0309251Y0229640D01*
X0308657Y0229640D02*
X0308657Y0233580D01*
X0309251Y0233580D01*
X0309251Y0229640D01*
X0309251Y0230424D02*
X0308657Y0230424D01*
X0308657Y0231208D02*
X0309251Y0231208D01*
X0309251Y0231992D02*
X0308657Y0231992D01*
X0308657Y0232776D02*
X0309251Y0232776D01*
X0309251Y0233560D02*
X0308657Y0233560D01*
X0311157Y0229640D02*
X0311751Y0229640D01*
X0311157Y0229640D02*
X0311157Y0233580D01*
X0311751Y0233580D01*
X0311751Y0229640D01*
X0311751Y0230424D02*
X0311157Y0230424D01*
X0311157Y0231208D02*
X0311751Y0231208D01*
X0311751Y0231992D02*
X0311157Y0231992D01*
X0311157Y0232776D02*
X0311751Y0232776D01*
X0311751Y0233560D02*
X0311157Y0233560D01*
X0313657Y0229640D02*
X0314251Y0229640D01*
X0313657Y0229640D02*
X0313657Y0233580D01*
X0314251Y0233580D01*
X0314251Y0229640D01*
X0314251Y0230424D02*
X0313657Y0230424D01*
X0313657Y0231208D02*
X0314251Y0231208D01*
X0314251Y0231992D02*
X0313657Y0231992D01*
X0313657Y0232776D02*
X0314251Y0232776D01*
X0314251Y0233560D02*
X0313657Y0233560D01*
X0316157Y0229640D02*
X0316751Y0229640D01*
X0316157Y0229640D02*
X0316157Y0233580D01*
X0316751Y0233580D01*
X0316751Y0229640D01*
X0316751Y0230424D02*
X0316157Y0230424D01*
X0316157Y0231208D02*
X0316751Y0231208D01*
X0316751Y0231992D02*
X0316157Y0231992D01*
X0316157Y0232776D02*
X0316751Y0232776D01*
X0316751Y0233560D02*
X0316157Y0233560D01*
X0316157Y0074719D02*
X0316751Y0074719D01*
X0316157Y0074719D02*
X0316157Y0078659D01*
X0316751Y0078659D01*
X0316751Y0074719D01*
X0316751Y0075503D02*
X0316157Y0075503D01*
X0316157Y0076287D02*
X0316751Y0076287D01*
X0316751Y0077071D02*
X0316157Y0077071D01*
X0316157Y0077855D02*
X0316751Y0077855D01*
X0316751Y0078639D02*
X0316157Y0078639D01*
X0314251Y0074719D02*
X0313657Y0074719D01*
X0313657Y0078659D01*
X0314251Y0078659D01*
X0314251Y0074719D01*
X0314251Y0075503D02*
X0313657Y0075503D01*
X0313657Y0076287D02*
X0314251Y0076287D01*
X0314251Y0077071D02*
X0313657Y0077071D01*
X0313657Y0077855D02*
X0314251Y0077855D01*
X0314251Y0078639D02*
X0313657Y0078639D01*
X0311751Y0074719D02*
X0311157Y0074719D01*
X0311157Y0078659D01*
X0311751Y0078659D01*
X0311751Y0074719D01*
X0311751Y0075503D02*
X0311157Y0075503D01*
X0311157Y0076287D02*
X0311751Y0076287D01*
X0311751Y0077071D02*
X0311157Y0077071D01*
X0311157Y0077855D02*
X0311751Y0077855D01*
X0311751Y0078639D02*
X0311157Y0078639D01*
X0309251Y0074719D02*
X0308657Y0074719D01*
X0308657Y0078659D01*
X0309251Y0078659D01*
X0309251Y0074719D01*
X0309251Y0075503D02*
X0308657Y0075503D01*
X0308657Y0076287D02*
X0309251Y0076287D01*
X0309251Y0077071D02*
X0308657Y0077071D01*
X0308657Y0077855D02*
X0309251Y0077855D01*
X0309251Y0078639D02*
X0308657Y0078639D01*
X0308657Y0056412D02*
X0309251Y0056412D01*
X0308657Y0056412D02*
X0308657Y0060352D01*
X0309251Y0060352D01*
X0309251Y0056412D01*
X0309251Y0057196D02*
X0308657Y0057196D01*
X0308657Y0057980D02*
X0309251Y0057980D01*
X0309251Y0058764D02*
X0308657Y0058764D01*
X0308657Y0059548D02*
X0309251Y0059548D01*
X0309251Y0060332D02*
X0308657Y0060332D01*
X0311157Y0056412D02*
X0311751Y0056412D01*
X0311157Y0056412D02*
X0311157Y0060352D01*
X0311751Y0060352D01*
X0311751Y0056412D01*
X0311751Y0057196D02*
X0311157Y0057196D01*
X0311157Y0057980D02*
X0311751Y0057980D01*
X0311751Y0058764D02*
X0311157Y0058764D01*
X0311157Y0059548D02*
X0311751Y0059548D01*
X0311751Y0060332D02*
X0311157Y0060332D01*
X0313657Y0056412D02*
X0314251Y0056412D01*
X0313657Y0056412D02*
X0313657Y0060352D01*
X0314251Y0060352D01*
X0314251Y0056412D01*
X0314251Y0057196D02*
X0313657Y0057196D01*
X0313657Y0057980D02*
X0314251Y0057980D01*
X0314251Y0058764D02*
X0313657Y0058764D01*
X0313657Y0059548D02*
X0314251Y0059548D01*
X0314251Y0060332D02*
X0313657Y0060332D01*
X0316157Y0056412D02*
X0316751Y0056412D01*
X0316157Y0056412D02*
X0316157Y0060352D01*
X0316751Y0060352D01*
X0316751Y0056412D01*
X0316751Y0057196D02*
X0316157Y0057196D01*
X0316157Y0057980D02*
X0316751Y0057980D01*
X0316751Y0058764D02*
X0316157Y0058764D01*
X0316157Y0059548D02*
X0316751Y0059548D01*
X0316751Y0060332D02*
X0316157Y0060332D01*
X0143523Y0056412D02*
X0142929Y0056412D01*
X0142929Y0060352D01*
X0143523Y0060352D01*
X0143523Y0056412D01*
X0143523Y0057196D02*
X0142929Y0057196D01*
X0142929Y0057980D02*
X0143523Y0057980D01*
X0143523Y0058764D02*
X0142929Y0058764D01*
X0142929Y0059548D02*
X0143523Y0059548D01*
X0143523Y0060332D02*
X0142929Y0060332D01*
X0141023Y0056412D02*
X0140429Y0056412D01*
X0140429Y0060352D01*
X0141023Y0060352D01*
X0141023Y0056412D01*
X0141023Y0057196D02*
X0140429Y0057196D01*
X0140429Y0057980D02*
X0141023Y0057980D01*
X0141023Y0058764D02*
X0140429Y0058764D01*
X0140429Y0059548D02*
X0141023Y0059548D01*
X0141023Y0060332D02*
X0140429Y0060332D01*
X0138523Y0056412D02*
X0137929Y0056412D01*
X0137929Y0060352D01*
X0138523Y0060352D01*
X0138523Y0056412D01*
X0138523Y0057196D02*
X0137929Y0057196D01*
X0137929Y0057980D02*
X0138523Y0057980D01*
X0138523Y0058764D02*
X0137929Y0058764D01*
X0137929Y0059548D02*
X0138523Y0059548D01*
X0138523Y0060332D02*
X0137929Y0060332D01*
X0136023Y0056412D02*
X0135429Y0056412D01*
X0135429Y0060352D01*
X0136023Y0060352D01*
X0136023Y0056412D01*
X0136023Y0057196D02*
X0135429Y0057196D01*
X0135429Y0057980D02*
X0136023Y0057980D01*
X0136023Y0058764D02*
X0135429Y0058764D01*
X0135429Y0059548D02*
X0136023Y0059548D01*
X0136023Y0060332D02*
X0135429Y0060332D01*
X0135429Y0074719D02*
X0136023Y0074719D01*
X0135429Y0074719D02*
X0135429Y0078659D01*
X0136023Y0078659D01*
X0136023Y0074719D01*
X0136023Y0075503D02*
X0135429Y0075503D01*
X0135429Y0076287D02*
X0136023Y0076287D01*
X0136023Y0077071D02*
X0135429Y0077071D01*
X0135429Y0077855D02*
X0136023Y0077855D01*
X0136023Y0078639D02*
X0135429Y0078639D01*
X0137929Y0074719D02*
X0138523Y0074719D01*
X0137929Y0074719D02*
X0137929Y0078659D01*
X0138523Y0078659D01*
X0138523Y0074719D01*
X0138523Y0075503D02*
X0137929Y0075503D01*
X0137929Y0076287D02*
X0138523Y0076287D01*
X0138523Y0077071D02*
X0137929Y0077071D01*
X0137929Y0077855D02*
X0138523Y0077855D01*
X0138523Y0078639D02*
X0137929Y0078639D01*
X0140429Y0074719D02*
X0141023Y0074719D01*
X0140429Y0074719D02*
X0140429Y0078659D01*
X0141023Y0078659D01*
X0141023Y0074719D01*
X0141023Y0075503D02*
X0140429Y0075503D01*
X0140429Y0076287D02*
X0141023Y0076287D01*
X0141023Y0077071D02*
X0140429Y0077071D01*
X0140429Y0077855D02*
X0141023Y0077855D01*
X0141023Y0078639D02*
X0140429Y0078639D01*
X0142929Y0074719D02*
X0143523Y0074719D01*
X0142929Y0074719D02*
X0142929Y0078659D01*
X0143523Y0078659D01*
X0143523Y0074719D01*
X0143523Y0075503D02*
X0142929Y0075503D01*
X0142929Y0076287D02*
X0143523Y0076287D01*
X0143523Y0077071D02*
X0142929Y0077071D01*
X0142929Y0077855D02*
X0143523Y0077855D01*
X0143523Y0078639D02*
X0142929Y0078639D01*
X0142929Y0229640D02*
X0143523Y0229640D01*
X0142929Y0229640D02*
X0142929Y0233580D01*
X0143523Y0233580D01*
X0143523Y0229640D01*
X0143523Y0230424D02*
X0142929Y0230424D01*
X0142929Y0231208D02*
X0143523Y0231208D01*
X0143523Y0231992D02*
X0142929Y0231992D01*
X0142929Y0232776D02*
X0143523Y0232776D01*
X0143523Y0233560D02*
X0142929Y0233560D01*
X0141023Y0229640D02*
X0140429Y0229640D01*
X0140429Y0233580D01*
X0141023Y0233580D01*
X0141023Y0229640D01*
X0141023Y0230424D02*
X0140429Y0230424D01*
X0140429Y0231208D02*
X0141023Y0231208D01*
X0141023Y0231992D02*
X0140429Y0231992D01*
X0140429Y0232776D02*
X0141023Y0232776D01*
X0141023Y0233560D02*
X0140429Y0233560D01*
X0138523Y0229640D02*
X0137929Y0229640D01*
X0137929Y0233580D01*
X0138523Y0233580D01*
X0138523Y0229640D01*
X0138523Y0230424D02*
X0137929Y0230424D01*
X0137929Y0231208D02*
X0138523Y0231208D01*
X0138523Y0231992D02*
X0137929Y0231992D01*
X0137929Y0232776D02*
X0138523Y0232776D01*
X0138523Y0233560D02*
X0137929Y0233560D01*
X0136023Y0229640D02*
X0135429Y0229640D01*
X0135429Y0233580D01*
X0136023Y0233580D01*
X0136023Y0229640D01*
X0136023Y0230424D02*
X0135429Y0230424D01*
X0135429Y0231208D02*
X0136023Y0231208D01*
X0136023Y0231992D02*
X0135429Y0231992D01*
X0135429Y0232776D02*
X0136023Y0232776D01*
X0136023Y0233560D02*
X0135429Y0233560D01*
X0135429Y0247947D02*
X0136023Y0247947D01*
X0135429Y0247947D02*
X0135429Y0251887D01*
X0136023Y0251887D01*
X0136023Y0247947D01*
X0136023Y0248731D02*
X0135429Y0248731D01*
X0135429Y0249515D02*
X0136023Y0249515D01*
X0136023Y0250299D02*
X0135429Y0250299D01*
X0135429Y0251083D02*
X0136023Y0251083D01*
X0136023Y0251867D02*
X0135429Y0251867D01*
X0137929Y0247947D02*
X0138523Y0247947D01*
X0137929Y0247947D02*
X0137929Y0251887D01*
X0138523Y0251887D01*
X0138523Y0247947D01*
X0138523Y0248731D02*
X0137929Y0248731D01*
X0137929Y0249515D02*
X0138523Y0249515D01*
X0138523Y0250299D02*
X0137929Y0250299D01*
X0137929Y0251083D02*
X0138523Y0251083D01*
X0138523Y0251867D02*
X0137929Y0251867D01*
X0140429Y0247947D02*
X0141023Y0247947D01*
X0140429Y0247947D02*
X0140429Y0251887D01*
X0141023Y0251887D01*
X0141023Y0247947D01*
X0141023Y0248731D02*
X0140429Y0248731D01*
X0140429Y0249515D02*
X0141023Y0249515D01*
X0141023Y0250299D02*
X0140429Y0250299D01*
X0140429Y0251083D02*
X0141023Y0251083D01*
X0141023Y0251867D02*
X0140429Y0251867D01*
X0142929Y0247947D02*
X0143523Y0247947D01*
X0142929Y0247947D02*
X0142929Y0251887D01*
X0143523Y0251887D01*
X0143523Y0247947D01*
X0143523Y0248731D02*
X0142929Y0248731D01*
X0142929Y0249515D02*
X0143523Y0249515D01*
X0143523Y0250299D02*
X0142929Y0250299D01*
X0142929Y0251083D02*
X0143523Y0251083D01*
X0143523Y0251867D02*
X0142929Y0251867D01*
D16*
X0141858Y0259050D02*
X0138274Y0259050D01*
X0138274Y0263422D01*
X0141858Y0263422D01*
X0141858Y0259050D01*
X0141858Y0260584D02*
X0138274Y0260584D01*
X0138274Y0262118D02*
X0141858Y0262118D01*
X0134378Y0259050D02*
X0130794Y0259050D01*
X0130794Y0263422D01*
X0134378Y0263422D01*
X0134378Y0259050D01*
X0134378Y0260584D02*
X0130794Y0260584D01*
X0130794Y0262118D02*
X0134378Y0262118D01*
X0124535Y0281097D02*
X0120951Y0281097D01*
X0120951Y0285469D01*
X0124535Y0285469D01*
X0124535Y0281097D01*
X0124535Y0282631D02*
X0120951Y0282631D01*
X0120951Y0284165D02*
X0124535Y0284165D01*
X0117055Y0281097D02*
X0113471Y0281097D01*
X0113471Y0285469D01*
X0117055Y0285469D01*
X0117055Y0281097D01*
X0117055Y0282631D02*
X0113471Y0282631D01*
X0113471Y0284165D02*
X0117055Y0284165D01*
X0117055Y0292121D02*
X0113471Y0292121D01*
X0113471Y0296493D01*
X0117055Y0296493D01*
X0117055Y0292121D01*
X0117055Y0293655D02*
X0113471Y0293655D01*
X0113471Y0295189D02*
X0117055Y0295189D01*
X0120951Y0292121D02*
X0124535Y0292121D01*
X0120951Y0292121D02*
X0120951Y0296493D01*
X0124535Y0296493D01*
X0124535Y0292121D01*
X0124535Y0293655D02*
X0120951Y0293655D01*
X0120951Y0295189D02*
X0124535Y0295189D01*
X0137093Y0218893D02*
X0140677Y0218893D01*
X0137093Y0218893D02*
X0137093Y0223265D01*
X0140677Y0223265D01*
X0140677Y0218893D01*
X0140677Y0220427D02*
X0137093Y0220427D01*
X0137093Y0221961D02*
X0140677Y0221961D01*
X0144574Y0218893D02*
X0148158Y0218893D01*
X0144574Y0218893D02*
X0144574Y0223265D01*
X0148158Y0223265D01*
X0148158Y0218893D01*
X0148158Y0220427D02*
X0144574Y0220427D01*
X0144574Y0221961D02*
X0148158Y0221961D01*
X0148158Y0210231D02*
X0144574Y0210231D01*
X0144574Y0214603D01*
X0148158Y0214603D01*
X0148158Y0210231D01*
X0148158Y0211765D02*
X0144574Y0211765D01*
X0144574Y0213299D02*
X0148158Y0213299D01*
X0140677Y0210231D02*
X0137093Y0210231D01*
X0137093Y0214603D01*
X0140677Y0214603D01*
X0140677Y0210231D01*
X0140677Y0211765D02*
X0137093Y0211765D01*
X0137093Y0213299D02*
X0140677Y0213299D01*
X0210166Y0211650D02*
X0210166Y0208066D01*
X0205794Y0208066D01*
X0205794Y0211650D01*
X0210166Y0211650D01*
X0210166Y0209600D02*
X0205794Y0209600D01*
X0205794Y0211134D02*
X0210166Y0211134D01*
X0210166Y0204170D02*
X0210166Y0200586D01*
X0205794Y0200586D01*
X0205794Y0204170D01*
X0210166Y0204170D01*
X0210166Y0202120D02*
X0205794Y0202120D01*
X0205794Y0203654D02*
X0210166Y0203654D01*
X0286700Y0281097D02*
X0290284Y0281097D01*
X0286700Y0281097D02*
X0286700Y0285469D01*
X0290284Y0285469D01*
X0290284Y0281097D01*
X0290284Y0282631D02*
X0286700Y0282631D01*
X0286700Y0284165D02*
X0290284Y0284165D01*
X0294180Y0281097D02*
X0297764Y0281097D01*
X0294180Y0281097D02*
X0294180Y0285469D01*
X0297764Y0285469D01*
X0297764Y0281097D01*
X0297764Y0282631D02*
X0294180Y0282631D01*
X0294180Y0284165D02*
X0297764Y0284165D01*
X0297764Y0292121D02*
X0294180Y0292121D01*
X0294180Y0296493D01*
X0297764Y0296493D01*
X0297764Y0292121D01*
X0297764Y0293655D02*
X0294180Y0293655D01*
X0294180Y0295189D02*
X0297764Y0295189D01*
X0290284Y0292121D02*
X0286700Y0292121D01*
X0286700Y0296493D01*
X0290284Y0296493D01*
X0290284Y0292121D01*
X0290284Y0293655D02*
X0286700Y0293655D01*
X0286700Y0295189D02*
X0290284Y0295189D01*
X0304022Y0259050D02*
X0307606Y0259050D01*
X0304022Y0259050D02*
X0304022Y0263422D01*
X0307606Y0263422D01*
X0307606Y0259050D01*
X0307606Y0260584D02*
X0304022Y0260584D01*
X0304022Y0262118D02*
X0307606Y0262118D01*
X0311503Y0259050D02*
X0315087Y0259050D01*
X0311503Y0259050D02*
X0311503Y0263422D01*
X0315087Y0263422D01*
X0315087Y0259050D01*
X0315087Y0260584D02*
X0311503Y0260584D01*
X0311503Y0262118D02*
X0315087Y0262118D01*
X0313906Y0218893D02*
X0310322Y0218893D01*
X0310322Y0223265D01*
X0313906Y0223265D01*
X0313906Y0218893D01*
X0313906Y0220427D02*
X0310322Y0220427D01*
X0310322Y0221961D02*
X0313906Y0221961D01*
X0317802Y0218893D02*
X0321386Y0218893D01*
X0317802Y0218893D02*
X0317802Y0223265D01*
X0321386Y0223265D01*
X0321386Y0218893D01*
X0321386Y0220427D02*
X0317802Y0220427D01*
X0317802Y0221961D02*
X0321386Y0221961D01*
X0321386Y0210231D02*
X0317802Y0210231D01*
X0317802Y0214603D01*
X0321386Y0214603D01*
X0321386Y0210231D01*
X0321386Y0211765D02*
X0317802Y0211765D01*
X0317802Y0213299D02*
X0321386Y0213299D01*
X0313906Y0210231D02*
X0310322Y0210231D01*
X0310322Y0214603D01*
X0313906Y0214603D01*
X0313906Y0210231D01*
X0313906Y0211765D02*
X0310322Y0211765D01*
X0310322Y0213299D02*
X0313906Y0213299D01*
X0297764Y0118893D02*
X0294180Y0118893D01*
X0294180Y0123265D01*
X0297764Y0123265D01*
X0297764Y0118893D01*
X0297764Y0120427D02*
X0294180Y0120427D01*
X0294180Y0121961D02*
X0297764Y0121961D01*
X0290284Y0118893D02*
X0286700Y0118893D01*
X0286700Y0123265D01*
X0290284Y0123265D01*
X0290284Y0118893D01*
X0290284Y0120427D02*
X0286700Y0120427D01*
X0286700Y0121961D02*
X0290284Y0121961D01*
X0290284Y0107869D02*
X0286700Y0107869D01*
X0286700Y0112241D01*
X0290284Y0112241D01*
X0290284Y0107869D01*
X0290284Y0109403D02*
X0286700Y0109403D01*
X0286700Y0110937D02*
X0290284Y0110937D01*
X0294180Y0107869D02*
X0297764Y0107869D01*
X0294180Y0107869D02*
X0294180Y0112241D01*
X0297764Y0112241D01*
X0297764Y0107869D01*
X0297764Y0109403D02*
X0294180Y0109403D01*
X0294180Y0110937D02*
X0297764Y0110937D01*
X0304022Y0085822D02*
X0307606Y0085822D01*
X0304022Y0085822D02*
X0304022Y0090194D01*
X0307606Y0090194D01*
X0307606Y0085822D01*
X0307606Y0087356D02*
X0304022Y0087356D01*
X0304022Y0088890D02*
X0307606Y0088890D01*
X0311503Y0085822D02*
X0315087Y0085822D01*
X0311503Y0085822D02*
X0311503Y0090194D01*
X0315087Y0090194D01*
X0315087Y0085822D01*
X0315087Y0087356D02*
X0311503Y0087356D01*
X0311503Y0088890D02*
X0315087Y0088890D01*
X0313906Y0045664D02*
X0310322Y0045664D01*
X0310322Y0050036D01*
X0313906Y0050036D01*
X0313906Y0045664D01*
X0313906Y0047198D02*
X0310322Y0047198D01*
X0310322Y0048732D02*
X0313906Y0048732D01*
X0317802Y0045664D02*
X0321386Y0045664D01*
X0317802Y0045664D02*
X0317802Y0050036D01*
X0321386Y0050036D01*
X0321386Y0045664D01*
X0321386Y0047198D02*
X0317802Y0047198D01*
X0317802Y0048732D02*
X0321386Y0048732D01*
X0321386Y0037003D02*
X0317802Y0037003D01*
X0317802Y0041375D01*
X0321386Y0041375D01*
X0321386Y0037003D01*
X0321386Y0038537D02*
X0317802Y0038537D01*
X0317802Y0040071D02*
X0321386Y0040071D01*
X0313906Y0037003D02*
X0310322Y0037003D01*
X0310322Y0041375D01*
X0313906Y0041375D01*
X0313906Y0037003D01*
X0313906Y0038537D02*
X0310322Y0038537D01*
X0310322Y0040071D02*
X0313906Y0040071D01*
X0210166Y0038422D02*
X0210166Y0034838D01*
X0205794Y0034838D01*
X0205794Y0038422D01*
X0210166Y0038422D01*
X0210166Y0036372D02*
X0205794Y0036372D01*
X0205794Y0037906D02*
X0210166Y0037906D01*
X0210166Y0030942D02*
X0210166Y0027358D01*
X0205794Y0027358D01*
X0205794Y0030942D01*
X0210166Y0030942D01*
X0210166Y0028892D02*
X0205794Y0028892D01*
X0205794Y0030426D02*
X0210166Y0030426D01*
X0148158Y0037003D02*
X0144574Y0037003D01*
X0144574Y0041375D01*
X0148158Y0041375D01*
X0148158Y0037003D01*
X0148158Y0038537D02*
X0144574Y0038537D01*
X0144574Y0040071D02*
X0148158Y0040071D01*
X0148158Y0045664D02*
X0144574Y0045664D01*
X0144574Y0050036D01*
X0148158Y0050036D01*
X0148158Y0045664D01*
X0148158Y0047198D02*
X0144574Y0047198D01*
X0144574Y0048732D02*
X0148158Y0048732D01*
X0140677Y0045664D02*
X0137093Y0045664D01*
X0137093Y0050036D01*
X0140677Y0050036D01*
X0140677Y0045664D01*
X0140677Y0047198D02*
X0137093Y0047198D01*
X0137093Y0048732D02*
X0140677Y0048732D01*
X0140677Y0037003D02*
X0137093Y0037003D01*
X0137093Y0041375D01*
X0140677Y0041375D01*
X0140677Y0037003D01*
X0140677Y0038537D02*
X0137093Y0038537D01*
X0137093Y0040071D02*
X0140677Y0040071D01*
X0141858Y0085822D02*
X0138274Y0085822D01*
X0138274Y0090194D01*
X0141858Y0090194D01*
X0141858Y0085822D01*
X0141858Y0087356D02*
X0138274Y0087356D01*
X0138274Y0088890D02*
X0141858Y0088890D01*
X0134378Y0085822D02*
X0130794Y0085822D01*
X0130794Y0090194D01*
X0134378Y0090194D01*
X0134378Y0085822D01*
X0134378Y0087356D02*
X0130794Y0087356D01*
X0130794Y0088890D02*
X0134378Y0088890D01*
X0124535Y0107869D02*
X0120951Y0107869D01*
X0120951Y0112241D01*
X0124535Y0112241D01*
X0124535Y0107869D01*
X0124535Y0109403D02*
X0120951Y0109403D01*
X0120951Y0110937D02*
X0124535Y0110937D01*
X0117055Y0107869D02*
X0113471Y0107869D01*
X0113471Y0112241D01*
X0117055Y0112241D01*
X0117055Y0107869D01*
X0117055Y0109403D02*
X0113471Y0109403D01*
X0113471Y0110937D02*
X0117055Y0110937D01*
X0117055Y0118893D02*
X0113471Y0118893D01*
X0113471Y0123265D01*
X0117055Y0123265D01*
X0117055Y0118893D01*
X0117055Y0120427D02*
X0113471Y0120427D01*
X0113471Y0121961D02*
X0117055Y0121961D01*
X0120951Y0118893D02*
X0124535Y0118893D01*
X0120951Y0118893D02*
X0120951Y0123265D01*
X0124535Y0123265D01*
X0124535Y0118893D01*
X0124535Y0120427D02*
X0120951Y0120427D01*
X0120951Y0121961D02*
X0124535Y0121961D01*
X0036937Y0200586D02*
X0036937Y0204170D01*
X0036937Y0200586D02*
X0032565Y0200586D01*
X0032565Y0204170D01*
X0036937Y0204170D01*
X0036937Y0202120D02*
X0032565Y0202120D01*
X0032565Y0203654D02*
X0036937Y0203654D01*
X0036937Y0208066D02*
X0036937Y0211650D01*
X0036937Y0208066D02*
X0032565Y0208066D01*
X0032565Y0211650D01*
X0036937Y0211650D01*
X0036937Y0209600D02*
X0032565Y0209600D01*
X0032565Y0211134D02*
X0036937Y0211134D01*
X0036937Y0038422D02*
X0036937Y0034838D01*
X0032565Y0034838D01*
X0032565Y0038422D01*
X0036937Y0038422D01*
X0036937Y0036372D02*
X0032565Y0036372D01*
X0032565Y0037906D02*
X0036937Y0037906D01*
X0036937Y0030942D02*
X0036937Y0027358D01*
X0032565Y0027358D01*
X0032565Y0030942D01*
X0036937Y0030942D01*
X0036937Y0028892D02*
X0032565Y0028892D01*
X0032565Y0030426D02*
X0036937Y0030426D01*
D17*
X0088197Y0089697D02*
X0088197Y0092917D01*
X0093117Y0092917D01*
X0093117Y0089697D01*
X0088197Y0089697D01*
X0088197Y0091076D02*
X0093117Y0091076D01*
X0093117Y0092455D02*
X0088197Y0092455D01*
X0088197Y0095697D02*
X0088197Y0098917D01*
X0093117Y0098917D01*
X0093117Y0095697D01*
X0088197Y0095697D01*
X0088197Y0097076D02*
X0093117Y0097076D01*
X0093117Y0098455D02*
X0088197Y0098455D01*
X0088197Y0262925D02*
X0088197Y0266145D01*
X0093117Y0266145D01*
X0093117Y0262925D01*
X0088197Y0262925D01*
X0088197Y0264304D02*
X0093117Y0264304D01*
X0093117Y0265683D02*
X0088197Y0265683D01*
X0088197Y0268925D02*
X0088197Y0272145D01*
X0093117Y0272145D01*
X0093117Y0268925D01*
X0088197Y0268925D01*
X0088197Y0270304D02*
X0093117Y0270304D01*
X0093117Y0271683D02*
X0088197Y0271683D01*
X0261425Y0272145D02*
X0261425Y0268925D01*
X0261425Y0272145D02*
X0266345Y0272145D01*
X0266345Y0268925D01*
X0261425Y0268925D01*
X0261425Y0270304D02*
X0266345Y0270304D01*
X0266345Y0271683D02*
X0261425Y0271683D01*
X0261425Y0266145D02*
X0261425Y0262925D01*
X0261425Y0266145D02*
X0266345Y0266145D01*
X0266345Y0262925D01*
X0261425Y0262925D01*
X0261425Y0264304D02*
X0266345Y0264304D01*
X0266345Y0265683D02*
X0261425Y0265683D01*
X0261425Y0098917D02*
X0261425Y0095697D01*
X0261425Y0098917D02*
X0266345Y0098917D01*
X0266345Y0095697D01*
X0261425Y0095697D01*
X0261425Y0097076D02*
X0266345Y0097076D01*
X0266345Y0098455D02*
X0261425Y0098455D01*
X0261425Y0092917D02*
X0261425Y0089697D01*
X0261425Y0092917D02*
X0266345Y0092917D01*
X0266345Y0089697D01*
X0261425Y0089697D01*
X0261425Y0091076D02*
X0266345Y0091076D01*
X0266345Y0092455D02*
X0261425Y0092455D01*
D18*
X0275696Y0089780D02*
X0275696Y0088598D01*
X0275696Y0089780D02*
X0276878Y0089780D01*
X0276878Y0088598D01*
X0275696Y0088598D01*
X0275696Y0089384D02*
X0276878Y0089384D01*
X0275696Y0085843D02*
X0275696Y0084661D01*
X0275696Y0085843D02*
X0276878Y0085843D01*
X0276878Y0084661D01*
X0275696Y0084661D01*
X0275696Y0085447D02*
X0276878Y0085447D01*
X0280814Y0086629D02*
X0280814Y0087811D01*
X0281996Y0087811D01*
X0281996Y0086629D01*
X0280814Y0086629D01*
X0280814Y0087415D02*
X0281996Y0087415D01*
X0281602Y0144799D02*
X0280814Y0144799D01*
X0281602Y0144799D02*
X0281602Y0140271D01*
X0280814Y0140271D01*
X0280814Y0144799D01*
X0280814Y0141057D02*
X0281602Y0141057D01*
X0281602Y0141843D02*
X0280814Y0141843D01*
X0280814Y0142629D02*
X0281602Y0142629D01*
X0281602Y0143415D02*
X0280814Y0143415D01*
X0280814Y0144201D02*
X0281602Y0144201D01*
X0283373Y0144799D02*
X0284161Y0144799D01*
X0284161Y0140271D01*
X0283373Y0140271D01*
X0283373Y0144799D01*
X0283373Y0141057D02*
X0284161Y0141057D01*
X0284161Y0141843D02*
X0283373Y0141843D01*
X0283373Y0142629D02*
X0284161Y0142629D01*
X0284161Y0143415D02*
X0283373Y0143415D01*
X0283373Y0144201D02*
X0284161Y0144201D01*
X0285932Y0144799D02*
X0286720Y0144799D01*
X0286720Y0140271D01*
X0285932Y0140271D01*
X0285932Y0144799D01*
X0285932Y0141057D02*
X0286720Y0141057D01*
X0286720Y0141843D02*
X0285932Y0141843D01*
X0285932Y0142629D02*
X0286720Y0142629D01*
X0286720Y0143415D02*
X0285932Y0143415D01*
X0285932Y0144201D02*
X0286720Y0144201D01*
X0279043Y0144799D02*
X0278255Y0144799D01*
X0279043Y0144799D02*
X0279043Y0140271D01*
X0278255Y0140271D01*
X0278255Y0144799D01*
X0278255Y0141057D02*
X0279043Y0141057D01*
X0279043Y0141843D02*
X0278255Y0141843D01*
X0278255Y0142629D02*
X0279043Y0142629D01*
X0279043Y0143415D02*
X0278255Y0143415D01*
X0278255Y0144201D02*
X0279043Y0144201D01*
X0276484Y0144799D02*
X0275696Y0144799D01*
X0276484Y0144799D02*
X0276484Y0140271D01*
X0275696Y0140271D01*
X0275696Y0144799D01*
X0275696Y0141057D02*
X0276484Y0141057D01*
X0276484Y0141843D02*
X0275696Y0141843D01*
X0275696Y0142629D02*
X0276484Y0142629D01*
X0276484Y0143415D02*
X0275696Y0143415D01*
X0275696Y0144201D02*
X0276484Y0144201D01*
X0260933Y0186433D02*
X0259751Y0186433D01*
X0259751Y0187615D01*
X0260933Y0187615D01*
X0260933Y0186433D01*
X0260933Y0187219D02*
X0259751Y0187219D01*
X0256996Y0186433D02*
X0255814Y0186433D01*
X0255814Y0187615D01*
X0256996Y0187615D01*
X0256996Y0186433D01*
X0256996Y0187219D02*
X0255814Y0187219D01*
X0257782Y0191551D02*
X0258964Y0191551D01*
X0257782Y0191551D02*
X0257782Y0192733D01*
X0258964Y0192733D01*
X0258964Y0191551D01*
X0258964Y0192337D02*
X0257782Y0192337D01*
X0275696Y0257889D02*
X0275696Y0259071D01*
X0276878Y0259071D01*
X0276878Y0257889D01*
X0275696Y0257889D01*
X0275696Y0258675D02*
X0276878Y0258675D01*
X0275696Y0261826D02*
X0275696Y0263008D01*
X0276878Y0263008D01*
X0276878Y0261826D01*
X0275696Y0261826D01*
X0275696Y0262612D02*
X0276878Y0262612D01*
X0280814Y0261040D02*
X0280814Y0259858D01*
X0280814Y0261040D02*
X0281996Y0261040D01*
X0281996Y0259858D01*
X0280814Y0259858D01*
X0280814Y0260644D02*
X0281996Y0260644D01*
X0281602Y0318028D02*
X0280814Y0318028D01*
X0281602Y0318028D02*
X0281602Y0313500D01*
X0280814Y0313500D01*
X0280814Y0318028D01*
X0280814Y0314286D02*
X0281602Y0314286D01*
X0281602Y0315072D02*
X0280814Y0315072D01*
X0280814Y0315858D02*
X0281602Y0315858D01*
X0281602Y0316644D02*
X0280814Y0316644D01*
X0280814Y0317430D02*
X0281602Y0317430D01*
X0283373Y0318028D02*
X0284161Y0318028D01*
X0284161Y0313500D01*
X0283373Y0313500D01*
X0283373Y0318028D01*
X0283373Y0314286D02*
X0284161Y0314286D01*
X0284161Y0315072D02*
X0283373Y0315072D01*
X0283373Y0315858D02*
X0284161Y0315858D01*
X0284161Y0316644D02*
X0283373Y0316644D01*
X0283373Y0317430D02*
X0284161Y0317430D01*
X0285932Y0318028D02*
X0286720Y0318028D01*
X0286720Y0313500D01*
X0285932Y0313500D01*
X0285932Y0318028D01*
X0285932Y0314286D02*
X0286720Y0314286D01*
X0286720Y0315072D02*
X0285932Y0315072D01*
X0285932Y0315858D02*
X0286720Y0315858D01*
X0286720Y0316644D02*
X0285932Y0316644D01*
X0285932Y0317430D02*
X0286720Y0317430D01*
X0279043Y0318028D02*
X0278255Y0318028D01*
X0279043Y0318028D02*
X0279043Y0313500D01*
X0278255Y0313500D01*
X0278255Y0318028D01*
X0278255Y0314286D02*
X0279043Y0314286D01*
X0279043Y0315072D02*
X0278255Y0315072D01*
X0278255Y0315858D02*
X0279043Y0315858D01*
X0279043Y0316644D02*
X0278255Y0316644D01*
X0278255Y0317430D02*
X0279043Y0317430D01*
X0276484Y0318028D02*
X0275696Y0318028D01*
X0276484Y0318028D02*
X0276484Y0313500D01*
X0275696Y0313500D01*
X0275696Y0318028D01*
X0275696Y0314286D02*
X0276484Y0314286D01*
X0276484Y0315072D02*
X0275696Y0315072D01*
X0275696Y0315858D02*
X0276484Y0315858D01*
X0276484Y0316644D02*
X0275696Y0316644D01*
X0275696Y0317430D02*
X0276484Y0317430D01*
X0113492Y0318028D02*
X0112704Y0318028D01*
X0113492Y0318028D02*
X0113492Y0313500D01*
X0112704Y0313500D01*
X0112704Y0318028D01*
X0112704Y0314286D02*
X0113492Y0314286D01*
X0113492Y0315072D02*
X0112704Y0315072D01*
X0112704Y0315858D02*
X0113492Y0315858D01*
X0113492Y0316644D02*
X0112704Y0316644D01*
X0112704Y0317430D02*
X0113492Y0317430D01*
X0110933Y0318028D02*
X0110145Y0318028D01*
X0110933Y0318028D02*
X0110933Y0313500D01*
X0110145Y0313500D01*
X0110145Y0318028D01*
X0110145Y0314286D02*
X0110933Y0314286D01*
X0110933Y0315072D02*
X0110145Y0315072D01*
X0110145Y0315858D02*
X0110933Y0315858D01*
X0110933Y0316644D02*
X0110145Y0316644D01*
X0110145Y0317430D02*
X0110933Y0317430D01*
X0108374Y0318028D02*
X0107586Y0318028D01*
X0108374Y0318028D02*
X0108374Y0313500D01*
X0107586Y0313500D01*
X0107586Y0318028D01*
X0107586Y0314286D02*
X0108374Y0314286D01*
X0108374Y0315072D02*
X0107586Y0315072D01*
X0107586Y0315858D02*
X0108374Y0315858D01*
X0108374Y0316644D02*
X0107586Y0316644D01*
X0107586Y0317430D02*
X0108374Y0317430D01*
X0105815Y0318028D02*
X0105027Y0318028D01*
X0105815Y0318028D02*
X0105815Y0313500D01*
X0105027Y0313500D01*
X0105027Y0318028D01*
X0105027Y0314286D02*
X0105815Y0314286D01*
X0105815Y0315072D02*
X0105027Y0315072D01*
X0105027Y0315858D02*
X0105815Y0315858D01*
X0105815Y0316644D02*
X0105027Y0316644D01*
X0105027Y0317430D02*
X0105815Y0317430D01*
X0103256Y0318028D02*
X0102468Y0318028D01*
X0103256Y0318028D02*
X0103256Y0313500D01*
X0102468Y0313500D01*
X0102468Y0318028D01*
X0102468Y0314286D02*
X0103256Y0314286D01*
X0103256Y0315072D02*
X0102468Y0315072D01*
X0102468Y0315858D02*
X0103256Y0315858D01*
X0103256Y0316644D02*
X0102468Y0316644D01*
X0102468Y0317430D02*
X0103256Y0317430D01*
X0102467Y0263008D02*
X0102467Y0261826D01*
X0102467Y0263008D02*
X0103649Y0263008D01*
X0103649Y0261826D01*
X0102467Y0261826D01*
X0102467Y0262612D02*
X0103649Y0262612D01*
X0102467Y0259071D02*
X0102467Y0257889D01*
X0102467Y0259071D02*
X0103649Y0259071D01*
X0103649Y0257889D01*
X0102467Y0257889D01*
X0102467Y0258675D02*
X0103649Y0258675D01*
X0107586Y0259858D02*
X0107586Y0261040D01*
X0108768Y0261040D01*
X0108768Y0259858D01*
X0107586Y0259858D01*
X0107586Y0260644D02*
X0108768Y0260644D01*
X0085736Y0191551D02*
X0084554Y0191551D01*
X0084554Y0192733D01*
X0085736Y0192733D01*
X0085736Y0191551D01*
X0085736Y0192337D02*
X0084554Y0192337D01*
X0083768Y0186433D02*
X0082586Y0186433D01*
X0082586Y0187615D01*
X0083768Y0187615D01*
X0083768Y0186433D01*
X0083768Y0187219D02*
X0082586Y0187219D01*
X0086523Y0186433D02*
X0087705Y0186433D01*
X0086523Y0186433D02*
X0086523Y0187615D01*
X0087705Y0187615D01*
X0087705Y0186433D01*
X0087705Y0187219D02*
X0086523Y0187219D01*
X0102468Y0144799D02*
X0103256Y0144799D01*
X0103256Y0140271D01*
X0102468Y0140271D01*
X0102468Y0144799D01*
X0102468Y0141057D02*
X0103256Y0141057D01*
X0103256Y0141843D02*
X0102468Y0141843D01*
X0102468Y0142629D02*
X0103256Y0142629D01*
X0103256Y0143415D02*
X0102468Y0143415D01*
X0102468Y0144201D02*
X0103256Y0144201D01*
X0105027Y0144799D02*
X0105815Y0144799D01*
X0105815Y0140271D01*
X0105027Y0140271D01*
X0105027Y0144799D01*
X0105027Y0141057D02*
X0105815Y0141057D01*
X0105815Y0141843D02*
X0105027Y0141843D01*
X0105027Y0142629D02*
X0105815Y0142629D01*
X0105815Y0143415D02*
X0105027Y0143415D01*
X0105027Y0144201D02*
X0105815Y0144201D01*
X0107586Y0144799D02*
X0108374Y0144799D01*
X0108374Y0140271D01*
X0107586Y0140271D01*
X0107586Y0144799D01*
X0107586Y0141057D02*
X0108374Y0141057D01*
X0108374Y0141843D02*
X0107586Y0141843D01*
X0107586Y0142629D02*
X0108374Y0142629D01*
X0108374Y0143415D02*
X0107586Y0143415D01*
X0107586Y0144201D02*
X0108374Y0144201D01*
X0110145Y0144799D02*
X0110933Y0144799D01*
X0110933Y0140271D01*
X0110145Y0140271D01*
X0110145Y0144799D01*
X0110145Y0141057D02*
X0110933Y0141057D01*
X0110933Y0141843D02*
X0110145Y0141843D01*
X0110145Y0142629D02*
X0110933Y0142629D01*
X0110933Y0143415D02*
X0110145Y0143415D01*
X0110145Y0144201D02*
X0110933Y0144201D01*
X0112704Y0144799D02*
X0113492Y0144799D01*
X0113492Y0140271D01*
X0112704Y0140271D01*
X0112704Y0144799D01*
X0112704Y0141057D02*
X0113492Y0141057D01*
X0113492Y0141843D02*
X0112704Y0141843D01*
X0112704Y0142629D02*
X0113492Y0142629D01*
X0113492Y0143415D02*
X0112704Y0143415D01*
X0112704Y0144201D02*
X0113492Y0144201D01*
X0102467Y0089780D02*
X0102467Y0088598D01*
X0102467Y0089780D02*
X0103649Y0089780D01*
X0103649Y0088598D01*
X0102467Y0088598D01*
X0102467Y0089384D02*
X0103649Y0089384D01*
X0102467Y0085843D02*
X0102467Y0084661D01*
X0102467Y0085843D02*
X0103649Y0085843D01*
X0103649Y0084661D01*
X0102467Y0084661D01*
X0102467Y0085447D02*
X0103649Y0085447D01*
X0107586Y0086629D02*
X0107586Y0087811D01*
X0108768Y0087811D01*
X0108768Y0086629D01*
X0107586Y0086629D01*
X0107586Y0087415D02*
X0108768Y0087415D01*
X0085736Y0018322D02*
X0084554Y0018322D01*
X0084554Y0019504D01*
X0085736Y0019504D01*
X0085736Y0018322D01*
X0085736Y0019108D02*
X0084554Y0019108D01*
X0083768Y0013204D02*
X0082586Y0013204D01*
X0082586Y0014386D01*
X0083768Y0014386D01*
X0083768Y0013204D01*
X0083768Y0013990D02*
X0082586Y0013990D01*
X0086523Y0013204D02*
X0087705Y0013204D01*
X0086523Y0013204D02*
X0086523Y0014386D01*
X0087705Y0014386D01*
X0087705Y0013204D01*
X0087705Y0013990D02*
X0086523Y0013990D01*
X0255814Y0013204D02*
X0256996Y0013204D01*
X0255814Y0013204D02*
X0255814Y0014386D01*
X0256996Y0014386D01*
X0256996Y0013204D01*
X0256996Y0013990D02*
X0255814Y0013990D01*
X0259751Y0013204D02*
X0260933Y0013204D01*
X0259751Y0013204D02*
X0259751Y0014386D01*
X0260933Y0014386D01*
X0260933Y0013204D01*
X0260933Y0013990D02*
X0259751Y0013990D01*
X0258964Y0018322D02*
X0257782Y0018322D01*
X0257782Y0019504D01*
X0258964Y0019504D01*
X0258964Y0018322D01*
X0258964Y0019108D02*
X0257782Y0019108D01*
D19*
X0265224Y0155369D02*
X0271208Y0155369D01*
X0271208Y0150961D01*
X0265224Y0150961D01*
X0265224Y0155369D01*
X0265224Y0152850D02*
X0271208Y0152850D01*
X0271208Y0154739D02*
X0265224Y0154739D01*
X0291208Y0155369D02*
X0297192Y0155369D01*
X0297192Y0150961D01*
X0291208Y0150961D01*
X0291208Y0155369D01*
X0291208Y0152850D02*
X0297192Y0152850D01*
X0297192Y0154739D02*
X0291208Y0154739D01*
X0123964Y0155369D02*
X0117980Y0155369D01*
X0123964Y0155369D02*
X0123964Y0150961D01*
X0117980Y0150961D01*
X0117980Y0155369D01*
X0117980Y0152850D02*
X0123964Y0152850D01*
X0123964Y0154739D02*
X0117980Y0154739D01*
X0097980Y0155369D02*
X0091996Y0155369D01*
X0097980Y0155369D02*
X0097980Y0150961D01*
X0091996Y0150961D01*
X0091996Y0155369D01*
X0091996Y0152850D02*
X0097980Y0152850D01*
X0097980Y0154739D02*
X0091996Y0154739D01*
X0091996Y0328598D02*
X0097980Y0328598D01*
X0097980Y0324190D01*
X0091996Y0324190D01*
X0091996Y0328598D01*
X0091996Y0326079D02*
X0097980Y0326079D01*
X0097980Y0327968D02*
X0091996Y0327968D01*
X0117980Y0328598D02*
X0123964Y0328598D01*
X0123964Y0324190D01*
X0117980Y0324190D01*
X0117980Y0328598D01*
X0117980Y0326079D02*
X0123964Y0326079D01*
X0123964Y0327968D02*
X0117980Y0327968D01*
X0265224Y0328598D02*
X0271208Y0328598D01*
X0271208Y0324190D01*
X0265224Y0324190D01*
X0265224Y0328598D01*
X0265224Y0326079D02*
X0271208Y0326079D01*
X0271208Y0327968D02*
X0265224Y0327968D01*
X0291208Y0328598D02*
X0297192Y0328598D01*
X0297192Y0324190D01*
X0291208Y0324190D01*
X0291208Y0328598D01*
X0291208Y0326079D02*
X0297192Y0326079D01*
X0297192Y0327968D02*
X0291208Y0327968D01*
D20*
X0315657Y0283480D02*
X0318807Y0283480D01*
X0315657Y0283480D02*
X0315657Y0286236D01*
X0318807Y0286236D01*
X0318807Y0283480D01*
X0318807Y0284660D02*
X0315657Y0284660D01*
X0315657Y0285840D02*
X0318807Y0285840D01*
X0322350Y0283480D02*
X0325500Y0283480D01*
X0322350Y0283480D02*
X0322350Y0286236D01*
X0325500Y0286236D01*
X0325500Y0283480D01*
X0325500Y0284660D02*
X0322350Y0284660D01*
X0322350Y0285840D02*
X0325500Y0285840D01*
X0325500Y0110252D02*
X0322350Y0110252D01*
X0322350Y0113008D01*
X0325500Y0113008D01*
X0325500Y0110252D01*
X0325500Y0111432D02*
X0322350Y0111432D01*
X0322350Y0112612D02*
X0325500Y0112612D01*
X0318807Y0110252D02*
X0315657Y0110252D01*
X0315657Y0113008D01*
X0318807Y0113008D01*
X0318807Y0110252D01*
X0318807Y0111432D02*
X0315657Y0111432D01*
X0315657Y0112612D02*
X0318807Y0112612D01*
X0152271Y0110252D02*
X0149121Y0110252D01*
X0149121Y0113008D01*
X0152271Y0113008D01*
X0152271Y0110252D01*
X0152271Y0111432D02*
X0149121Y0111432D01*
X0149121Y0112612D02*
X0152271Y0112612D01*
X0145578Y0110252D02*
X0142428Y0110252D01*
X0142428Y0113008D01*
X0145578Y0113008D01*
X0145578Y0110252D01*
X0145578Y0111432D02*
X0142428Y0111432D01*
X0142428Y0112612D02*
X0145578Y0112612D01*
X0145578Y0283480D02*
X0142428Y0283480D01*
X0142428Y0286236D01*
X0145578Y0286236D01*
X0145578Y0283480D01*
X0145578Y0284660D02*
X0142428Y0284660D01*
X0142428Y0285840D02*
X0145578Y0285840D01*
X0149121Y0283480D02*
X0152271Y0283480D01*
X0149121Y0283480D02*
X0149121Y0286236D01*
X0152271Y0286236D01*
X0152271Y0283480D01*
X0152271Y0284660D02*
X0149121Y0284660D01*
X0149121Y0285840D02*
X0152271Y0285840D01*
M02*
